<svg width="213" height="52" viewBox="0 0 213 52" fill="none" xmlns="http://www.w3.org/2000/svg">
<path d="M118.523 42.0285L118.776 44.5157L118.523 42.0285ZM2.7181 17.5396C1.37799 17.872 0.561025 19.2278 0.89337 20.5679L6.30924 42.4063C6.64159 43.7465 7.99738 44.5634 9.3375 44.2311C10.6776 43.8987 11.4946 42.5429 11.1622 41.2028L6.34812 21.7909L25.7601 16.9767C27.1002 16.6444 27.9172 15.2886 27.5848 13.9485C27.2525 12.6084 25.8967 11.7914 24.5566 12.1238L2.7181 17.5396ZM208.797 7.23081C206.867 5.64191 206.868 5.64078 206.869 5.63975C206.869 5.63955 206.87 5.63863 206.87 5.63823C206.871 5.63743 206.871 5.63705 206.871 5.6371C206.871 5.63718 206.87 5.63895 206.867 5.64238C206.861 5.64923 206.85 5.66272 206.832 5.68266C206.798 5.72253 206.741 5.7882 206.66 5.87819C206.499 6.05815 206.244 6.33535 205.889 6.69791C205.18 7.423 204.074 8.48964 202.53 9.80268C199.442 12.4283 194.598 16.0418 187.668 19.881C173.815 27.5554 151.575 36.1583 118.27 39.5413L118.776 44.5157C152.723 41.0674 175.62 32.2714 190.091 24.2548C197.323 20.2485 202.438 16.4435 205.769 13.6119C207.434 12.1964 208.651 11.0248 209.464 10.1938C209.87 9.77827 210.175 9.44797 210.384 9.21493C210.489 9.09841 210.569 9.00621 210.626 8.93984C210.654 8.90665 210.677 8.87993 210.694 8.85984C210.702 8.8498 210.709 8.84142 210.715 8.83473C210.718 8.83138 210.72 8.82845 210.722 8.82595C210.723 8.8247 210.725 8.82314 210.725 8.82252C210.726 8.82107 210.727 8.81972 208.797 7.23081ZM118.27 39.5413C85.0565 42.9151 56.6012 37.4672 36.4472 31.1728C26.3726 28.0263 18.3831 24.6715 12.9249 22.1107C10.1962 20.8306 8.10158 19.7495 6.69684 18.9931C5.99452 18.615 5.46479 18.318 5.11464 18.118C4.93957 18.0181 4.80941 17.9423 4.72503 17.8928C4.68284 17.868 4.6521 17.8498 4.63292 17.8384C4.62333 17.8327 4.61662 17.8287 4.61282 17.8264C4.61092 17.8253 4.60975 17.8246 4.6093 17.8243C4.60908 17.8242 4.60929 17.8243 4.60918 17.8242C4.60957 17.8245 4.61015 17.8248 3.31987 19.9661C2.02958 22.1074 2.03053 22.108 2.03165 22.1087C2.03227 22.109 2.03358 22.1098 2.03482 22.1106C2.03729 22.1121 2.0405 22.114 2.04444 22.1163C2.05232 22.1211 2.06312 22.1275 2.07684 22.1357C2.10426 22.152 2.14332 22.1751 2.19391 22.2048C2.2951 22.2642 2.4424 22.3499 2.63496 22.4598C3.02005 22.6798 3.5862 22.9969 4.32638 23.3955C5.80667 24.1926 7.98362 25.3154 10.8012 26.6373C16.4354 29.2807 24.6369 32.7224 34.9566 35.9454C55.5911 42.39 84.7374 47.9733 118.776 44.5157L118.27 39.5413Z" fill="#E5E5E5"/>
</svg>
