<svg width="326" height="55" viewBox="0 0 326 55" fill="none" xmlns="http://www.w3.org/2000/svg">
<path d="M145.117 3.43668L144.959 0.941687L145.117 3.43668ZM323.541 47.6567C324.894 47.3838 325.77 46.0654 325.497 44.7119L321.05 22.6558C320.777 21.3024 319.458 20.4264 318.105 20.6993C316.751 20.9722 315.875 22.2907 316.148 23.6442L320.102 43.2496L300.496 47.2028C299.143 47.4758 298.267 48.7942 298.54 50.1477C298.813 51.5011 300.131 52.3771 301.485 52.1042L323.541 47.6567ZM2.59809 52.7339C4.47583 54.3844 4.47491 54.3854 4.47414 54.3863C4.47407 54.3864 4.47344 54.3871 4.4733 54.3873C4.47303 54.3876 4.47333 54.3872 4.4742 54.3863C4.47594 54.3843 4.47996 54.3798 4.48628 54.3727C4.49893 54.3586 4.52078 54.3344 4.55194 54.3004C4.61427 54.2324 4.71385 54.1252 4.85162 53.9811C5.12714 53.6929 5.55536 53.2574 6.14359 52.6936C7.32003 51.566 9.13663 49.9251 11.652 47.9238C16.682 43.9217 24.5095 38.4754 35.6047 32.8084C57.7872 21.4783 93.0819 9.23991 145.275 5.93167L144.959 0.941687C92.1119 4.29136 56.1473 16.7015 33.3304 28.3556C21.9259 34.1806 13.8186 39.8104 8.53889 44.0112C5.89933 46.1113 3.96726 47.8537 2.68376 49.0839C2.04202 49.699 1.56245 50.1861 1.23767 50.5258C1.07528 50.6956 0.951596 50.8286 0.865684 50.9223C0.822728 50.9692 0.789216 51.0063 0.765033 51.0332C0.752942 51.0467 0.743183 51.0576 0.735741 51.066C0.732021 51.0702 0.728879 51.0738 0.726316 51.0767C0.725035 51.0781 0.723543 51.0798 0.722903 51.0805C0.721558 51.0821 0.720356 51.0834 2.59809 52.7339ZM145.275 5.93167C197.376 2.62926 241.512 12.9885 272.625 24.1772C288.18 29.7706 300.469 35.5676 308.857 39.9582C313.05 42.1533 316.267 43.9962 318.429 45.2853C319.509 45.9298 320.326 46.4358 320.868 46.7781C321.139 46.9492 321.342 47.0794 321.475 47.1655C321.541 47.2086 321.59 47.2406 321.622 47.2612C321.637 47.2715 321.649 47.279 321.656 47.2835C321.659 47.2858 321.661 47.2873 321.663 47.2881C321.663 47.2886 321.663 47.2886 321.664 47.2888C321.663 47.2887 321.663 47.2884 323.046 45.2061C324.43 43.1238 324.429 43.1231 324.428 43.1222C324.427 43.1217 324.425 43.1206 324.424 43.1196C324.42 43.1175 324.416 43.1146 324.411 43.111C324.4 43.1038 324.384 43.0937 324.365 43.0808C324.325 43.0549 324.268 43.0176 324.193 42.9692C324.044 42.8724 323.825 42.7315 323.536 42.5496C322.96 42.1857 322.108 41.6578 320.99 40.9911C318.755 39.6579 315.457 37.7694 311.176 35.5284C302.614 31.047 290.116 25.1533 274.317 19.4721C242.726 8.11163 197.897 -2.41381 144.959 0.941687L145.275 5.93167Z" fill="#E5E5E5"/>
</svg>
