<svg width="57" height="236" viewBox="0 0 57 236" fill="none" xmlns="http://www.w3.org/2000/svg">
<path d="M53.4018 105.644L55.8965 105.481L53.4018 105.644ZM1.84473 232.792C1.8156 234.173 2.91102 235.316 4.29143 235.345L26.7864 235.819C28.1668 235.849 29.3095 234.753 29.3386 233.373C29.3677 231.992 28.2723 230.85 26.8919 230.821L6.89637 230.399L7.31837 210.403C7.3475 209.023 6.25208 207.88 4.87167 207.851C3.49127 207.822 2.34861 208.917 2.31948 210.297L1.84473 232.792ZM3.1257 2.83738C1.83389 4.97776 1.83283 4.97712 1.83195 4.97659C1.83189 4.97655 1.83118 4.97612 1.83105 4.97604C1.83079 4.97589 1.83122 4.97614 1.83232 4.97682C1.83453 4.97816 1.83945 4.98117 1.84705 4.98586C1.86225 4.99522 1.88815 5.01128 1.92442 5.0341C1.99697 5.07976 2.111 5.15248 2.26392 5.25289C2.56978 5.45372 3.03109 5.76526 3.62709 6.19249C4.81921 7.04702 6.54936 8.36381 8.65167 10.1826C12.8566 13.8206 18.5464 19.4636 24.3983 27.4303C36.0884 43.3449 48.4729 68.595 50.9071 105.807L55.8965 105.481C53.3957 67.2516 40.6423 41.0986 28.428 24.4703C22.3277 16.1654 16.3738 10.252 11.9231 6.40138C9.69753 4.47593 7.84686 3.06541 6.5401 2.1287C5.88666 1.6603 5.36903 1.31024 5.0083 1.07337C4.82793 0.954932 4.68676 0.864779 4.58742 0.80227C4.53776 0.771015 4.49854 0.74667 4.47012 0.729153C4.45591 0.720395 4.44439 0.713343 4.43561 0.707989C4.43122 0.705312 4.42751 0.703059 4.4245 0.701229C4.42299 0.700315 4.42124 0.699258 4.42049 0.698801C4.41892 0.697852 4.41752 0.697007 3.1257 2.83738ZM50.9071 105.807C53.3326 142.885 41.2797 174.193 28.5571 196.287C22.1993 207.328 15.6898 216.041 10.7764 221.986C8.32048 224.958 6.2658 227.235 4.83168 228.763C4.1147 229.527 3.55308 230.103 3.17427 230.485C2.98487 230.676 2.8412 230.818 2.74668 230.911C2.69943 230.958 2.66446 230.992 2.64222 231.013C2.6311 231.024 2.62316 231.032 2.61846 231.036C2.61611 231.039 2.61456 231.04 2.61383 231.041C2.61347 231.041 2.61354 231.041 2.61335 231.041C2.61363 231.041 2.6141 231.041 4.34418 232.845C6.07425 234.65 6.07514 234.649 6.07623 234.648C6.07687 234.647 6.07817 234.646 6.07945 234.645C6.082 234.642 6.08537 234.639 6.08956 234.635C6.09793 234.627 6.10954 234.616 6.12436 234.601C6.15398 234.573 6.19639 234.531 6.25114 234.478C6.36064 234.37 6.51955 234.212 6.7244 234.006C7.13408 233.593 7.72763 232.983 8.47738 232.185C9.9767 230.587 12.1016 228.231 14.6304 225.171C19.6864 219.054 26.3666 210.111 32.8901 198.782C45.93 176.136 58.4059 143.843 55.8965 105.481L50.9071 105.807Z" fill="#E5E5E5"/>
</svg>
