<svg width="420" height="303" viewBox="0 0 420 303" fill="none" xmlns="http://www.w3.org/2000/svg">
<rect x="1.5" y="4.5" width="417" height="297" rx="18.5" fill="#FEFFE2" fill-opacity="0.2" stroke="#C4C4C4" stroke-width="3"/>
<path d="M142.695 25.65C142.695 26.55 142.535 27.26 142.215 27.78C141.895 28.28 141.425 28.75 140.805 29.19C140.645 29.29 140.425 29.41 140.145 29.55C139.865 29.69 139.555 29.82 139.215 29.94C138.875 30.06 138.515 30.16 138.135 30.24C137.755 30.32 137.405 30.36 137.085 30.36C136.185 30.36 135.505 30.26 135.045 30.06C134.585 29.88 134.355 29.66 134.355 29.4C134.355 29.12 134.435 28.89 134.595 28.71C134.755 28.53 134.895 28.43 135.015 28.41L135.345 28.65C135.445 28.75 135.585 28.86 135.765 28.98C135.945 29.08 136.235 29.13 136.635 29.13C137.015 29.13 137.475 29.07 138.015 28.95C138.555 28.81 139.065 28.61 139.545 28.35C140.045 28.07 140.465 27.73 140.805 27.33C141.165 26.93 141.345 26.47 141.345 25.95C141.345 25.49 140.995 25.07 140.295 24.69C139.615 24.29 138.535 24.02 137.055 23.88C136.295 23.82 135.545 23.73 134.805 23.61C134.065 23.47 133.395 23.29 132.795 23.07C132.215 22.83 131.745 22.54 131.385 22.2C131.025 21.84 130.845 21.4 130.845 20.88C130.845 20.38 130.985 19.9 131.265 19.44C131.545 18.98 131.885 18.56 132.285 18.18C132.705 17.78 133.135 17.43 133.575 17.13C134.015 16.83 134.385 16.58 134.685 16.38C134.925 16.24 135.255 16.06 135.675 15.84C136.115 15.6 136.575 15.38 137.055 15.18C137.555 14.96 138.045 14.78 138.525 14.64C139.025 14.48 139.445 14.4 139.785 14.4C140.185 14.4 140.455 14.51 140.595 14.73C140.735 14.95 140.805 15.26 140.805 15.66C140.805 16 140.765 16.36 140.685 16.74C140.605 17.12 140.515 17.49 140.415 17.85C140.315 18.21 140.215 18.53 140.115 18.81C140.035 19.07 139.975 19.24 139.935 19.32C139.855 19.5 139.765 19.62 139.665 19.68C139.565 19.74 139.495 19.77 139.455 19.77C139.375 19.77 139.335 19.72 139.335 19.62C139.335 19.56 139.345 19.45 139.365 19.29C139.405 19.11 139.445 18.9 139.485 18.66C139.545 18.42 139.585 18.16 139.605 17.88C139.645 17.6 139.665 17.32 139.665 17.04C139.665 16.6 139.645 16.28 139.605 16.08C139.565 15.88 139.405 15.78 139.125 15.78C138.845 15.78 138.465 15.86 137.985 16.02C137.505 16.16 137.015 16.34 136.515 16.56C135.975 16.8 135.445 17.11 134.925 17.49C134.425 17.87 133.975 18.26 133.575 18.66C133.175 19.06 132.845 19.45 132.585 19.83C132.345 20.19 132.225 20.48 132.225 20.7C132.225 20.94 132.385 21.17 132.705 21.39C133.045 21.59 133.465 21.77 133.965 21.93C134.485 22.09 135.055 22.23 135.675 22.35C136.295 22.47 136.905 22.56 137.505 22.62C138.005 22.68 138.555 22.76 139.155 22.86C139.755 22.96 140.315 23.12 140.835 23.34C141.355 23.56 141.795 23.86 142.155 24.24C142.515 24.6 142.695 25.07 142.695 25.65ZM154.216 25.02C154.216 25.2 154.096 25.39 153.856 25.59C153.616 25.79 153.336 25.98 153.016 26.16C152.696 26.32 152.366 26.46 152.026 26.58C151.706 26.7 151.466 26.76 151.306 26.76C151.126 26.76 150.926 26.71 150.706 26.61C150.506 26.51 150.306 26.39 150.106 26.25C149.926 26.11 149.766 25.98 149.626 25.86C149.486 25.74 149.396 25.66 149.356 25.62C149.296 25.68 149.206 25.8 149.086 25.98C148.966 26.16 148.816 26.36 148.636 26.58C148.476 26.78 148.296 26.96 148.096 27.12C147.916 27.28 147.726 27.36 147.526 27.36C147.006 27.36 146.556 27.08 146.176 26.52C145.796 25.96 145.476 25.32 145.216 24.6C144.976 23.88 144.786 23.19 144.646 22.53C144.526 21.85 144.466 21.39 144.466 21.15C144.466 21.01 144.536 20.9 144.676 20.82C144.836 20.72 144.956 20.67 145.036 20.67C145.316 20.67 145.506 20.77 145.606 20.97C145.706 21.15 145.756 21.35 145.756 21.57C145.756 21.75 145.806 22.07 145.906 22.53C146.026 22.99 146.166 23.46 146.326 23.94C146.486 24.42 146.656 24.85 146.836 25.23C147.016 25.59 147.176 25.77 147.316 25.77C147.576 25.77 147.796 25.61 147.976 25.29C148.176 24.95 148.336 24.57 148.456 24.15C148.576 23.71 148.666 23.3 148.726 22.92C148.786 22.52 148.816 22.26 148.816 22.14C148.816 22.12 148.816 22.06 148.816 21.96C148.836 21.84 148.856 21.72 148.876 21.6C148.896 21.48 148.906 21.37 148.906 21.27C148.926 21.17 148.936 21.1 148.936 21.06C148.936 20.92 148.906 20.83 148.846 20.79C148.786 20.73 148.756 20.62 148.756 20.46C148.756 20.34 148.816 20.23 148.936 20.13C149.056 20.01 149.316 19.95 149.716 19.95C149.876 19.95 149.996 20 150.076 20.1C150.176 20.18 150.246 20.28 150.286 20.4C150.326 20.52 150.346 20.64 150.346 20.76C150.366 20.86 150.376 20.93 150.376 20.97C150.376 20.99 150.366 21.13 150.346 21.39C150.326 21.65 150.306 21.94 150.286 22.26C150.286 22.56 150.276 22.85 150.256 23.13C150.236 23.41 150.226 23.58 150.226 23.64C150.226 23.7 150.256 23.82 150.316 24C150.376 24.18 150.446 24.37 150.526 24.57C150.626 24.75 150.736 24.92 150.856 25.08C150.976 25.22 151.106 25.29 151.246 25.29C151.486 25.29 151.706 25.26 151.906 25.2C152.126 25.12 152.326 25.04 152.506 24.96C152.706 24.86 152.886 24.78 153.046 24.72C153.206 24.64 153.356 24.6 153.496 24.6C153.676 24.6 153.836 24.64 153.976 24.72C154.136 24.8 154.216 24.9 154.216 25.02ZM168.741 27.18C168.741 27.34 168.691 27.48 168.591 27.6C168.491 27.72 168.371 27.82 168.231 27.9C168.091 27.96 167.941 28.01 167.781 28.05C167.641 28.09 167.521 28.11 167.421 28.11C167.001 28.11 166.641 27.89 166.341 27.45C166.041 26.99 165.791 26.49 165.591 25.95C165.391 25.39 165.241 24.87 165.141 24.39C165.061 23.91 165.021 23.65 165.021 23.61C164.901 23.83 164.771 24.2 164.631 24.72C164.511 25.24 164.361 25.77 164.181 26.31C164.001 26.83 163.771 27.3 163.491 27.72C163.231 28.12 162.891 28.32 162.471 28.32C162.271 28.32 162.081 28.2 161.901 27.96C161.721 27.72 161.551 27.41 161.391 27.03C161.231 26.65 161.071 26.22 160.911 25.74C160.771 25.26 160.621 24.79 160.461 24.33C160.321 23.87 160.181 23.44 160.041 23.04C159.901 22.62 159.761 22.29 159.621 22.05C159.501 22.35 159.391 22.76 159.291 23.28C159.211 23.8 159.141 24.35 159.081 24.93C159.021 25.49 158.971 26.05 158.931 26.61C158.891 27.17 158.871 27.66 158.871 28.08C158.871 28.36 158.791 28.56 158.631 28.68C158.491 28.8 158.341 28.86 158.181 28.86C157.961 28.86 157.741 28.72 157.521 28.44C157.301 28.14 157.081 27.76 156.861 27.3C156.641 26.84 156.431 26.32 156.231 25.74C156.051 25.16 155.881 24.58 155.721 24C155.581 23.42 155.471 22.87 155.391 22.35C155.311 21.81 155.271 21.36 155.271 21C155.271 20.74 155.281 20.5 155.301 20.28C155.321 20.1 155.331 19.93 155.331 19.77C155.351 19.61 155.361 19.52 155.361 19.5C155.361 19.44 155.341 19.4 155.301 19.38C155.281 19.36 155.271 19.31 155.271 19.23C155.271 19.17 155.341 19.08 155.481 18.96C155.641 18.82 155.801 18.75 155.961 18.75C156.241 18.75 156.421 18.81 156.501 18.93C156.601 19.05 156.651 19.19 156.651 19.35C156.651 19.41 156.641 19.5 156.621 19.62C156.621 19.74 156.621 20.01 156.621 20.43C156.621 20.71 156.671 21.13 156.771 21.69C156.871 22.25 156.991 22.82 157.131 23.4C157.271 23.98 157.411 24.52 157.551 25.02C157.711 25.5 157.841 25.8 157.941 25.92C157.981 25.84 158.001 25.75 158.001 25.65C158.021 25.53 158.041 25.44 158.061 25.38L158.391 22.92C158.471 22.3 158.631 21.65 158.871 20.97C159.131 20.27 159.401 19.73 159.681 19.35C159.781 19.19 159.891 19.11 160.011 19.11C160.131 19.11 160.241 19.2 160.341 19.38C160.681 19.94 160.931 20.5 161.091 21.06C161.271 21.6 161.421 22.14 161.541 22.68C161.681 23.2 161.831 23.73 161.991 24.27C162.171 24.79 162.441 25.32 162.801 25.86C162.961 25.6 163.161 25.18 163.401 24.6C163.641 24 163.881 23.4 164.121 22.8C164.381 22.2 164.621 21.68 164.841 21.24C165.061 20.78 165.231 20.55 165.351 20.55C165.411 20.55 165.511 20.56 165.651 20.58C165.791 20.6 165.891 20.61 165.951 20.61C166.131 20.61 166.281 20.82 166.401 21.24C166.521 21.64 166.621 22.12 166.701 22.68C166.801 23.22 166.891 23.77 166.971 24.33C167.071 24.87 167.181 25.28 167.301 25.56C167.381 25.76 167.501 25.95 167.661 26.13C167.821 26.31 167.981 26.48 168.141 26.64C168.341 26.82 168.541 27 168.741 27.18ZM184.473 27.18C184.473 27.34 184.423 27.48 184.323 27.6C184.223 27.72 184.103 27.82 183.963 27.9C183.823 27.96 183.673 28.01 183.513 28.05C183.373 28.09 183.253 28.11 183.153 28.11C182.733 28.11 182.373 27.89 182.073 27.45C181.773 26.99 181.523 26.49 181.323 25.95C181.123 25.39 180.973 24.87 180.873 24.39C180.793 23.91 180.753 23.65 180.753 23.61C180.633 23.83 180.503 24.2 180.363 24.72C180.243 25.24 180.093 25.77 179.913 26.31C179.733 26.83 179.503 27.3 179.223 27.72C178.963 28.12 178.623 28.32 178.203 28.32C178.003 28.32 177.813 28.2 177.633 27.96C177.453 27.72 177.283 27.41 177.123 27.03C176.963 26.65 176.803 26.22 176.643 25.74C176.503 25.26 176.353 24.79 176.193 24.33C176.053 23.87 175.913 23.44 175.773 23.04C175.633 22.62 175.493 22.29 175.353 22.05C175.233 22.35 175.123 22.76 175.023 23.28C174.943 23.8 174.873 24.35 174.813 24.93C174.753 25.49 174.703 26.05 174.663 26.61C174.623 27.17 174.603 27.66 174.603 28.08C174.603 28.36 174.523 28.56 174.363 28.68C174.223 28.8 174.073 28.86 173.913 28.86C173.693 28.86 173.473 28.72 173.253 28.44C173.033 28.14 172.813 27.76 172.593 27.3C172.373 26.84 172.163 26.32 171.963 25.74C171.783 25.16 171.613 24.58 171.453 24C171.313 23.42 171.203 22.87 171.123 22.35C171.043 21.81 171.003 21.36 171.003 21C171.003 20.74 171.013 20.5 171.033 20.28C171.053 20.1 171.063 19.93 171.063 19.77C171.083 19.61 171.093 19.52 171.093 19.5C171.093 19.44 171.073 19.4 171.033 19.38C171.013 19.36 171.003 19.31 171.003 19.23C171.003 19.17 171.073 19.08 171.213 18.96C171.373 18.82 171.533 18.75 171.693 18.75C171.973 18.75 172.153 18.81 172.233 18.93C172.333 19.05 172.383 19.19 172.383 19.35C172.383 19.41 172.373 19.5 172.353 19.62C172.353 19.74 172.353 20.01 172.353 20.43C172.353 20.71 172.403 21.13 172.503 21.69C172.603 22.25 172.723 22.82 172.863 23.4C173.003 23.98 173.143 24.52 173.283 25.02C173.443 25.5 173.573 25.8 173.673 25.92C173.713 25.84 173.733 25.75 173.733 25.65C173.753 25.53 173.773 25.44 173.793 25.38L174.123 22.92C174.203 22.3 174.363 21.65 174.603 20.97C174.863 20.27 175.133 19.73 175.413 19.35C175.513 19.19 175.623 19.11 175.743 19.11C175.863 19.11 175.973 19.2 176.073 19.38C176.413 19.94 176.663 20.5 176.823 21.06C177.003 21.6 177.153 22.14 177.273 22.68C177.413 23.2 177.563 23.73 177.723 24.27C177.903 24.79 178.173 25.32 178.533 25.86C178.693 25.6 178.893 25.18 179.133 24.6C179.373 24 179.613 23.4 179.853 22.8C180.113 22.2 180.353 21.68 180.573 21.24C180.793 20.78 180.963 20.55 181.083 20.55C181.143 20.55 181.243 20.56 181.383 20.58C181.523 20.6 181.623 20.61 181.683 20.61C181.863 20.61 182.013 20.82 182.133 21.24C182.253 21.64 182.353 22.12 182.433 22.68C182.533 23.22 182.623 23.77 182.703 24.33C182.803 24.87 182.913 25.28 183.033 25.56C183.113 25.76 183.233 25.95 183.393 26.13C183.553 26.31 183.713 26.48 183.873 26.64C184.073 26.82 184.273 27 184.473 27.18ZM195.226 26.85C195.246 26.89 195.256 26.95 195.256 27.03C195.256 27.15 195.166 27.33 194.986 27.57C194.926 27.65 194.796 27.78 194.596 27.96C194.396 28.14 194.126 28.32 193.786 28.5C193.446 28.68 193.026 28.84 192.526 28.98C192.046 29.12 191.476 29.19 190.816 29.19C190.356 29.19 189.906 29.09 189.466 28.89C189.026 28.67 188.636 28.36 188.296 27.96C187.956 27.54 187.676 27.03 187.456 26.43C187.236 25.81 187.126 25.09 187.126 24.27C187.126 23.49 187.226 22.76 187.426 22.08C187.626 21.4 187.876 20.8 188.176 20.28C188.496 19.76 188.846 19.35 189.226 19.05C189.606 18.75 189.976 18.6 190.336 18.6C190.656 18.6 190.976 18.67 191.296 18.81C191.636 18.93 191.936 19.09 192.196 19.29C192.476 19.49 192.696 19.72 192.856 19.98C193.016 20.22 193.096 20.47 193.096 20.73C193.096 21.03 192.956 21.34 192.676 21.66C192.416 21.98 192.096 22.28 191.716 22.56C191.336 22.82 190.956 23.04 190.576 23.22C190.196 23.38 189.896 23.46 189.676 23.46C189.556 23.46 189.446 23.41 189.346 23.31C189.266 23.19 189.226 23.05 189.226 22.89C189.226 22.61 189.346 22.39 189.586 22.23C189.846 22.07 190.126 21.93 190.426 21.81C190.726 21.67 190.996 21.51 191.236 21.33C191.496 21.15 191.626 20.9 191.626 20.58C191.626 20.54 191.576 20.44 191.476 20.28C191.376 20.12 191.106 20.04 190.666 20.04C190.466 20.04 190.236 20.16 189.976 20.4C189.716 20.62 189.466 20.93 189.226 21.33C188.986 21.71 188.786 22.17 188.626 22.71C188.466 23.23 188.386 23.8 188.386 24.42C188.386 24.94 188.476 25.41 188.656 25.83C188.856 26.25 189.106 26.61 189.406 26.91C189.706 27.19 190.056 27.41 190.456 27.57C190.856 27.73 191.266 27.81 191.686 27.81C191.986 27.81 192.306 27.75 192.646 27.63C193.006 27.49 193.336 27.35 193.636 27.21C193.956 27.05 194.226 26.91 194.446 26.79C194.686 26.65 194.836 26.58 194.896 26.58C194.956 26.58 195.016 26.61 195.076 26.67C195.156 26.73 195.206 26.79 195.226 26.85ZM204.425 20.85C204.425 20.99 204.365 21.11 204.245 21.21C204.125 21.29 203.985 21.36 203.825 21.42C203.665 21.48 203.505 21.53 203.345 21.57C203.185 21.59 203.055 21.6 202.955 21.6C202.655 21.6 202.455 21.58 202.355 21.54C202.255 21.5 202.175 21.48 202.115 21.48C201.615 21.48 201.215 21.52 200.915 21.6C200.615 21.68 200.375 21.81 200.195 21.99C200.035 22.17 199.925 22.4 199.865 22.68C199.825 22.94 199.805 23.26 199.805 23.64C199.805 24.28 199.825 24.79 199.865 25.17C199.925 25.55 199.975 25.86 200.015 26.1C200.075 26.34 200.125 26.53 200.165 26.67C200.225 26.79 200.255 26.91 200.255 27.03C200.255 27.19 200.165 27.36 199.985 27.54C199.825 27.72 199.675 27.81 199.535 27.81C199.295 27.81 199.075 27.6 198.875 27.18C198.695 26.74 198.535 26.23 198.395 25.65C198.275 25.05 198.175 24.46 198.095 23.88C198.015 23.3 197.975 22.86 197.975 22.56C197.975 22.22 198.005 21.9 198.065 21.6C198.125 21.28 198.205 21.01 198.305 20.79C198.405 20.55 198.515 20.36 198.635 20.22C198.755 20.08 198.875 20.01 198.995 20.01C199.095 20.01 199.175 20.05 199.235 20.13C199.295 20.19 199.345 20.27 199.385 20.37C199.425 20.45 199.465 20.53 199.505 20.61C199.565 20.67 199.635 20.7 199.715 20.7C199.895 20.7 200.185 20.61 200.585 20.43C200.985 20.25 201.475 20.16 202.055 20.16C202.595 20.16 202.995 20.18 203.255 20.22C203.535 20.24 203.805 20.3 204.065 20.4C204.125 20.42 204.195 20.47 204.275 20.55C204.375 20.61 204.425 20.71 204.425 20.85ZM231.289 25.65C231.289 26.55 231.129 27.26 230.809 27.78C230.489 28.28 230.019 28.75 229.399 29.19C229.239 29.29 229.019 29.41 228.739 29.55C228.459 29.69 228.149 29.82 227.809 29.94C227.469 30.06 227.109 30.16 226.729 30.24C226.349 30.32 225.999 30.36 225.679 30.36C224.779 30.36 224.099 30.26 223.639 30.06C223.179 29.88 222.949 29.66 222.949 29.4C222.949 29.12 223.029 28.89 223.189 28.71C223.349 28.53 223.489 28.43 223.609 28.41L223.939 28.65C224.039 28.75 224.179 28.86 224.359 28.98C224.539 29.08 224.829 29.13 225.229 29.13C225.609 29.13 226.069 29.07 226.609 28.95C227.149 28.81 227.659 28.61 228.139 28.35C228.639 28.07 229.059 27.73 229.399 27.33C229.759 26.93 229.939 26.47 229.939 25.95C229.939 25.49 229.589 25.07 228.889 24.69C228.209 24.29 227.129 24.02 225.649 23.88C224.889 23.82 224.139 23.73 223.399 23.61C222.659 23.47 221.989 23.29 221.389 23.07C220.809 22.83 220.339 22.54 219.979 22.2C219.619 21.84 219.439 21.4 219.439 20.88C219.439 20.38 219.579 19.9 219.859 19.44C220.139 18.98 220.479 18.56 220.879 18.18C221.299 17.78 221.729 17.43 222.169 17.13C222.609 16.83 222.979 16.58 223.279 16.38C223.519 16.24 223.849 16.06 224.269 15.84C224.709 15.6 225.169 15.38 225.649 15.18C226.149 14.96 226.639 14.78 227.119 14.64C227.619 14.48 228.039 14.4 228.379 14.4C228.779 14.4 229.049 14.51 229.189 14.73C229.329 14.95 229.399 15.26 229.399 15.66C229.399 16 229.359 16.36 229.279 16.74C229.199 17.12 229.109 17.49 229.009 17.85C228.909 18.21 228.809 18.53 228.709 18.81C228.629 19.07 228.569 19.24 228.529 19.32C228.449 19.5 228.359 19.62 228.259 19.68C228.159 19.74 228.089 19.77 228.049 19.77C227.969 19.77 227.929 19.72 227.929 19.62C227.929 19.56 227.939 19.45 227.959 19.29C227.999 19.11 228.039 18.9 228.079 18.66C228.139 18.42 228.179 18.16 228.199 17.88C228.239 17.6 228.259 17.32 228.259 17.04C228.259 16.6 228.239 16.28 228.199 16.08C228.159 15.88 227.999 15.78 227.719 15.78C227.439 15.78 227.059 15.86 226.579 16.02C226.099 16.16 225.609 16.34 225.109 16.56C224.569 16.8 224.039 17.11 223.519 17.49C223.019 17.87 222.569 18.26 222.169 18.66C221.769 19.06 221.439 19.45 221.179 19.83C220.939 20.19 220.819 20.48 220.819 20.7C220.819 20.94 220.979 21.17 221.299 21.39C221.639 21.59 222.059 21.77 222.559 21.93C223.079 22.09 223.649 22.23 224.269 22.35C224.889 22.47 225.499 22.56 226.099 22.62C226.599 22.68 227.149 22.76 227.749 22.86C228.349 22.96 228.909 23.12 229.429 23.34C229.949 23.56 230.389 23.86 230.749 24.24C231.109 24.6 231.289 25.07 231.289 25.65ZM238.31 23.52C238.31 23.96 238.25 24.38 238.13 24.78C238.01 25.18 237.85 25.53 237.65 25.83C237.45 26.13 237.21 26.37 236.93 26.55C236.67 26.71 236.38 26.79 236.06 26.79C235.5 26.79 235.06 26.63 234.74 26.31C234.42 25.99 234.17 25.62 233.99 25.2C233.83 24.78 233.72 24.36 233.66 23.94C233.62 23.5 233.6 23.17 233.6 22.95C233.6 22.59 233.65 22.19 233.75 21.75C233.87 21.29 234.02 20.87 234.2 20.49C234.4 20.11 234.62 19.79 234.86 19.53C235.1 19.27 235.35 19.14 235.61 19.14C235.67 19.14 235.76 19.16 235.88 19.2C236.02 19.24 236.16 19.3 236.3 19.38C236.44 19.46 236.56 19.56 236.66 19.68C236.78 19.8 236.86 19.94 236.9 20.1C237.12 20.12 237.34 20.2 237.56 20.34C237.78 20.48 237.9 20.59 237.92 20.67C238.08 21.19 238.18 21.71 238.22 22.23C238.28 22.75 238.31 23.18 238.31 23.52ZM236.96 22.98C236.96 22.68 236.93 22.37 236.87 22.05C236.81 21.71 236.69 21.37 236.51 21.03C236.47 21.05 236.42 21.06 236.36 21.06C236.28 21.06 236.21 21.05 236.15 21.03C236.11 21.01 236.07 21 236.03 21C235.79 21 235.6 21.07 235.46 21.21C235.32 21.33 235.21 21.5 235.13 21.72C235.07 21.92 235.03 22.14 235.01 22.38C234.99 22.62 234.98 22.85 234.98 23.07C234.98 23.29 234.99 23.54 235.01 23.82C235.03 24.08 235.07 24.33 235.13 24.57C235.21 24.81 235.31 25.02 235.43 25.2C235.55 25.36 235.71 25.44 235.91 25.44C236.11 25.44 236.28 25.34 236.42 25.14C236.56 24.92 236.67 24.67 236.75 24.39C236.83 24.11 236.88 23.84 236.9 23.58C236.94 23.3 236.96 23.1 236.96 22.98ZM245.338 29.13C245.338 29.29 245.278 29.41 245.158 29.49C245.038 29.57 244.898 29.61 244.738 29.61C244.558 29.61 244.368 29.44 244.168 29.1C243.988 28.76 243.808 28.33 243.628 27.81C243.448 27.29 243.278 26.73 243.118 26.13C242.958 25.51 242.818 24.94 242.698 24.42C242.578 23.88 242.478 23.43 242.398 23.07C242.338 22.71 242.308 22.51 242.308 22.47C242.308 22.39 242.268 22.18 242.188 21.84C242.128 21.5 242.038 20.97 241.918 20.25C241.818 19.53 241.698 18.6 241.558 17.46C241.438 16.3 241.308 14.87 241.168 13.17C241.168 12.99 241.198 12.76 241.258 12.48C241.318 12.2 241.458 12.06 241.678 12.06C241.958 12.06 242.168 12.25 242.308 12.63C242.468 13.01 242.588 13.48 242.668 14.04C242.768 14.6 242.838 15.19 242.878 15.81C242.918 16.41 242.968 16.94 243.028 17.4C243.108 18.04 243.178 18.62 243.238 19.14C243.318 19.66 243.388 20.18 243.448 20.7C243.528 21.2 243.618 21.73 243.718 22.29C243.838 22.85 243.978 23.47 244.138 24.15L245.338 29.13ZM254.427 26.04C254.427 26.38 254.307 26.68 254.067 26.94C253.847 27.18 253.557 27.39 253.197 27.57C252.857 27.73 252.477 27.86 252.057 27.96C251.637 28.06 251.237 28.14 250.857 28.2C250.477 28.24 250.137 28.27 249.837 28.29C249.557 28.29 249.377 28.29 249.297 28.29C248.857 28.29 248.517 28.22 248.277 28.08C248.037 27.94 247.917 27.69 247.917 27.33C247.917 27.21 247.927 27.11 247.947 27.03C247.967 26.93 248.047 26.88 248.187 26.88C248.247 26.88 248.347 26.9 248.487 26.94C248.627 26.96 248.737 26.97 248.817 26.97C248.897 26.97 249.147 26.96 249.567 26.94C250.007 26.9 250.467 26.84 250.947 26.76C251.447 26.68 251.887 26.57 252.267 26.43C252.667 26.27 252.867 26.07 252.867 25.83C252.867 25.79 252.657 25.67 252.237 25.47C251.837 25.25 251.227 24.89 250.407 24.39C249.767 23.99 249.317 23.59 249.057 23.19C248.797 22.77 248.667 22.21 248.667 21.51C248.667 21.07 248.757 20.71 248.937 20.43C249.137 20.15 249.397 19.93 249.717 19.77C250.057 19.61 250.437 19.5 250.857 19.44C251.297 19.36 251.757 19.32 252.237 19.32C252.277 19.32 252.397 19.34 252.597 19.38C252.817 19.42 253.047 19.49 253.287 19.59C253.527 19.67 253.737 19.78 253.917 19.92C254.117 20.04 254.217 20.18 254.217 20.34C254.217 20.38 254.177 20.44 254.097 20.52C254.037 20.6 253.927 20.75 253.767 20.97C253.707 20.95 253.597 20.92 253.437 20.88C253.297 20.84 253.127 20.8 252.927 20.76C252.747 20.7 252.557 20.66 252.357 20.64C252.157 20.6 251.997 20.58 251.877 20.58C251.357 20.58 250.937 20.68 250.617 20.88C250.297 21.06 250.137 21.42 250.137 21.96C250.137 22.22 250.237 22.46 250.437 22.68C250.657 22.9 250.927 23.11 251.247 23.31C251.567 23.49 251.907 23.68 252.267 23.88C252.647 24.06 252.997 24.26 253.317 24.48C253.637 24.7 253.897 24.94 254.097 25.2C254.317 25.44 254.427 25.72 254.427 26.04ZM264.943 16.44C264.683 16.74 264.313 17.04 263.833 17.34C263.353 17.62 262.873 17.88 262.393 18.12C261.913 18.36 261.493 18.57 261.133 18.75C260.773 18.91 260.593 19.02 260.593 19.08C260.593 19.14 260.633 19.32 260.713 19.62C260.793 19.92 260.883 20.28 260.983 20.7C261.103 21.1 261.223 21.52 261.343 21.96C261.463 22.4 261.563 22.79 261.643 23.13C261.683 23.33 261.733 23.59 261.793 23.91C261.853 24.23 261.903 24.55 261.943 24.87C262.003 25.19 262.053 25.48 262.093 25.74C262.133 25.98 262.153 26.11 262.153 26.13C262.153 26.43 262.103 26.74 262.003 27.06C261.903 27.38 261.743 27.54 261.523 27.54C261.403 27.54 261.293 27.49 261.193 27.39C261.093 27.29 261.003 27.18 260.923 27.06C260.843 26.92 260.783 26.79 260.743 26.67C260.703 26.55 260.683 26.46 260.683 26.4C260.683 26.36 260.683 26.3 260.683 26.22C260.703 26.14 260.713 26.05 260.713 25.95C260.713 25.57 260.653 25.02 260.533 24.3C260.493 24.08 260.413 23.74 260.293 23.28C260.173 22.82 260.053 22.35 259.933 21.87C259.793 21.31 259.633 20.7 259.453 20.04C259.373 19.76 259.323 19.62 259.303 19.62C259.163 19.62 258.923 19.71 258.583 19.89C258.263 20.05 257.893 20.26 257.473 20.52C257.053 20.76 256.613 21.03 256.153 21.33C255.693 21.61 255.263 21.88 254.863 22.14C254.463 22.38 254.123 22.59 253.843 22.77C253.543 22.93 253.363 23.01 253.303 23.01C253.043 23.01 252.833 22.92 252.673 22.74C252.513 22.56 252.433 22.36 252.433 22.14C252.433 22.02 252.603 21.85 252.943 21.63C253.263 21.39 253.673 21.13 254.173 20.85C254.653 20.57 255.183 20.28 255.763 19.98C256.323 19.68 256.843 19.41 257.323 19.17C257.823 18.93 258.233 18.73 258.553 18.57C258.893 18.41 259.063 18.33 259.063 18.33C258.883 17.41 258.733 16.59 258.613 15.87C258.513 15.25 258.413 14.68 258.313 14.16C258.233 13.64 258.193 13.36 258.193 13.32C258.193 13.06 258.243 12.87 258.343 12.75C258.463 12.61 258.593 12.54 258.733 12.54C258.953 12.54 259.093 12.69 259.153 12.99C259.373 14.07 259.573 15.03 259.753 15.87C259.953 16.71 260.143 17.39 260.323 17.91C260.503 17.87 260.813 17.76 261.253 17.58C261.693 17.38 262.153 17.17 262.633 16.95C263.113 16.73 263.543 16.54 263.923 16.38C264.323 16.2 264.553 16.11 264.613 16.11C264.733 16.11 264.803 16.15 264.823 16.23C264.863 16.31 264.903 16.38 264.943 16.44ZM268.343 16.2C268.343 16.24 268.273 16.32 268.133 16.44C267.993 16.56 267.823 16.69 267.623 16.83C267.443 16.95 267.253 17.06 267.053 17.16C266.853 17.26 266.693 17.31 266.573 17.31C266.493 17.31 266.383 17.31 266.243 17.31C266.123 17.29 265.993 17.25 265.853 17.19C265.733 17.13 265.623 17.05 265.523 16.95C265.423 16.83 265.373 16.68 265.373 16.5C265.373 16.22 265.473 15.96 265.673 15.72C265.873 15.46 266.133 15.33 266.453 15.33C266.513 15.33 266.643 15.36 266.843 15.42C267.063 15.46 267.283 15.52 267.503 15.6C267.723 15.68 267.913 15.77 268.073 15.87C268.253 15.97 268.343 16.08 268.343 16.2ZM269.333 27.42C269.333 27.56 269.223 27.68 269.003 27.78C268.803 27.88 268.653 27.93 268.553 27.93C268.353 27.93 268.173 27.8 268.013 27.54C267.853 27.28 267.713 26.98 267.593 26.64C267.473 26.3 267.373 25.98 267.293 25.68C267.213 25.36 267.153 25.14 267.113 25.02C267.053 24.82 266.973 24.58 266.873 24.3C266.773 24.02 266.673 23.75 266.573 23.49C266.493 23.23 266.423 23 266.363 22.8C266.303 22.6 266.273 22.49 266.273 22.47C266.273 22.19 266.323 21.93 266.423 21.69C266.543 21.45 266.683 21.33 266.843 21.33C267.023 21.33 267.213 21.47 267.413 21.75C267.613 22.03 267.803 22.39 267.983 22.83C268.183 23.25 268.363 23.72 268.523 24.24C268.683 24.74 268.823 25.22 268.943 25.68C269.063 26.12 269.153 26.51 269.213 26.85C269.293 27.17 269.333 27.36 269.333 27.42ZM279.871 24.54C279.871 24.74 279.841 24.95 279.781 25.17C279.721 25.37 279.661 25.54 279.601 25.68C279.561 25.74 279.371 25.95 279.031 26.31C278.711 26.65 278.301 27.01 277.801 27.39C277.321 27.77 276.771 28.12 276.151 28.44C275.551 28.74 274.971 28.89 274.411 28.89C274.071 28.89 273.721 28.83 273.361 28.71C273.021 28.59 272.701 28.4 272.401 28.14C272.101 27.86 271.851 27.52 271.651 27.12C271.471 26.72 271.381 26.23 271.381 25.65C271.381 24.69 271.541 23.82 271.861 23.04C272.181 22.26 272.501 21.64 272.821 21.18C272.961 20.96 273.141 20.74 273.361 20.52C273.601 20.28 273.831 20.07 274.051 19.89C274.271 19.69 274.471 19.53 274.651 19.41C274.851 19.29 274.991 19.23 275.071 19.23C275.251 19.23 275.411 19.28 275.551 19.38C275.711 19.48 275.791 19.58 275.791 19.68C275.791 19.84 275.741 19.98 275.641 20.1C275.561 20.2 275.441 20.32 275.281 20.46C275.121 20.58 274.931 20.75 274.711 20.97C274.491 21.17 274.261 21.44 274.021 21.78C273.541 22.44 273.181 23.12 272.941 23.82C272.721 24.5 272.611 25.1 272.611 25.62C272.611 26.14 272.801 26.56 273.181 26.88C273.581 27.18 273.991 27.33 274.411 27.33C275.171 27.33 275.841 27.16 276.421 26.82C277.021 26.48 277.531 26.1 277.951 25.68C278.371 25.26 278.711 24.88 278.971 24.54C279.231 24.2 279.421 24.03 279.541 24.03C279.761 24.03 279.871 24.2 279.871 24.54ZM290.616 26.85C290.636 26.89 290.646 26.95 290.646 27.03C290.646 27.15 290.556 27.33 290.376 27.57C290.316 27.65 290.186 27.78 289.986 27.96C289.786 28.14 289.516 28.32 289.176 28.5C288.836 28.68 288.416 28.84 287.916 28.98C287.436 29.12 286.866 29.19 286.206 29.19C285.746 29.19 285.296 29.09 284.856 28.89C284.416 28.67 284.026 28.36 283.686 27.96C283.346 27.54 283.066 27.03 282.846 26.43C282.626 25.81 282.516 25.09 282.516 24.27C282.516 23.49 282.616 22.76 282.816 22.08C283.016 21.4 283.266 20.8 283.566 20.28C283.886 19.76 284.236 19.35 284.616 19.05C284.996 18.75 285.366 18.6 285.726 18.6C286.046 18.6 286.366 18.67 286.686 18.81C287.026 18.93 287.326 19.09 287.586 19.29C287.866 19.49 288.086 19.72 288.246 19.98C288.406 20.22 288.486 20.47 288.486 20.73C288.486 21.03 288.346 21.34 288.066 21.66C287.806 21.98 287.486 22.28 287.106 22.56C286.726 22.82 286.346 23.04 285.966 23.22C285.586 23.38 285.286 23.46 285.066 23.46C284.946 23.46 284.836 23.41 284.736 23.31C284.656 23.19 284.616 23.05 284.616 22.89C284.616 22.61 284.736 22.39 284.976 22.23C285.236 22.07 285.516 21.93 285.816 21.81C286.116 21.67 286.386 21.51 286.626 21.33C286.886 21.15 287.016 20.9 287.016 20.58C287.016 20.54 286.966 20.44 286.866 20.28C286.766 20.12 286.496 20.04 286.056 20.04C285.856 20.04 285.626 20.16 285.366 20.4C285.106 20.62 284.856 20.93 284.616 21.33C284.376 21.71 284.176 22.17 284.016 22.71C283.856 23.23 283.776 23.8 283.776 24.42C283.776 24.94 283.866 25.41 284.046 25.83C284.246 26.25 284.496 26.61 284.796 26.91C285.096 27.19 285.446 27.41 285.846 27.57C286.246 27.73 286.656 27.81 287.076 27.81C287.376 27.81 287.696 27.75 288.036 27.63C288.396 27.49 288.726 27.35 289.026 27.21C289.346 27.05 289.616 26.91 289.836 26.79C290.076 26.65 290.226 26.58 290.286 26.58C290.346 26.58 290.406 26.61 290.466 26.67C290.546 26.73 290.596 26.79 290.616 26.85Z" fill="#FEFFE2"/>
<path d="M25.4512 20.1953C25.4512 20.7747 25.3405 21.3216 25.1191 21.8359C24.8978 22.3438 24.5951 22.7897 24.2109 23.1738C23.8333 23.5514 23.3906 23.8509 22.8828 24.0723C22.375 24.2936 21.8314 24.4043 21.252 24.4043H19.8457C19.6504 24.4043 19.4681 24.4401 19.2988 24.5117C19.1296 24.5833 18.9798 24.6842 18.8496 24.8145C18.7259 24.9382 18.6283 25.0846 18.5566 25.2539C18.485 25.4232 18.4492 25.6055 18.4492 25.8008V27.1973H25.0703V30H15.6465V25.8008C15.6465 25.2214 15.7572 24.6777 15.9785 24.1699C16.1999 23.6556 16.4993 23.2096 16.877 22.832C17.2611 22.4479 17.707 22.1484 18.2148 21.9336C18.7227 21.7122 19.2663 21.6016 19.8457 21.6016H21.252C21.4473 21.6016 21.6296 21.5658 21.7988 21.4941C21.9681 21.4225 22.1146 21.3249 22.2383 21.2012C22.3685 21.071 22.4694 20.9212 22.541 20.752C22.6126 20.5762 22.6484 20.3906 22.6484 20.1953C22.6484 20 22.6126 19.8177 22.541 19.6484C22.4694 19.4792 22.3685 19.3327 22.2383 19.209C22.1146 19.0788 21.9681 18.9779 21.7988 18.9062C21.6296 18.8346 21.4473 18.7988 21.252 18.7988H16.252V15.9961H21.252C21.8314 15.9961 22.375 16.1068 22.8828 16.3281C23.3906 16.5495 23.8333 16.8522 24.2109 17.2363C24.5951 17.6139 24.8978 18.0566 25.1191 18.5645C25.3405 19.0723 25.4512 19.6159 25.4512 20.1953Z" fill="#FEFFE2"/>
</svg>
