<svg width="420" height="303" viewBox="0 0 420 303" fill="none" xmlns="http://www.w3.org/2000/svg">
<rect x="1.5" y="4.5" width="417" height="297" rx="18.5" fill="#FEFFE2" fill-opacity="0.2" stroke="#C4C4C4" stroke-width="3"/>
<path d="M136.525 31.32C136.545 31.4 136.555 31.47 136.555 31.53C136.555 31.61 136.555 31.67 136.555 31.71C136.555 31.91 136.505 32.05 136.405 32.13C136.325 32.21 136.155 32.25 135.895 32.25C135.655 32.25 135.495 32.21 135.415 32.13C135.295 32.01 135.135 31.7 134.935 31.2C134.735 30.7 134.525 30.11 134.305 29.43C134.085 28.75 133.865 28.02 133.645 27.24C133.445 26.46 133.265 25.72 133.105 25.02C132.885 25.12 132.585 25.23 132.205 25.35C131.825 25.45 131.435 25.55 131.035 25.65C130.575 25.75 130.095 25.86 129.595 25.98C129.415 26.84 129.275 27.58 129.175 28.2C129.095 28.8 129.015 29.3 128.935 29.7C128.875 30.08 128.785 30.36 128.665 30.54C128.565 30.74 128.395 30.84 128.155 30.84C127.995 30.84 127.855 30.75 127.735 30.57C127.615 30.39 127.555 30.12 127.555 29.76C127.555 29.58 127.605 29.16 127.705 28.5C127.805 27.84 127.915 27.11 128.035 26.31C128.155 25.49 128.275 24.68 128.395 23.88C128.515 23.08 128.595 22.45 128.635 21.99C128.655 21.75 128.715 21.36 128.815 20.82C128.935 20.28 129.055 19.73 129.175 19.17C129.295 18.59 129.415 18.07 129.535 17.61C129.655 17.15 129.735 16.89 129.775 16.83C130.095 16.09 130.295 15.33 130.375 14.55C130.475 13.77 130.545 13.06 130.585 12.42C130.645 11.76 130.735 11.23 130.855 10.83C130.975 10.41 131.225 10.2 131.605 10.2C131.705 10.2 131.805 10.28 131.905 10.44C132.025 10.6 132.135 10.79 132.235 11.01C132.335 11.23 132.415 11.45 132.475 11.67C132.535 11.87 132.575 12.03 132.595 12.15C132.615 12.27 132.635 12.51 132.655 12.87C132.695 13.23 132.725 13.63 132.745 14.07C132.785 14.49 132.815 14.91 132.835 15.33C132.875 15.73 132.905 16.04 132.925 16.26C132.985 16.92 133.075 17.66 133.195 18.48C133.335 19.3 133.475 20.07 133.615 20.79C133.755 21.51 133.885 22.12 134.005 22.62C134.125 23.1 134.215 23.34 134.275 23.34C134.355 23.34 134.455 23.32 134.575 23.28C134.715 23.24 134.845 23.22 134.965 23.22C135.125 23.22 135.205 23.3 135.205 23.46C135.205 23.62 135.165 23.75 135.085 23.85C135.005 23.95 134.915 24.04 134.815 24.12C134.735 24.2 134.655 24.27 134.575 24.33C134.515 24.39 134.485 24.46 134.485 24.54C134.485 24.7 134.575 25.11 134.755 25.77L135.235 27.54C135.275 27.7 135.365 27.97 135.505 28.35C135.645 28.73 135.785 29.13 135.925 29.55C136.085 29.95 136.225 30.32 136.345 30.66C136.465 31.02 136.525 31.24 136.525 31.32ZM129.865 24.45C129.985 24.45 130.205 24.42 130.525 24.36C130.845 24.28 131.175 24.19 131.515 24.09C131.855 23.99 132.155 23.89 132.415 23.79C132.675 23.69 132.805 23.61 132.805 23.55C132.805 23.49 132.765 23.34 132.685 23.1C132.625 22.84 132.545 22.52 132.445 22.14C132.365 21.74 132.275 21.29 132.175 20.79C132.075 20.29 131.985 19.76 131.905 19.2C131.865 18.84 131.815 18.35 131.755 17.73C131.695 17.11 131.635 16.5 131.575 15.9C131.515 15.28 131.465 14.75 131.425 14.31C131.385 13.87 131.365 13.65 131.365 13.65C131.365 13.65 131.335 13.8 131.275 14.1C131.215 14.38 131.145 14.7 131.065 15.06C131.005 15.4 130.945 15.73 130.885 16.05C130.845 16.35 130.825 16.52 130.825 16.56V17.4C130.825 17.44 130.795 17.62 130.735 17.94C130.695 18.24 130.635 18.63 130.555 19.11C130.475 19.57 130.385 20.08 130.285 20.64C130.205 21.18 130.125 21.7 130.045 22.2C129.965 22.7 129.895 23.15 129.835 23.55C129.795 23.93 129.775 24.19 129.775 24.33C129.775 24.41 129.805 24.45 129.865 24.45ZM149.163 25.02C149.163 25.2 149.043 25.39 148.803 25.59C148.563 25.79 148.283 25.98 147.963 26.16C147.643 26.32 147.313 26.46 146.973 26.58C146.653 26.7 146.413 26.76 146.253 26.76C146.073 26.76 145.873 26.71 145.653 26.61C145.453 26.51 145.253 26.39 145.053 26.25C144.873 26.11 144.713 25.98 144.573 25.86C144.433 25.74 144.343 25.66 144.303 25.62C144.243 25.68 144.153 25.8 144.033 25.98C143.913 26.16 143.763 26.36 143.583 26.58C143.423 26.78 143.243 26.96 143.043 27.12C142.863 27.28 142.673 27.36 142.473 27.36C141.953 27.36 141.503 27.08 141.123 26.52C140.743 25.96 140.423 25.32 140.163 24.6C139.923 23.88 139.733 23.19 139.593 22.53C139.473 21.85 139.413 21.39 139.413 21.15C139.413 21.01 139.483 20.9 139.623 20.82C139.783 20.72 139.903 20.67 139.983 20.67C140.263 20.67 140.453 20.77 140.553 20.97C140.653 21.15 140.703 21.35 140.703 21.57C140.703 21.75 140.753 22.07 140.853 22.53C140.973 22.99 141.113 23.46 141.273 23.94C141.433 24.42 141.603 24.85 141.783 25.23C141.963 25.59 142.123 25.77 142.263 25.77C142.523 25.77 142.743 25.61 142.923 25.29C143.123 24.95 143.283 24.57 143.403 24.15C143.523 23.71 143.613 23.3 143.673 22.92C143.733 22.52 143.763 22.26 143.763 22.14C143.763 22.12 143.763 22.06 143.763 21.96C143.783 21.84 143.803 21.72 143.823 21.6C143.843 21.48 143.853 21.37 143.853 21.27C143.873 21.17 143.883 21.1 143.883 21.06C143.883 20.92 143.853 20.83 143.793 20.79C143.733 20.73 143.703 20.62 143.703 20.46C143.703 20.34 143.763 20.23 143.883 20.13C144.003 20.01 144.263 19.95 144.663 19.95C144.823 19.95 144.943 20 145.023 20.1C145.123 20.18 145.193 20.28 145.233 20.4C145.273 20.52 145.293 20.64 145.293 20.76C145.313 20.86 145.323 20.93 145.323 20.97C145.323 20.99 145.313 21.13 145.293 21.39C145.273 21.65 145.253 21.94 145.233 22.26C145.233 22.56 145.223 22.85 145.203 23.13C145.183 23.41 145.173 23.58 145.173 23.64C145.173 23.7 145.203 23.82 145.263 24C145.323 24.18 145.393 24.37 145.473 24.57C145.573 24.75 145.683 24.92 145.803 25.08C145.923 25.22 146.053 25.29 146.193 25.29C146.433 25.29 146.653 25.26 146.853 25.2C147.073 25.12 147.273 25.04 147.453 24.96C147.653 24.86 147.833 24.78 147.993 24.72C148.153 24.64 148.303 24.6 148.443 24.6C148.623 24.6 148.783 24.64 148.923 24.72C149.083 24.8 149.163 24.9 149.163 25.02ZM158.317 16.44C158.057 16.74 157.687 17.04 157.207 17.34C156.727 17.62 156.247 17.88 155.767 18.12C155.287 18.36 154.867 18.57 154.507 18.75C154.147 18.91 153.967 19.02 153.967 19.08C153.967 19.14 154.007 19.32 154.087 19.62C154.167 19.92 154.257 20.28 154.357 20.7C154.477 21.1 154.597 21.52 154.717 21.96C154.837 22.4 154.937 22.79 155.017 23.13C155.057 23.33 155.107 23.59 155.167 23.91C155.227 24.23 155.277 24.55 155.317 24.87C155.377 25.19 155.427 25.48 155.467 25.74C155.507 25.98 155.527 26.11 155.527 26.13C155.527 26.43 155.477 26.74 155.377 27.06C155.277 27.38 155.117 27.54 154.897 27.54C154.777 27.54 154.667 27.49 154.567 27.39C154.467 27.29 154.377 27.18 154.297 27.06C154.217 26.92 154.157 26.79 154.117 26.67C154.077 26.55 154.057 26.46 154.057 26.4C154.057 26.36 154.057 26.3 154.057 26.22C154.077 26.14 154.087 26.05 154.087 25.95C154.087 25.57 154.027 25.02 153.907 24.3C153.867 24.08 153.787 23.74 153.667 23.28C153.547 22.82 153.427 22.35 153.307 21.87C153.167 21.31 153.007 20.7 152.827 20.04C152.747 19.76 152.697 19.62 152.677 19.62C152.537 19.62 152.297 19.71 151.957 19.89C151.637 20.05 151.267 20.26 150.847 20.52C150.427 20.76 149.987 21.03 149.527 21.33C149.067 21.61 148.637 21.88 148.237 22.14C147.837 22.38 147.497 22.59 147.217 22.77C146.917 22.93 146.737 23.01 146.677 23.01C146.417 23.01 146.207 22.92 146.047 22.74C145.887 22.56 145.807 22.36 145.807 22.14C145.807 22.02 145.977 21.85 146.317 21.63C146.637 21.39 147.047 21.13 147.547 20.85C148.027 20.57 148.557 20.28 149.137 19.98C149.697 19.68 150.217 19.41 150.697 19.17C151.197 18.93 151.607 18.73 151.927 18.57C152.267 18.41 152.437 18.33 152.437 18.33C152.257 17.41 152.107 16.59 151.987 15.87C151.887 15.25 151.787 14.68 151.687 14.16C151.607 13.64 151.567 13.36 151.567 13.32C151.567 13.06 151.617 12.87 151.717 12.75C151.837 12.61 151.967 12.54 152.107 12.54C152.327 12.54 152.467 12.69 152.527 12.99C152.747 14.07 152.947 15.03 153.127 15.87C153.327 16.71 153.517 17.39 153.697 17.91C153.877 17.87 154.187 17.76 154.627 17.58C155.067 17.38 155.527 17.17 156.007 16.95C156.487 16.73 156.917 16.54 157.297 16.38C157.697 16.2 157.927 16.11 157.987 16.11C158.107 16.11 158.177 16.15 158.197 16.23C158.237 16.31 158.277 16.38 158.317 16.44ZM169.817 25.02C169.817 25.2 169.697 25.39 169.457 25.59C169.217 25.79 168.937 25.98 168.617 26.16C168.297 26.32 167.967 26.46 167.627 26.58C167.307 26.7 167.067 26.76 166.907 26.76C166.727 26.76 166.527 26.71 166.307 26.61C166.107 26.51 165.907 26.39 165.707 26.25C165.527 26.11 165.367 25.98 165.227 25.86C165.087 25.74 164.997 25.66 164.957 25.62C164.897 25.68 164.807 25.8 164.687 25.98C164.567 26.16 164.417 26.36 164.237 26.58C164.077 26.78 163.897 26.96 163.697 27.12C163.517 27.28 163.327 27.36 163.127 27.36C162.607 27.36 162.157 27.08 161.777 26.52C161.397 25.96 161.077 25.32 160.817 24.6C160.577 23.88 160.387 23.19 160.247 22.53C160.127 21.85 160.067 21.39 160.067 21.15C160.067 21.01 160.137 20.9 160.277 20.82C160.437 20.72 160.557 20.67 160.637 20.67C160.917 20.67 161.107 20.77 161.207 20.97C161.307 21.15 161.357 21.35 161.357 21.57C161.357 21.75 161.407 22.07 161.507 22.53C161.627 22.99 161.767 23.46 161.927 23.94C162.087 24.42 162.257 24.85 162.437 25.23C162.617 25.59 162.777 25.77 162.917 25.77C163.177 25.77 163.397 25.61 163.577 25.29C163.777 24.95 163.937 24.57 164.057 24.15C164.177 23.71 164.267 23.3 164.327 22.92C164.387 22.52 164.417 22.26 164.417 22.14C164.417 22.12 164.417 22.06 164.417 21.96C164.437 21.84 164.457 21.72 164.477 21.6C164.497 21.48 164.507 21.37 164.507 21.27C164.527 21.17 164.537 21.1 164.537 21.06C164.537 20.92 164.507 20.83 164.447 20.79C164.387 20.73 164.357 20.62 164.357 20.46C164.357 20.34 164.417 20.23 164.537 20.13C164.657 20.01 164.917 19.95 165.317 19.95C165.477 19.95 165.597 20 165.677 20.1C165.777 20.18 165.847 20.28 165.887 20.4C165.927 20.52 165.947 20.64 165.947 20.76C165.967 20.86 165.977 20.93 165.977 20.97C165.977 20.99 165.967 21.13 165.947 21.39C165.927 21.65 165.907 21.94 165.887 22.26C165.887 22.56 165.877 22.85 165.857 23.13C165.837 23.41 165.827 23.58 165.827 23.64C165.827 23.7 165.857 23.82 165.917 24C165.977 24.18 166.047 24.37 166.127 24.57C166.227 24.75 166.337 24.92 166.457 25.08C166.577 25.22 166.707 25.29 166.847 25.29C167.087 25.29 167.307 25.26 167.507 25.2C167.727 25.12 167.927 25.04 168.107 24.96C168.307 24.86 168.487 24.78 168.647 24.72C168.807 24.64 168.957 24.6 169.097 24.6C169.277 24.6 169.437 24.64 169.577 24.72C169.737 24.8 169.817 24.9 169.817 25.02ZM184.341 27.18C184.341 27.34 184.291 27.48 184.191 27.6C184.091 27.72 183.971 27.82 183.831 27.9C183.691 27.96 183.541 28.01 183.381 28.05C183.241 28.09 183.121 28.11 183.021 28.11C182.601 28.11 182.241 27.89 181.941 27.45C181.641 26.99 181.391 26.49 181.191 25.95C180.991 25.39 180.841 24.87 180.741 24.39C180.661 23.91 180.621 23.65 180.621 23.61C180.501 23.83 180.371 24.2 180.231 24.72C180.111 25.24 179.961 25.77 179.781 26.31C179.601 26.83 179.371 27.3 179.091 27.72C178.831 28.12 178.491 28.32 178.071 28.32C177.871 28.32 177.681 28.2 177.501 27.96C177.321 27.72 177.151 27.41 176.991 27.03C176.831 26.65 176.671 26.22 176.511 25.74C176.371 25.26 176.221 24.79 176.061 24.33C175.921 23.87 175.781 23.44 175.641 23.04C175.501 22.62 175.361 22.29 175.221 22.05C175.101 22.35 174.991 22.76 174.891 23.28C174.811 23.8 174.741 24.35 174.681 24.93C174.621 25.49 174.571 26.05 174.531 26.61C174.491 27.17 174.471 27.66 174.471 28.08C174.471 28.36 174.391 28.56 174.231 28.68C174.091 28.8 173.941 28.86 173.781 28.86C173.561 28.86 173.341 28.72 173.121 28.44C172.901 28.14 172.681 27.76 172.461 27.3C172.241 26.84 172.031 26.32 171.831 25.74C171.651 25.16 171.481 24.58 171.321 24C171.181 23.42 171.071 22.87 170.991 22.35C170.911 21.81 170.871 21.36 170.871 21C170.871 20.74 170.881 20.5 170.901 20.28C170.921 20.1 170.931 19.93 170.931 19.77C170.951 19.61 170.961 19.52 170.961 19.5C170.961 19.44 170.941 19.4 170.901 19.38C170.881 19.36 170.871 19.31 170.871 19.23C170.871 19.17 170.941 19.08 171.081 18.96C171.241 18.82 171.401 18.75 171.561 18.75C171.841 18.75 172.021 18.81 172.101 18.93C172.201 19.05 172.251 19.19 172.251 19.35C172.251 19.41 172.241 19.5 172.221 19.62C172.221 19.74 172.221 20.01 172.221 20.43C172.221 20.71 172.271 21.13 172.371 21.69C172.471 22.25 172.591 22.82 172.731 23.4C172.871 23.98 173.011 24.52 173.151 25.02C173.311 25.5 173.441 25.8 173.541 25.92C173.581 25.84 173.601 25.75 173.601 25.65C173.621 25.53 173.641 25.44 173.661 25.38L173.991 22.92C174.071 22.3 174.231 21.65 174.471 20.97C174.731 20.27 175.001 19.73 175.281 19.35C175.381 19.19 175.491 19.11 175.611 19.11C175.731 19.11 175.841 19.2 175.941 19.38C176.281 19.94 176.531 20.5 176.691 21.06C176.871 21.6 177.021 22.14 177.141 22.68C177.281 23.2 177.431 23.73 177.591 24.27C177.771 24.79 178.041 25.32 178.401 25.86C178.561 25.6 178.761 25.18 179.001 24.6C179.241 24 179.481 23.4 179.721 22.8C179.981 22.2 180.221 21.68 180.441 21.24C180.661 20.78 180.831 20.55 180.951 20.55C181.011 20.55 181.111 20.56 181.251 20.58C181.391 20.6 181.491 20.61 181.551 20.61C181.731 20.61 181.881 20.82 182.001 21.24C182.121 21.64 182.221 22.12 182.301 22.68C182.401 23.22 182.491 23.77 182.571 24.33C182.671 24.87 182.781 25.28 182.901 25.56C182.981 25.76 183.101 25.95 183.261 26.13C183.421 26.31 183.581 26.48 183.741 26.64C183.941 26.82 184.141 27 184.341 27.18ZM195.754 26.31C195.754 26.43 195.714 26.55 195.634 26.67C195.554 26.79 195.454 26.9 195.334 27C195.234 27.1 195.114 27.19 194.974 27.27C194.854 27.33 194.744 27.36 194.644 27.36C194.304 27.36 193.864 27.29 193.324 27.15C192.804 26.99 192.384 26.75 192.064 26.43C191.724 26.09 191.424 25.69 191.164 25.23C190.904 24.75 190.614 24.05 190.294 23.13C190.074 24.01 189.814 24.88 189.514 25.74C189.234 26.6 188.774 27.39 188.134 28.11C188.094 28.15 188.034 28.17 187.954 28.17C187.814 28.17 187.664 28.1 187.504 27.96C187.344 27.82 187.264 27.68 187.264 27.54C187.264 27.4 187.244 27.08 187.204 26.58C187.184 26.06 187.154 25.49 187.114 24.87C187.074 24.23 187.034 23.59 186.994 22.95C186.974 22.29 186.964 21.75 186.964 21.33C186.964 21.13 186.974 20.87 186.994 20.55C187.014 20.21 187.074 19.92 187.174 19.68C187.194 19.64 187.264 19.56 187.384 19.44C187.524 19.32 187.674 19.26 187.834 19.26C187.974 19.26 188.054 19.35 188.074 19.53C188.094 19.71 188.104 19.91 188.104 20.13V24.87C188.104 24.97 188.114 25.11 188.134 25.29C188.174 25.47 188.224 25.6 188.284 25.68C188.504 25.2 188.704 24.64 188.884 24C189.084 23.34 189.274 22.72 189.454 22.14C189.634 21.54 189.814 21.04 189.994 20.64C190.174 20.22 190.354 20.01 190.534 20.01C190.734 20.01 190.894 20.05 191.014 20.13C191.134 20.21 191.234 20.37 191.314 20.61C191.414 21.19 191.494 21.71 191.554 22.17C191.614 22.61 191.684 23.01 191.764 23.37C191.864 23.73 191.994 24.07 192.154 24.39C192.334 24.69 192.574 24.97 192.874 25.23C193.154 25.49 193.464 25.68 193.804 25.8C194.164 25.92 194.474 25.98 194.734 25.98C194.854 25.98 194.984 25.96 195.124 25.92C195.264 25.86 195.364 25.83 195.424 25.83C195.504 25.83 195.574 25.9 195.634 26.04C195.714 26.18 195.754 26.27 195.754 26.31ZM211.551 23.76C211.551 24.12 211.381 24.57 211.041 25.11C210.721 25.63 210.281 26.14 209.721 26.64C209.161 27.14 208.511 27.57 207.771 27.93C207.031 28.27 206.261 28.44 205.461 28.44C205.101 28.44 204.721 28.38 204.321 28.26C203.921 28.14 203.531 27.97 203.151 27.75C202.771 27.51 202.431 27.23 202.131 26.91C201.831 26.57 201.611 26.19 201.471 25.77C201.351 25.89 201.201 26.09 201.021 26.37C200.861 26.65 200.681 26.94 200.481 27.24C200.281 27.52 200.061 27.77 199.821 27.99C199.581 28.19 199.331 28.29 199.071 28.29C198.811 28.29 198.591 28.16 198.411 27.9C198.251 27.62 198.121 27.32 198.021 27C197.921 26.66 197.851 26.34 197.811 26.04C197.771 25.74 197.751 25.57 197.751 25.53C197.751 25.29 197.821 24.84 197.961 24.18C198.101 23.5 198.311 22.8 198.591 22.08C198.871 21.36 199.221 20.72 199.641 20.16C200.081 19.6 200.591 19.32 201.171 19.32C201.391 19.32 201.531 19.42 201.591 19.62C201.671 19.8 201.711 19.98 201.711 20.16V21.06C201.811 21.14 201.911 21.2 202.011 21.24C202.131 21.26 202.231 21.3 202.311 21.36C202.411 21.4 202.481 21.47 202.521 21.57C202.581 21.67 202.611 21.83 202.611 22.05C202.611 22.19 202.601 22.32 202.581 22.44C202.561 22.54 202.551 22.64 202.551 22.74C202.551 23.26 202.591 23.77 202.671 24.27C202.751 24.77 202.911 25.22 203.151 25.62C203.391 26 203.721 26.32 204.141 26.58C204.561 26.82 205.121 26.94 205.821 26.94C206.701 26.94 207.441 26.76 208.041 26.4C208.661 26.02 209.171 25.61 209.571 25.17C209.991 24.71 210.321 24.3 210.561 23.94C210.801 23.56 211.001 23.37 211.161 23.37C211.421 23.37 211.551 23.5 211.551 23.76ZM201.021 22.44C201.021 22.36 201.001 22.29 200.961 22.23C200.921 22.15 200.901 22.08 200.901 22.02C200.901 21.94 200.921 21.87 200.961 21.81C201.001 21.75 201.021 21.67 201.021 21.57C201.021 21.51 201.001 21.47 200.961 21.45C200.921 21.41 200.901 21.37 200.901 21.33C200.721 21.37 200.531 21.54 200.331 21.84C200.151 22.14 199.971 22.49 199.791 22.89C199.631 23.29 199.501 23.7 199.401 24.12C199.301 24.52 199.251 24.85 199.251 25.11C199.251 25.25 199.291 25.48 199.371 25.8C199.451 26.12 199.541 26.33 199.641 26.43C199.981 25.73 200.291 25.05 200.571 24.39C200.871 23.73 201.021 23.08 201.021 22.44ZM215.91 29.13C215.91 29.29 215.85 29.41 215.73 29.49C215.61 29.57 215.47 29.61 215.31 29.61C215.13 29.61 214.94 29.44 214.74 29.1C214.56 28.76 214.38 28.33 214.2 27.81C214.02 27.29 213.85 26.73 213.69 26.13C213.53 25.51 213.39 24.94 213.27 24.42C213.15 23.88 213.05 23.43 212.97 23.07C212.91 22.71 212.88 22.51 212.88 22.47C212.88 22.39 212.84 22.18 212.76 21.84C212.7 21.5 212.61 20.97 212.49 20.25C212.39 19.53 212.27 18.6 212.13 17.46C212.01 16.3 211.88 14.87 211.74 13.17C211.74 12.99 211.77 12.76 211.83 12.48C211.89 12.2 212.03 12.06 212.25 12.06C212.53 12.06 212.74 12.25 212.88 12.63C213.04 13.01 213.16 13.48 213.24 14.04C213.34 14.6 213.41 15.19 213.45 15.81C213.49 16.41 213.54 16.94 213.6 17.4C213.68 18.04 213.75 18.62 213.81 19.14C213.89 19.66 213.96 20.18 214.02 20.7C214.1 21.2 214.19 21.73 214.29 22.29C214.41 22.85 214.55 23.47 214.71 24.15L215.91 29.13ZM239.4 19.41C239.42 19.45 239.44 19.48 239.46 19.5C239.48 19.5 239.49 19.52 239.49 19.56C239.49 19.68 239.24 19.91 238.74 20.25C238.24 20.57 237.62 20.94 236.88 21.36C236.14 21.76 235.36 22.17 234.54 22.59C233.72 22.99 232.99 23.32 232.35 23.58C232.35 23.62 232.33 23.75 232.29 23.97C232.25 24.19 232.23 24.33 232.23 24.39V24.96C232.23 25.42 232.3 25.88 232.44 26.34C232.58 26.78 232.79 27.18 233.07 27.54C233.37 27.9 233.73 28.19 234.15 28.41C234.57 28.63 235.06 28.74 235.62 28.74C235.86 28.74 236.15 28.7 236.49 28.62C236.85 28.52 237.19 28.39 237.51 28.23C237.85 28.05 238.15 27.84 238.41 27.6C238.67 27.36 238.83 27.09 238.89 26.79C239.13 26.81 239.27 26.88 239.31 27C239.37 27.12 239.4 27.2 239.4 27.24C239.4 27.76 239.27 28.21 239.01 28.59C238.77 28.95 238.46 29.25 238.08 29.49C237.72 29.71 237.33 29.88 236.91 30C236.51 30.1 236.15 30.15 235.83 30.15C234.11 30.15 232.86 29.67 232.08 28.71C231.3 27.75 230.91 26.49 230.91 24.93C230.91 24.85 230.93 24.67 230.97 24.39C231.01 24.11 231.03 23.92 231.03 23.82C231.03 23.8 230.99 23.78 230.91 23.76C230.83 23.72 230.74 23.68 230.64 23.64C230.56 23.6 230.48 23.54 230.4 23.46C230.34 23.36 230.31 23.23 230.31 23.07C230.31 22.91 230.37 22.78 230.49 22.68C230.61 22.58 230.75 22.49 230.91 22.41L231.21 22.23C231.39 21.47 231.6 20.74 231.84 20.04C232.1 19.32 232.42 18.6 232.8 17.88C232.64 17.88 232.47 17.86 232.29 17.82C232.11 17.78 232.02 17.64 232.02 17.4C232.02 17.12 232.18 16.81 232.5 16.47C232.84 16.13 233.22 15.81 233.64 15.51C234.08 15.21 234.51 14.96 234.93 14.76C235.35 14.54 235.65 14.43 235.83 14.43C235.91 14.43 235.96 14.45 235.98 14.49C236.02 14.51 236.08 14.52 236.16 14.52C236.32 14.52 236.52 14.49 236.76 14.43C237.02 14.37 237.29 14.3 237.57 14.22C237.85 14.14 238.11 14.07 238.35 14.01C238.61 13.95 238.82 13.92 238.98 13.92C239.16 13.92 239.29 13.98 239.37 14.1C239.47 14.22 239.52 14.35 239.52 14.49C239.52 14.65 239.42 14.77 239.22 14.85C239.02 14.91 238.84 14.96 238.68 15C238.12 15.1 237.53 15.28 236.91 15.54C236.31 15.78 235.75 16.05 235.23 16.35C235.03 16.57 234.79 16.89 234.51 17.31C234.23 17.71 233.96 18.17 233.7 18.69C233.44 19.21 233.2 19.75 232.98 20.31C232.78 20.87 232.65 21.4 232.59 21.9L233.1 21.66C234.64 20.92 235.89 20.34 236.85 19.92C237.83 19.5 238.59 19.29 239.13 19.29C239.23 19.29 239.32 19.33 239.4 19.41ZM248.824 32.79C248.824 32.85 248.814 32.95 248.794 33.09C248.774 33.23 248.734 33.36 248.674 33.48C248.634 33.62 248.564 33.74 248.464 33.84C248.364 33.96 248.234 34.02 248.074 34.02C247.614 34.02 247.314 33.88 247.174 33.6C247.034 33.32 246.964 33.01 246.964 32.67C246.964 32.59 246.944 32.46 246.904 32.28C246.864 32.1 246.824 31.9 246.784 31.68C246.744 31.46 246.704 31.24 246.664 31.02C246.624 30.8 246.604 30.61 246.604 30.45C246.604 30.15 246.584 29.81 246.544 29.43C246.524 29.05 246.484 28.67 246.424 28.29C246.384 27.89 246.334 27.51 246.274 27.15C246.234 26.79 246.194 26.47 246.154 26.19L246.064 26.1C245.844 26.24 245.644 26.41 245.464 26.61C245.304 26.81 245.134 27 244.954 27.18C244.794 27.36 244.614 27.51 244.414 27.63C244.234 27.75 244.014 27.81 243.754 27.81C243.394 27.81 243.074 27.69 242.794 27.45C242.514 27.19 242.284 26.89 242.104 26.55C241.924 26.21 241.784 25.87 241.684 25.53C241.604 25.17 241.564 24.89 241.564 24.69C241.564 24.25 241.654 23.75 241.834 23.19C242.034 22.63 242.304 22.11 242.644 21.63C242.984 21.13 243.384 20.71 243.844 20.37C244.324 20.03 244.854 19.86 245.434 19.86C245.654 19.86 245.854 19.92 246.034 20.04C246.214 20.16 246.374 20.31 246.514 20.49C246.674 20.65 246.804 20.82 246.904 21C247.024 21.18 247.124 21.32 247.204 21.42C247.424 21.68 247.594 21.91 247.714 22.11C247.834 22.29 247.894 22.52 247.894 22.8C247.894 22.86 247.864 23.04 247.804 23.34C247.744 23.64 247.714 23.89 247.714 24.09C247.714 24.91 247.734 25.75 247.774 26.61C247.834 27.45 247.904 28.24 247.984 28.98C248.064 29.7 248.144 30.33 248.224 30.87C248.304 31.41 248.364 31.78 248.404 31.98C248.444 32.14 248.524 32.24 248.644 32.28C248.764 32.34 248.824 32.51 248.824 32.79ZM246.214 22.71C246.194 22.51 246.114 22.26 245.974 21.96C245.854 21.66 245.594 21.51 245.194 21.51C244.854 21.51 244.544 21.66 244.264 21.96C243.984 22.24 243.744 22.58 243.544 22.98C243.344 23.36 243.194 23.74 243.094 24.12C242.994 24.48 242.944 24.75 242.944 24.93C242.944 24.97 242.954 25.06 242.974 25.2C243.014 25.34 243.054 25.49 243.094 25.65C243.154 25.81 243.224 25.95 243.304 26.07C243.384 26.19 243.474 26.25 243.574 26.25C243.814 26.25 244.084 26.09 244.384 25.77C244.684 25.43 244.964 25.05 245.224 24.63C245.504 24.21 245.734 23.81 245.914 23.43C246.114 23.05 246.214 22.81 246.214 22.71ZM260.462 25.02C260.462 25.2 260.342 25.39 260.102 25.59C259.862 25.79 259.582 25.98 259.262 26.16C258.942 26.32 258.612 26.46 258.272 26.58C257.952 26.7 257.712 26.76 257.552 26.76C257.372 26.76 257.172 26.71 256.952 26.61C256.752 26.51 256.552 26.39 256.352 26.25C256.172 26.11 256.012 25.98 255.872 25.86C255.732 25.74 255.642 25.66 255.602 25.62C255.542 25.68 255.452 25.8 255.332 25.98C255.212 26.16 255.062 26.36 254.882 26.58C254.722 26.78 254.542 26.96 254.342 27.12C254.162 27.28 253.972 27.36 253.772 27.36C253.252 27.36 252.802 27.08 252.422 26.52C252.042 25.96 251.722 25.32 251.462 24.6C251.222 23.88 251.032 23.19 250.892 22.53C250.772 21.85 250.712 21.39 250.712 21.15C250.712 21.01 250.782 20.9 250.922 20.82C251.082 20.72 251.202 20.67 251.282 20.67C251.562 20.67 251.752 20.77 251.852 20.97C251.952 21.15 252.002 21.35 252.002 21.57C252.002 21.75 252.052 22.07 252.152 22.53C252.272 22.99 252.412 23.46 252.572 23.94C252.732 24.42 252.902 24.85 253.082 25.23C253.262 25.59 253.422 25.77 253.562 25.77C253.822 25.77 254.042 25.61 254.222 25.29C254.422 24.95 254.582 24.57 254.702 24.15C254.822 23.71 254.912 23.3 254.972 22.92C255.032 22.52 255.062 22.26 255.062 22.14C255.062 22.12 255.062 22.06 255.062 21.96C255.082 21.84 255.102 21.72 255.122 21.6C255.142 21.48 255.152 21.37 255.152 21.27C255.172 21.17 255.182 21.1 255.182 21.06C255.182 20.92 255.152 20.83 255.092 20.79C255.032 20.73 255.002 20.62 255.002 20.46C255.002 20.34 255.062 20.23 255.182 20.13C255.302 20.01 255.562 19.95 255.962 19.95C256.122 19.95 256.242 20 256.322 20.1C256.422 20.18 256.492 20.28 256.532 20.4C256.572 20.52 256.592 20.64 256.592 20.76C256.612 20.86 256.622 20.93 256.622 20.97C256.622 20.99 256.612 21.13 256.592 21.39C256.572 21.65 256.552 21.94 256.532 22.26C256.532 22.56 256.522 22.85 256.502 23.13C256.482 23.41 256.472 23.58 256.472 23.64C256.472 23.7 256.502 23.82 256.562 24C256.622 24.18 256.692 24.37 256.772 24.57C256.872 24.75 256.982 24.92 257.102 25.08C257.222 25.22 257.352 25.29 257.492 25.29C257.732 25.29 257.952 25.26 258.152 25.2C258.372 25.12 258.572 25.04 258.752 24.96C258.952 24.86 259.132 24.78 259.292 24.72C259.452 24.64 259.602 24.6 259.742 24.6C259.922 24.6 260.082 24.64 260.222 24.72C260.382 24.8 260.462 24.9 260.462 25.02ZM263.436 16.2C263.436 16.24 263.366 16.32 263.226 16.44C263.086 16.56 262.916 16.69 262.716 16.83C262.536 16.95 262.346 17.06 262.146 17.16C261.946 17.26 261.786 17.31 261.666 17.31C261.586 17.31 261.476 17.31 261.336 17.31C261.216 17.29 261.086 17.25 260.946 17.19C260.826 17.13 260.716 17.05 260.616 16.95C260.516 16.83 260.466 16.68 260.466 16.5C260.466 16.22 260.566 15.96 260.766 15.72C260.966 15.46 261.226 15.33 261.546 15.33C261.606 15.33 261.736 15.36 261.936 15.42C262.156 15.46 262.376 15.52 262.596 15.6C262.816 15.68 263.006 15.77 263.166 15.87C263.346 15.97 263.436 16.08 263.436 16.2ZM264.426 27.42C264.426 27.56 264.316 27.68 264.096 27.78C263.896 27.88 263.746 27.93 263.646 27.93C263.446 27.93 263.266 27.8 263.106 27.54C262.946 27.28 262.806 26.98 262.686 26.64C262.566 26.3 262.466 25.98 262.386 25.68C262.306 25.36 262.246 25.14 262.206 25.02C262.146 24.82 262.066 24.58 261.966 24.3C261.866 24.02 261.766 23.75 261.666 23.49C261.586 23.23 261.516 23 261.456 22.8C261.396 22.6 261.366 22.49 261.366 22.47C261.366 22.19 261.416 21.93 261.516 21.69C261.636 21.45 261.776 21.33 261.936 21.33C262.116 21.33 262.306 21.47 262.506 21.75C262.706 22.03 262.896 22.39 263.076 22.83C263.276 23.25 263.456 23.72 263.616 24.24C263.776 24.74 263.916 25.22 264.036 25.68C264.156 26.12 264.246 26.51 264.306 26.85C264.386 27.17 264.426 27.36 264.426 27.42ZM275.324 26.31C275.324 26.43 275.284 26.55 275.204 26.67C275.124 26.79 275.024 26.9 274.904 27C274.804 27.1 274.684 27.19 274.544 27.27C274.424 27.33 274.314 27.36 274.214 27.36C273.874 27.36 273.434 27.29 272.894 27.15C272.374 26.99 271.954 26.75 271.634 26.43C271.294 26.09 270.994 25.69 270.734 25.23C270.474 24.75 270.184 24.05 269.864 23.13C269.644 24.01 269.384 24.88 269.084 25.74C268.804 26.6 268.344 27.39 267.704 28.11C267.664 28.15 267.604 28.17 267.524 28.17C267.384 28.17 267.234 28.1 267.074 27.96C266.914 27.82 266.834 27.68 266.834 27.54C266.834 27.4 266.814 27.08 266.774 26.58C266.754 26.06 266.724 25.49 266.684 24.87C266.644 24.23 266.604 23.59 266.564 22.95C266.544 22.29 266.534 21.75 266.534 21.33C266.534 21.13 266.544 20.87 266.564 20.55C266.584 20.21 266.644 19.92 266.744 19.68C266.764 19.64 266.834 19.56 266.954 19.44C267.094 19.32 267.244 19.26 267.404 19.26C267.544 19.26 267.624 19.35 267.644 19.53C267.664 19.71 267.674 19.91 267.674 20.13V24.87C267.674 24.97 267.684 25.11 267.704 25.29C267.744 25.47 267.794 25.6 267.854 25.68C268.074 25.2 268.274 24.64 268.454 24C268.654 23.34 268.844 22.72 269.024 22.14C269.204 21.54 269.384 21.04 269.564 20.64C269.744 20.22 269.924 20.01 270.104 20.01C270.304 20.01 270.464 20.05 270.584 20.13C270.704 20.21 270.804 20.37 270.884 20.61C270.984 21.19 271.064 21.71 271.124 22.17C271.184 22.61 271.254 23.01 271.334 23.37C271.434 23.73 271.564 24.07 271.724 24.39C271.904 24.69 272.144 24.97 272.444 25.23C272.724 25.49 273.034 25.68 273.374 25.8C273.734 25.92 274.044 25.98 274.304 25.98C274.424 25.98 274.554 25.96 274.694 25.92C274.834 25.86 274.934 25.83 274.994 25.83C275.074 25.83 275.144 25.9 275.204 26.04C275.284 26.18 275.324 26.27 275.324 26.31ZM282.241 23.52C282.241 23.96 282.181 24.38 282.061 24.78C281.941 25.18 281.781 25.53 281.581 25.83C281.381 26.13 281.141 26.37 280.861 26.55C280.601 26.71 280.311 26.79 279.991 26.79C279.431 26.79 278.991 26.63 278.671 26.31C278.351 25.99 278.101 25.62 277.921 25.2C277.761 24.78 277.651 24.36 277.591 23.94C277.551 23.5 277.531 23.17 277.531 22.95C277.531 22.59 277.581 22.19 277.681 21.75C277.801 21.29 277.951 20.87 278.131 20.49C278.331 20.11 278.551 19.79 278.791 19.53C279.031 19.27 279.281 19.14 279.541 19.14C279.601 19.14 279.691 19.16 279.811 19.2C279.951 19.24 280.091 19.3 280.231 19.38C280.371 19.46 280.491 19.56 280.591 19.68C280.711 19.8 280.791 19.94 280.831 20.1C281.051 20.12 281.271 20.2 281.491 20.34C281.711 20.48 281.831 20.59 281.851 20.67C282.011 21.19 282.111 21.71 282.151 22.23C282.211 22.75 282.241 23.18 282.241 23.52ZM280.891 22.98C280.891 22.68 280.861 22.37 280.801 22.05C280.741 21.71 280.621 21.37 280.441 21.03C280.401 21.05 280.351 21.06 280.291 21.06C280.211 21.06 280.141 21.05 280.081 21.03C280.041 21.01 280.001 21 279.961 21C279.721 21 279.531 21.07 279.391 21.21C279.251 21.33 279.141 21.5 279.061 21.72C279.001 21.92 278.961 22.14 278.941 22.38C278.921 22.62 278.911 22.85 278.911 23.07C278.911 23.29 278.921 23.54 278.941 23.82C278.961 24.08 279.001 24.33 279.061 24.57C279.141 24.81 279.241 25.02 279.361 25.2C279.481 25.36 279.641 25.44 279.841 25.44C280.041 25.44 280.211 25.34 280.351 25.14C280.491 24.92 280.601 24.67 280.681 24.39C280.761 24.11 280.811 23.84 280.831 23.58C280.871 23.3 280.891 23.1 280.891 22.98ZM294.039 27.21C294.039 27.59 293.919 27.85 293.679 27.99C293.459 28.13 293.219 28.2 292.959 28.2C292.499 28.2 291.979 28 291.399 27.6C290.819 27.18 290.209 26.71 289.569 26.19C289.549 26.23 289.489 26.45 289.389 26.85C289.309 27.23 289.189 27.65 289.029 28.11C288.889 28.57 288.709 28.99 288.489 29.37C288.269 29.75 288.019 29.94 287.739 29.94C287.539 29.94 287.379 29.87 287.259 29.73C287.139 29.57 287.079 29.46 287.079 29.4C287.079 29.26 287.149 29 287.289 28.62C287.429 28.22 287.579 27.8 287.739 27.36C287.899 26.9 288.049 26.47 288.189 26.07C288.329 25.67 288.399 25.38 288.399 25.2C288.399 25.12 288.239 24.87 287.919 24.45C287.599 24.03 287.249 23.54 286.869 22.98C286.489 22.4 286.139 21.79 285.819 21.15C285.499 20.51 285.339 19.92 285.339 19.38C285.339 19.24 285.399 19.1 285.519 18.96C285.639 18.82 285.749 18.75 285.849 18.75C285.969 18.75 286.129 18.8 286.329 18.9C286.549 18.98 286.679 19.1 286.719 19.26C286.919 19.92 287.179 20.63 287.499 21.39C287.819 22.13 288.299 22.85 288.939 23.55C288.999 23.33 289.069 23.03 289.149 22.65C289.229 22.27 289.319 21.86 289.419 21.42C289.519 20.98 289.619 20.54 289.719 20.1C289.839 19.66 289.949 19.26 290.049 18.9C290.169 18.54 290.279 18.25 290.379 18.03C290.479 17.81 290.579 17.7 290.679 17.7C290.779 17.7 290.929 17.74 291.129 17.82C291.349 17.88 291.459 18.02 291.459 18.24C291.459 18.24 291.429 18.41 291.369 18.75C291.309 19.07 291.229 19.46 291.129 19.92C291.029 20.38 290.919 20.88 290.799 21.42C290.679 21.94 290.559 22.41 290.439 22.83C290.419 22.89 290.379 23 290.319 23.16C290.279 23.32 290.229 23.49 290.169 23.67C290.129 23.85 290.089 24.02 290.049 24.18C290.009 24.32 289.989 24.41 289.989 24.45C289.989 24.63 290.129 24.85 290.409 25.11C290.709 25.35 291.039 25.59 291.399 25.83C291.759 26.05 292.099 26.24 292.419 26.4C292.759 26.56 292.969 26.64 293.049 26.64C293.109 26.64 293.189 26.63 293.289 26.61C293.389 26.59 293.469 26.58 293.529 26.58C293.689 26.58 293.809 26.67 293.889 26.85C293.989 27.03 294.039 27.15 294.039 27.21Z" fill="#FEFFE2"/>
<path d="M25.4121 25.8008C25.4121 26.3802 25.3014 26.9238 25.0801 27.4316C24.8587 27.9395 24.556 28.3854 24.1719 28.7695C23.7943 29.1471 23.3516 29.4466 22.8438 29.668C22.3359 29.8893 21.7923 30 21.2129 30H15.6074V27.1973H21.2129C21.4082 27.1973 21.5905 27.1615 21.7598 27.0898C21.929 27.0182 22.0755 26.9206 22.1992 26.7969C22.3294 26.6667 22.4303 26.5169 22.502 26.3477C22.5736 26.1784 22.6094 25.9961 22.6094 25.8008C22.6094 25.6055 22.5736 25.4232 22.502 25.2539C22.4303 25.0846 22.3294 24.9382 22.1992 24.8145C22.0755 24.6842 21.929 24.5833 21.7598 24.5117C21.5905 24.4401 21.4082 24.4043 21.2129 24.4043H17.3945V21.6016H21.2129C21.4082 21.6016 21.5905 21.5658 21.7598 21.4941C21.929 21.4225 22.0755 21.3249 22.1992 21.2012C22.3294 21.071 22.4303 20.9212 22.502 20.752C22.5736 20.5762 22.6094 20.3906 22.6094 20.1953C22.6094 20 22.5736 19.8177 22.502 19.6484C22.4303 19.4792 22.3294 19.3327 22.1992 19.209C22.0755 19.0788 21.929 18.9779 21.7598 18.9062C21.5905 18.8346 21.4082 18.7988 21.2129 18.7988H15.6074V15.9961H21.2129C21.7923 15.9961 22.3359 16.1068 22.8438 16.3281C23.3516 16.5495 23.7943 16.8522 24.1719 17.2363C24.556 17.6139 24.8587 18.0566 25.0801 18.5645C25.3014 19.0723 25.4121 19.6159 25.4121 20.1953C25.4121 20.7096 25.3177 21.2109 25.1289 21.6992C24.9401 22.181 24.6732 22.6139 24.3281 22.998C24.6732 23.3822 24.9401 23.8184 25.1289 24.3066C25.3177 24.7884 25.4121 25.2865 25.4121 25.8008Z" fill="#FEFFE2"/>
</svg>
