<svg width="430" height="311" viewBox="0 0 430 311" fill="none" xmlns="http://www.w3.org/2000/svg">
<rect x="1.5" y="4.85474" width="427" height="303.931" rx="18.5" fill="#FEFFE2" fill-opacity="0.2" stroke="#C4C4C4" stroke-width="3"/>
<path d="M157.385 26.9256C157.385 27.6056 157.195 28.1856 156.815 28.6656C156.455 29.1456 155.825 29.3856 154.925 29.3856C154.305 29.3856 153.675 29.2756 153.035 29.0556C152.415 28.8356 151.805 28.5456 151.205 28.1856C150.605 27.8256 150.025 27.4056 149.465 26.9256C148.925 26.4456 148.435 25.9456 147.995 25.4256C147.955 25.6056 147.895 25.8656 147.815 26.2056C147.735 26.5456 147.635 26.8856 147.515 27.2256C147.395 27.5656 147.255 27.8656 147.095 28.1256C146.955 28.3656 146.805 28.4856 146.645 28.4856C146.385 28.4856 146.095 28.3556 145.775 28.0956C145.475 27.8356 145.165 27.4956 144.845 27.0756C144.545 26.6356 144.245 26.1356 143.945 25.5756C143.665 25.0156 143.415 24.4356 143.195 23.8356C142.615 22.1756 142.245 20.8756 142.085 19.9356C141.925 18.9756 141.845 18.4556 141.845 18.3756C141.845 18.2556 141.865 18.1456 141.905 18.0456C141.945 17.9456 142.035 17.8956 142.175 17.8956C142.395 17.8956 142.555 17.9656 142.655 18.1056C142.775 18.2256 142.855 18.3856 142.895 18.5856C142.995 19.0056 143.125 19.4956 143.285 20.0556C143.465 20.5956 143.655 21.1556 143.855 21.7356C144.075 22.3156 144.295 22.8856 144.515 23.4456C144.755 23.9856 144.985 24.4756 145.205 24.9156C145.425 25.3556 145.635 25.7156 145.835 25.9956C146.035 26.2556 146.205 26.3856 146.345 26.3856C146.485 26.3856 146.585 26.2756 146.645 26.0556C146.725 25.8156 146.785 25.5456 146.825 25.2456C146.865 24.9456 146.885 24.6556 146.885 24.3756C146.905 24.0956 146.915 23.9056 146.915 23.8056C146.815 23.6256 146.735 23.4156 146.675 23.1756C146.635 22.9356 146.615 22.7356 146.615 22.5756C146.615 22.3156 146.675 22.0956 146.795 21.9156C146.935 21.7356 147.065 21.6456 147.185 21.6456C147.265 21.6456 147.315 21.6556 147.335 21.6756C147.375 21.6956 147.425 21.7156 147.485 21.7356C147.545 21.7356 147.595 21.7356 147.635 21.7356C147.675 21.7156 147.725 21.7056 147.785 21.7056C147.825 21.7056 147.865 21.7256 147.905 21.7656C147.965 21.7856 148.025 21.8656 148.085 22.0056C148.345 22.6856 148.715 23.3856 149.195 24.1056C149.675 24.8256 150.215 25.4756 150.815 26.0556C151.415 26.6356 152.065 27.1156 152.765 27.4956C153.465 27.8756 154.175 28.0656 154.895 28.0656C155.155 28.0656 155.395 27.9856 155.615 27.8256C155.835 27.6456 155.945 27.4156 155.945 27.1356C155.945 26.2956 155.855 25.4356 155.675 24.5556C155.515 23.6756 155.285 22.7756 154.985 21.8556C154.705 20.9356 154.375 20.0056 153.995 19.0656C153.615 18.1056 153.225 17.1256 152.825 16.1256C152.485 15.2856 152.155 14.6256 151.835 14.1456C151.535 13.6456 151.265 13.2556 151.025 12.9756C150.805 12.6756 150.625 12.4356 150.485 12.2556C150.345 12.0556 150.275 11.8156 150.275 11.5356C150.275 11.1956 150.395 10.9456 150.635 10.7856C150.895 10.6256 151.165 10.5456 151.445 10.5456C151.605 10.5456 151.785 10.7056 151.985 11.0256C152.185 11.3256 152.395 11.7256 152.615 12.2256C152.835 12.7056 153.055 13.2456 153.275 13.8456C153.495 14.4456 153.715 15.0456 153.935 15.6456C154.255 16.5256 154.615 17.4756 155.015 18.4956C155.415 19.4956 155.785 20.5056 156.125 21.5256C156.485 22.5256 156.785 23.4956 157.025 24.4356C157.265 25.3756 157.385 26.2056 157.385 26.9256ZM161.543 16.4856C161.543 16.5256 161.473 16.6056 161.333 16.7256C161.193 16.8456 161.023 16.9756 160.823 17.1156C160.643 17.2356 160.453 17.3456 160.253 17.4456C160.053 17.5456 159.893 17.5956 159.773 17.5956C159.693 17.5956 159.583 17.5956 159.443 17.5956C159.323 17.5756 159.193 17.5356 159.053 17.4756C158.933 17.4156 158.823 17.3356 158.723 17.2356C158.623 17.1156 158.573 16.9656 158.573 16.7856C158.573 16.5056 158.673 16.2456 158.873 16.0056C159.073 15.7456 159.333 15.6156 159.653 15.6156C159.713 15.6156 159.843 15.6456 160.043 15.7056C160.263 15.7456 160.483 15.8056 160.703 15.8856C160.923 15.9656 161.113 16.0556 161.273 16.1556C161.453 16.2556 161.543 16.3656 161.543 16.4856ZM162.533 27.7056C162.533 27.8456 162.423 27.9656 162.203 28.0656C162.003 28.1656 161.853 28.2156 161.753 28.2156C161.553 28.2156 161.373 28.0856 161.213 27.8256C161.053 27.5656 160.913 27.2656 160.793 26.9256C160.673 26.5856 160.573 26.2656 160.493 25.9656C160.413 25.6456 160.353 25.4256 160.313 25.3056C160.253 25.1056 160.173 24.8656 160.073 24.5856C159.973 24.3056 159.873 24.0356 159.773 23.7756C159.693 23.5156 159.623 23.2856 159.563 23.0856C159.503 22.8856 159.473 22.7756 159.473 22.7556C159.473 22.4756 159.523 22.2156 159.623 21.9756C159.743 21.7356 159.883 21.6156 160.043 21.6156C160.223 21.6156 160.413 21.7556 160.613 22.0356C160.813 22.3156 161.003 22.6756 161.183 23.1156C161.383 23.5356 161.563 24.0056 161.723 24.5256C161.883 25.0256 162.023 25.5056 162.143 25.9656C162.263 26.4056 162.353 26.7956 162.413 27.1356C162.493 27.4556 162.533 27.6456 162.533 27.7056ZM173.431 26.5956C173.431 26.7156 173.391 26.8356 173.311 26.9556C173.231 27.0756 173.131 27.1856 173.011 27.2856C172.911 27.3856 172.791 27.4756 172.651 27.5556C172.531 27.6156 172.421 27.6456 172.321 27.6456C171.981 27.6456 171.541 27.5756 171.001 27.4356C170.481 27.2756 170.061 27.0356 169.741 26.7156C169.401 26.3756 169.101 25.9756 168.841 25.5156C168.581 25.0356 168.291 24.3356 167.971 23.4156C167.751 24.2956 167.491 25.1656 167.191 26.0256C166.911 26.8856 166.451 27.6756 165.811 28.3956C165.771 28.4356 165.711 28.4556 165.631 28.4556C165.491 28.4556 165.341 28.3856 165.181 28.2456C165.021 28.1056 164.941 27.9656 164.941 27.8256C164.941 27.6856 164.921 27.3656 164.881 26.8656C164.861 26.3456 164.831 25.7756 164.791 25.1556C164.751 24.5156 164.711 23.8756 164.671 23.2356C164.651 22.5756 164.641 22.0356 164.641 21.6156C164.641 21.4156 164.651 21.1556 164.671 20.8356C164.691 20.4956 164.751 20.2056 164.851 19.9656C164.871 19.9256 164.941 19.8456 165.061 19.7256C165.201 19.6056 165.351 19.5456 165.511 19.5456C165.651 19.5456 165.731 19.6356 165.751 19.8156C165.771 19.9956 165.781 20.1956 165.781 20.4156V25.1556C165.781 25.2556 165.791 25.3956 165.811 25.5756C165.851 25.7556 165.901 25.8856 165.961 25.9656C166.181 25.4856 166.381 24.9256 166.561 24.2856C166.761 23.6256 166.951 23.0056 167.131 22.4256C167.311 21.8256 167.491 21.3256 167.671 20.9256C167.851 20.5056 168.031 20.2956 168.211 20.2956C168.411 20.2956 168.571 20.3356 168.691 20.4156C168.811 20.4956 168.911 20.6556 168.991 20.8956C169.091 21.4756 169.171 21.9956 169.231 22.4556C169.291 22.8956 169.361 23.2956 169.441 23.6556C169.541 24.0156 169.671 24.3556 169.831 24.6756C170.011 24.9756 170.251 25.2556 170.551 25.5156C170.831 25.7756 171.141 25.9656 171.481 26.0856C171.841 26.2056 172.151 26.2656 172.411 26.2656C172.531 26.2656 172.661 26.2456 172.801 26.2056C172.941 26.1456 173.041 26.1156 173.101 26.1156C173.181 26.1156 173.251 26.1856 173.311 26.3256C173.391 26.4656 173.431 26.5556 173.431 26.5956ZM182.928 16.7256C182.668 17.0256 182.298 17.3256 181.818 17.6256C181.338 17.9056 180.858 18.1656 180.378 18.4056C179.898 18.6456 179.478 18.8556 179.118 19.0356C178.758 19.1956 178.578 19.3056 178.578 19.3656C178.578 19.4256 178.618 19.6056 178.698 19.9056C178.778 20.2056 178.868 20.5656 178.968 20.9856C179.088 21.3856 179.208 21.8056 179.328 22.2456C179.448 22.6856 179.548 23.0756 179.628 23.4156C179.668 23.6156 179.718 23.8756 179.778 24.1956C179.838 24.5156 179.888 24.8356 179.928 25.1556C179.988 25.4756 180.038 25.7656 180.078 26.0256C180.118 26.2656 180.138 26.3956 180.138 26.4156C180.138 26.7156 180.088 27.0256 179.988 27.3456C179.888 27.6656 179.728 27.8256 179.508 27.8256C179.388 27.8256 179.278 27.7756 179.178 27.6756C179.078 27.5756 178.988 27.4656 178.908 27.3456C178.828 27.2056 178.768 27.0756 178.728 26.9556C178.688 26.8356 178.668 26.7456 178.668 26.6856C178.668 26.6456 178.668 26.5856 178.668 26.5056C178.688 26.4256 178.698 26.3356 178.698 26.2356C178.698 25.8556 178.638 25.3056 178.518 24.5856C178.478 24.3656 178.398 24.0256 178.278 23.5656C178.158 23.1056 178.038 22.6356 177.918 22.1556C177.778 21.5956 177.618 20.9856 177.438 20.3256C177.358 20.0456 177.308 19.9056 177.288 19.9056C177.148 19.9056 176.908 19.9956 176.568 20.1756C176.248 20.3356 175.878 20.5456 175.458 20.8056C175.038 21.0456 174.598 21.3156 174.138 21.6156C173.678 21.8956 173.248 22.1656 172.848 22.4256C172.448 22.6656 172.108 22.8756 171.828 23.0556C171.528 23.2156 171.348 23.2956 171.288 23.2956C171.028 23.2956 170.818 23.2056 170.658 23.0256C170.498 22.8456 170.418 22.6456 170.418 22.4256C170.418 22.3056 170.588 22.1356 170.928 21.9156C171.248 21.6756 171.658 21.4156 172.158 21.1356C172.638 20.8556 173.168 20.5656 173.748 20.2656C174.308 19.9656 174.828 19.6956 175.308 19.4556C175.808 19.2156 176.218 19.0156 176.538 18.8556C176.878 18.6956 177.048 18.6156 177.048 18.6156C176.868 17.6956 176.718 16.8756 176.598 16.1556C176.498 15.5356 176.398 14.9656 176.298 14.4456C176.218 13.9256 176.178 13.6456 176.178 13.6056C176.178 13.3456 176.228 13.1556 176.328 13.0356C176.448 12.8956 176.578 12.8256 176.718 12.8256C176.938 12.8256 177.078 12.9756 177.138 13.2756C177.358 14.3556 177.558 15.3156 177.738 16.1556C177.938 16.9956 178.128 17.6756 178.308 18.1956C178.488 18.1556 178.798 18.0456 179.238 17.8656C179.678 17.6656 180.138 17.4556 180.618 17.2356C181.098 17.0156 181.528 16.8256 181.908 16.6656C182.308 16.4856 182.538 16.3956 182.598 16.3956C182.718 16.3956 182.788 16.4356 182.808 16.5156C182.848 16.5956 182.888 16.6656 182.928 16.7256ZM192.898 27.1356C192.918 27.1756 192.928 27.2356 192.928 27.3156C192.928 27.4356 192.838 27.6156 192.658 27.8556C192.598 27.9356 192.468 28.0656 192.268 28.2456C192.068 28.4256 191.798 28.6056 191.458 28.7856C191.118 28.9656 190.698 29.1256 190.198 29.2656C189.718 29.4056 189.148 29.4756 188.488 29.4756C188.028 29.4756 187.578 29.3756 187.138 29.1756C186.698 28.9556 186.308 28.6456 185.968 28.2456C185.628 27.8256 185.348 27.3156 185.128 26.7156C184.908 26.0956 184.798 25.3756 184.798 24.5556C184.798 23.7756 184.898 23.0456 185.098 22.3656C185.298 21.6856 185.548 21.0856 185.848 20.5656C186.168 20.0456 186.518 19.6356 186.898 19.3356C187.278 19.0356 187.648 18.8856 188.008 18.8856C188.328 18.8856 188.648 18.9556 188.968 19.0956C189.308 19.2156 189.608 19.3756 189.868 19.5756C190.148 19.7756 190.368 20.0056 190.528 20.2656C190.688 20.5056 190.768 20.7556 190.768 21.0156C190.768 21.3156 190.628 21.6256 190.348 21.9456C190.088 22.2656 189.768 22.5656 189.388 22.8456C189.008 23.1056 188.628 23.3256 188.248 23.5056C187.868 23.6656 187.568 23.7456 187.348 23.7456C187.228 23.7456 187.118 23.6956 187.018 23.5956C186.938 23.4756 186.898 23.3356 186.898 23.1756C186.898 22.8956 187.018 22.6756 187.258 22.5156C187.518 22.3556 187.798 22.2156 188.098 22.0956C188.398 21.9556 188.668 21.7956 188.908 21.6156C189.168 21.4356 189.298 21.1856 189.298 20.8656C189.298 20.8256 189.248 20.7256 189.148 20.5656C189.048 20.4056 188.778 20.3256 188.338 20.3256C188.138 20.3256 187.908 20.4456 187.648 20.6856C187.388 20.9056 187.138 21.2156 186.898 21.6156C186.658 21.9956 186.458 22.4556 186.298 22.9956C186.138 23.5156 186.058 24.0856 186.058 24.7056C186.058 25.2256 186.148 25.6956 186.328 26.1156C186.528 26.5356 186.778 26.8956 187.078 27.1956C187.378 27.4756 187.728 27.6956 188.128 27.8556C188.528 28.0156 188.938 28.0956 189.358 28.0956C189.658 28.0956 189.978 28.0356 190.318 27.9156C190.678 27.7756 191.008 27.6356 191.308 27.4956C191.628 27.3356 191.898 27.1956 192.118 27.0756C192.358 26.9356 192.508 26.8656 192.568 26.8656C192.628 26.8656 192.688 26.8956 192.748 26.9556C192.828 27.0156 192.878 27.0756 192.898 27.1356ZM202.097 21.1356C202.097 21.2756 202.037 21.3956 201.917 21.4956C201.797 21.5756 201.657 21.6456 201.497 21.7056C201.337 21.7656 201.177 21.8156 201.017 21.8556C200.857 21.8756 200.727 21.8856 200.627 21.8856C200.327 21.8856 200.127 21.8656 200.027 21.8256C199.927 21.7856 199.847 21.7656 199.787 21.7656C199.287 21.7656 198.887 21.8056 198.587 21.8856C198.287 21.9656 198.047 22.0956 197.867 22.2756C197.707 22.4556 197.597 22.6856 197.537 22.9656C197.497 23.2256 197.477 23.5456 197.477 23.9256C197.477 24.5656 197.497 25.0756 197.537 25.4556C197.597 25.8356 197.647 26.1456 197.687 26.3856C197.747 26.6256 197.797 26.8156 197.837 26.9556C197.897 27.0756 197.927 27.1956 197.927 27.3156C197.927 27.4756 197.837 27.6456 197.657 27.8256C197.497 28.0056 197.347 28.0956 197.207 28.0956C196.967 28.0956 196.747 27.8856 196.547 27.4656C196.367 27.0256 196.207 26.5156 196.067 25.9356C195.947 25.3356 195.847 24.7456 195.767 24.1656C195.687 23.5856 195.647 23.1456 195.647 22.8456C195.647 22.5056 195.677 22.1856 195.737 21.8856C195.797 21.5656 195.877 21.2956 195.977 21.0756C196.077 20.8356 196.187 20.6456 196.307 20.5056C196.427 20.3656 196.547 20.2956 196.667 20.2956C196.767 20.2956 196.847 20.3356 196.907 20.4156C196.967 20.4756 197.017 20.5556 197.057 20.6556C197.097 20.7356 197.137 20.8156 197.177 20.8956C197.237 20.9556 197.307 20.9856 197.387 20.9856C197.567 20.9856 197.857 20.8956 198.257 20.7156C198.657 20.5356 199.147 20.4456 199.727 20.4456C200.267 20.4456 200.667 20.4656 200.927 20.5056C201.207 20.5256 201.477 20.5856 201.737 20.6856C201.797 20.7056 201.867 20.7556 201.947 20.8356C202.047 20.8956 202.097 20.9956 202.097 21.1356ZM228.961 25.9356C228.961 26.8356 228.801 27.5456 228.481 28.0656C228.161 28.5656 227.691 29.0356 227.071 29.4756C226.911 29.5756 226.691 29.6956 226.411 29.8356C226.131 29.9756 225.821 30.1056 225.481 30.2256C225.141 30.3456 224.781 30.4456 224.401 30.5256C224.021 30.6056 223.671 30.6456 223.351 30.6456C222.451 30.6456 221.771 30.5456 221.311 30.3456C220.851 30.1656 220.621 29.9456 220.621 29.6856C220.621 29.4056 220.701 29.1756 220.861 28.9956C221.021 28.8156 221.161 28.7156 221.281 28.6956L221.611 28.9356C221.711 29.0356 221.851 29.1456 222.031 29.2656C222.211 29.3656 222.501 29.4156 222.901 29.4156C223.281 29.4156 223.741 29.3556 224.281 29.2356C224.821 29.0956 225.331 28.8956 225.811 28.6356C226.311 28.3556 226.731 28.0156 227.071 27.6156C227.431 27.2156 227.611 26.7556 227.611 26.2356C227.611 25.7756 227.261 25.3556 226.561 24.9756C225.881 24.5756 224.801 24.3056 223.321 24.1656C222.561 24.1056 221.811 24.0156 221.071 23.8956C220.331 23.7556 219.661 23.5756 219.061 23.3556C218.481 23.1156 218.011 22.8256 217.651 22.4856C217.291 22.1256 217.111 21.6856 217.111 21.1656C217.111 20.6656 217.251 20.1856 217.531 19.7256C217.811 19.2656 218.151 18.8456 218.551 18.4656C218.971 18.0656 219.401 17.7156 219.841 17.4156C220.281 17.1156 220.651 16.8656 220.951 16.6656C221.191 16.5256 221.521 16.3456 221.941 16.1256C222.381 15.8856 222.841 15.6656 223.321 15.4656C223.821 15.2456 224.311 15.0656 224.791 14.9256C225.291 14.7656 225.711 14.6856 226.051 14.6856C226.451 14.6856 226.721 14.7956 226.861 15.0156C227.001 15.2356 227.071 15.5456 227.071 15.9456C227.071 16.2856 227.031 16.6456 226.951 17.0256C226.871 17.4056 226.781 17.7756 226.681 18.1356C226.581 18.4956 226.481 18.8156 226.381 19.0956C226.301 19.3556 226.241 19.5256 226.201 19.6056C226.121 19.7856 226.031 19.9056 225.931 19.9656C225.831 20.0256 225.761 20.0556 225.721 20.0556C225.641 20.0556 225.601 20.0056 225.601 19.9056C225.601 19.8456 225.611 19.7356 225.631 19.5756C225.671 19.3956 225.711 19.1856 225.751 18.9456C225.811 18.7056 225.851 18.4456 225.871 18.1656C225.911 17.8856 225.931 17.6056 225.931 17.3256C225.931 16.8856 225.911 16.5656 225.871 16.3656C225.831 16.1656 225.671 16.0656 225.391 16.0656C225.111 16.0656 224.731 16.1456 224.251 16.3056C223.771 16.4456 223.281 16.6256 222.781 16.8456C222.241 17.0856 221.711 17.3956 221.191 17.7756C220.691 18.1556 220.241 18.5456 219.841 18.9456C219.441 19.3456 219.111 19.7356 218.851 20.1156C218.611 20.4756 218.491 20.7656 218.491 20.9856C218.491 21.2256 218.651 21.4556 218.971 21.6756C219.311 21.8756 219.731 22.0556 220.231 22.2156C220.751 22.3756 221.321 22.5156 221.941 22.6356C222.561 22.7556 223.171 22.8456 223.771 22.9056C224.271 22.9656 224.821 23.0456 225.421 23.1456C226.021 23.2456 226.581 23.4056 227.101 23.6256C227.621 23.8456 228.061 24.1456 228.421 24.5256C228.781 24.8856 228.961 25.3556 228.961 25.9356ZM235.983 23.8056C235.983 24.2456 235.923 24.6656 235.803 25.0656C235.683 25.4656 235.523 25.8156 235.323 26.1156C235.123 26.4156 234.883 26.6556 234.603 26.8356C234.343 26.9956 234.053 27.0756 233.733 27.0756C233.173 27.0756 232.733 26.9156 232.413 26.5956C232.093 26.2756 231.843 25.9056 231.663 25.4856C231.503 25.0656 231.393 24.6456 231.333 24.2256C231.293 23.7856 231.273 23.4556 231.273 23.2356C231.273 22.8756 231.323 22.4756 231.423 22.0356C231.543 21.5756 231.693 21.1556 231.873 20.7756C232.073 20.3956 232.293 20.0756 232.533 19.8156C232.773 19.5556 233.023 19.4256 233.283 19.4256C233.343 19.4256 233.433 19.4456 233.553 19.4856C233.693 19.5256 233.833 19.5856 233.973 19.6656C234.113 19.7456 234.233 19.8456 234.333 19.9656C234.453 20.0856 234.533 20.2256 234.573 20.3856C234.793 20.4056 235.013 20.4856 235.233 20.6256C235.453 20.7656 235.573 20.8756 235.593 20.9556C235.753 21.4756 235.853 21.9956 235.893 22.5156C235.953 23.0356 235.983 23.4656 235.983 23.8056ZM234.633 23.2656C234.633 22.9656 234.603 22.6556 234.543 22.3356C234.483 21.9956 234.363 21.6556 234.183 21.3156C234.143 21.3356 234.093 21.3456 234.033 21.3456C233.953 21.3456 233.883 21.3356 233.823 21.3156C233.783 21.2956 233.743 21.2856 233.703 21.2856C233.463 21.2856 233.273 21.3556 233.133 21.4956C232.993 21.6156 232.883 21.7856 232.803 22.0056C232.743 22.2056 232.703 22.4256 232.683 22.6656C232.663 22.9056 232.653 23.1356 232.653 23.3556C232.653 23.5756 232.663 23.8256 232.683 24.1056C232.703 24.3656 232.743 24.6156 232.803 24.8556C232.883 25.0956 232.983 25.3056 233.103 25.4856C233.223 25.6456 233.383 25.7256 233.583 25.7256C233.783 25.7256 233.953 25.6256 234.093 25.4256C234.233 25.2056 234.343 24.9556 234.423 24.6756C234.503 24.3956 234.553 24.1256 234.573 23.8656C234.613 23.5856 234.633 23.3856 234.633 23.2656ZM243.011 29.4156C243.011 29.5756 242.951 29.6956 242.831 29.7756C242.711 29.8556 242.571 29.8956 242.411 29.8956C242.231 29.8956 242.041 29.7256 241.841 29.3856C241.661 29.0456 241.481 28.6156 241.301 28.0956C241.121 27.5756 240.951 27.0156 240.791 26.4156C240.631 25.7956 240.491 25.2256 240.371 24.7056C240.251 24.1656 240.151 23.7156 240.071 23.3556C240.011 22.9956 239.981 22.7956 239.981 22.7556C239.981 22.6756 239.941 22.4656 239.861 22.1256C239.801 21.7856 239.711 21.2556 239.591 20.5356C239.491 19.8156 239.371 18.8856 239.231 17.7456C239.111 16.5856 238.981 15.1556 238.841 13.4556C238.841 13.2756 238.871 13.0456 238.931 12.7656C238.991 12.4856 239.131 12.3456 239.351 12.3456C239.631 12.3456 239.841 12.5356 239.981 12.9156C240.141 13.2956 240.261 13.7656 240.341 14.3256C240.441 14.8856 240.511 15.4756 240.551 16.0956C240.591 16.6956 240.641 17.2256 240.701 17.6856C240.781 18.3256 240.851 18.9056 240.911 19.4256C240.991 19.9456 241.061 20.4656 241.121 20.9856C241.201 21.4856 241.291 22.0156 241.391 22.5756C241.511 23.1356 241.651 23.7556 241.811 24.4356L243.011 29.4156ZM252.099 26.3256C252.099 26.6656 251.979 26.9656 251.739 27.2256C251.519 27.4656 251.229 27.6756 250.869 27.8556C250.529 28.0156 250.149 28.1456 249.729 28.2456C249.309 28.3456 248.909 28.4256 248.529 28.4856C248.149 28.5256 247.809 28.5556 247.509 28.5756C247.229 28.5756 247.049 28.5756 246.969 28.5756C246.529 28.5756 246.189 28.5056 245.949 28.3656C245.709 28.2256 245.589 27.9756 245.589 27.6156C245.589 27.4956 245.599 27.3956 245.619 27.3156C245.639 27.2156 245.719 27.1656 245.859 27.1656C245.919 27.1656 246.019 27.1856 246.159 27.2256C246.299 27.2456 246.409 27.2556 246.489 27.2556C246.569 27.2556 246.819 27.2456 247.239 27.2256C247.679 27.1856 248.139 27.1256 248.619 27.0456C249.119 26.9656 249.559 26.8556 249.939 26.7156C250.339 26.5556 250.539 26.3556 250.539 26.1156C250.539 26.0756 250.329 25.9556 249.909 25.7556C249.509 25.5356 248.899 25.1756 248.079 24.6756C247.439 24.2756 246.989 23.8756 246.729 23.4756C246.469 23.0556 246.339 22.4956 246.339 21.7956C246.339 21.3556 246.429 20.9956 246.609 20.7156C246.809 20.4356 247.069 20.2156 247.389 20.0556C247.729 19.8956 248.109 19.7856 248.529 19.7256C248.969 19.6456 249.429 19.6056 249.909 19.6056C249.949 19.6056 250.069 19.6256 250.269 19.6656C250.489 19.7056 250.719 19.7756 250.959 19.8756C251.199 19.9556 251.409 20.0656 251.589 20.2056C251.789 20.3256 251.889 20.4656 251.889 20.6256C251.889 20.6656 251.849 20.7256 251.769 20.8056C251.709 20.8856 251.599 21.0356 251.439 21.2556C251.379 21.2356 251.269 21.2056 251.109 21.1656C250.969 21.1256 250.799 21.0856 250.599 21.0456C250.419 20.9856 250.229 20.9456 250.029 20.9256C249.829 20.8856 249.669 20.8656 249.549 20.8656C249.029 20.8656 248.609 20.9656 248.289 21.1656C247.969 21.3456 247.809 21.7056 247.809 22.2456C247.809 22.5056 247.909 22.7456 248.109 22.9656C248.329 23.1856 248.599 23.3956 248.919 23.5956C249.239 23.7756 249.579 23.9656 249.939 24.1656C250.319 24.3456 250.669 24.5456 250.989 24.7656C251.309 24.9856 251.569 25.2256 251.769 25.4856C251.989 25.7256 252.099 26.0056 252.099 26.3256ZM262.616 16.7256C262.356 17.0256 261.986 17.3256 261.506 17.6256C261.026 17.9056 260.546 18.1656 260.066 18.4056C259.586 18.6456 259.166 18.8556 258.806 19.0356C258.446 19.1956 258.266 19.3056 258.266 19.3656C258.266 19.4256 258.306 19.6056 258.386 19.9056C258.466 20.2056 258.556 20.5656 258.656 20.9856C258.776 21.3856 258.896 21.8056 259.016 22.2456C259.136 22.6856 259.236 23.0756 259.316 23.4156C259.356 23.6156 259.406 23.8756 259.466 24.1956C259.526 24.5156 259.576 24.8356 259.616 25.1556C259.676 25.4756 259.726 25.7656 259.766 26.0256C259.806 26.2656 259.826 26.3956 259.826 26.4156C259.826 26.7156 259.776 27.0256 259.676 27.3456C259.576 27.6656 259.416 27.8256 259.196 27.8256C259.076 27.8256 258.966 27.7756 258.866 27.6756C258.766 27.5756 258.676 27.4656 258.596 27.3456C258.516 27.2056 258.456 27.0756 258.416 26.9556C258.376 26.8356 258.356 26.7456 258.356 26.6856C258.356 26.6456 258.356 26.5856 258.356 26.5056C258.376 26.4256 258.386 26.3356 258.386 26.2356C258.386 25.8556 258.326 25.3056 258.206 24.5856C258.166 24.3656 258.086 24.0256 257.966 23.5656C257.846 23.1056 257.726 22.6356 257.606 22.1556C257.466 21.5956 257.306 20.9856 257.126 20.3256C257.046 20.0456 256.996 19.9056 256.976 19.9056C256.836 19.9056 256.596 19.9956 256.256 20.1756C255.936 20.3356 255.566 20.5456 255.146 20.8056C254.726 21.0456 254.286 21.3156 253.826 21.6156C253.366 21.8956 252.936 22.1656 252.536 22.4256C252.136 22.6656 251.796 22.8756 251.516 23.0556C251.216 23.2156 251.036 23.2956 250.976 23.2956C250.716 23.2956 250.506 23.2056 250.346 23.0256C250.186 22.8456 250.106 22.6456 250.106 22.4256C250.106 22.3056 250.276 22.1356 250.616 21.9156C250.936 21.6756 251.346 21.4156 251.846 21.1356C252.326 20.8556 252.856 20.5656 253.436 20.2656C253.996 19.9656 254.516 19.6956 254.996 19.4556C255.496 19.2156 255.906 19.0156 256.226 18.8556C256.566 18.6956 256.736 18.6156 256.736 18.6156C256.556 17.6956 256.406 16.8756 256.286 16.1556C256.186 15.5356 256.086 14.9656 255.986 14.4456C255.906 13.9256 255.866 13.6456 255.866 13.6056C255.866 13.3456 255.916 13.1556 256.016 13.0356C256.136 12.8956 256.266 12.8256 256.406 12.8256C256.626 12.8256 256.766 12.9756 256.826 13.2756C257.046 14.3556 257.246 15.3156 257.426 16.1556C257.626 16.9956 257.816 17.6756 257.996 18.1956C258.176 18.1556 258.486 18.0456 258.926 17.8656C259.366 17.6656 259.826 17.4556 260.306 17.2356C260.786 17.0156 261.216 16.8256 261.596 16.6656C261.996 16.4856 262.226 16.3956 262.286 16.3956C262.406 16.3956 262.476 16.4356 262.496 16.5156C262.536 16.5956 262.576 16.6656 262.616 16.7256ZM266.016 16.4856C266.016 16.5256 265.946 16.6056 265.806 16.7256C265.666 16.8456 265.496 16.9756 265.296 17.1156C265.116 17.2356 264.926 17.3456 264.726 17.4456C264.526 17.5456 264.366 17.5956 264.246 17.5956C264.166 17.5956 264.056 17.5956 263.916 17.5956C263.796 17.5756 263.666 17.5356 263.526 17.4756C263.406 17.4156 263.296 17.3356 263.196 17.2356C263.096 17.1156 263.046 16.9656 263.046 16.7856C263.046 16.5056 263.146 16.2456 263.346 16.0056C263.546 15.7456 263.806 15.6156 264.126 15.6156C264.186 15.6156 264.316 15.6456 264.516 15.7056C264.736 15.7456 264.956 15.8056 265.176 15.8856C265.396 15.9656 265.586 16.0556 265.746 16.1556C265.926 16.2556 266.016 16.3656 266.016 16.4856ZM267.006 27.7056C267.006 27.8456 266.896 27.9656 266.676 28.0656C266.476 28.1656 266.326 28.2156 266.226 28.2156C266.026 28.2156 265.846 28.0856 265.686 27.8256C265.526 27.5656 265.386 27.2656 265.266 26.9256C265.146 26.5856 265.046 26.2656 264.966 25.9656C264.886 25.6456 264.826 25.4256 264.786 25.3056C264.726 25.1056 264.646 24.8656 264.546 24.5856C264.446 24.3056 264.346 24.0356 264.246 23.7756C264.166 23.5156 264.096 23.2856 264.036 23.0856C263.976 22.8856 263.946 22.7756 263.946 22.7556C263.946 22.4756 263.996 22.2156 264.096 21.9756C264.216 21.7356 264.356 21.6156 264.516 21.6156C264.696 21.6156 264.886 21.7556 265.086 22.0356C265.286 22.3156 265.476 22.6756 265.656 23.1156C265.856 23.5356 266.036 24.0056 266.196 24.5256C266.356 25.0256 266.496 25.5056 266.616 25.9656C266.736 26.4056 266.826 26.7956 266.886 27.1356C266.966 27.4556 267.006 27.6456 267.006 27.7056ZM277.544 24.8256C277.544 25.0256 277.514 25.2356 277.454 25.4556C277.394 25.6556 277.334 25.8256 277.274 25.9656C277.234 26.0256 277.044 26.2356 276.704 26.5956C276.384 26.9356 275.974 27.2956 275.474 27.6756C274.994 28.0556 274.444 28.4056 273.824 28.7256C273.224 29.0256 272.644 29.1756 272.084 29.1756C271.744 29.1756 271.394 29.1156 271.034 28.9956C270.694 28.8756 270.374 28.6856 270.074 28.4256C269.774 28.1456 269.524 27.8056 269.324 27.4056C269.144 27.0056 269.054 26.5156 269.054 25.9356C269.054 24.9756 269.214 24.1056 269.534 23.3256C269.854 22.5456 270.174 21.9256 270.494 21.4656C270.634 21.2456 270.814 21.0256 271.034 20.8056C271.274 20.5656 271.504 20.3556 271.724 20.1756C271.944 19.9756 272.144 19.8156 272.324 19.6956C272.524 19.5756 272.664 19.5156 272.744 19.5156C272.924 19.5156 273.084 19.5656 273.224 19.6656C273.384 19.7656 273.464 19.8656 273.464 19.9656C273.464 20.1256 273.414 20.2656 273.314 20.3856C273.234 20.4856 273.114 20.6056 272.954 20.7456C272.794 20.8656 272.604 21.0356 272.384 21.2556C272.164 21.4556 271.934 21.7256 271.694 22.0656C271.214 22.7256 270.854 23.4056 270.614 24.1056C270.394 24.7856 270.284 25.3856 270.284 25.9056C270.284 26.4256 270.474 26.8456 270.854 27.1656C271.254 27.4656 271.664 27.6156 272.084 27.6156C272.844 27.6156 273.514 27.4456 274.094 27.1056C274.694 26.7656 275.204 26.3856 275.624 25.9656C276.044 25.5456 276.384 25.1656 276.644 24.8256C276.904 24.4856 277.094 24.3156 277.214 24.3156C277.434 24.3156 277.544 24.4856 277.544 24.8256ZM288.289 27.1356C288.309 27.1756 288.319 27.2356 288.319 27.3156C288.319 27.4356 288.229 27.6156 288.049 27.8556C287.989 27.9356 287.859 28.0656 287.659 28.2456C287.459 28.4256 287.189 28.6056 286.849 28.7856C286.509 28.9656 286.089 29.1256 285.589 29.2656C285.109 29.4056 284.539 29.4756 283.879 29.4756C283.419 29.4756 282.969 29.3756 282.529 29.1756C282.089 28.9556 281.699 28.6456 281.359 28.2456C281.019 27.8256 280.739 27.3156 280.519 26.7156C280.299 26.0956 280.189 25.3756 280.189 24.5556C280.189 23.7756 280.289 23.0456 280.489 22.3656C280.689 21.6856 280.939 21.0856 281.239 20.5656C281.559 20.0456 281.909 19.6356 282.289 19.3356C282.669 19.0356 283.039 18.8856 283.399 18.8856C283.719 18.8856 284.039 18.9556 284.359 19.0956C284.699 19.2156 284.999 19.3756 285.259 19.5756C285.539 19.7756 285.759 20.0056 285.919 20.2656C286.079 20.5056 286.159 20.7556 286.159 21.0156C286.159 21.3156 286.019 21.6256 285.739 21.9456C285.479 22.2656 285.159 22.5656 284.779 22.8456C284.399 23.1056 284.019 23.3256 283.639 23.5056C283.259 23.6656 282.959 23.7456 282.739 23.7456C282.619 23.7456 282.509 23.6956 282.409 23.5956C282.329 23.4756 282.289 23.3356 282.289 23.1756C282.289 22.8956 282.409 22.6756 282.649 22.5156C282.909 22.3556 283.189 22.2156 283.489 22.0956C283.789 21.9556 284.059 21.7956 284.299 21.6156C284.559 21.4356 284.689 21.1856 284.689 20.8656C284.689 20.8256 284.639 20.7256 284.539 20.5656C284.439 20.4056 284.169 20.3256 283.729 20.3256C283.529 20.3256 283.299 20.4456 283.039 20.6856C282.779 20.9056 282.529 21.2156 282.289 21.6156C282.049 21.9956 281.849 22.4556 281.689 22.9956C281.529 23.5156 281.449 24.0856 281.449 24.7056C281.449 25.2256 281.539 25.6956 281.719 26.1156C281.919 26.5356 282.169 26.8956 282.469 27.1956C282.769 27.4756 283.119 27.6956 283.519 27.8556C283.919 28.0156 284.329 28.0956 284.749 28.0956C285.049 28.0956 285.369 28.0356 285.709 27.9156C286.069 27.7756 286.399 27.6356 286.699 27.4956C287.019 27.3356 287.289 27.1956 287.509 27.0756C287.749 26.9356 287.899 26.8656 287.959 26.8656C288.019 26.8656 288.079 26.8956 288.139 26.9556C288.219 27.0156 288.269 27.0756 288.289 27.1356Z" fill="#FEFFE2"/>
<path d="M26.4568 27.5986H25.0604V30.4014H22.2576V27.5986H15.2557L16.8182 16.3975H19.6209L18.4002 24.8057H22.2576V17.8037H25.0604V24.8057H26.4568V27.5986Z" fill="#FEFFE2"/>
</svg>
