<svg width="420" height="303" viewBox="0 0 420 303" fill="none" xmlns="http://www.w3.org/2000/svg">
<rect x="1.5" y="4.5" width="417" height="297" rx="18.5" fill="#FEFFE2" fill-opacity="0.2" stroke="#C4C4C4" stroke-width="3"/>
<path d="M152.374 26.64C152.374 27.32 152.184 27.9 151.804 28.38C151.444 28.86 150.814 29.1 149.914 29.1C149.294 29.1 148.664 28.99 148.024 28.77C147.404 28.55 146.794 28.26 146.194 27.9C145.594 27.54 145.014 27.12 144.454 26.64C143.914 26.16 143.424 25.66 142.984 25.14C142.944 25.32 142.884 25.58 142.804 25.92C142.724 26.26 142.624 26.6 142.504 26.94C142.384 27.28 142.244 27.58 142.084 27.84C141.944 28.08 141.794 28.2 141.634 28.2C141.374 28.2 141.084 28.07 140.764 27.81C140.464 27.55 140.154 27.21 139.834 26.79C139.534 26.35 139.234 25.85 138.934 25.29C138.654 24.73 138.404 24.15 138.184 23.55C137.604 21.89 137.234 20.59 137.074 19.65C136.914 18.69 136.834 18.17 136.834 18.09C136.834 17.97 136.854 17.86 136.894 17.76C136.934 17.66 137.024 17.61 137.164 17.61C137.384 17.61 137.544 17.68 137.644 17.82C137.764 17.94 137.844 18.1 137.884 18.3C137.984 18.72 138.114 19.21 138.274 19.77C138.454 20.31 138.644 20.87 138.844 21.45C139.064 22.03 139.284 22.6 139.504 23.16C139.744 23.7 139.974 24.19 140.194 24.63C140.414 25.07 140.624 25.43 140.824 25.71C141.024 25.97 141.194 26.1 141.334 26.1C141.474 26.1 141.574 25.99 141.634 25.77C141.714 25.53 141.774 25.26 141.814 24.96C141.854 24.66 141.874 24.37 141.874 24.09C141.894 23.81 141.904 23.62 141.904 23.52C141.804 23.34 141.724 23.13 141.664 22.89C141.624 22.65 141.604 22.45 141.604 22.29C141.604 22.03 141.664 21.81 141.784 21.63C141.924 21.45 142.054 21.36 142.174 21.36C142.254 21.36 142.304 21.37 142.324 21.39C142.364 21.41 142.414 21.43 142.474 21.45C142.534 21.45 142.584 21.45 142.624 21.45C142.664 21.43 142.714 21.42 142.774 21.42C142.814 21.42 142.854 21.44 142.894 21.48C142.954 21.5 143.014 21.58 143.074 21.72C143.334 22.4 143.704 23.1 144.184 23.82C144.664 24.54 145.204 25.19 145.804 25.77C146.404 26.35 147.054 26.83 147.754 27.21C148.454 27.59 149.164 27.78 149.884 27.78C150.144 27.78 150.384 27.7 150.604 27.54C150.824 27.36 150.934 27.13 150.934 26.85C150.934 26.01 150.844 25.15 150.664 24.27C150.504 23.39 150.274 22.49 149.974 21.57C149.694 20.65 149.364 19.72 148.984 18.78C148.604 17.82 148.214 16.84 147.814 15.84C147.474 15 147.144 14.34 146.824 13.86C146.524 13.36 146.254 12.97 146.014 12.69C145.794 12.39 145.614 12.15 145.474 11.97C145.334 11.77 145.264 11.53 145.264 11.25C145.264 10.91 145.384 10.66 145.624 10.5C145.884 10.34 146.154 10.26 146.434 10.26C146.594 10.26 146.774 10.42 146.974 10.74C147.174 11.04 147.384 11.44 147.604 11.94C147.824 12.42 148.044 12.96 148.264 13.56C148.484 14.16 148.704 14.76 148.924 15.36C149.244 16.24 149.604 17.19 150.004 18.21C150.404 19.21 150.774 20.22 151.114 21.24C151.474 22.24 151.774 23.21 152.014 24.15C152.254 25.09 152.374 25.92 152.374 26.64ZM156.532 16.2C156.532 16.24 156.462 16.32 156.322 16.44C156.182 16.56 156.012 16.69 155.812 16.83C155.632 16.95 155.442 17.06 155.242 17.16C155.042 17.26 154.882 17.31 154.762 17.31C154.682 17.31 154.572 17.31 154.432 17.31C154.312 17.29 154.182 17.25 154.042 17.19C153.922 17.13 153.812 17.05 153.712 16.95C153.612 16.83 153.562 16.68 153.562 16.5C153.562 16.22 153.662 15.96 153.862 15.72C154.062 15.46 154.322 15.33 154.642 15.33C154.702 15.33 154.832 15.36 155.032 15.42C155.252 15.46 155.472 15.52 155.692 15.6C155.912 15.68 156.102 15.77 156.262 15.87C156.442 15.97 156.532 16.08 156.532 16.2ZM157.522 27.42C157.522 27.56 157.412 27.68 157.192 27.78C156.992 27.88 156.842 27.93 156.742 27.93C156.542 27.93 156.362 27.8 156.202 27.54C156.042 27.28 155.902 26.98 155.782 26.64C155.662 26.3 155.562 25.98 155.482 25.68C155.402 25.36 155.342 25.14 155.302 25.02C155.242 24.82 155.162 24.58 155.062 24.3C154.962 24.02 154.862 23.75 154.762 23.49C154.682 23.23 154.612 23 154.552 22.8C154.492 22.6 154.462 22.49 154.462 22.47C154.462 22.19 154.512 21.93 154.612 21.69C154.732 21.45 154.872 21.33 155.032 21.33C155.212 21.33 155.402 21.47 155.602 21.75C155.802 22.03 155.992 22.39 156.172 22.83C156.372 23.25 156.552 23.72 156.712 24.24C156.872 24.74 157.012 25.22 157.132 25.68C157.252 26.12 157.342 26.51 157.402 26.85C157.482 27.17 157.522 27.36 157.522 27.42ZM168.42 26.31C168.42 26.43 168.38 26.55 168.3 26.67C168.22 26.79 168.12 26.9 168 27C167.9 27.1 167.78 27.19 167.64 27.27C167.52 27.33 167.41 27.36 167.31 27.36C166.97 27.36 166.53 27.29 165.99 27.15C165.47 26.99 165.05 26.75 164.73 26.43C164.39 26.09 164.09 25.69 163.83 25.23C163.57 24.75 163.28 24.05 162.96 23.13C162.74 24.01 162.48 24.88 162.18 25.74C161.9 26.6 161.44 27.39 160.8 28.11C160.76 28.15 160.7 28.17 160.62 28.17C160.48 28.17 160.33 28.1 160.17 27.96C160.01 27.82 159.93 27.68 159.93 27.54C159.93 27.4 159.91 27.08 159.87 26.58C159.85 26.06 159.82 25.49 159.78 24.87C159.74 24.23 159.7 23.59 159.66 22.95C159.64 22.29 159.63 21.75 159.63 21.33C159.63 21.13 159.64 20.87 159.66 20.55C159.68 20.21 159.74 19.92 159.84 19.68C159.86 19.64 159.93 19.56 160.05 19.44C160.19 19.32 160.34 19.26 160.5 19.26C160.64 19.26 160.72 19.35 160.74 19.53C160.76 19.71 160.77 19.91 160.77 20.13V24.87C160.77 24.97 160.78 25.11 160.8 25.29C160.84 25.47 160.89 25.6 160.95 25.68C161.17 25.2 161.37 24.64 161.55 24C161.75 23.34 161.94 22.72 162.12 22.14C162.3 21.54 162.48 21.04 162.66 20.64C162.84 20.22 163.02 20.01 163.2 20.01C163.4 20.01 163.56 20.05 163.68 20.13C163.8 20.21 163.9 20.37 163.98 20.61C164.08 21.19 164.16 21.71 164.22 22.17C164.28 22.61 164.35 23.01 164.43 23.37C164.53 23.73 164.66 24.07 164.82 24.39C165 24.69 165.24 24.97 165.54 25.23C165.82 25.49 166.13 25.68 166.47 25.8C166.83 25.92 167.14 25.98 167.4 25.98C167.52 25.98 167.65 25.96 167.79 25.92C167.93 25.86 168.03 25.83 168.09 25.83C168.17 25.83 168.24 25.9 168.3 26.04C168.38 26.18 168.42 26.27 168.42 26.31ZM177.917 16.44C177.657 16.74 177.287 17.04 176.807 17.34C176.327 17.62 175.847 17.88 175.367 18.12C174.887 18.36 174.467 18.57 174.107 18.75C173.747 18.91 173.567 19.02 173.567 19.08C173.567 19.14 173.607 19.32 173.687 19.62C173.767 19.92 173.857 20.28 173.957 20.7C174.077 21.1 174.197 21.52 174.317 21.96C174.437 22.4 174.537 22.79 174.617 23.13C174.657 23.33 174.707 23.59 174.767 23.91C174.827 24.23 174.877 24.55 174.917 24.87C174.977 25.19 175.027 25.48 175.067 25.74C175.107 25.98 175.127 26.11 175.127 26.13C175.127 26.43 175.077 26.74 174.977 27.06C174.877 27.38 174.717 27.54 174.497 27.54C174.377 27.54 174.267 27.49 174.167 27.39C174.067 27.29 173.977 27.18 173.897 27.06C173.817 26.92 173.757 26.79 173.717 26.67C173.677 26.55 173.657 26.46 173.657 26.4C173.657 26.36 173.657 26.3 173.657 26.22C173.677 26.14 173.687 26.05 173.687 25.95C173.687 25.57 173.627 25.02 173.507 24.3C173.467 24.08 173.387 23.74 173.267 23.28C173.147 22.82 173.027 22.35 172.907 21.87C172.767 21.31 172.607 20.7 172.427 20.04C172.347 19.76 172.297 19.62 172.277 19.62C172.137 19.62 171.897 19.71 171.557 19.89C171.237 20.05 170.867 20.26 170.447 20.52C170.027 20.76 169.587 21.03 169.127 21.33C168.667 21.61 168.237 21.88 167.837 22.14C167.437 22.38 167.097 22.59 166.817 22.77C166.517 22.93 166.337 23.01 166.277 23.01C166.017 23.01 165.807 22.92 165.647 22.74C165.487 22.56 165.407 22.36 165.407 22.14C165.407 22.02 165.577 21.85 165.917 21.63C166.237 21.39 166.647 21.13 167.147 20.85C167.627 20.57 168.157 20.28 168.737 19.98C169.297 19.68 169.817 19.41 170.297 19.17C170.797 18.93 171.207 18.73 171.527 18.57C171.867 18.41 172.037 18.33 172.037 18.33C171.857 17.41 171.707 16.59 171.587 15.87C171.487 15.25 171.387 14.68 171.287 14.16C171.207 13.64 171.167 13.36 171.167 13.32C171.167 13.06 171.217 12.87 171.317 12.75C171.437 12.61 171.567 12.54 171.707 12.54C171.927 12.54 172.067 12.69 172.127 12.99C172.347 14.07 172.547 15.03 172.727 15.87C172.927 16.71 173.117 17.39 173.297 17.91C173.477 17.87 173.787 17.76 174.227 17.58C174.667 17.38 175.127 17.17 175.607 16.95C176.087 16.73 176.517 16.54 176.897 16.38C177.297 16.2 177.527 16.11 177.587 16.11C177.707 16.11 177.777 16.15 177.797 16.23C177.837 16.31 177.877 16.38 177.917 16.44ZM187.887 26.85C187.907 26.89 187.917 26.95 187.917 27.03C187.917 27.15 187.827 27.33 187.647 27.57C187.587 27.65 187.457 27.78 187.257 27.96C187.057 28.14 186.787 28.32 186.447 28.5C186.107 28.68 185.687 28.84 185.187 28.98C184.707 29.12 184.137 29.19 183.477 29.19C183.017 29.19 182.567 29.09 182.127 28.89C181.687 28.67 181.297 28.36 180.957 27.96C180.617 27.54 180.337 27.03 180.117 26.43C179.897 25.81 179.787 25.09 179.787 24.27C179.787 23.49 179.887 22.76 180.087 22.08C180.287 21.4 180.537 20.8 180.837 20.28C181.157 19.76 181.507 19.35 181.887 19.05C182.267 18.75 182.637 18.6 182.997 18.6C183.317 18.6 183.637 18.67 183.957 18.81C184.297 18.93 184.597 19.09 184.857 19.29C185.137 19.49 185.357 19.72 185.517 19.98C185.677 20.22 185.757 20.47 185.757 20.73C185.757 21.03 185.617 21.34 185.337 21.66C185.077 21.98 184.757 22.28 184.377 22.56C183.997 22.82 183.617 23.04 183.237 23.22C182.857 23.38 182.557 23.46 182.337 23.46C182.217 23.46 182.107 23.41 182.007 23.31C181.927 23.19 181.887 23.05 181.887 22.89C181.887 22.61 182.007 22.39 182.247 22.23C182.507 22.07 182.787 21.93 183.087 21.81C183.387 21.67 183.657 21.51 183.897 21.33C184.157 21.15 184.287 20.9 184.287 20.58C184.287 20.54 184.237 20.44 184.137 20.28C184.037 20.12 183.767 20.04 183.327 20.04C183.127 20.04 182.897 20.16 182.637 20.4C182.377 20.62 182.127 20.93 181.887 21.33C181.647 21.71 181.447 22.17 181.287 22.71C181.127 23.23 181.047 23.8 181.047 24.42C181.047 24.94 181.137 25.41 181.317 25.83C181.517 26.25 181.767 26.61 182.067 26.91C182.367 27.19 182.717 27.41 183.117 27.57C183.517 27.73 183.927 27.81 184.347 27.81C184.647 27.81 184.967 27.75 185.307 27.63C185.667 27.49 185.997 27.35 186.297 27.21C186.617 27.05 186.887 26.91 187.107 26.79C187.347 26.65 187.497 26.58 187.557 26.58C187.617 26.58 187.677 26.61 187.737 26.67C187.817 26.73 187.867 26.79 187.887 26.85ZM197.086 20.85C197.086 20.99 197.026 21.11 196.906 21.21C196.786 21.29 196.646 21.36 196.486 21.42C196.326 21.48 196.166 21.53 196.006 21.57C195.846 21.59 195.716 21.6 195.616 21.6C195.316 21.6 195.116 21.58 195.016 21.54C194.916 21.5 194.836 21.48 194.776 21.48C194.276 21.48 193.876 21.52 193.576 21.6C193.276 21.68 193.036 21.81 192.856 21.99C192.696 22.17 192.586 22.4 192.526 22.68C192.486 22.94 192.466 23.26 192.466 23.64C192.466 24.28 192.486 24.79 192.526 25.17C192.586 25.55 192.636 25.86 192.676 26.1C192.736 26.34 192.786 26.53 192.826 26.67C192.886 26.79 192.916 26.91 192.916 27.03C192.916 27.19 192.826 27.36 192.646 27.54C192.486 27.72 192.336 27.81 192.196 27.81C191.956 27.81 191.736 27.6 191.536 27.18C191.356 26.74 191.196 26.23 191.056 25.65C190.936 25.05 190.836 24.46 190.756 23.88C190.676 23.3 190.636 22.86 190.636 22.56C190.636 22.22 190.666 21.9 190.726 21.6C190.786 21.28 190.866 21.01 190.966 20.79C191.066 20.55 191.176 20.36 191.296 20.22C191.416 20.08 191.536 20.01 191.656 20.01C191.756 20.01 191.836 20.05 191.896 20.13C191.956 20.19 192.006 20.27 192.046 20.37C192.086 20.45 192.126 20.53 192.166 20.61C192.226 20.67 192.296 20.7 192.376 20.7C192.556 20.7 192.846 20.61 193.246 20.43C193.646 20.25 194.136 20.16 194.716 20.16C195.256 20.16 195.656 20.18 195.916 20.22C196.196 20.24 196.466 20.3 196.726 20.4C196.786 20.42 196.856 20.47 196.936 20.55C197.036 20.61 197.086 20.71 197.086 20.85ZM223.95 25.65C223.95 26.55 223.79 27.26 223.47 27.78C223.15 28.28 222.68 28.75 222.06 29.19C221.9 29.29 221.68 29.41 221.4 29.55C221.12 29.69 220.81 29.82 220.47 29.94C220.13 30.06 219.77 30.16 219.39 30.24C219.01 30.32 218.66 30.36 218.34 30.36C217.44 30.36 216.76 30.26 216.3 30.06C215.84 29.88 215.61 29.66 215.61 29.4C215.61 29.12 215.69 28.89 215.85 28.71C216.01 28.53 216.15 28.43 216.27 28.41L216.6 28.65C216.7 28.75 216.84 28.86 217.02 28.98C217.2 29.08 217.49 29.13 217.89 29.13C218.27 29.13 218.73 29.07 219.27 28.95C219.81 28.81 220.32 28.61 220.8 28.35C221.3 28.07 221.72 27.73 222.06 27.33C222.42 26.93 222.6 26.47 222.6 25.95C222.6 25.49 222.25 25.07 221.55 24.69C220.87 24.29 219.79 24.02 218.31 23.88C217.55 23.82 216.8 23.73 216.06 23.61C215.32 23.47 214.65 23.29 214.05 23.07C213.47 22.83 213 22.54 212.64 22.2C212.28 21.84 212.1 21.4 212.1 20.88C212.1 20.38 212.24 19.9 212.52 19.44C212.8 18.98 213.14 18.56 213.54 18.18C213.96 17.78 214.39 17.43 214.83 17.13C215.27 16.83 215.64 16.58 215.94 16.38C216.18 16.24 216.51 16.06 216.93 15.84C217.37 15.6 217.83 15.38 218.31 15.18C218.81 14.96 219.3 14.78 219.78 14.64C220.28 14.48 220.7 14.4 221.04 14.4C221.44 14.4 221.71 14.51 221.85 14.73C221.99 14.95 222.06 15.26 222.06 15.66C222.06 16 222.02 16.36 221.94 16.74C221.86 17.12 221.77 17.49 221.67 17.85C221.57 18.21 221.47 18.53 221.37 18.81C221.29 19.07 221.23 19.24 221.19 19.32C221.11 19.5 221.02 19.62 220.92 19.68C220.82 19.74 220.75 19.77 220.71 19.77C220.63 19.77 220.59 19.72 220.59 19.62C220.59 19.56 220.6 19.45 220.62 19.29C220.66 19.11 220.7 18.9 220.74 18.66C220.8 18.42 220.84 18.16 220.86 17.88C220.9 17.6 220.92 17.32 220.92 17.04C220.92 16.6 220.9 16.28 220.86 16.08C220.82 15.88 220.66 15.78 220.38 15.78C220.1 15.78 219.72 15.86 219.24 16.02C218.76 16.16 218.27 16.34 217.77 16.56C217.23 16.8 216.7 17.11 216.18 17.49C215.68 17.87 215.23 18.26 214.83 18.66C214.43 19.06 214.1 19.45 213.84 19.83C213.6 20.19 213.48 20.48 213.48 20.7C213.48 20.94 213.64 21.17 213.96 21.39C214.3 21.59 214.72 21.77 215.22 21.93C215.74 22.09 216.31 22.23 216.93 22.35C217.55 22.47 218.16 22.56 218.76 22.62C219.26 22.68 219.81 22.76 220.41 22.86C221.01 22.96 221.57 23.12 222.09 23.34C222.61 23.56 223.05 23.86 223.41 24.24C223.77 24.6 223.95 25.07 223.95 25.65ZM230.971 23.52C230.971 23.96 230.911 24.38 230.791 24.78C230.671 25.18 230.511 25.53 230.311 25.83C230.111 26.13 229.871 26.37 229.591 26.55C229.331 26.71 229.041 26.79 228.721 26.79C228.161 26.79 227.721 26.63 227.401 26.31C227.081 25.99 226.831 25.62 226.651 25.2C226.491 24.78 226.381 24.36 226.321 23.94C226.281 23.5 226.261 23.17 226.261 22.95C226.261 22.59 226.311 22.19 226.411 21.75C226.531 21.29 226.681 20.87 226.861 20.49C227.061 20.11 227.281 19.79 227.521 19.53C227.761 19.27 228.011 19.14 228.271 19.14C228.331 19.14 228.421 19.16 228.541 19.2C228.681 19.24 228.821 19.3 228.961 19.38C229.101 19.46 229.221 19.56 229.321 19.68C229.441 19.8 229.521 19.94 229.561 20.1C229.781 20.12 230.001 20.2 230.221 20.34C230.441 20.48 230.561 20.59 230.581 20.67C230.741 21.19 230.841 21.71 230.881 22.23C230.941 22.75 230.971 23.18 230.971 23.52ZM229.621 22.98C229.621 22.68 229.591 22.37 229.531 22.05C229.471 21.71 229.351 21.37 229.171 21.03C229.131 21.05 229.081 21.06 229.021 21.06C228.941 21.06 228.871 21.05 228.811 21.03C228.771 21.01 228.731 21 228.691 21C228.451 21 228.261 21.07 228.121 21.21C227.981 21.33 227.871 21.5 227.791 21.72C227.731 21.92 227.691 22.14 227.671 22.38C227.651 22.62 227.641 22.85 227.641 23.07C227.641 23.29 227.651 23.54 227.671 23.82C227.691 24.08 227.731 24.33 227.791 24.57C227.871 24.81 227.971 25.02 228.091 25.2C228.211 25.36 228.371 25.44 228.571 25.44C228.771 25.44 228.941 25.34 229.081 25.14C229.221 24.92 229.331 24.67 229.411 24.39C229.491 24.11 229.541 23.84 229.561 23.58C229.601 23.3 229.621 23.1 229.621 22.98ZM238 29.13C238 29.29 237.94 29.41 237.82 29.49C237.7 29.57 237.56 29.61 237.4 29.61C237.22 29.61 237.03 29.44 236.83 29.1C236.65 28.76 236.47 28.33 236.29 27.81C236.11 27.29 235.94 26.73 235.78 26.13C235.62 25.51 235.48 24.94 235.36 24.42C235.24 23.88 235.14 23.43 235.06 23.07C235 22.71 234.97 22.51 234.97 22.47C234.97 22.39 234.93 22.18 234.85 21.84C234.79 21.5 234.7 20.97 234.58 20.25C234.48 19.53 234.36 18.6 234.22 17.46C234.1 16.3 233.97 14.87 233.83 13.17C233.83 12.99 233.86 12.76 233.92 12.48C233.98 12.2 234.12 12.06 234.34 12.06C234.62 12.06 234.83 12.25 234.97 12.63C235.13 13.01 235.25 13.48 235.33 14.04C235.43 14.6 235.5 15.19 235.54 15.81C235.58 16.41 235.63 16.94 235.69 17.4C235.77 18.04 235.84 18.62 235.9 19.14C235.98 19.66 236.05 20.18 236.11 20.7C236.19 21.2 236.28 21.73 236.38 22.29C236.5 22.85 236.64 23.47 236.8 24.15L238 29.13ZM247.088 26.04C247.088 26.38 246.968 26.68 246.728 26.94C246.508 27.18 246.218 27.39 245.858 27.57C245.518 27.73 245.138 27.86 244.718 27.96C244.298 28.06 243.898 28.14 243.518 28.2C243.138 28.24 242.798 28.27 242.498 28.29C242.218 28.29 242.038 28.29 241.958 28.29C241.518 28.29 241.178 28.22 240.938 28.08C240.698 27.94 240.578 27.69 240.578 27.33C240.578 27.21 240.588 27.11 240.608 27.03C240.628 26.93 240.708 26.88 240.848 26.88C240.908 26.88 241.008 26.9 241.148 26.94C241.288 26.96 241.398 26.97 241.478 26.97C241.558 26.97 241.808 26.96 242.228 26.94C242.668 26.9 243.128 26.84 243.608 26.76C244.108 26.68 244.548 26.57 244.928 26.43C245.328 26.27 245.528 26.07 245.528 25.83C245.528 25.79 245.318 25.67 244.898 25.47C244.498 25.25 243.888 24.89 243.068 24.39C242.428 23.99 241.978 23.59 241.718 23.19C241.458 22.77 241.328 22.21 241.328 21.51C241.328 21.07 241.418 20.71 241.598 20.43C241.798 20.15 242.058 19.93 242.378 19.77C242.718 19.61 243.098 19.5 243.518 19.44C243.958 19.36 244.418 19.32 244.898 19.32C244.938 19.32 245.058 19.34 245.258 19.38C245.478 19.42 245.708 19.49 245.948 19.59C246.188 19.67 246.398 19.78 246.578 19.92C246.778 20.04 246.878 20.18 246.878 20.34C246.878 20.38 246.838 20.44 246.758 20.52C246.698 20.6 246.588 20.75 246.428 20.97C246.368 20.95 246.258 20.92 246.098 20.88C245.958 20.84 245.788 20.8 245.588 20.76C245.408 20.7 245.218 20.66 245.018 20.64C244.818 20.6 244.658 20.58 244.538 20.58C244.018 20.58 243.598 20.68 243.278 20.88C242.958 21.06 242.798 21.42 242.798 21.96C242.798 22.22 242.898 22.46 243.098 22.68C243.318 22.9 243.588 23.11 243.908 23.31C244.228 23.49 244.568 23.68 244.928 23.88C245.308 24.06 245.658 24.26 245.978 24.48C246.298 24.7 246.558 24.94 246.758 25.2C246.978 25.44 247.088 25.72 247.088 26.04ZM257.604 16.44C257.344 16.74 256.974 17.04 256.494 17.34C256.014 17.62 255.534 17.88 255.054 18.12C254.574 18.36 254.154 18.57 253.794 18.75C253.434 18.91 253.254 19.02 253.254 19.08C253.254 19.14 253.294 19.32 253.374 19.62C253.454 19.92 253.544 20.28 253.644 20.7C253.764 21.1 253.884 21.52 254.004 21.96C254.124 22.4 254.224 22.79 254.304 23.13C254.344 23.33 254.394 23.59 254.454 23.91C254.514 24.23 254.564 24.55 254.604 24.87C254.664 25.19 254.714 25.48 254.754 25.74C254.794 25.98 254.814 26.11 254.814 26.13C254.814 26.43 254.764 26.74 254.664 27.06C254.564 27.38 254.404 27.54 254.184 27.54C254.064 27.54 253.954 27.49 253.854 27.39C253.754 27.29 253.664 27.18 253.584 27.06C253.504 26.92 253.444 26.79 253.404 26.67C253.364 26.55 253.344 26.46 253.344 26.4C253.344 26.36 253.344 26.3 253.344 26.22C253.364 26.14 253.374 26.05 253.374 25.95C253.374 25.57 253.314 25.02 253.194 24.3C253.154 24.08 253.074 23.74 252.954 23.28C252.834 22.82 252.714 22.35 252.594 21.87C252.454 21.31 252.294 20.7 252.114 20.04C252.034 19.76 251.984 19.62 251.964 19.62C251.824 19.62 251.584 19.71 251.244 19.89C250.924 20.05 250.554 20.26 250.134 20.52C249.714 20.76 249.274 21.03 248.814 21.33C248.354 21.61 247.924 21.88 247.524 22.14C247.124 22.38 246.784 22.59 246.504 22.77C246.204 22.93 246.024 23.01 245.964 23.01C245.704 23.01 245.494 22.92 245.334 22.74C245.174 22.56 245.094 22.36 245.094 22.14C245.094 22.02 245.264 21.85 245.604 21.63C245.924 21.39 246.334 21.13 246.834 20.85C247.314 20.57 247.844 20.28 248.424 19.98C248.984 19.68 249.504 19.41 249.984 19.17C250.484 18.93 250.894 18.73 251.214 18.57C251.554 18.41 251.724 18.33 251.724 18.33C251.544 17.41 251.394 16.59 251.274 15.87C251.174 15.25 251.074 14.68 250.974 14.16C250.894 13.64 250.854 13.36 250.854 13.32C250.854 13.06 250.904 12.87 251.004 12.75C251.124 12.61 251.254 12.54 251.394 12.54C251.614 12.54 251.754 12.69 251.814 12.99C252.034 14.07 252.234 15.03 252.414 15.87C252.614 16.71 252.804 17.39 252.984 17.91C253.164 17.87 253.474 17.76 253.914 17.58C254.354 17.38 254.814 17.17 255.294 16.95C255.774 16.73 256.204 16.54 256.584 16.38C256.984 16.2 257.214 16.11 257.274 16.11C257.394 16.11 257.464 16.15 257.484 16.23C257.524 16.31 257.564 16.38 257.604 16.44ZM261.004 16.2C261.004 16.24 260.934 16.32 260.794 16.44C260.654 16.56 260.484 16.69 260.284 16.83C260.104 16.95 259.914 17.06 259.714 17.16C259.514 17.26 259.354 17.31 259.234 17.31C259.154 17.31 259.044 17.31 258.904 17.31C258.784 17.29 258.654 17.25 258.514 17.19C258.394 17.13 258.284 17.05 258.184 16.95C258.084 16.83 258.034 16.68 258.034 16.5C258.034 16.22 258.134 15.96 258.334 15.72C258.534 15.46 258.794 15.33 259.114 15.33C259.174 15.33 259.304 15.36 259.504 15.42C259.724 15.46 259.944 15.52 260.164 15.6C260.384 15.68 260.574 15.77 260.734 15.87C260.914 15.97 261.004 16.08 261.004 16.2ZM261.994 27.42C261.994 27.56 261.884 27.68 261.664 27.78C261.464 27.88 261.314 27.93 261.214 27.93C261.014 27.93 260.834 27.8 260.674 27.54C260.514 27.28 260.374 26.98 260.254 26.64C260.134 26.3 260.034 25.98 259.954 25.68C259.874 25.36 259.814 25.14 259.774 25.02C259.714 24.82 259.634 24.58 259.534 24.3C259.434 24.02 259.334 23.75 259.234 23.49C259.154 23.23 259.084 23 259.024 22.8C258.964 22.6 258.934 22.49 258.934 22.47C258.934 22.19 258.984 21.93 259.084 21.69C259.204 21.45 259.344 21.33 259.504 21.33C259.684 21.33 259.874 21.47 260.074 21.75C260.274 22.03 260.464 22.39 260.644 22.83C260.844 23.25 261.024 23.72 261.184 24.24C261.344 24.74 261.484 25.22 261.604 25.68C261.724 26.12 261.814 26.51 261.874 26.85C261.954 27.17 261.994 27.36 261.994 27.42ZM272.532 24.54C272.532 24.74 272.502 24.95 272.442 25.17C272.382 25.37 272.322 25.54 272.262 25.68C272.222 25.74 272.032 25.95 271.692 26.31C271.372 26.65 270.962 27.01 270.462 27.39C269.982 27.77 269.432 28.12 268.812 28.44C268.212 28.74 267.632 28.89 267.072 28.89C266.732 28.89 266.382 28.83 266.022 28.71C265.682 28.59 265.362 28.4 265.062 28.14C264.762 27.86 264.512 27.52 264.312 27.12C264.132 26.72 264.042 26.23 264.042 25.65C264.042 24.69 264.202 23.82 264.522 23.04C264.842 22.26 265.162 21.64 265.482 21.18C265.622 20.96 265.802 20.74 266.022 20.52C266.262 20.28 266.492 20.07 266.712 19.89C266.932 19.69 267.132 19.53 267.312 19.41C267.512 19.29 267.652 19.23 267.732 19.23C267.912 19.23 268.072 19.28 268.212 19.38C268.372 19.48 268.452 19.58 268.452 19.68C268.452 19.84 268.402 19.98 268.302 20.1C268.222 20.2 268.102 20.32 267.942 20.46C267.782 20.58 267.592 20.75 267.372 20.97C267.152 21.17 266.922 21.44 266.682 21.78C266.202 22.44 265.842 23.12 265.602 23.82C265.382 24.5 265.272 25.1 265.272 25.62C265.272 26.14 265.462 26.56 265.842 26.88C266.242 27.18 266.652 27.33 267.072 27.33C267.832 27.33 268.502 27.16 269.082 26.82C269.682 26.48 270.192 26.1 270.612 25.68C271.032 25.26 271.372 24.88 271.632 24.54C271.892 24.2 272.082 24.03 272.202 24.03C272.422 24.03 272.532 24.2 272.532 24.54ZM283.277 26.85C283.297 26.89 283.307 26.95 283.307 27.03C283.307 27.15 283.217 27.33 283.037 27.57C282.977 27.65 282.847 27.78 282.647 27.96C282.447 28.14 282.177 28.32 281.837 28.5C281.497 28.68 281.077 28.84 280.577 28.98C280.097 29.12 279.527 29.19 278.867 29.19C278.407 29.19 277.957 29.09 277.517 28.89C277.077 28.67 276.687 28.36 276.347 27.96C276.007 27.54 275.727 27.03 275.507 26.43C275.287 25.81 275.177 25.09 275.177 24.27C275.177 23.49 275.277 22.76 275.477 22.08C275.677 21.4 275.927 20.8 276.227 20.28C276.547 19.76 276.897 19.35 277.277 19.05C277.657 18.75 278.027 18.6 278.387 18.6C278.707 18.6 279.027 18.67 279.347 18.81C279.687 18.93 279.987 19.09 280.247 19.29C280.527 19.49 280.747 19.72 280.907 19.98C281.067 20.22 281.147 20.47 281.147 20.73C281.147 21.03 281.007 21.34 280.727 21.66C280.467 21.98 280.147 22.28 279.767 22.56C279.387 22.82 279.007 23.04 278.627 23.22C278.247 23.38 277.947 23.46 277.727 23.46C277.607 23.46 277.497 23.41 277.397 23.31C277.317 23.19 277.277 23.05 277.277 22.89C277.277 22.61 277.397 22.39 277.637 22.23C277.897 22.07 278.177 21.93 278.477 21.81C278.777 21.67 279.047 21.51 279.287 21.33C279.547 21.15 279.677 20.9 279.677 20.58C279.677 20.54 279.627 20.44 279.527 20.28C279.427 20.12 279.157 20.04 278.717 20.04C278.517 20.04 278.287 20.16 278.027 20.4C277.767 20.62 277.517 20.93 277.277 21.33C277.037 21.71 276.837 22.17 276.677 22.71C276.517 23.23 276.437 23.8 276.437 24.42C276.437 24.94 276.527 25.41 276.707 25.83C276.907 26.25 277.157 26.61 277.457 26.91C277.757 27.19 278.107 27.41 278.507 27.57C278.907 27.73 279.317 27.81 279.737 27.81C280.037 27.81 280.357 27.75 280.697 27.63C281.057 27.49 281.387 27.35 281.687 27.21C282.007 27.05 282.277 26.91 282.497 26.79C282.737 26.65 282.887 26.58 282.947 26.58C283.007 26.58 283.067 26.61 283.127 26.67C283.207 26.73 283.257 26.79 283.277 26.85Z" fill="#FEFFE2"/>
<path d="M25.9688 27.1973H24.5723V30H21.7695V27.1973H14.7676L16.3301 15.9961H19.1328L17.9121 24.4043H21.7695V17.4023H24.5723V24.4043H25.9688V27.1973Z" fill="#FEFFE2"/>
</svg>
