<svg width="430" height="311" viewBox="0 0 430 311" fill="none" xmlns="http://www.w3.org/2000/svg">
<rect x="1.5" y="2.35718" width="427" height="307" rx="18.5" fill="#FEFFE2" fill-opacity="0.2" stroke="#C4C4C4" stroke-width="3"/>
<path d="M141.025 32.5036C141.045 32.5836 141.055 32.6536 141.055 32.7136C141.055 32.7936 141.055 32.8536 141.055 32.8936C141.055 33.0936 141.005 33.2336 140.905 33.3136C140.825 33.3936 140.655 33.4336 140.395 33.4336C140.155 33.4336 139.995 33.3936 139.915 33.3136C139.795 33.1936 139.635 32.8836 139.435 32.3836C139.235 31.8836 139.025 31.2936 138.805 30.6136C138.585 29.9336 138.365 29.2036 138.145 28.4236C137.945 27.6436 137.765 26.9036 137.605 26.2036C137.385 26.3036 137.085 26.4136 136.705 26.5336C136.325 26.6336 135.935 26.7336 135.535 26.8336C135.075 26.9336 134.595 27.0436 134.095 27.1636C133.915 28.0236 133.775 28.7636 133.675 29.3836C133.595 29.9836 133.515 30.4836 133.435 30.8836C133.375 31.2636 133.285 31.5436 133.165 31.7236C133.065 31.9236 132.895 32.0236 132.655 32.0236C132.495 32.0236 132.355 31.9336 132.235 31.7536C132.115 31.5736 132.055 31.3036 132.055 30.9436C132.055 30.7636 132.105 30.3436 132.205 29.6836C132.305 29.0236 132.415 28.2936 132.535 27.4936C132.655 26.6736 132.775 25.8636 132.895 25.0636C133.015 24.2636 133.095 23.6336 133.135 23.1736C133.155 22.9336 133.215 22.5436 133.315 22.0036C133.435 21.4636 133.555 20.9136 133.675 20.3536C133.795 19.7736 133.915 19.2536 134.035 18.7936C134.155 18.3336 134.235 18.0736 134.275 18.0136C134.595 17.2736 134.795 16.5136 134.875 15.7336C134.975 14.9536 135.045 14.2436 135.085 13.6036C135.145 12.9436 135.235 12.4136 135.355 12.0136C135.475 11.5936 135.725 11.3836 136.105 11.3836C136.205 11.3836 136.305 11.4636 136.405 11.6236C136.525 11.7836 136.635 11.9736 136.735 12.1936C136.835 12.4136 136.915 12.6336 136.975 12.8536C137.035 13.0536 137.075 13.2136 137.095 13.3336C137.115 13.4536 137.135 13.6936 137.155 14.0536C137.195 14.4136 137.225 14.8136 137.245 15.2536C137.285 15.6736 137.315 16.0936 137.335 16.5136C137.375 16.9136 137.405 17.2236 137.425 17.4436C137.485 18.1036 137.575 18.8436 137.695 19.6636C137.835 20.4836 137.975 21.2536 138.115 21.9736C138.255 22.6936 138.385 23.3036 138.505 23.8036C138.625 24.2836 138.715 24.5236 138.775 24.5236C138.855 24.5236 138.955 24.5036 139.075 24.4636C139.215 24.4236 139.345 24.4036 139.465 24.4036C139.625 24.4036 139.705 24.4836 139.705 24.6436C139.705 24.8036 139.665 24.9336 139.585 25.0336C139.505 25.1336 139.415 25.2236 139.315 25.3036C139.235 25.3836 139.155 25.4536 139.075 25.5136C139.015 25.5736 138.985 25.6436 138.985 25.7236C138.985 25.8836 139.075 26.2936 139.255 26.9536L139.735 28.7236C139.775 28.8836 139.865 29.1536 140.005 29.5336C140.145 29.9136 140.285 30.3136 140.425 30.7336C140.585 31.1336 140.725 31.5036 140.845 31.8436C140.965 32.2036 141.025 32.4236 141.025 32.5036ZM134.365 25.6336C134.485 25.6336 134.705 25.6036 135.025 25.5436C135.345 25.4636 135.675 25.3736 136.015 25.2736C136.355 25.1736 136.655 25.0736 136.915 24.9736C137.175 24.8736 137.305 24.7936 137.305 24.7336C137.305 24.6736 137.265 24.5236 137.185 24.2836C137.125 24.0236 137.045 23.7036 136.945 23.3236C136.865 22.9236 136.775 22.4736 136.675 21.9736C136.575 21.4736 136.485 20.9436 136.405 20.3836C136.365 20.0236 136.315 19.5336 136.255 18.9136C136.195 18.2936 136.135 17.6836 136.075 17.0836C136.015 16.4636 135.965 15.9336 135.925 15.4936C135.885 15.0536 135.865 14.8336 135.865 14.8336C135.865 14.8336 135.835 14.9836 135.775 15.2836C135.715 15.5636 135.645 15.8836 135.565 16.2436C135.505 16.5836 135.445 16.9136 135.385 17.2336C135.345 17.5336 135.325 17.7036 135.325 17.7436V18.5836C135.325 18.6236 135.295 18.8036 135.235 19.1236C135.195 19.4236 135.135 19.8136 135.055 20.2936C134.975 20.7536 134.885 21.2636 134.785 21.8236C134.705 22.3636 134.625 22.8836 134.545 23.3836C134.465 23.8836 134.395 24.3336 134.335 24.7336C134.295 25.1136 134.275 25.3736 134.275 25.5136C134.275 25.5936 134.305 25.6336 134.365 25.6336ZM153.663 26.2036C153.663 26.3836 153.543 26.5736 153.303 26.7736C153.063 26.9736 152.783 27.1636 152.463 27.3436C152.143 27.5036 151.813 27.6436 151.473 27.7636C151.153 27.8836 150.913 27.9436 150.753 27.9436C150.573 27.9436 150.373 27.8936 150.153 27.7936C149.953 27.6936 149.753 27.5736 149.553 27.4336C149.373 27.2936 149.213 27.1636 149.073 27.0436C148.933 26.9236 148.843 26.8436 148.803 26.8036C148.743 26.8636 148.653 26.9836 148.533 27.1636C148.413 27.3436 148.263 27.5436 148.083 27.7636C147.923 27.9636 147.743 28.1436 147.543 28.3036C147.363 28.4636 147.173 28.5436 146.973 28.5436C146.453 28.5436 146.003 28.2636 145.623 27.7036C145.243 27.1436 144.923 26.5036 144.663 25.7836C144.423 25.0636 144.233 24.3736 144.093 23.7136C143.973 23.0336 143.913 22.5736 143.913 22.3336C143.913 22.1936 143.983 22.0836 144.123 22.0036C144.283 21.9036 144.403 21.8536 144.483 21.8536C144.763 21.8536 144.953 21.9536 145.053 22.1536C145.153 22.3336 145.203 22.5336 145.203 22.7536C145.203 22.9336 145.253 23.2536 145.353 23.7136C145.473 24.1736 145.613 24.6436 145.773 25.1236C145.933 25.6036 146.103 26.0336 146.283 26.4136C146.463 26.7736 146.623 26.9536 146.763 26.9536C147.023 26.9536 147.243 26.7936 147.423 26.4736C147.623 26.1336 147.783 25.7536 147.903 25.3336C148.023 24.8936 148.113 24.4836 148.173 24.1036C148.233 23.7036 148.263 23.4436 148.263 23.3236C148.263 23.3036 148.263 23.2436 148.263 23.1436C148.283 23.0236 148.303 22.9036 148.323 22.7836C148.343 22.6636 148.353 22.5536 148.353 22.4536C148.373 22.3536 148.383 22.2836 148.383 22.2436C148.383 22.1036 148.353 22.0136 148.293 21.9736C148.233 21.9136 148.203 21.8036 148.203 21.6436C148.203 21.5236 148.263 21.4136 148.383 21.3136C148.503 21.1936 148.763 21.1336 149.163 21.1336C149.323 21.1336 149.443 21.1836 149.523 21.2836C149.623 21.3636 149.693 21.4636 149.733 21.5836C149.773 21.7036 149.793 21.8236 149.793 21.9436C149.813 22.0436 149.823 22.1136 149.823 22.1536C149.823 22.1736 149.813 22.3136 149.793 22.5736C149.773 22.8336 149.753 23.1236 149.733 23.4436C149.733 23.7436 149.723 24.0336 149.703 24.3136C149.683 24.5936 149.673 24.7636 149.673 24.8236C149.673 24.8836 149.703 25.0036 149.763 25.1836C149.823 25.3636 149.893 25.5536 149.973 25.7536C150.073 25.9336 150.183 26.1036 150.303 26.2636C150.423 26.4036 150.553 26.4736 150.693 26.4736C150.933 26.4736 151.153 26.4436 151.353 26.3836C151.573 26.3036 151.773 26.2236 151.953 26.1436C152.153 26.0436 152.333 25.9636 152.493 25.9036C152.653 25.8236 152.803 25.7836 152.943 25.7836C153.123 25.7836 153.283 25.8236 153.423 25.9036C153.583 25.9836 153.663 26.0836 153.663 26.2036ZM162.817 17.6236C162.557 17.9236 162.187 18.2236 161.707 18.5236C161.227 18.8036 160.747 19.0636 160.267 19.3036C159.787 19.5436 159.367 19.7536 159.007 19.9336C158.647 20.0936 158.467 20.2036 158.467 20.2636C158.467 20.3236 158.507 20.5036 158.587 20.8036C158.667 21.1036 158.757 21.4636 158.857 21.8836C158.977 22.2836 159.097 22.7036 159.217 23.1436C159.337 23.5836 159.437 23.9736 159.517 24.3136C159.557 24.5136 159.607 24.7736 159.667 25.0936C159.727 25.4136 159.777 25.7336 159.817 26.0536C159.877 26.3736 159.927 26.6636 159.967 26.9236C160.007 27.1636 160.027 27.2936 160.027 27.3136C160.027 27.6136 159.977 27.9236 159.877 28.2436C159.777 28.5636 159.617 28.7236 159.397 28.7236C159.277 28.7236 159.167 28.6736 159.067 28.5736C158.967 28.4736 158.877 28.3636 158.797 28.2436C158.717 28.1036 158.657 27.9736 158.617 27.8536C158.577 27.7336 158.557 27.6436 158.557 27.5836C158.557 27.5436 158.557 27.4836 158.557 27.4036C158.577 27.3236 158.587 27.2336 158.587 27.1336C158.587 26.7536 158.527 26.2036 158.407 25.4836C158.367 25.2636 158.287 24.9236 158.167 24.4636C158.047 24.0036 157.927 23.5336 157.807 23.0536C157.667 22.4936 157.507 21.8836 157.327 21.2236C157.247 20.9436 157.197 20.8036 157.177 20.8036C157.037 20.8036 156.797 20.8936 156.457 21.0736C156.137 21.2336 155.767 21.4436 155.347 21.7036C154.927 21.9436 154.487 22.2136 154.027 22.5136C153.567 22.7936 153.137 23.0636 152.737 23.3236C152.337 23.5636 151.997 23.7736 151.717 23.9536C151.417 24.1136 151.237 24.1936 151.177 24.1936C150.917 24.1936 150.707 24.1036 150.547 23.9236C150.387 23.7436 150.307 23.5436 150.307 23.3236C150.307 23.2036 150.477 23.0336 150.817 22.8136C151.137 22.5736 151.547 22.3136 152.047 22.0336C152.527 21.7536 153.057 21.4636 153.637 21.1636C154.197 20.8636 154.717 20.5936 155.197 20.3536C155.697 20.1136 156.107 19.9136 156.427 19.7536C156.767 19.5936 156.937 19.5136 156.937 19.5136C156.757 18.5936 156.607 17.7736 156.487 17.0536C156.387 16.4336 156.287 15.8636 156.187 15.3436C156.107 14.8236 156.067 14.5436 156.067 14.5036C156.067 14.2436 156.117 14.0536 156.217 13.9336C156.337 13.7936 156.467 13.7236 156.607 13.7236C156.827 13.7236 156.967 13.8736 157.027 14.1736C157.247 15.2536 157.447 16.2136 157.627 17.0536C157.827 17.8936 158.017 18.5736 158.197 19.0936C158.377 19.0536 158.687 18.9436 159.127 18.7636C159.567 18.5636 160.027 18.3536 160.507 18.1336C160.987 17.9136 161.417 17.7236 161.797 17.5636C162.197 17.3836 162.427 17.2936 162.487 17.2936C162.607 17.2936 162.677 17.3336 162.697 17.4136C162.737 17.4936 162.777 17.5636 162.817 17.6236ZM174.317 26.2036C174.317 26.3836 174.197 26.5736 173.957 26.7736C173.717 26.9736 173.437 27.1636 173.117 27.3436C172.797 27.5036 172.467 27.6436 172.127 27.7636C171.807 27.8836 171.567 27.9436 171.407 27.9436C171.227 27.9436 171.027 27.8936 170.807 27.7936C170.607 27.6936 170.407 27.5736 170.207 27.4336C170.027 27.2936 169.867 27.1636 169.727 27.0436C169.587 26.9236 169.497 26.8436 169.457 26.8036C169.397 26.8636 169.307 26.9836 169.187 27.1636C169.067 27.3436 168.917 27.5436 168.737 27.7636C168.577 27.9636 168.397 28.1436 168.197 28.3036C168.017 28.4636 167.827 28.5436 167.627 28.5436C167.107 28.5436 166.657 28.2636 166.277 27.7036C165.897 27.1436 165.577 26.5036 165.317 25.7836C165.077 25.0636 164.887 24.3736 164.747 23.7136C164.627 23.0336 164.567 22.5736 164.567 22.3336C164.567 22.1936 164.637 22.0836 164.777 22.0036C164.937 21.9036 165.057 21.8536 165.137 21.8536C165.417 21.8536 165.607 21.9536 165.707 22.1536C165.807 22.3336 165.857 22.5336 165.857 22.7536C165.857 22.9336 165.907 23.2536 166.007 23.7136C166.127 24.1736 166.267 24.6436 166.427 25.1236C166.587 25.6036 166.757 26.0336 166.937 26.4136C167.117 26.7736 167.277 26.9536 167.417 26.9536C167.677 26.9536 167.897 26.7936 168.077 26.4736C168.277 26.1336 168.437 25.7536 168.557 25.3336C168.677 24.8936 168.767 24.4836 168.827 24.1036C168.887 23.7036 168.917 23.4436 168.917 23.3236C168.917 23.3036 168.917 23.2436 168.917 23.1436C168.937 23.0236 168.957 22.9036 168.977 22.7836C168.997 22.6636 169.007 22.5536 169.007 22.4536C169.027 22.3536 169.037 22.2836 169.037 22.2436C169.037 22.1036 169.007 22.0136 168.947 21.9736C168.887 21.9136 168.857 21.8036 168.857 21.6436C168.857 21.5236 168.917 21.4136 169.037 21.3136C169.157 21.1936 169.417 21.1336 169.817 21.1336C169.977 21.1336 170.097 21.1836 170.177 21.2836C170.277 21.3636 170.347 21.4636 170.387 21.5836C170.427 21.7036 170.447 21.8236 170.447 21.9436C170.467 22.0436 170.477 22.1136 170.477 22.1536C170.477 22.1736 170.467 22.3136 170.447 22.5736C170.427 22.8336 170.407 23.1236 170.387 23.4436C170.387 23.7436 170.377 24.0336 170.357 24.3136C170.337 24.5936 170.327 24.7636 170.327 24.8236C170.327 24.8836 170.357 25.0036 170.417 25.1836C170.477 25.3636 170.547 25.5536 170.627 25.7536C170.727 25.9336 170.837 26.1036 170.957 26.2636C171.077 26.4036 171.207 26.4736 171.347 26.4736C171.587 26.4736 171.807 26.4436 172.007 26.3836C172.227 26.3036 172.427 26.2236 172.607 26.1436C172.807 26.0436 172.987 25.9636 173.147 25.9036C173.307 25.8236 173.457 25.7836 173.597 25.7836C173.777 25.7836 173.937 25.8236 174.077 25.9036C174.237 25.9836 174.317 26.0836 174.317 26.2036ZM188.841 28.3636C188.841 28.5236 188.791 28.6636 188.691 28.7836C188.591 28.9036 188.471 29.0036 188.331 29.0836C188.191 29.1436 188.041 29.1936 187.881 29.2336C187.741 29.2736 187.621 29.2936 187.521 29.2936C187.101 29.2936 186.741 29.0736 186.441 28.6336C186.141 28.1736 185.891 27.6736 185.691 27.1336C185.491 26.5736 185.341 26.0536 185.241 25.5736C185.161 25.0936 185.121 24.8336 185.121 24.7936C185.001 25.0136 184.871 25.3836 184.731 25.9036C184.611 26.4236 184.461 26.9536 184.281 27.4936C184.101 28.0136 183.871 28.4836 183.591 28.9036C183.331 29.3036 182.991 29.5036 182.571 29.5036C182.371 29.5036 182.181 29.3836 182.001 29.1436C181.821 28.9036 181.651 28.5936 181.491 28.2136C181.331 27.8336 181.171 27.4036 181.011 26.9236C180.871 26.4436 180.721 25.9736 180.561 25.5136C180.421 25.0536 180.281 24.6236 180.141 24.2236C180.001 23.8036 179.861 23.4736 179.721 23.2336C179.601 23.5336 179.491 23.9436 179.391 24.4636C179.311 24.9836 179.241 25.5336 179.181 26.1136C179.121 26.6736 179.071 27.2336 179.031 27.7936C178.991 28.3536 178.971 28.8436 178.971 29.2636C178.971 29.5436 178.891 29.7436 178.731 29.8636C178.591 29.9836 178.441 30.0436 178.281 30.0436C178.061 30.0436 177.841 29.9036 177.621 29.6236C177.401 29.3236 177.181 28.9436 176.961 28.4836C176.741 28.0236 176.531 27.5036 176.331 26.9236C176.151 26.3436 175.981 25.7636 175.821 25.1836C175.681 24.6036 175.571 24.0536 175.491 23.5336C175.411 22.9936 175.371 22.5436 175.371 22.1836C175.371 21.9236 175.381 21.6836 175.401 21.4636C175.421 21.2836 175.431 21.1136 175.431 20.9536C175.451 20.7936 175.461 20.7036 175.461 20.6836C175.461 20.6236 175.441 20.5836 175.401 20.5636C175.381 20.5436 175.371 20.4936 175.371 20.4136C175.371 20.3536 175.441 20.2636 175.581 20.1436C175.741 20.0036 175.901 19.9336 176.061 19.9336C176.341 19.9336 176.521 19.9936 176.601 20.1136C176.701 20.2336 176.751 20.3736 176.751 20.5336C176.751 20.5936 176.741 20.6836 176.721 20.8036C176.721 20.9236 176.721 21.1936 176.721 21.6136C176.721 21.8936 176.771 22.3136 176.871 22.8736C176.971 23.4336 177.091 24.0036 177.231 24.5836C177.371 25.1636 177.511 25.7036 177.651 26.2036C177.811 26.6836 177.941 26.9836 178.041 27.1036C178.081 27.0236 178.101 26.9336 178.101 26.8336C178.121 26.7136 178.141 26.6236 178.161 26.5636L178.491 24.1036C178.571 23.4836 178.731 22.8336 178.971 22.1536C179.231 21.4536 179.501 20.9136 179.781 20.5336C179.881 20.3736 179.991 20.2936 180.111 20.2936C180.231 20.2936 180.341 20.3836 180.441 20.5636C180.781 21.1236 181.031 21.6836 181.191 22.2436C181.371 22.7836 181.521 23.3236 181.641 23.8636C181.781 24.3836 181.931 24.9136 182.091 25.4536C182.271 25.9736 182.541 26.5036 182.901 27.0436C183.061 26.7836 183.261 26.3636 183.501 25.7836C183.741 25.1836 183.981 24.5836 184.221 23.9836C184.481 23.3836 184.721 22.8636 184.941 22.4236C185.161 21.9636 185.331 21.7336 185.451 21.7336C185.511 21.7336 185.611 21.7436 185.751 21.7636C185.891 21.7836 185.991 21.7936 186.051 21.7936C186.231 21.7936 186.381 22.0036 186.501 22.4236C186.621 22.8236 186.721 23.3036 186.801 23.8636C186.901 24.4036 186.991 24.9536 187.071 25.5136C187.171 26.0536 187.281 26.4636 187.401 26.7436C187.481 26.9436 187.601 27.1336 187.761 27.3136C187.921 27.4936 188.081 27.6636 188.241 27.8236C188.441 28.0036 188.641 28.1836 188.841 28.3636ZM200.254 27.4936C200.254 27.6136 200.214 27.7336 200.134 27.8536C200.054 27.9736 199.954 28.0836 199.834 28.1836C199.734 28.2836 199.614 28.3736 199.474 28.4536C199.354 28.5136 199.244 28.5436 199.144 28.5436C198.804 28.5436 198.364 28.4736 197.824 28.3336C197.304 28.1736 196.884 27.9336 196.564 27.6136C196.224 27.2736 195.924 26.8736 195.664 26.4136C195.404 25.9336 195.114 25.2336 194.794 24.3136C194.574 25.1936 194.314 26.0636 194.014 26.9236C193.734 27.7836 193.274 28.5736 192.634 29.2936C192.594 29.3336 192.534 29.3536 192.454 29.3536C192.314 29.3536 192.164 29.2836 192.004 29.1436C191.844 29.0036 191.764 28.8636 191.764 28.7236C191.764 28.5836 191.744 28.2636 191.704 27.7636C191.684 27.2436 191.654 26.6736 191.614 26.0536C191.574 25.4136 191.534 24.7736 191.494 24.1336C191.474 23.4736 191.464 22.9336 191.464 22.5136C191.464 22.3136 191.474 22.0536 191.494 21.7336C191.514 21.3936 191.574 21.1036 191.674 20.8636C191.694 20.8236 191.764 20.7436 191.884 20.6236C192.024 20.5036 192.174 20.4436 192.334 20.4436C192.474 20.4436 192.554 20.5336 192.574 20.7136C192.594 20.8936 192.604 21.0936 192.604 21.3136V26.0536C192.604 26.1536 192.614 26.2936 192.634 26.4736C192.674 26.6536 192.724 26.7836 192.784 26.8636C193.004 26.3836 193.204 25.8236 193.384 25.1836C193.584 24.5236 193.774 23.9036 193.954 23.3236C194.134 22.7236 194.314 22.2236 194.494 21.8236C194.674 21.4036 194.854 21.1936 195.034 21.1936C195.234 21.1936 195.394 21.2336 195.514 21.3136C195.634 21.3936 195.734 21.5536 195.814 21.7936C195.914 22.3736 195.994 22.8936 196.054 23.3536C196.114 23.7936 196.184 24.1936 196.264 24.5536C196.364 24.9136 196.494 25.2536 196.654 25.5736C196.834 25.8736 197.074 26.1536 197.374 26.4136C197.654 26.6736 197.964 26.8636 198.304 26.9836C198.664 27.1036 198.974 27.1636 199.234 27.1636C199.354 27.1636 199.484 27.1436 199.624 27.1036C199.764 27.0436 199.864 27.0136 199.924 27.0136C200.004 27.0136 200.074 27.0836 200.134 27.2236C200.214 27.3636 200.254 27.4536 200.254 27.4936ZM216.05 24.9436C216.05 25.3036 215.88 25.7536 215.54 26.2936C215.22 26.8136 214.78 27.3236 214.22 27.8236C213.66 28.3236 213.01 28.7536 212.27 29.1136C211.53 29.4536 210.76 29.6236 209.96 29.6236C209.6 29.6236 209.22 29.5636 208.82 29.4436C208.42 29.3236 208.03 29.1536 207.65 28.9336C207.27 28.6936 206.93 28.4136 206.63 28.0936C206.33 27.7536 206.11 27.3736 205.97 26.9536C205.85 27.0736 205.7 27.2736 205.52 27.5536C205.36 27.8336 205.18 28.1236 204.98 28.4236C204.78 28.7036 204.56 28.9536 204.32 29.1736C204.08 29.3736 203.83 29.4736 203.57 29.4736C203.31 29.4736 203.09 29.3436 202.91 29.0836C202.75 28.8036 202.62 28.5036 202.52 28.1836C202.42 27.8436 202.35 27.5236 202.31 27.2236C202.27 26.9236 202.25 26.7536 202.25 26.7136C202.25 26.4736 202.32 26.0236 202.46 25.3636C202.6 24.6836 202.81 23.9836 203.09 23.2636C203.37 22.5436 203.72 21.9036 204.14 21.3436C204.58 20.7836 205.09 20.5036 205.67 20.5036C205.89 20.5036 206.03 20.6036 206.09 20.8036C206.17 20.9836 206.21 21.1636 206.21 21.3436V22.2436C206.31 22.3236 206.41 22.3836 206.51 22.4236C206.63 22.4436 206.73 22.4836 206.81 22.5436C206.91 22.5836 206.98 22.6536 207.02 22.7536C207.08 22.8536 207.11 23.0136 207.11 23.2336C207.11 23.3736 207.1 23.5036 207.08 23.6236C207.06 23.7236 207.05 23.8236 207.05 23.9236C207.05 24.4436 207.09 24.9536 207.17 25.4536C207.25 25.9536 207.41 26.4036 207.65 26.8036C207.89 27.1836 208.22 27.5036 208.64 27.7636C209.06 28.0036 209.62 28.1236 210.32 28.1236C211.2 28.1236 211.94 27.9436 212.54 27.5836C213.16 27.2036 213.67 26.7936 214.07 26.3536C214.49 25.8936 214.82 25.4836 215.06 25.1236C215.3 24.7436 215.5 24.5536 215.66 24.5536C215.92 24.5536 216.05 24.6836 216.05 24.9436ZM205.52 23.6236C205.52 23.5436 205.5 23.4736 205.46 23.4136C205.42 23.3336 205.4 23.2636 205.4 23.2036C205.4 23.1236 205.42 23.0536 205.46 22.9936C205.5 22.9336 205.52 22.8536 205.52 22.7536C205.52 22.6936 205.5 22.6536 205.46 22.6336C205.42 22.5936 205.4 22.5536 205.4 22.5136C205.22 22.5536 205.03 22.7236 204.83 23.0236C204.65 23.3236 204.47 23.6736 204.29 24.0736C204.13 24.4736 204 24.8836 203.9 25.3036C203.8 25.7036 203.75 26.0336 203.75 26.2936C203.75 26.4336 203.79 26.6636 203.87 26.9836C203.95 27.3036 204.04 27.5136 204.14 27.6136C204.48 26.9136 204.79 26.2336 205.07 25.5736C205.37 24.9136 205.52 24.2636 205.52 23.6236ZM220.41 30.3136C220.41 30.4736 220.35 30.5936 220.23 30.6736C220.11 30.7536 219.97 30.7936 219.81 30.7936C219.63 30.7936 219.44 30.6236 219.24 30.2836C219.06 29.9436 218.88 29.5136 218.7 28.9936C218.52 28.4736 218.35 27.9136 218.19 27.3136C218.03 26.6936 217.89 26.1236 217.77 25.6036C217.65 25.0636 217.55 24.6136 217.47 24.2536C217.41 23.8936 217.38 23.6936 217.38 23.6536C217.38 23.5736 217.34 23.3636 217.26 23.0236C217.2 22.6836 217.11 22.1536 216.99 21.4336C216.89 20.7136 216.77 19.7836 216.63 18.6436C216.51 17.4836 216.38 16.0536 216.24 14.3536C216.24 14.1736 216.27 13.9436 216.33 13.6636C216.39 13.3836 216.53 13.2436 216.75 13.2436C217.03 13.2436 217.24 13.4336 217.38 13.8136C217.54 14.1936 217.66 14.6636 217.74 15.2236C217.84 15.7836 217.91 16.3736 217.95 16.9936C217.99 17.5936 218.04 18.1236 218.1 18.5836C218.18 19.2236 218.25 19.8036 218.31 20.3236C218.39 20.8436 218.46 21.3636 218.52 21.8836C218.6 22.3836 218.69 22.9136 218.79 23.4736C218.91 24.0336 219.05 24.6536 219.21 25.3336L220.41 30.3136ZM243.9 20.5936C243.92 20.6336 243.94 20.6636 243.96 20.6836C243.98 20.6836 243.99 20.7036 243.99 20.7436C243.99 20.8636 243.74 21.0936 243.24 21.4336C242.74 21.7536 242.12 22.1236 241.38 22.5436C240.64 22.9436 239.86 23.3536 239.04 23.7736C238.22 24.1736 237.49 24.5036 236.85 24.7636C236.85 24.8036 236.83 24.9336 236.79 25.1536C236.75 25.3736 236.73 25.5136 236.73 25.5736V26.1436C236.73 26.6036 236.8 27.0636 236.94 27.5236C237.08 27.9636 237.29 28.3636 237.57 28.7236C237.87 29.0836 238.23 29.3736 238.65 29.5936C239.07 29.8136 239.56 29.9236 240.12 29.9236C240.36 29.9236 240.65 29.8836 240.99 29.8036C241.35 29.7036 241.69 29.5736 242.01 29.4136C242.35 29.2336 242.65 29.0236 242.91 28.7836C243.17 28.5436 243.33 28.2736 243.39 27.9736C243.63 27.9936 243.77 28.0636 243.81 28.1836C243.87 28.3036 243.9 28.3836 243.9 28.4236C243.9 28.9436 243.77 29.3936 243.51 29.7736C243.27 30.1336 242.96 30.4336 242.58 30.6736C242.22 30.8936 241.83 31.0636 241.41 31.1836C241.01 31.2836 240.65 31.3336 240.33 31.3336C238.61 31.3336 237.36 30.8536 236.58 29.8936C235.8 28.9336 235.41 27.6736 235.41 26.1136C235.41 26.0336 235.43 25.8536 235.47 25.5736C235.51 25.2936 235.53 25.1036 235.53 25.0036C235.53 24.9836 235.49 24.9636 235.41 24.9436C235.33 24.9036 235.24 24.8636 235.14 24.8236C235.06 24.7836 234.98 24.7236 234.9 24.6436C234.84 24.5436 234.81 24.4136 234.81 24.2536C234.81 24.0936 234.87 23.9636 234.99 23.8636C235.11 23.7636 235.25 23.6736 235.41 23.5936L235.71 23.4136C235.89 22.6536 236.1 21.9236 236.34 21.2236C236.6 20.5036 236.92 19.7836 237.3 19.0636C237.14 19.0636 236.97 19.0436 236.79 19.0036C236.61 18.9636 236.52 18.8236 236.52 18.5836C236.52 18.3036 236.68 17.9936 237 17.6536C237.34 17.3136 237.72 16.9936 238.14 16.6936C238.58 16.3936 239.01 16.1436 239.43 15.9436C239.85 15.7236 240.15 15.6136 240.33 15.6136C240.41 15.6136 240.46 15.6336 240.48 15.6736C240.52 15.6936 240.58 15.7036 240.66 15.7036C240.82 15.7036 241.02 15.6736 241.26 15.6136C241.52 15.5536 241.79 15.4836 242.07 15.4036C242.35 15.3236 242.61 15.2536 242.85 15.1936C243.11 15.1336 243.32 15.1036 243.48 15.1036C243.66 15.1036 243.79 15.1636 243.87 15.2836C243.97 15.4036 244.02 15.5336 244.02 15.6736C244.02 15.8336 243.92 15.9536 243.72 16.0336C243.52 16.0936 243.34 16.1436 243.18 16.1836C242.62 16.2836 242.03 16.4636 241.41 16.7236C240.81 16.9636 240.25 17.2336 239.73 17.5336C239.53 17.7536 239.29 18.0736 239.01 18.4936C238.73 18.8936 238.46 19.3536 238.2 19.8736C237.94 20.3936 237.7 20.9336 237.48 21.4936C237.28 22.0536 237.15 22.5836 237.09 23.0836L237.6 22.8436C239.14 22.1036 240.39 21.5236 241.35 21.1036C242.33 20.6836 243.09 20.4736 243.63 20.4736C243.73 20.4736 243.82 20.5136 243.9 20.5936ZM253.324 33.9736C253.324 34.0336 253.314 34.1336 253.294 34.2736C253.274 34.4136 253.234 34.5436 253.174 34.6636C253.134 34.8036 253.064 34.9236 252.964 35.0236C252.864 35.1436 252.734 35.2036 252.574 35.2036C252.114 35.2036 251.814 35.0636 251.674 34.7836C251.534 34.5036 251.464 34.1936 251.464 33.8536C251.464 33.7736 251.444 33.6436 251.404 33.4636C251.364 33.2836 251.324 33.0836 251.284 32.8636C251.244 32.6436 251.204 32.4236 251.164 32.2036C251.124 31.9836 251.104 31.7936 251.104 31.6336C251.104 31.3336 251.084 30.9936 251.044 30.6136C251.024 30.2336 250.984 29.8536 250.924 29.4736C250.884 29.0736 250.834 28.6936 250.774 28.3336C250.734 27.9736 250.694 27.6536 250.654 27.3736L250.564 27.2836C250.344 27.4236 250.144 27.5936 249.964 27.7936C249.804 27.9936 249.634 28.1836 249.454 28.3636C249.294 28.5436 249.114 28.6936 248.914 28.8136C248.734 28.9336 248.514 28.9936 248.254 28.9936C247.894 28.9936 247.574 28.8736 247.294 28.6336C247.014 28.3736 246.784 28.0736 246.604 27.7336C246.424 27.3936 246.284 27.0536 246.184 26.7136C246.104 26.3536 246.064 26.0736 246.064 25.8736C246.064 25.4336 246.154 24.9336 246.334 24.3736C246.534 23.8136 246.804 23.2936 247.144 22.8136C247.484 22.3136 247.884 21.8936 248.344 21.5536C248.824 21.2136 249.354 21.0436 249.934 21.0436C250.154 21.0436 250.354 21.1036 250.534 21.2236C250.714 21.3436 250.874 21.4936 251.014 21.6736C251.174 21.8336 251.304 22.0036 251.404 22.1836C251.524 22.3636 251.624 22.5036 251.704 22.6036C251.924 22.8636 252.094 23.0936 252.214 23.2936C252.334 23.4736 252.394 23.7036 252.394 23.9836C252.394 24.0436 252.364 24.2236 252.304 24.5236C252.244 24.8236 252.214 25.0736 252.214 25.2736C252.214 26.0936 252.234 26.9336 252.274 27.7936C252.334 28.6336 252.404 29.4236 252.484 30.1636C252.564 30.8836 252.644 31.5136 252.724 32.0536C252.804 32.5936 252.864 32.9636 252.904 33.1636C252.944 33.3236 253.024 33.4236 253.144 33.4636C253.264 33.5236 253.324 33.6936 253.324 33.9736ZM250.714 23.8936C250.694 23.6936 250.614 23.4436 250.474 23.1436C250.354 22.8436 250.094 22.6936 249.694 22.6936C249.354 22.6936 249.044 22.8436 248.764 23.1436C248.484 23.4236 248.244 23.7636 248.044 24.1636C247.844 24.5436 247.694 24.9236 247.594 25.3036C247.494 25.6636 247.444 25.9336 247.444 26.1136C247.444 26.1536 247.454 26.2436 247.474 26.3836C247.514 26.5236 247.554 26.6736 247.594 26.8336C247.654 26.9936 247.724 27.1336 247.804 27.2536C247.884 27.3736 247.974 27.4336 248.074 27.4336C248.314 27.4336 248.584 27.2736 248.884 26.9536C249.184 26.6136 249.464 26.2336 249.724 25.8136C250.004 25.3936 250.234 24.9936 250.414 24.6136C250.614 24.2336 250.714 23.9936 250.714 23.8936ZM264.961 26.2036C264.961 26.3836 264.841 26.5736 264.601 26.7736C264.361 26.9736 264.081 27.1636 263.761 27.3436C263.441 27.5036 263.111 27.6436 262.771 27.7636C262.451 27.8836 262.211 27.9436 262.051 27.9436C261.871 27.9436 261.671 27.8936 261.451 27.7936C261.251 27.6936 261.051 27.5736 260.851 27.4336C260.671 27.2936 260.511 27.1636 260.371 27.0436C260.231 26.9236 260.141 26.8436 260.101 26.8036C260.041 26.8636 259.951 26.9836 259.831 27.1636C259.711 27.3436 259.561 27.5436 259.381 27.7636C259.221 27.9636 259.041 28.1436 258.841 28.3036C258.661 28.4636 258.471 28.5436 258.271 28.5436C257.751 28.5436 257.301 28.2636 256.921 27.7036C256.541 27.1436 256.221 26.5036 255.961 25.7836C255.721 25.0636 255.531 24.3736 255.391 23.7136C255.271 23.0336 255.211 22.5736 255.211 22.3336C255.211 22.1936 255.281 22.0836 255.421 22.0036C255.581 21.9036 255.701 21.8536 255.781 21.8536C256.061 21.8536 256.251 21.9536 256.351 22.1536C256.451 22.3336 256.501 22.5336 256.501 22.7536C256.501 22.9336 256.551 23.2536 256.651 23.7136C256.771 24.1736 256.911 24.6436 257.071 25.1236C257.231 25.6036 257.401 26.0336 257.581 26.4136C257.761 26.7736 257.921 26.9536 258.061 26.9536C258.321 26.9536 258.541 26.7936 258.721 26.4736C258.921 26.1336 259.081 25.7536 259.201 25.3336C259.321 24.8936 259.411 24.4836 259.471 24.1036C259.531 23.7036 259.561 23.4436 259.561 23.3236C259.561 23.3036 259.561 23.2436 259.561 23.1436C259.581 23.0236 259.601 22.9036 259.621 22.7836C259.641 22.6636 259.651 22.5536 259.651 22.4536C259.671 22.3536 259.681 22.2836 259.681 22.2436C259.681 22.1036 259.651 22.0136 259.591 21.9736C259.531 21.9136 259.501 21.8036 259.501 21.6436C259.501 21.5236 259.561 21.4136 259.681 21.3136C259.801 21.1936 260.061 21.1336 260.461 21.1336C260.621 21.1336 260.741 21.1836 260.821 21.2836C260.921 21.3636 260.991 21.4636 261.031 21.5836C261.071 21.7036 261.091 21.8236 261.091 21.9436C261.111 22.0436 261.121 22.1136 261.121 22.1536C261.121 22.1736 261.111 22.3136 261.091 22.5736C261.071 22.8336 261.051 23.1236 261.031 23.4436C261.031 23.7436 261.021 24.0336 261.001 24.3136C260.981 24.5936 260.971 24.7636 260.971 24.8236C260.971 24.8836 261.001 25.0036 261.061 25.1836C261.121 25.3636 261.191 25.5536 261.271 25.7536C261.371 25.9336 261.481 26.1036 261.601 26.2636C261.721 26.4036 261.851 26.4736 261.991 26.4736C262.231 26.4736 262.451 26.4436 262.651 26.3836C262.871 26.3036 263.071 26.2236 263.251 26.1436C263.451 26.0436 263.631 25.9636 263.791 25.9036C263.951 25.8236 264.101 25.7836 264.241 25.7836C264.421 25.7836 264.581 25.8236 264.721 25.9036C264.881 25.9836 264.961 26.0836 264.961 26.2036ZM267.936 17.3836C267.936 17.4236 267.866 17.5036 267.726 17.6236C267.586 17.7436 267.416 17.8736 267.216 18.0136C267.036 18.1336 266.846 18.2436 266.646 18.3436C266.446 18.4436 266.286 18.4936 266.166 18.4936C266.086 18.4936 265.976 18.4936 265.836 18.4936C265.716 18.4736 265.586 18.4336 265.446 18.3736C265.326 18.3136 265.216 18.2336 265.116 18.1336C265.016 18.0136 264.966 17.8636 264.966 17.6836C264.966 17.4036 265.066 17.1436 265.266 16.9036C265.466 16.6436 265.726 16.5136 266.046 16.5136C266.106 16.5136 266.236 16.5436 266.436 16.6036C266.656 16.6436 266.876 16.7036 267.096 16.7836C267.316 16.8636 267.506 16.9536 267.666 17.0536C267.846 17.1536 267.936 17.2636 267.936 17.3836ZM268.926 28.6036C268.926 28.7436 268.816 28.8636 268.596 28.9636C268.396 29.0636 268.246 29.1136 268.146 29.1136C267.946 29.1136 267.766 28.9836 267.606 28.7236C267.446 28.4636 267.306 28.1636 267.186 27.8236C267.066 27.4836 266.966 27.1636 266.886 26.8636C266.806 26.5436 266.746 26.3236 266.706 26.2036C266.646 26.0036 266.566 25.7636 266.466 25.4836C266.366 25.2036 266.266 24.9336 266.166 24.6736C266.086 24.4136 266.016 24.1836 265.956 23.9836C265.896 23.7836 265.866 23.6736 265.866 23.6536C265.866 23.3736 265.916 23.1136 266.016 22.8736C266.136 22.6336 266.276 22.5136 266.436 22.5136C266.616 22.5136 266.806 22.6536 267.006 22.9336C267.206 23.2136 267.396 23.5736 267.576 24.0136C267.776 24.4336 267.956 24.9036 268.116 25.4236C268.276 25.9236 268.416 26.4036 268.536 26.8636C268.656 27.3036 268.746 27.6936 268.806 28.0336C268.886 28.3536 268.926 28.5436 268.926 28.6036ZM279.824 27.4936C279.824 27.6136 279.784 27.7336 279.704 27.8536C279.624 27.9736 279.524 28.0836 279.404 28.1836C279.304 28.2836 279.184 28.3736 279.044 28.4536C278.924 28.5136 278.814 28.5436 278.714 28.5436C278.374 28.5436 277.934 28.4736 277.394 28.3336C276.874 28.1736 276.454 27.9336 276.134 27.6136C275.794 27.2736 275.494 26.8736 275.234 26.4136C274.974 25.9336 274.684 25.2336 274.364 24.3136C274.144 25.1936 273.884 26.0636 273.584 26.9236C273.304 27.7836 272.844 28.5736 272.204 29.2936C272.164 29.3336 272.104 29.3536 272.024 29.3536C271.884 29.3536 271.734 29.2836 271.574 29.1436C271.414 29.0036 271.334 28.8636 271.334 28.7236C271.334 28.5836 271.314 28.2636 271.274 27.7636C271.254 27.2436 271.224 26.6736 271.184 26.0536C271.144 25.4136 271.104 24.7736 271.064 24.1336C271.044 23.4736 271.034 22.9336 271.034 22.5136C271.034 22.3136 271.044 22.0536 271.064 21.7336C271.084 21.3936 271.144 21.1036 271.244 20.8636C271.264 20.8236 271.334 20.7436 271.454 20.6236C271.594 20.5036 271.744 20.4436 271.904 20.4436C272.044 20.4436 272.124 20.5336 272.144 20.7136C272.164 20.8936 272.174 21.0936 272.174 21.3136V26.0536C272.174 26.1536 272.184 26.2936 272.204 26.4736C272.244 26.6536 272.294 26.7836 272.354 26.8636C272.574 26.3836 272.774 25.8236 272.954 25.1836C273.154 24.5236 273.344 23.9036 273.524 23.3236C273.704 22.7236 273.884 22.2236 274.064 21.8236C274.244 21.4036 274.424 21.1936 274.604 21.1936C274.804 21.1936 274.964 21.2336 275.084 21.3136C275.204 21.3936 275.304 21.5536 275.384 21.7936C275.484 22.3736 275.564 22.8936 275.624 23.3536C275.684 23.7936 275.754 24.1936 275.834 24.5536C275.934 24.9136 276.064 25.2536 276.224 25.5736C276.404 25.8736 276.644 26.1536 276.944 26.4136C277.224 26.6736 277.534 26.8636 277.874 26.9836C278.234 27.1036 278.544 27.1636 278.804 27.1636C278.924 27.1636 279.054 27.1436 279.194 27.1036C279.334 27.0436 279.434 27.0136 279.494 27.0136C279.574 27.0136 279.644 27.0836 279.704 27.2236C279.784 27.3636 279.824 27.4536 279.824 27.4936ZM286.741 24.7036C286.741 25.1436 286.681 25.5636 286.561 25.9636C286.441 26.3636 286.281 26.7136 286.081 27.0136C285.881 27.3136 285.641 27.5536 285.361 27.7336C285.101 27.8936 284.811 27.9736 284.491 27.9736C283.931 27.9736 283.491 27.8136 283.171 27.4936C282.851 27.1736 282.601 26.8036 282.421 26.3836C282.261 25.9636 282.151 25.5436 282.091 25.1236C282.051 24.6836 282.031 24.3536 282.031 24.1336C282.031 23.7736 282.081 23.3736 282.181 22.9336C282.301 22.4736 282.451 22.0536 282.631 21.6736C282.831 21.2936 283.051 20.9736 283.291 20.7136C283.531 20.4536 283.781 20.3236 284.041 20.3236C284.101 20.3236 284.191 20.3436 284.311 20.3836C284.451 20.4236 284.591 20.4836 284.731 20.5636C284.871 20.6436 284.991 20.7436 285.091 20.8636C285.211 20.9836 285.291 21.1236 285.331 21.2836C285.551 21.3036 285.771 21.3836 285.991 21.5236C286.211 21.6636 286.331 21.7736 286.351 21.8536C286.511 22.3736 286.611 22.8936 286.651 23.4136C286.711 23.9336 286.741 24.3636 286.741 24.7036ZM285.391 24.1636C285.391 23.8636 285.361 23.5536 285.301 23.2336C285.241 22.8936 285.121 22.5536 284.941 22.2136C284.901 22.2336 284.851 22.2436 284.791 22.2436C284.711 22.2436 284.641 22.2336 284.581 22.2136C284.541 22.1936 284.501 22.1836 284.461 22.1836C284.221 22.1836 284.031 22.2536 283.891 22.3936C283.751 22.5136 283.641 22.6836 283.561 22.9036C283.501 23.1036 283.461 23.3236 283.441 23.5636C283.421 23.8036 283.411 24.0336 283.411 24.2536C283.411 24.4736 283.421 24.7236 283.441 25.0036C283.461 25.2636 283.501 25.5136 283.561 25.7536C283.641 25.9936 283.741 26.2036 283.861 26.3836C283.981 26.5436 284.141 26.6236 284.341 26.6236C284.541 26.6236 284.711 26.5236 284.851 26.3236C284.991 26.1036 285.101 25.8536 285.181 25.5736C285.261 25.2936 285.311 25.0236 285.331 24.7636C285.371 24.4836 285.391 24.2836 285.391 24.1636ZM298.539 28.3936C298.539 28.7736 298.419 29.0336 298.179 29.1736C297.959 29.3136 297.719 29.3836 297.459 29.3836C296.999 29.3836 296.479 29.1836 295.899 28.7836C295.319 28.3636 294.709 27.8936 294.069 27.3736C294.049 27.4136 293.989 27.6336 293.889 28.0336C293.809 28.4136 293.689 28.8336 293.529 29.2936C293.389 29.7536 293.209 30.1736 292.989 30.5536C292.769 30.9336 292.519 31.1236 292.239 31.1236C292.039 31.1236 291.879 31.0536 291.759 30.9136C291.639 30.7536 291.579 30.6436 291.579 30.5836C291.579 30.4436 291.649 30.1836 291.789 29.8036C291.929 29.4036 292.079 28.9836 292.239 28.5436C292.399 28.0836 292.549 27.6536 292.689 27.2536C292.829 26.8536 292.899 26.5636 292.899 26.3836C292.899 26.3036 292.739 26.0536 292.419 25.6336C292.099 25.2136 291.749 24.7236 291.369 24.1636C290.989 23.5836 290.639 22.9736 290.319 22.3336C289.999 21.6936 289.839 21.1036 289.839 20.5636C289.839 20.4236 289.899 20.2836 290.019 20.1436C290.139 20.0036 290.249 19.9336 290.349 19.9336C290.469 19.9336 290.629 19.9836 290.829 20.0836C291.049 20.1636 291.179 20.2836 291.219 20.4436C291.419 21.1036 291.679 21.8136 291.999 22.5736C292.319 23.3136 292.799 24.0336 293.439 24.7336C293.499 24.5136 293.569 24.2136 293.649 23.8336C293.729 23.4536 293.819 23.0436 293.919 22.6036C294.019 22.1636 294.119 21.7236 294.219 21.2836C294.339 20.8436 294.449 20.4436 294.549 20.0836C294.669 19.7236 294.779 19.4336 294.879 19.2136C294.979 18.9936 295.079 18.8836 295.179 18.8836C295.279 18.8836 295.429 18.9236 295.629 19.0036C295.849 19.0636 295.959 19.2036 295.959 19.4236C295.959 19.4236 295.929 19.5936 295.869 19.9336C295.809 20.2536 295.729 20.6436 295.629 21.1036C295.529 21.5636 295.419 22.0636 295.299 22.6036C295.179 23.1236 295.059 23.5936 294.939 24.0136C294.919 24.0736 294.879 24.1836 294.819 24.3436C294.779 24.5036 294.729 24.6736 294.669 24.8536C294.629 25.0336 294.589 25.2036 294.549 25.3636C294.509 25.5036 294.489 25.5936 294.489 25.6336C294.489 25.8136 294.629 26.0336 294.909 26.2936C295.209 26.5336 295.539 26.7736 295.899 27.0136C296.259 27.2336 296.599 27.4236 296.919 27.5836C297.259 27.7436 297.469 27.8236 297.549 27.8236C297.609 27.8236 297.689 27.8136 297.789 27.7936C297.889 27.7736 297.969 27.7636 298.029 27.7636C298.189 27.7636 298.309 27.8536 298.389 28.0336C298.489 28.2136 298.539 28.3336 298.539 28.3936Z" fill="#FEFFE2"/>
<path d="M25.9002 23.7247C25.9002 24.3042 25.7895 24.8478 25.5682 25.3556C25.3468 25.8634 25.0441 26.3094 24.66 26.6935C24.2824 27.0711 23.8397 27.3706 23.3318 27.5919C22.824 27.8133 22.2804 27.924 21.701 27.924H16.0955V25.1212H21.701C21.8963 25.1212 22.0786 25.0854 22.2479 25.0138C22.4171 24.9422 22.5636 24.8445 22.6873 24.7208C22.8175 24.5906 22.9184 24.4409 22.99 24.2716C23.0617 24.1023 23.0975 23.92 23.0975 23.7247C23.0975 23.5294 23.0617 23.3471 22.99 23.1779C22.9184 23.0086 22.8175 22.8621 22.6873 22.7384C22.5636 22.6082 22.4171 22.5073 22.2479 22.4357C22.0786 22.3641 21.8963 22.3282 21.701 22.3282H17.8826V19.5255H21.701C21.8963 19.5255 22.0786 19.4897 22.2479 19.4181C22.4171 19.3465 22.5636 19.2488 22.6873 19.1251C22.8175 18.9949 22.9184 18.8452 22.99 18.6759C23.0617 18.5001 23.0975 18.3146 23.0975 18.1193C23.0975 17.924 23.0617 17.7417 22.99 17.5724C22.9184 17.4031 22.8175 17.2566 22.6873 17.1329C22.5636 17.0027 22.4171 16.9018 22.2479 16.8302C22.0786 16.7586 21.8963 16.7228 21.701 16.7228H16.0955V13.92H21.701C22.2804 13.92 22.824 14.0307 23.3318 14.2521C23.8397 14.4734 24.2824 14.7762 24.66 15.1603C25.0441 15.5379 25.3468 15.9806 25.5682 16.4884C25.7895 16.9962 25.9002 17.5398 25.9002 18.1193C25.9002 18.6336 25.8058 19.1349 25.617 19.6232C25.4282 20.1049 25.1613 20.5379 24.8162 20.922C25.1613 21.3061 25.4282 21.7423 25.617 22.2306C25.8058 22.7124 25.9002 23.2104 25.9002 23.7247Z" fill="#FEFFE2"/>
</svg>
