<svg width="430" height="311" viewBox="0 0 430 311" fill="none" xmlns="http://www.w3.org/2000/svg">
<rect x="1.5" y="1.92859" width="427" height="307" rx="18.5" fill="#FEFFE2" fill-opacity="0.2" stroke="#C4C4C4" stroke-width="3"/>
<path d="M147.195 26.405C147.195 27.305 147.035 28.015 146.715 28.535C146.395 29.035 145.925 29.505 145.305 29.945C145.145 30.045 144.925 30.165 144.645 30.305C144.365 30.445 144.055 30.575 143.715 30.695C143.375 30.815 143.015 30.915 142.635 30.995C142.255 31.075 141.905 31.115 141.585 31.115C140.685 31.115 140.005 31.015 139.545 30.815C139.085 30.635 138.855 30.415 138.855 30.155C138.855 29.875 138.935 29.645 139.095 29.465C139.255 29.285 139.395 29.185 139.515 29.165L139.845 29.405C139.945 29.505 140.085 29.615 140.265 29.735C140.445 29.835 140.735 29.885 141.135 29.885C141.515 29.885 141.975 29.825 142.515 29.705C143.055 29.565 143.565 29.365 144.045 29.105C144.545 28.825 144.965 28.485 145.305 28.085C145.665 27.685 145.845 27.225 145.845 26.705C145.845 26.245 145.495 25.825 144.795 25.445C144.115 25.045 143.035 24.775 141.555 24.635C140.795 24.575 140.045 24.485 139.305 24.365C138.565 24.225 137.895 24.045 137.295 23.825C136.715 23.585 136.245 23.295 135.885 22.955C135.525 22.595 135.345 22.155 135.345 21.635C135.345 21.135 135.485 20.655 135.765 20.195C136.045 19.735 136.385 19.315 136.785 18.935C137.205 18.535 137.635 18.185 138.075 17.885C138.515 17.585 138.885 17.335 139.185 17.135C139.425 16.995 139.755 16.815 140.175 16.595C140.615 16.355 141.075 16.135 141.555 15.935C142.055 15.715 142.545 15.535 143.025 15.395C143.525 15.235 143.945 15.155 144.285 15.155C144.685 15.155 144.955 15.265 145.095 15.485C145.235 15.705 145.305 16.015 145.305 16.415C145.305 16.755 145.265 17.115 145.185 17.495C145.105 17.875 145.015 18.245 144.915 18.605C144.815 18.965 144.715 19.285 144.615 19.565C144.535 19.825 144.475 19.995 144.435 20.075C144.355 20.255 144.265 20.375 144.165 20.435C144.065 20.495 143.995 20.525 143.955 20.525C143.875 20.525 143.835 20.475 143.835 20.375C143.835 20.315 143.845 20.205 143.865 20.045C143.905 19.865 143.945 19.655 143.985 19.415C144.045 19.175 144.085 18.915 144.105 18.635C144.145 18.355 144.165 18.075 144.165 17.795C144.165 17.355 144.145 17.035 144.105 16.835C144.065 16.635 143.905 16.535 143.625 16.535C143.345 16.535 142.965 16.615 142.485 16.775C142.005 16.915 141.515 17.095 141.015 17.315C140.475 17.555 139.945 17.865 139.425 18.245C138.925 18.625 138.475 19.015 138.075 19.415C137.675 19.815 137.345 20.205 137.085 20.585C136.845 20.945 136.725 21.235 136.725 21.455C136.725 21.695 136.885 21.925 137.205 22.145C137.545 22.345 137.965 22.525 138.465 22.685C138.985 22.845 139.555 22.985 140.175 23.105C140.795 23.225 141.405 23.315 142.005 23.375C142.505 23.435 143.055 23.515 143.655 23.615C144.255 23.715 144.815 23.875 145.335 24.095C145.855 24.315 146.295 24.615 146.655 24.995C147.015 25.355 147.195 25.825 147.195 26.405ZM158.716 25.775C158.716 25.955 158.596 26.145 158.356 26.345C158.116 26.545 157.836 26.735 157.516 26.915C157.196 27.075 156.866 27.215 156.526 27.335C156.206 27.455 155.966 27.515 155.806 27.515C155.626 27.515 155.426 27.465 155.206 27.365C155.006 27.265 154.806 27.145 154.606 27.005C154.426 26.865 154.266 26.735 154.126 26.615C153.986 26.495 153.896 26.415 153.856 26.375C153.796 26.435 153.706 26.555 153.586 26.735C153.466 26.915 153.316 27.115 153.136 27.335C152.976 27.535 152.796 27.715 152.596 27.875C152.416 28.035 152.226 28.115 152.026 28.115C151.506 28.115 151.056 27.835 150.676 27.275C150.296 26.715 149.976 26.075 149.716 25.355C149.476 24.635 149.286 23.945 149.146 23.285C149.026 22.605 148.966 22.145 148.966 21.905C148.966 21.765 149.036 21.655 149.176 21.575C149.336 21.475 149.456 21.425 149.536 21.425C149.816 21.425 150.006 21.525 150.106 21.725C150.206 21.905 150.256 22.105 150.256 22.325C150.256 22.505 150.306 22.825 150.406 23.285C150.526 23.745 150.666 24.215 150.826 24.695C150.986 25.175 151.156 25.605 151.336 25.985C151.516 26.345 151.676 26.525 151.816 26.525C152.076 26.525 152.296 26.365 152.476 26.045C152.676 25.705 152.836 25.325 152.956 24.905C153.076 24.465 153.166 24.055 153.226 23.675C153.286 23.275 153.316 23.015 153.316 22.895C153.316 22.875 153.316 22.815 153.316 22.715C153.336 22.595 153.356 22.475 153.376 22.355C153.396 22.235 153.406 22.125 153.406 22.025C153.426 21.925 153.436 21.855 153.436 21.815C153.436 21.675 153.406 21.585 153.346 21.545C153.286 21.485 153.256 21.375 153.256 21.215C153.256 21.095 153.316 20.985 153.436 20.885C153.556 20.765 153.816 20.705 154.216 20.705C154.376 20.705 154.496 20.755 154.576 20.855C154.676 20.935 154.746 21.035 154.786 21.155C154.826 21.275 154.846 21.395 154.846 21.515C154.866 21.615 154.876 21.685 154.876 21.725C154.876 21.745 154.866 21.885 154.846 22.145C154.826 22.405 154.806 22.695 154.786 23.015C154.786 23.315 154.776 23.605 154.756 23.885C154.736 24.165 154.726 24.335 154.726 24.395C154.726 24.455 154.756 24.575 154.816 24.755C154.876 24.935 154.946 25.125 155.026 25.325C155.126 25.505 155.236 25.675 155.356 25.835C155.476 25.975 155.606 26.045 155.746 26.045C155.986 26.045 156.206 26.015 156.406 25.955C156.626 25.875 156.826 25.795 157.006 25.715C157.206 25.615 157.386 25.535 157.546 25.475C157.706 25.395 157.856 25.355 157.996 25.355C158.176 25.355 158.336 25.395 158.476 25.475C158.636 25.555 158.716 25.655 158.716 25.775ZM173.241 27.935C173.241 28.095 173.191 28.235 173.091 28.355C172.991 28.475 172.871 28.575 172.731 28.655C172.591 28.715 172.441 28.765 172.281 28.805C172.141 28.845 172.021 28.865 171.921 28.865C171.501 28.865 171.141 28.645 170.841 28.205C170.541 27.745 170.291 27.245 170.091 26.705C169.891 26.145 169.741 25.625 169.641 25.145C169.561 24.665 169.521 24.405 169.521 24.365C169.401 24.585 169.271 24.955 169.131 25.475C169.011 25.995 168.861 26.525 168.681 27.065C168.501 27.585 168.271 28.055 167.991 28.475C167.731 28.875 167.391 29.075 166.971 29.075C166.771 29.075 166.581 28.955 166.401 28.715C166.221 28.475 166.051 28.165 165.891 27.785C165.731 27.405 165.571 26.975 165.411 26.495C165.271 26.015 165.121 25.545 164.961 25.085C164.821 24.625 164.681 24.195 164.541 23.795C164.401 23.375 164.261 23.045 164.121 22.805C164.001 23.105 163.891 23.515 163.791 24.035C163.711 24.555 163.641 25.105 163.581 25.685C163.521 26.245 163.471 26.805 163.431 27.365C163.391 27.925 163.371 28.415 163.371 28.835C163.371 29.115 163.291 29.315 163.131 29.435C162.991 29.555 162.841 29.615 162.681 29.615C162.461 29.615 162.241 29.475 162.021 29.195C161.801 28.895 161.581 28.515 161.361 28.055C161.141 27.595 160.931 27.075 160.731 26.495C160.551 25.915 160.381 25.335 160.221 24.755C160.081 24.175 159.971 23.625 159.891 23.105C159.811 22.565 159.771 22.115 159.771 21.755C159.771 21.495 159.781 21.255 159.801 21.035C159.821 20.855 159.831 20.685 159.831 20.525C159.851 20.365 159.861 20.275 159.861 20.255C159.861 20.195 159.841 20.155 159.801 20.135C159.781 20.115 159.771 20.065 159.771 19.985C159.771 19.925 159.841 19.835 159.981 19.715C160.141 19.575 160.301 19.505 160.461 19.505C160.741 19.505 160.921 19.565 161.001 19.685C161.101 19.805 161.151 19.945 161.151 20.105C161.151 20.165 161.141 20.255 161.121 20.375C161.121 20.495 161.121 20.765 161.121 21.185C161.121 21.465 161.171 21.885 161.271 22.445C161.371 23.005 161.491 23.575 161.631 24.155C161.771 24.735 161.911 25.275 162.051 25.775C162.211 26.255 162.341 26.555 162.441 26.675C162.481 26.595 162.501 26.505 162.501 26.405C162.521 26.285 162.541 26.195 162.561 26.135L162.891 23.675C162.971 23.055 163.131 22.405 163.371 21.725C163.631 21.025 163.901 20.485 164.181 20.105C164.281 19.945 164.391 19.865 164.511 19.865C164.631 19.865 164.741 19.955 164.841 20.135C165.181 20.695 165.431 21.255 165.591 21.815C165.771 22.355 165.921 22.895 166.041 23.435C166.181 23.955 166.331 24.485 166.491 25.025C166.671 25.545 166.941 26.075 167.301 26.615C167.461 26.355 167.661 25.935 167.901 25.355C168.141 24.755 168.381 24.155 168.621 23.555C168.881 22.955 169.121 22.435 169.341 21.995C169.561 21.535 169.731 21.305 169.851 21.305C169.911 21.305 170.011 21.315 170.151 21.335C170.291 21.355 170.391 21.365 170.451 21.365C170.631 21.365 170.781 21.575 170.901 21.995C171.021 22.395 171.121 22.875 171.201 23.435C171.301 23.975 171.391 24.525 171.471 25.085C171.571 25.625 171.681 26.035 171.801 26.315C171.881 26.515 172.001 26.705 172.161 26.885C172.321 27.065 172.481 27.235 172.641 27.395C172.841 27.575 173.041 27.755 173.241 27.935ZM188.973 27.935C188.973 28.095 188.923 28.235 188.823 28.355C188.723 28.475 188.603 28.575 188.463 28.655C188.323 28.715 188.173 28.765 188.013 28.805C187.873 28.845 187.753 28.865 187.653 28.865C187.233 28.865 186.873 28.645 186.573 28.205C186.273 27.745 186.023 27.245 185.823 26.705C185.623 26.145 185.473 25.625 185.373 25.145C185.293 24.665 185.253 24.405 185.253 24.365C185.133 24.585 185.003 24.955 184.863 25.475C184.743 25.995 184.593 26.525 184.413 27.065C184.233 27.585 184.003 28.055 183.723 28.475C183.463 28.875 183.123 29.075 182.703 29.075C182.503 29.075 182.313 28.955 182.133 28.715C181.953 28.475 181.783 28.165 181.623 27.785C181.463 27.405 181.303 26.975 181.143 26.495C181.003 26.015 180.853 25.545 180.693 25.085C180.553 24.625 180.413 24.195 180.273 23.795C180.133 23.375 179.993 23.045 179.853 22.805C179.733 23.105 179.623 23.515 179.523 24.035C179.443 24.555 179.373 25.105 179.313 25.685C179.253 26.245 179.203 26.805 179.163 27.365C179.123 27.925 179.103 28.415 179.103 28.835C179.103 29.115 179.023 29.315 178.863 29.435C178.723 29.555 178.573 29.615 178.413 29.615C178.193 29.615 177.973 29.475 177.753 29.195C177.533 28.895 177.313 28.515 177.093 28.055C176.873 27.595 176.663 27.075 176.463 26.495C176.283 25.915 176.113 25.335 175.953 24.755C175.813 24.175 175.703 23.625 175.623 23.105C175.543 22.565 175.503 22.115 175.503 21.755C175.503 21.495 175.513 21.255 175.533 21.035C175.553 20.855 175.563 20.685 175.563 20.525C175.583 20.365 175.593 20.275 175.593 20.255C175.593 20.195 175.573 20.155 175.533 20.135C175.513 20.115 175.503 20.065 175.503 19.985C175.503 19.925 175.573 19.835 175.713 19.715C175.873 19.575 176.033 19.505 176.193 19.505C176.473 19.505 176.653 19.565 176.733 19.685C176.833 19.805 176.883 19.945 176.883 20.105C176.883 20.165 176.873 20.255 176.853 20.375C176.853 20.495 176.853 20.765 176.853 21.185C176.853 21.465 176.903 21.885 177.003 22.445C177.103 23.005 177.223 23.575 177.363 24.155C177.503 24.735 177.643 25.275 177.783 25.775C177.943 26.255 178.073 26.555 178.173 26.675C178.213 26.595 178.233 26.505 178.233 26.405C178.253 26.285 178.273 26.195 178.293 26.135L178.623 23.675C178.703 23.055 178.863 22.405 179.103 21.725C179.363 21.025 179.633 20.485 179.913 20.105C180.013 19.945 180.123 19.865 180.243 19.865C180.363 19.865 180.473 19.955 180.573 20.135C180.913 20.695 181.163 21.255 181.323 21.815C181.503 22.355 181.653 22.895 181.773 23.435C181.913 23.955 182.063 24.485 182.223 25.025C182.403 25.545 182.673 26.075 183.033 26.615C183.193 26.355 183.393 25.935 183.633 25.355C183.873 24.755 184.113 24.155 184.353 23.555C184.613 22.955 184.853 22.435 185.073 21.995C185.293 21.535 185.463 21.305 185.583 21.305C185.643 21.305 185.743 21.315 185.883 21.335C186.023 21.355 186.123 21.365 186.183 21.365C186.363 21.365 186.513 21.575 186.633 21.995C186.753 22.395 186.853 22.875 186.933 23.435C187.033 23.975 187.123 24.525 187.203 25.085C187.303 25.625 187.413 26.035 187.533 26.315C187.613 26.515 187.733 26.705 187.893 26.885C188.053 27.065 188.213 27.235 188.373 27.395C188.573 27.575 188.773 27.755 188.973 27.935ZM199.725 27.605C199.745 27.645 199.755 27.705 199.755 27.785C199.755 27.905 199.665 28.085 199.485 28.325C199.425 28.405 199.295 28.535 199.095 28.715C198.895 28.895 198.625 29.075 198.285 29.255C197.945 29.435 197.525 29.595 197.025 29.735C196.545 29.875 195.975 29.945 195.315 29.945C194.855 29.945 194.405 29.845 193.965 29.645C193.525 29.425 193.135 29.115 192.795 28.715C192.455 28.295 192.175 27.785 191.955 27.185C191.735 26.565 191.625 25.845 191.625 25.025C191.625 24.245 191.725 23.515 191.925 22.835C192.125 22.155 192.375 21.555 192.675 21.035C192.995 20.515 193.345 20.105 193.725 19.805C194.105 19.505 194.475 19.355 194.835 19.355C195.155 19.355 195.475 19.425 195.795 19.565C196.135 19.685 196.435 19.845 196.695 20.045C196.975 20.245 197.195 20.475 197.355 20.735C197.515 20.975 197.595 21.225 197.595 21.485C197.595 21.785 197.455 22.095 197.175 22.415C196.915 22.735 196.595 23.035 196.215 23.315C195.835 23.575 195.455 23.795 195.075 23.975C194.695 24.135 194.395 24.215 194.175 24.215C194.055 24.215 193.945 24.165 193.845 24.065C193.765 23.945 193.725 23.805 193.725 23.645C193.725 23.365 193.845 23.145 194.085 22.985C194.345 22.825 194.625 22.685 194.925 22.565C195.225 22.425 195.495 22.265 195.735 22.085C195.995 21.905 196.125 21.655 196.125 21.335C196.125 21.295 196.075 21.195 195.975 21.035C195.875 20.875 195.605 20.795 195.165 20.795C194.965 20.795 194.735 20.915 194.475 21.155C194.215 21.375 193.965 21.685 193.725 22.085C193.485 22.465 193.285 22.925 193.125 23.465C192.965 23.985 192.885 24.555 192.885 25.175C192.885 25.695 192.975 26.165 193.155 26.585C193.355 27.005 193.605 27.365 193.905 27.665C194.205 27.945 194.555 28.165 194.955 28.325C195.355 28.485 195.765 28.565 196.185 28.565C196.485 28.565 196.805 28.505 197.145 28.385C197.505 28.245 197.835 28.105 198.135 27.965C198.455 27.805 198.725 27.665 198.945 27.545C199.185 27.405 199.335 27.335 199.395 27.335C199.455 27.335 199.515 27.365 199.575 27.425C199.655 27.485 199.705 27.545 199.725 27.605ZM208.924 21.605C208.924 21.745 208.864 21.865 208.744 21.965C208.624 22.045 208.484 22.115 208.324 22.175C208.164 22.235 208.004 22.285 207.844 22.325C207.684 22.345 207.554 22.355 207.454 22.355C207.154 22.355 206.954 22.335 206.854 22.295C206.754 22.255 206.674 22.235 206.614 22.235C206.114 22.235 205.714 22.275 205.414 22.355C205.114 22.435 204.874 22.565 204.694 22.745C204.534 22.925 204.424 23.155 204.364 23.435C204.324 23.695 204.304 24.015 204.304 24.395C204.304 25.035 204.324 25.545 204.364 25.925C204.424 26.305 204.474 26.615 204.514 26.855C204.574 27.095 204.624 27.285 204.664 27.425C204.724 27.545 204.754 27.665 204.754 27.785C204.754 27.945 204.664 28.115 204.484 28.295C204.324 28.475 204.174 28.565 204.034 28.565C203.794 28.565 203.574 28.355 203.374 27.935C203.194 27.495 203.034 26.985 202.894 26.405C202.774 25.805 202.674 25.215 202.594 24.635C202.514 24.055 202.474 23.615 202.474 23.315C202.474 22.975 202.504 22.655 202.564 22.355C202.624 22.035 202.704 21.765 202.804 21.545C202.904 21.305 203.014 21.115 203.134 20.975C203.254 20.835 203.374 20.765 203.494 20.765C203.594 20.765 203.674 20.805 203.734 20.885C203.794 20.945 203.844 21.025 203.884 21.125C203.924 21.205 203.964 21.285 204.004 21.365C204.064 21.425 204.134 21.455 204.214 21.455C204.394 21.455 204.684 21.365 205.084 21.185C205.484 21.005 205.974 20.915 206.554 20.915C207.094 20.915 207.494 20.935 207.754 20.975C208.034 20.995 208.304 21.055 208.564 21.155C208.624 21.175 208.694 21.225 208.774 21.305C208.874 21.365 208.924 21.465 208.924 21.605ZM235.788 26.405C235.788 27.305 235.628 28.015 235.308 28.535C234.988 29.035 234.518 29.505 233.898 29.945C233.738 30.045 233.518 30.165 233.238 30.305C232.958 30.445 232.648 30.575 232.308 30.695C231.968 30.815 231.608 30.915 231.228 30.995C230.848 31.075 230.498 31.115 230.178 31.115C229.278 31.115 228.598 31.015 228.138 30.815C227.678 30.635 227.448 30.415 227.448 30.155C227.448 29.875 227.528 29.645 227.688 29.465C227.848 29.285 227.988 29.185 228.108 29.165L228.438 29.405C228.538 29.505 228.678 29.615 228.858 29.735C229.038 29.835 229.328 29.885 229.728 29.885C230.108 29.885 230.568 29.825 231.108 29.705C231.648 29.565 232.158 29.365 232.638 29.105C233.138 28.825 233.558 28.485 233.898 28.085C234.258 27.685 234.438 27.225 234.438 26.705C234.438 26.245 234.088 25.825 233.388 25.445C232.708 25.045 231.628 24.775 230.148 24.635C229.388 24.575 228.638 24.485 227.898 24.365C227.158 24.225 226.488 24.045 225.888 23.825C225.308 23.585 224.838 23.295 224.478 22.955C224.118 22.595 223.938 22.155 223.938 21.635C223.938 21.135 224.078 20.655 224.358 20.195C224.638 19.735 224.978 19.315 225.378 18.935C225.798 18.535 226.228 18.185 226.668 17.885C227.108 17.585 227.478 17.335 227.778 17.135C228.018 16.995 228.348 16.815 228.768 16.595C229.208 16.355 229.668 16.135 230.148 15.935C230.648 15.715 231.138 15.535 231.618 15.395C232.118 15.235 232.538 15.155 232.878 15.155C233.278 15.155 233.548 15.265 233.688 15.485C233.828 15.705 233.898 16.015 233.898 16.415C233.898 16.755 233.858 17.115 233.778 17.495C233.698 17.875 233.608 18.245 233.508 18.605C233.408 18.965 233.308 19.285 233.208 19.565C233.128 19.825 233.068 19.995 233.028 20.075C232.948 20.255 232.858 20.375 232.758 20.435C232.658 20.495 232.588 20.525 232.548 20.525C232.468 20.525 232.428 20.475 232.428 20.375C232.428 20.315 232.438 20.205 232.458 20.045C232.498 19.865 232.538 19.655 232.578 19.415C232.638 19.175 232.678 18.915 232.698 18.635C232.738 18.355 232.758 18.075 232.758 17.795C232.758 17.355 232.738 17.035 232.698 16.835C232.658 16.635 232.498 16.535 232.218 16.535C231.938 16.535 231.558 16.615 231.078 16.775C230.598 16.915 230.108 17.095 229.608 17.315C229.068 17.555 228.538 17.865 228.018 18.245C227.518 18.625 227.068 19.015 226.668 19.415C226.268 19.815 225.938 20.205 225.678 20.585C225.438 20.945 225.318 21.235 225.318 21.455C225.318 21.695 225.478 21.925 225.798 22.145C226.138 22.345 226.558 22.525 227.058 22.685C227.578 22.845 228.148 22.985 228.768 23.105C229.388 23.225 229.998 23.315 230.598 23.375C231.098 23.435 231.648 23.515 232.248 23.615C232.848 23.715 233.408 23.875 233.928 24.095C234.448 24.315 234.888 24.615 235.248 24.995C235.608 25.355 235.788 25.825 235.788 26.405ZM242.81 24.275C242.81 24.715 242.75 25.135 242.63 25.535C242.51 25.935 242.35 26.285 242.15 26.585C241.95 26.885 241.71 27.125 241.43 27.305C241.17 27.465 240.88 27.545 240.56 27.545C240 27.545 239.56 27.385 239.24 27.065C238.92 26.745 238.67 26.375 238.49 25.955C238.33 25.535 238.22 25.115 238.16 24.695C238.12 24.255 238.1 23.925 238.1 23.705C238.1 23.345 238.15 22.945 238.25 22.505C238.37 22.045 238.52 21.625 238.7 21.245C238.9 20.865 239.12 20.545 239.36 20.285C239.6 20.025 239.85 19.895 240.11 19.895C240.17 19.895 240.26 19.915 240.38 19.955C240.52 19.995 240.66 20.055 240.8 20.135C240.94 20.215 241.06 20.315 241.16 20.435C241.28 20.555 241.36 20.695 241.4 20.855C241.62 20.875 241.84 20.955 242.06 21.095C242.28 21.235 242.4 21.345 242.42 21.425C242.58 21.945 242.68 22.465 242.72 22.985C242.78 23.505 242.81 23.935 242.81 24.275ZM241.46 23.735C241.46 23.435 241.43 23.125 241.37 22.805C241.31 22.465 241.19 22.125 241.01 21.785C240.97 21.805 240.92 21.815 240.86 21.815C240.78 21.815 240.71 21.805 240.65 21.785C240.61 21.765 240.57 21.755 240.53 21.755C240.29 21.755 240.1 21.825 239.96 21.965C239.82 22.085 239.71 22.255 239.63 22.475C239.57 22.675 239.53 22.895 239.51 23.135C239.49 23.375 239.48 23.605 239.48 23.825C239.48 24.045 239.49 24.295 239.51 24.575C239.53 24.835 239.57 25.085 239.63 25.325C239.71 25.565 239.81 25.775 239.93 25.955C240.05 26.115 240.21 26.195 240.41 26.195C240.61 26.195 240.78 26.095 240.92 25.895C241.06 25.675 241.17 25.425 241.25 25.145C241.33 24.865 241.38 24.595 241.4 24.335C241.44 24.055 241.46 23.855 241.46 23.735ZM249.838 29.885C249.838 30.045 249.778 30.165 249.658 30.245C249.538 30.325 249.398 30.365 249.238 30.365C249.058 30.365 248.868 30.195 248.668 29.855C248.488 29.515 248.308 29.085 248.128 28.565C247.948 28.045 247.778 27.485 247.618 26.885C247.458 26.265 247.318 25.695 247.198 25.175C247.078 24.635 246.978 24.185 246.898 23.825C246.838 23.465 246.808 23.265 246.808 23.225C246.808 23.145 246.768 22.935 246.688 22.595C246.628 22.255 246.538 21.725 246.418 21.005C246.318 20.285 246.198 19.355 246.058 18.215C245.938 17.055 245.808 15.625 245.668 13.925C245.668 13.745 245.698 13.515 245.758 13.235C245.818 12.955 245.958 12.815 246.178 12.815C246.458 12.815 246.668 13.005 246.808 13.385C246.968 13.765 247.088 14.235 247.168 14.795C247.268 15.355 247.338 15.945 247.378 16.565C247.418 17.165 247.468 17.695 247.528 18.155C247.608 18.795 247.678 19.375 247.738 19.895C247.818 20.415 247.888 20.935 247.948 21.455C248.028 21.955 248.118 22.485 248.218 23.045C248.338 23.605 248.478 24.225 248.638 24.905L249.838 29.885ZM258.926 26.795C258.926 27.135 258.806 27.435 258.566 27.695C258.346 27.935 258.056 28.145 257.696 28.325C257.356 28.485 256.976 28.615 256.556 28.715C256.136 28.815 255.736 28.895 255.356 28.955C254.976 28.995 254.636 29.025 254.336 29.045C254.056 29.045 253.876 29.045 253.796 29.045C253.356 29.045 253.016 28.975 252.776 28.835C252.536 28.695 252.416 28.445 252.416 28.085C252.416 27.965 252.426 27.865 252.446 27.785C252.466 27.685 252.546 27.635 252.686 27.635C252.746 27.635 252.846 27.655 252.986 27.695C253.126 27.715 253.236 27.725 253.316 27.725C253.396 27.725 253.646 27.715 254.066 27.695C254.506 27.655 254.966 27.595 255.446 27.515C255.946 27.435 256.386 27.325 256.766 27.185C257.166 27.025 257.366 26.825 257.366 26.585C257.366 26.545 257.156 26.425 256.736 26.225C256.336 26.005 255.726 25.645 254.906 25.145C254.266 24.745 253.816 24.345 253.556 23.945C253.296 23.525 253.166 22.965 253.166 22.265C253.166 21.825 253.256 21.465 253.436 21.185C253.636 20.905 253.896 20.685 254.216 20.525C254.556 20.365 254.936 20.255 255.356 20.195C255.796 20.115 256.256 20.075 256.736 20.075C256.776 20.075 256.896 20.095 257.096 20.135C257.316 20.175 257.546 20.245 257.786 20.345C258.026 20.425 258.236 20.535 258.416 20.675C258.616 20.795 258.716 20.935 258.716 21.095C258.716 21.135 258.676 21.195 258.596 21.275C258.536 21.355 258.426 21.505 258.266 21.725C258.206 21.705 258.096 21.675 257.936 21.635C257.796 21.595 257.626 21.555 257.426 21.515C257.246 21.455 257.056 21.415 256.856 21.395C256.656 21.355 256.496 21.335 256.376 21.335C255.856 21.335 255.436 21.435 255.116 21.635C254.796 21.815 254.636 22.175 254.636 22.715C254.636 22.975 254.736 23.215 254.936 23.435C255.156 23.655 255.426 23.865 255.746 24.065C256.066 24.245 256.406 24.435 256.766 24.635C257.146 24.815 257.496 25.015 257.816 25.235C258.136 25.455 258.396 25.695 258.596 25.955C258.816 26.195 258.926 26.475 258.926 26.795ZM269.443 17.195C269.183 17.495 268.813 17.795 268.333 18.095C267.853 18.375 267.373 18.635 266.893 18.875C266.413 19.115 265.993 19.325 265.633 19.505C265.273 19.665 265.093 19.775 265.093 19.835C265.093 19.895 265.133 20.075 265.213 20.375C265.293 20.675 265.383 21.035 265.483 21.455C265.603 21.855 265.723 22.275 265.843 22.715C265.963 23.155 266.063 23.545 266.143 23.885C266.183 24.085 266.233 24.345 266.293 24.665C266.353 24.985 266.403 25.305 266.443 25.625C266.503 25.945 266.553 26.235 266.593 26.495C266.633 26.735 266.653 26.865 266.653 26.885C266.653 27.185 266.603 27.495 266.503 27.815C266.403 28.135 266.243 28.295 266.023 28.295C265.903 28.295 265.793 28.245 265.693 28.145C265.593 28.045 265.503 27.935 265.423 27.815C265.343 27.675 265.283 27.545 265.243 27.425C265.203 27.305 265.183 27.215 265.183 27.155C265.183 27.115 265.183 27.055 265.183 26.975C265.203 26.895 265.213 26.805 265.213 26.705C265.213 26.325 265.153 25.775 265.033 25.055C264.993 24.835 264.913 24.495 264.793 24.035C264.673 23.575 264.553 23.105 264.433 22.625C264.293 22.065 264.133 21.455 263.953 20.795C263.873 20.515 263.823 20.375 263.803 20.375C263.663 20.375 263.423 20.465 263.083 20.645C262.763 20.805 262.393 21.015 261.973 21.275C261.553 21.515 261.113 21.785 260.653 22.085C260.193 22.365 259.763 22.635 259.363 22.895C258.963 23.135 258.623 23.345 258.343 23.525C258.043 23.685 257.863 23.765 257.803 23.765C257.543 23.765 257.333 23.675 257.173 23.495C257.013 23.315 256.933 23.115 256.933 22.895C256.933 22.775 257.103 22.605 257.443 22.385C257.763 22.145 258.173 21.885 258.673 21.605C259.153 21.325 259.683 21.035 260.263 20.735C260.823 20.435 261.343 20.165 261.823 19.925C262.323 19.685 262.733 19.485 263.053 19.325C263.393 19.165 263.563 19.085 263.563 19.085C263.383 18.165 263.233 17.345 263.113 16.625C263.013 16.005 262.913 15.435 262.813 14.915C262.733 14.395 262.693 14.115 262.693 14.075C262.693 13.815 262.743 13.625 262.843 13.505C262.963 13.365 263.093 13.295 263.233 13.295C263.453 13.295 263.593 13.445 263.653 13.745C263.873 14.825 264.073 15.785 264.253 16.625C264.453 17.465 264.643 18.145 264.823 18.665C265.003 18.625 265.313 18.515 265.753 18.335C266.193 18.135 266.653 17.925 267.133 17.705C267.613 17.485 268.043 17.295 268.423 17.135C268.823 16.955 269.053 16.865 269.113 16.865C269.233 16.865 269.303 16.905 269.323 16.985C269.363 17.065 269.403 17.135 269.443 17.195ZM272.843 16.955C272.843 16.995 272.773 17.075 272.633 17.195C272.493 17.315 272.323 17.445 272.123 17.585C271.943 17.705 271.753 17.815 271.553 17.915C271.353 18.015 271.193 18.065 271.073 18.065C270.993 18.065 270.883 18.065 270.743 18.065C270.623 18.045 270.493 18.005 270.353 17.945C270.233 17.885 270.123 17.805 270.023 17.705C269.923 17.585 269.873 17.435 269.873 17.255C269.873 16.975 269.973 16.715 270.173 16.475C270.373 16.215 270.633 16.085 270.953 16.085C271.013 16.085 271.143 16.115 271.343 16.175C271.563 16.215 271.783 16.275 272.003 16.355C272.223 16.435 272.413 16.525 272.573 16.625C272.753 16.725 272.843 16.835 272.843 16.955ZM273.833 28.175C273.833 28.315 273.723 28.435 273.503 28.535C273.303 28.635 273.153 28.685 273.053 28.685C272.853 28.685 272.673 28.555 272.513 28.295C272.353 28.035 272.213 27.735 272.093 27.395C271.973 27.055 271.873 26.735 271.793 26.435C271.713 26.115 271.653 25.895 271.613 25.775C271.553 25.575 271.473 25.335 271.373 25.055C271.273 24.775 271.173 24.505 271.073 24.245C270.993 23.985 270.923 23.755 270.863 23.555C270.803 23.355 270.773 23.245 270.773 23.225C270.773 22.945 270.823 22.685 270.923 22.445C271.043 22.205 271.183 22.085 271.343 22.085C271.523 22.085 271.713 22.225 271.913 22.505C272.113 22.785 272.303 23.145 272.483 23.585C272.683 24.005 272.863 24.475 273.023 24.995C273.183 25.495 273.323 25.975 273.443 26.435C273.563 26.875 273.653 27.265 273.713 27.605C273.793 27.925 273.833 28.115 273.833 28.175ZM284.371 25.295C284.371 25.495 284.341 25.705 284.281 25.925C284.221 26.125 284.161 26.295 284.101 26.435C284.061 26.495 283.871 26.705 283.531 27.065C283.211 27.405 282.801 27.765 282.301 28.145C281.821 28.525 281.271 28.875 280.651 29.195C280.051 29.495 279.471 29.645 278.911 29.645C278.571 29.645 278.221 29.585 277.861 29.465C277.521 29.345 277.201 29.155 276.901 28.895C276.601 28.615 276.351 28.275 276.151 27.875C275.971 27.475 275.881 26.985 275.881 26.405C275.881 25.445 276.041 24.575 276.361 23.795C276.681 23.015 277.001 22.395 277.321 21.935C277.461 21.715 277.641 21.495 277.861 21.275C278.101 21.035 278.331 20.825 278.551 20.645C278.771 20.445 278.971 20.285 279.151 20.165C279.351 20.045 279.491 19.985 279.571 19.985C279.751 19.985 279.911 20.035 280.051 20.135C280.211 20.235 280.291 20.335 280.291 20.435C280.291 20.595 280.241 20.735 280.141 20.855C280.061 20.955 279.941 21.075 279.781 21.215C279.621 21.335 279.431 21.505 279.211 21.725C278.991 21.925 278.761 22.195 278.521 22.535C278.041 23.195 277.681 23.875 277.441 24.575C277.221 25.255 277.111 25.855 277.111 26.375C277.111 26.895 277.301 27.315 277.681 27.635C278.081 27.935 278.491 28.085 278.911 28.085C279.671 28.085 280.341 27.915 280.921 27.575C281.521 27.235 282.031 26.855 282.451 26.435C282.871 26.015 283.211 25.635 283.471 25.295C283.731 24.955 283.921 24.785 284.041 24.785C284.261 24.785 284.371 24.955 284.371 25.295ZM295.116 27.605C295.136 27.645 295.146 27.705 295.146 27.785C295.146 27.905 295.056 28.085 294.876 28.325C294.816 28.405 294.686 28.535 294.486 28.715C294.286 28.895 294.016 29.075 293.676 29.255C293.336 29.435 292.916 29.595 292.416 29.735C291.936 29.875 291.366 29.945 290.706 29.945C290.246 29.945 289.796 29.845 289.356 29.645C288.916 29.425 288.526 29.115 288.186 28.715C287.846 28.295 287.566 27.785 287.346 27.185C287.126 26.565 287.016 25.845 287.016 25.025C287.016 24.245 287.116 23.515 287.316 22.835C287.516 22.155 287.766 21.555 288.066 21.035C288.386 20.515 288.736 20.105 289.116 19.805C289.496 19.505 289.866 19.355 290.226 19.355C290.546 19.355 290.866 19.425 291.186 19.565C291.526 19.685 291.826 19.845 292.086 20.045C292.366 20.245 292.586 20.475 292.746 20.735C292.906 20.975 292.986 21.225 292.986 21.485C292.986 21.785 292.846 22.095 292.566 22.415C292.306 22.735 291.986 23.035 291.606 23.315C291.226 23.575 290.846 23.795 290.466 23.975C290.086 24.135 289.786 24.215 289.566 24.215C289.446 24.215 289.336 24.165 289.236 24.065C289.156 23.945 289.116 23.805 289.116 23.645C289.116 23.365 289.236 23.145 289.476 22.985C289.736 22.825 290.016 22.685 290.316 22.565C290.616 22.425 290.886 22.265 291.126 22.085C291.386 21.905 291.516 21.655 291.516 21.335C291.516 21.295 291.466 21.195 291.366 21.035C291.266 20.875 290.996 20.795 290.556 20.795C290.356 20.795 290.126 20.915 289.866 21.155C289.606 21.375 289.356 21.685 289.116 22.085C288.876 22.465 288.676 22.925 288.516 23.465C288.356 23.985 288.276 24.555 288.276 25.175C288.276 25.695 288.366 26.165 288.546 26.585C288.746 27.005 288.996 27.365 289.296 27.665C289.596 27.945 289.946 28.165 290.346 28.325C290.746 28.485 291.156 28.565 291.576 28.565C291.876 28.565 292.196 28.505 292.536 28.385C292.896 28.245 293.226 28.105 293.526 27.965C293.846 27.805 294.116 27.665 294.336 27.545C294.576 27.405 294.726 27.335 294.786 27.335C294.846 27.335 294.906 27.365 294.966 27.425C295.046 27.485 295.096 27.545 295.116 27.605Z" fill="#FEFFE2"/>
<path d="M25.9393 17.6907C25.9393 18.2701 25.8286 18.817 25.6072 19.3313C25.3859 19.8391 25.0831 20.2851 24.699 20.6692C24.3214 21.0468 23.8787 21.3463 23.3709 21.5676C22.8631 21.789 22.3195 21.8997 21.74 21.8997H20.3338C20.1385 21.8997 19.9562 21.9355 19.7869 22.0071C19.6177 22.0787 19.4679 22.1796 19.3377 22.3098C19.214 22.4335 19.1163 22.58 19.0447 22.7493C18.9731 22.9185 18.9373 23.1008 18.9373 23.2961V24.6926H25.5584V27.4954H16.1346V23.2961C16.1346 22.7167 16.2453 22.1731 16.4666 21.6653C16.688 21.151 16.9874 20.705 17.365 20.3274C17.7492 19.9433 18.1951 19.6438 18.7029 19.429C19.2108 19.2076 19.7544 19.0969 20.3338 19.0969H21.74C21.9354 19.0969 22.1177 19.0611 22.2869 18.9895C22.4562 18.9179 22.6027 18.8202 22.7264 18.6965C22.8566 18.5663 22.9575 18.4166 23.0291 18.2473C23.1007 18.0715 23.1365 17.886 23.1365 17.6907C23.1365 17.4954 23.1007 17.3131 23.0291 17.1438C22.9575 16.9745 22.8566 16.828 22.7264 16.7043C22.6027 16.5741 22.4562 16.4732 22.2869 16.4016C22.1177 16.33 21.9354 16.2942 21.74 16.2942H16.74V13.4915H21.74C22.3195 13.4915 22.8631 13.6021 23.3709 13.8235C23.8787 14.0448 24.3214 14.3476 24.699 14.7317C25.0831 15.1093 25.3859 15.552 25.6072 16.0598C25.8286 16.5676 25.9393 17.1112 25.9393 17.6907Z" fill="#FEFFE2"/>
</svg>
