<svg width="430" height="310" viewBox="0 0 430 310" fill="none" xmlns="http://www.w3.org/2000/svg">
<rect x="1.5" y="1.5" width="427" height="307" rx="18.5" fill="#FEFFE2" fill-opacity="0.2" stroke="#C4C4C4" stroke-width="3"/>
<path d="M154.094 26.7564C154.094 27.0164 154.054 27.3764 153.974 27.8364C153.894 28.2764 153.794 28.7164 153.674 29.1564C153.554 29.5964 153.414 29.9764 153.254 30.2964C153.094 30.6164 152.944 30.7764 152.804 30.7764C152.584 30.7764 152.264 30.5864 151.844 30.2064C151.424 29.8064 150.974 29.3364 150.494 28.7964C150.014 28.2564 149.544 27.6964 149.084 27.1164C148.644 26.5364 148.294 26.0464 148.034 25.6464C147.694 25.1264 147.384 24.5964 147.104 24.0564C146.844 23.5164 146.614 22.9964 146.414 22.4964C146.234 21.9964 146.094 21.5364 145.994 21.1164C145.894 20.6764 145.844 20.3064 145.844 20.0064C145.844 19.7464 145.914 19.5264 146.054 19.3464C146.214 19.1664 146.354 19.0764 146.474 19.0764C146.654 19.0764 146.784 19.1464 146.864 19.2864C146.944 19.4064 147.014 19.5864 147.074 19.8264C147.134 20.0464 147.204 20.3164 147.284 20.6364C147.364 20.9564 147.494 21.3164 147.674 21.7164C147.874 22.1964 148.154 22.7564 148.514 23.3964C148.894 24.0164 149.304 24.6464 149.744 25.2864C150.184 25.9264 150.624 26.5264 151.064 27.0864C151.524 27.6464 151.944 28.0764 152.324 28.3764C152.444 28.0364 152.534 27.5864 152.594 27.0264C152.654 26.4664 152.684 25.9064 152.684 25.3464C152.684 24.8264 152.654 24.2264 152.594 23.5464C152.534 22.8464 152.444 22.1364 152.324 21.4164C152.224 20.6764 152.104 19.9564 151.964 19.2564C151.824 18.5364 151.684 17.8864 151.544 17.3064L150.614 13.8564C150.614 13.6564 150.714 13.4964 150.914 13.3764C151.114 13.2364 151.304 13.1664 151.484 13.1664C151.744 13.1664 151.924 13.2264 152.024 13.3464C152.124 13.4464 152.184 13.6064 152.204 13.8264C152.244 14.0464 152.264 14.3264 152.264 14.6664C152.284 14.9864 152.344 15.3564 152.444 15.7764C152.644 16.7164 152.834 17.7264 153.014 18.8064C153.214 19.8664 153.394 20.9064 153.554 21.9264C153.714 22.9264 153.844 23.8564 153.944 24.7164C154.044 25.5764 154.094 26.2564 154.094 26.7564ZM164.804 27.1764C164.824 27.2164 164.834 27.2764 164.834 27.3564C164.834 27.4764 164.744 27.6564 164.564 27.8964C164.504 27.9764 164.374 28.1064 164.174 28.2864C163.974 28.4664 163.704 28.6464 163.364 28.8264C163.024 29.0064 162.604 29.1664 162.104 29.3064C161.624 29.4464 161.054 29.5164 160.394 29.5164C159.934 29.5164 159.484 29.4164 159.044 29.2164C158.604 28.9964 158.214 28.6864 157.874 28.2864C157.534 27.8664 157.254 27.3564 157.034 26.7564C156.814 26.1364 156.704 25.4164 156.704 24.5964C156.704 23.8164 156.804 23.0864 157.004 22.4064C157.204 21.7264 157.454 21.1264 157.754 20.6064C158.074 20.0864 158.424 19.6764 158.804 19.3764C159.184 19.0764 159.554 18.9264 159.914 18.9264C160.234 18.9264 160.554 18.9964 160.874 19.1364C161.214 19.2564 161.514 19.4164 161.774 19.6164C162.054 19.8164 162.274 20.0464 162.434 20.3064C162.594 20.5464 162.674 20.7964 162.674 21.0564C162.674 21.3564 162.534 21.6664 162.254 21.9864C161.994 22.3064 161.674 22.6064 161.294 22.8864C160.914 23.1464 160.534 23.3664 160.154 23.5464C159.774 23.7064 159.474 23.7864 159.254 23.7864C159.134 23.7864 159.024 23.7364 158.924 23.6364C158.844 23.5164 158.804 23.3764 158.804 23.2164C158.804 22.9364 158.924 22.7164 159.164 22.5564C159.424 22.3964 159.704 22.2564 160.004 22.1364C160.304 21.9964 160.574 21.8364 160.814 21.6564C161.074 21.4764 161.204 21.2264 161.204 20.9064C161.204 20.8664 161.154 20.7664 161.054 20.6064C160.954 20.4464 160.684 20.3664 160.244 20.3664C160.044 20.3664 159.814 20.4864 159.554 20.7264C159.294 20.9464 159.044 21.2564 158.804 21.6564C158.564 22.0364 158.364 22.4964 158.204 23.0364C158.044 23.5564 157.964 24.1264 157.964 24.7464C157.964 25.2664 158.054 25.7364 158.234 26.1564C158.434 26.5764 158.684 26.9364 158.984 27.2364C159.284 27.5164 159.634 27.7364 160.034 27.8964C160.434 28.0564 160.844 28.1364 161.264 28.1364C161.564 28.1364 161.884 28.0764 162.224 27.9564C162.584 27.8164 162.914 27.6764 163.214 27.5364C163.534 27.3764 163.804 27.2364 164.024 27.1164C164.264 26.9764 164.414 26.9064 164.474 26.9064C164.534 26.9064 164.594 26.9364 164.654 26.9964C164.734 27.0564 164.784 27.1164 164.804 27.1764ZM174.003 21.1764C174.003 21.3164 173.943 21.4364 173.823 21.5364C173.703 21.6164 173.563 21.6864 173.403 21.7464C173.243 21.8064 173.083 21.8564 172.923 21.8964C172.763 21.9164 172.633 21.9264 172.533 21.9264C172.233 21.9264 172.033 21.9064 171.933 21.8664C171.833 21.8264 171.753 21.8064 171.693 21.8064C171.193 21.8064 170.793 21.8464 170.493 21.9264C170.193 22.0064 169.953 22.1364 169.773 22.3164C169.613 22.4964 169.503 22.7264 169.443 23.0064C169.403 23.2664 169.383 23.5864 169.383 23.9664C169.383 24.6064 169.403 25.1164 169.443 25.4964C169.503 25.8764 169.553 26.1864 169.593 26.4264C169.653 26.6664 169.703 26.8564 169.743 26.9964C169.803 27.1164 169.833 27.2364 169.833 27.3564C169.833 27.5164 169.743 27.6864 169.563 27.8664C169.403 28.0464 169.253 28.1364 169.113 28.1364C168.873 28.1364 168.653 27.9264 168.453 27.5064C168.273 27.0664 168.113 26.5564 167.973 25.9764C167.853 25.3764 167.753 24.7864 167.673 24.2064C167.593 23.6264 167.553 23.1864 167.553 22.8864C167.553 22.5464 167.583 22.2264 167.643 21.9264C167.703 21.6064 167.783 21.3364 167.883 21.1164C167.983 20.8764 168.093 20.6864 168.213 20.5464C168.333 20.4064 168.453 20.3364 168.573 20.3364C168.673 20.3364 168.753 20.3764 168.813 20.4564C168.873 20.5164 168.923 20.5964 168.963 20.6964C169.003 20.7764 169.043 20.8564 169.083 20.9364C169.143 20.9964 169.213 21.0264 169.293 21.0264C169.473 21.0264 169.763 20.9364 170.163 20.7564C170.563 20.5764 171.053 20.4864 171.633 20.4864C172.173 20.4864 172.573 20.5064 172.833 20.5464C173.113 20.5664 173.383 20.6264 173.643 20.7264C173.703 20.7464 173.773 20.7964 173.853 20.8764C173.953 20.9364 174.003 21.0364 174.003 21.1764ZM185.415 26.6364C185.415 26.7564 185.375 26.8764 185.295 26.9964C185.215 27.1164 185.115 27.2264 184.995 27.3264C184.895 27.4264 184.775 27.5164 184.635 27.5964C184.515 27.6564 184.405 27.6864 184.305 27.6864C183.965 27.6864 183.525 27.6164 182.985 27.4764C182.465 27.3164 182.045 27.0764 181.725 26.7564C181.385 26.4164 181.085 26.0164 180.825 25.5564C180.565 25.0764 180.275 24.3764 179.955 23.4564C179.735 24.3364 179.475 25.2064 179.175 26.0664C178.895 26.9264 178.435 27.7164 177.795 28.4364C177.755 28.4764 177.695 28.4964 177.615 28.4964C177.475 28.4964 177.325 28.4264 177.165 28.2864C177.005 28.1464 176.925 28.0064 176.925 27.8664C176.925 27.7264 176.905 27.4064 176.865 26.9064C176.845 26.3864 176.815 25.8164 176.775 25.1964C176.735 24.5564 176.695 23.9164 176.655 23.2764C176.635 22.6164 176.625 22.0764 176.625 21.6564C176.625 21.4564 176.635 21.1964 176.655 20.8764C176.675 20.5364 176.735 20.2464 176.835 20.0064C176.855 19.9664 176.925 19.8864 177.045 19.7664C177.185 19.6464 177.335 19.5864 177.495 19.5864C177.635 19.5864 177.715 19.6764 177.735 19.8564C177.755 20.0364 177.765 20.2364 177.765 20.4564V25.1964C177.765 25.2964 177.775 25.4364 177.795 25.6164C177.835 25.7964 177.885 25.9264 177.945 26.0064C178.165 25.5264 178.365 24.9664 178.545 24.3264C178.745 23.6664 178.935 23.0464 179.115 22.4664C179.295 21.8664 179.475 21.3664 179.655 20.9664C179.835 20.5464 180.015 20.3364 180.195 20.3364C180.395 20.3364 180.555 20.3764 180.675 20.4564C180.795 20.5364 180.895 20.6964 180.975 20.9364C181.075 21.5164 181.155 22.0364 181.215 22.4964C181.275 22.9364 181.345 23.3364 181.425 23.6964C181.525 24.0564 181.655 24.3964 181.815 24.7164C181.995 25.0164 182.235 25.2964 182.535 25.5564C182.815 25.8164 183.125 26.0064 183.465 26.1264C183.825 26.2464 184.135 26.3064 184.395 26.3064C184.515 26.3064 184.645 26.2864 184.785 26.2464C184.925 26.1864 185.025 26.1564 185.085 26.1564C185.165 26.1564 185.235 26.2264 185.295 26.3664C185.375 26.5064 185.415 26.5964 185.415 26.6364ZM201.212 24.0864C201.212 24.4464 201.042 24.8964 200.702 25.4364C200.382 25.9564 199.942 26.4664 199.382 26.9664C198.822 27.4664 198.172 27.8964 197.432 28.2564C196.692 28.5964 195.922 28.7664 195.122 28.7664C194.762 28.7664 194.382 28.7064 193.982 28.5864C193.582 28.4664 193.192 28.2964 192.812 28.0764C192.432 27.8364 192.092 27.5564 191.792 27.2364C191.492 26.8964 191.272 26.5164 191.132 26.0964C191.012 26.2164 190.862 26.4164 190.682 26.6964C190.522 26.9764 190.342 27.2664 190.142 27.5664C189.942 27.8464 189.722 28.0964 189.482 28.3164C189.242 28.5164 188.992 28.6164 188.732 28.6164C188.472 28.6164 188.252 28.4864 188.072 28.2264C187.912 27.9464 187.782 27.6464 187.682 27.3264C187.582 26.9864 187.512 26.6664 187.472 26.3664C187.432 26.0664 187.412 25.8964 187.412 25.8564C187.412 25.6164 187.482 25.1664 187.622 24.5064C187.762 23.8264 187.972 23.1264 188.252 22.4064C188.532 21.6864 188.882 21.0464 189.302 20.4864C189.742 19.9264 190.252 19.6464 190.832 19.6464C191.052 19.6464 191.192 19.7464 191.252 19.9464C191.332 20.1264 191.372 20.3064 191.372 20.4864V21.3864C191.472 21.4664 191.572 21.5264 191.672 21.5664C191.792 21.5864 191.892 21.6264 191.972 21.6864C192.072 21.7264 192.142 21.7964 192.182 21.8964C192.242 21.9964 192.272 22.1564 192.272 22.3764C192.272 22.5164 192.262 22.6464 192.242 22.7664C192.222 22.8664 192.212 22.9664 192.212 23.0664C192.212 23.5864 192.252 24.0964 192.332 24.5964C192.412 25.0964 192.572 25.5464 192.812 25.9464C193.052 26.3264 193.382 26.6464 193.802 26.9064C194.222 27.1464 194.782 27.2664 195.482 27.2664C196.362 27.2664 197.102 27.0864 197.702 26.7264C198.322 26.3464 198.832 25.9364 199.232 25.4964C199.652 25.0364 199.982 24.6264 200.222 24.2664C200.462 23.8864 200.662 23.6964 200.822 23.6964C201.082 23.6964 201.212 23.8264 201.212 24.0864ZM190.682 22.7664C190.682 22.6864 190.662 22.6164 190.622 22.5564C190.582 22.4764 190.562 22.4064 190.562 22.3464C190.562 22.2664 190.582 22.1964 190.622 22.1364C190.662 22.0764 190.682 21.9964 190.682 21.8964C190.682 21.8364 190.662 21.7964 190.622 21.7764C190.582 21.7364 190.562 21.6964 190.562 21.6564C190.382 21.6964 190.192 21.8664 189.992 22.1664C189.812 22.4664 189.632 22.8164 189.452 23.2164C189.292 23.6164 189.162 24.0264 189.062 24.4464C188.962 24.8464 188.912 25.1764 188.912 25.4364C188.912 25.5764 188.952 25.8064 189.032 26.1264C189.112 26.4464 189.202 26.6564 189.302 26.7564C189.642 26.0564 189.952 25.3764 190.232 24.7164C190.532 24.0564 190.682 23.4064 190.682 22.7664ZM205.571 29.4564C205.571 29.6164 205.511 29.7364 205.391 29.8164C205.271 29.8964 205.131 29.9364 204.971 29.9364C204.791 29.9364 204.601 29.7664 204.401 29.4264C204.221 29.0864 204.041 28.6564 203.861 28.1364C203.681 27.6164 203.511 27.0564 203.351 26.4564C203.191 25.8364 203.051 25.2664 202.931 24.7464C202.811 24.2064 202.711 23.7564 202.631 23.3964C202.571 23.0364 202.541 22.8364 202.541 22.7964C202.541 22.7164 202.501 22.5064 202.421 22.1664C202.361 21.8264 202.271 21.2964 202.151 20.5764C202.051 19.8564 201.931 18.9264 201.791 17.7864C201.671 16.6264 201.541 15.1964 201.401 13.4964C201.401 13.3164 201.431 13.0864 201.491 12.8064C201.551 12.5264 201.691 12.3864 201.911 12.3864C202.191 12.3864 202.401 12.5764 202.541 12.9564C202.701 13.3364 202.821 13.8064 202.901 14.3664C203.001 14.9264 203.071 15.5164 203.111 16.1364C203.151 16.7364 203.201 17.2664 203.261 17.7264C203.341 18.3664 203.411 18.9464 203.471 19.4664C203.551 19.9864 203.621 20.5064 203.681 21.0264C203.761 21.5264 203.851 22.0564 203.951 22.6164C204.071 23.1764 204.211 23.7964 204.371 24.4764L205.571 29.4564ZM229.061 19.7364C229.081 19.7764 229.101 19.8064 229.121 19.8264C229.141 19.8264 229.151 19.8464 229.151 19.8864C229.151 20.0064 228.901 20.2364 228.401 20.5764C227.901 20.8964 227.281 21.2664 226.541 21.6864C225.801 22.0864 225.021 22.4964 224.201 22.9164C223.381 23.3164 222.651 23.6464 222.011 23.9064C222.011 23.9464 221.991 24.0764 221.951 24.2964C221.911 24.5164 221.891 24.6564 221.891 24.7164V25.2864C221.891 25.7464 221.961 26.2064 222.101 26.6664C222.241 27.1064 222.451 27.5064 222.731 27.8664C223.031 28.2264 223.391 28.5164 223.811 28.7364C224.231 28.9564 224.721 29.0664 225.281 29.0664C225.521 29.0664 225.811 29.0264 226.151 28.9464C226.511 28.8464 226.851 28.7164 227.171 28.5564C227.511 28.3764 227.811 28.1664 228.071 27.9264C228.331 27.6864 228.491 27.4164 228.551 27.1164C228.791 27.1364 228.931 27.2064 228.971 27.3264C229.031 27.4464 229.061 27.5264 229.061 27.5664C229.061 28.0864 228.931 28.5364 228.671 28.9164C228.431 29.2764 228.121 29.5764 227.741 29.8164C227.381 30.0364 226.991 30.2064 226.571 30.3264C226.171 30.4264 225.811 30.4764 225.491 30.4764C223.771 30.4764 222.521 29.9964 221.741 29.0364C220.961 28.0764 220.571 26.8164 220.571 25.2564C220.571 25.1764 220.591 24.9964 220.631 24.7164C220.671 24.4364 220.691 24.2464 220.691 24.1464C220.691 24.1264 220.651 24.1064 220.571 24.0864C220.491 24.0464 220.401 24.0064 220.301 23.9664C220.221 23.9264 220.141 23.8664 220.061 23.7864C220.001 23.6864 219.971 23.5564 219.971 23.3964C219.971 23.2364 220.031 23.1064 220.151 23.0064C220.271 22.9064 220.411 22.8164 220.571 22.7364L220.871 22.5564C221.051 21.7964 221.261 21.0664 221.501 20.3664C221.761 19.6464 222.081 18.9264 222.461 18.2064C222.301 18.2064 222.131 18.1864 221.951 18.1464C221.771 18.1064 221.681 17.9664 221.681 17.7264C221.681 17.4464 221.841 17.1364 222.161 16.7964C222.501 16.4564 222.881 16.1364 223.301 15.8364C223.741 15.5364 224.171 15.2864 224.591 15.0864C225.011 14.8664 225.311 14.7564 225.491 14.7564C225.571 14.7564 225.621 14.7764 225.641 14.8164C225.681 14.8364 225.741 14.8464 225.821 14.8464C225.981 14.8464 226.181 14.8164 226.421 14.7564C226.681 14.6964 226.951 14.6264 227.231 14.5464C227.511 14.4664 227.771 14.3964 228.011 14.3364C228.271 14.2764 228.481 14.2464 228.641 14.2464C228.821 14.2464 228.951 14.3064 229.031 14.4264C229.131 14.5464 229.181 14.6764 229.181 14.8164C229.181 14.9764 229.081 15.0964 228.881 15.1764C228.681 15.2364 228.501 15.2864 228.341 15.3264C227.781 15.4264 227.191 15.6064 226.571 15.8664C225.971 16.1064 225.411 16.3764 224.891 16.6764C224.691 16.8964 224.451 17.2164 224.171 17.6364C223.891 18.0364 223.621 18.4964 223.361 19.0164C223.101 19.5364 222.861 20.0764 222.641 20.6364C222.441 21.1964 222.311 21.7264 222.251 22.2264L222.761 21.9864C224.301 21.2464 225.551 20.6664 226.511 20.2464C227.491 19.8264 228.251 19.6164 228.791 19.6164C228.891 19.6164 228.981 19.6564 229.061 19.7364ZM238.485 33.1164C238.485 33.1764 238.475 33.2764 238.455 33.4164C238.435 33.5564 238.395 33.6864 238.335 33.8064C238.295 33.9464 238.225 34.0664 238.125 34.1664C238.025 34.2864 237.895 34.3464 237.735 34.3464C237.275 34.3464 236.975 34.2064 236.835 33.9264C236.695 33.6464 236.625 33.3364 236.625 32.9964C236.625 32.9164 236.605 32.7864 236.565 32.6064C236.525 32.4264 236.485 32.2264 236.445 32.0064C236.405 31.7864 236.365 31.5664 236.325 31.3464C236.285 31.1264 236.265 30.9364 236.265 30.7764C236.265 30.4764 236.245 30.1364 236.205 29.7564C236.185 29.3764 236.145 28.9964 236.085 28.6164C236.045 28.2164 235.995 27.8364 235.935 27.4764C235.895 27.1164 235.855 26.7964 235.815 26.5164L235.725 26.4264C235.505 26.5664 235.305 26.7364 235.125 26.9364C234.965 27.1364 234.795 27.3264 234.615 27.5064C234.455 27.6864 234.275 27.8364 234.075 27.9564C233.895 28.0764 233.675 28.1364 233.415 28.1364C233.055 28.1364 232.735 28.0164 232.455 27.7764C232.175 27.5164 231.945 27.2164 231.765 26.8764C231.585 26.5364 231.445 26.1964 231.345 25.8564C231.265 25.4964 231.225 25.2164 231.225 25.0164C231.225 24.5764 231.315 24.0764 231.495 23.5164C231.695 22.9564 231.965 22.4364 232.305 21.9564C232.645 21.4564 233.045 21.0364 233.505 20.6964C233.985 20.3564 234.515 20.1864 235.095 20.1864C235.315 20.1864 235.515 20.2464 235.695 20.3664C235.875 20.4864 236.035 20.6364 236.175 20.8164C236.335 20.9764 236.465 21.1464 236.565 21.3264C236.685 21.5064 236.785 21.6464 236.865 21.7464C237.085 22.0064 237.255 22.2364 237.375 22.4364C237.495 22.6164 237.555 22.8464 237.555 23.1264C237.555 23.1864 237.525 23.3664 237.465 23.6664C237.405 23.9664 237.375 24.2164 237.375 24.4164C237.375 25.2364 237.395 26.0764 237.435 26.9364C237.495 27.7764 237.565 28.5664 237.645 29.3064C237.725 30.0264 237.805 30.6564 237.885 31.1964C237.965 31.7364 238.025 32.1064 238.065 32.3064C238.105 32.4664 238.185 32.5664 238.305 32.6064C238.425 32.6664 238.485 32.8364 238.485 33.1164ZM235.875 23.0364C235.855 22.8364 235.775 22.5864 235.635 22.2864C235.515 21.9864 235.255 21.8364 234.855 21.8364C234.515 21.8364 234.205 21.9864 233.925 22.2864C233.645 22.5664 233.405 22.9064 233.205 23.3064C233.005 23.6864 232.855 24.0664 232.755 24.4464C232.655 24.8064 232.605 25.0764 232.605 25.2564C232.605 25.2964 232.615 25.3864 232.635 25.5264C232.675 25.6664 232.715 25.8164 232.755 25.9764C232.815 26.1364 232.885 26.2764 232.965 26.3964C233.045 26.5164 233.135 26.5764 233.235 26.5764C233.475 26.5764 233.745 26.4164 234.045 26.0964C234.345 25.7564 234.625 25.3764 234.885 24.9564C235.165 24.5364 235.395 24.1364 235.575 23.7564C235.775 23.3764 235.875 23.1364 235.875 23.0364ZM250.123 25.3464C250.123 25.5264 250.003 25.7164 249.763 25.9164C249.523 26.1164 249.243 26.3064 248.923 26.4864C248.603 26.6464 248.273 26.7864 247.933 26.9064C247.613 27.0264 247.373 27.0864 247.213 27.0864C247.033 27.0864 246.833 27.0364 246.613 26.9364C246.413 26.8364 246.213 26.7164 246.013 26.5764C245.833 26.4364 245.673 26.3064 245.533 26.1864C245.393 26.0664 245.303 25.9864 245.263 25.9464C245.203 26.0064 245.113 26.1264 244.993 26.3064C244.873 26.4864 244.723 26.6864 244.543 26.9064C244.383 27.1064 244.203 27.2864 244.003 27.4464C243.823 27.6064 243.633 27.6864 243.433 27.6864C242.913 27.6864 242.463 27.4064 242.083 26.8464C241.703 26.2864 241.383 25.6464 241.123 24.9264C240.883 24.2064 240.693 23.5164 240.553 22.8564C240.433 22.1764 240.373 21.7164 240.373 21.4764C240.373 21.3364 240.443 21.2264 240.583 21.1464C240.743 21.0464 240.863 20.9964 240.943 20.9964C241.223 20.9964 241.413 21.0964 241.513 21.2964C241.613 21.4764 241.663 21.6764 241.663 21.8964C241.663 22.0764 241.713 22.3964 241.813 22.8564C241.933 23.3164 242.073 23.7864 242.233 24.2664C242.393 24.7464 242.563 25.1764 242.743 25.5564C242.923 25.9164 243.083 26.0964 243.223 26.0964C243.483 26.0964 243.703 25.9364 243.883 25.6164C244.083 25.2764 244.243 24.8964 244.363 24.4764C244.483 24.0364 244.573 23.6264 244.633 23.2464C244.693 22.8464 244.723 22.5864 244.723 22.4664C244.723 22.4464 244.723 22.3864 244.723 22.2864C244.743 22.1664 244.763 22.0464 244.783 21.9264C244.803 21.8064 244.813 21.6964 244.813 21.5964C244.833 21.4964 244.843 21.4264 244.843 21.3864C244.843 21.2464 244.813 21.1564 244.753 21.1164C244.693 21.0564 244.663 20.9464 244.663 20.7864C244.663 20.6664 244.723 20.5564 244.843 20.4564C244.963 20.3364 245.223 20.2764 245.623 20.2764C245.783 20.2764 245.903 20.3264 245.983 20.4264C246.083 20.5064 246.153 20.6064 246.193 20.7264C246.233 20.8464 246.253 20.9664 246.253 21.0864C246.273 21.1864 246.283 21.2564 246.283 21.2964C246.283 21.3164 246.273 21.4564 246.253 21.7164C246.233 21.9764 246.213 22.2664 246.193 22.5864C246.193 22.8864 246.183 23.1764 246.163 23.4564C246.143 23.7364 246.133 23.9064 246.133 23.9664C246.133 24.0264 246.163 24.1464 246.223 24.3264C246.283 24.5064 246.353 24.6964 246.433 24.8964C246.533 25.0764 246.643 25.2464 246.763 25.4064C246.883 25.5464 247.013 25.6164 247.153 25.6164C247.393 25.6164 247.613 25.5864 247.813 25.5264C248.033 25.4464 248.233 25.3664 248.413 25.2864C248.613 25.1864 248.793 25.1064 248.953 25.0464C249.113 24.9664 249.263 24.9264 249.403 24.9264C249.583 24.9264 249.743 24.9664 249.883 25.0464C250.043 25.1264 250.123 25.2264 250.123 25.3464ZM253.097 16.5264C253.097 16.5664 253.027 16.6464 252.887 16.7664C252.747 16.8864 252.577 17.0164 252.377 17.1564C252.197 17.2764 252.007 17.3864 251.807 17.4864C251.607 17.5864 251.447 17.6364 251.327 17.6364C251.247 17.6364 251.137 17.6364 250.997 17.6364C250.877 17.6164 250.747 17.5764 250.607 17.5164C250.487 17.4564 250.377 17.3764 250.277 17.2764C250.177 17.1564 250.127 17.0064 250.127 16.8264C250.127 16.5464 250.227 16.2864 250.427 16.0464C250.627 15.7864 250.887 15.6564 251.207 15.6564C251.267 15.6564 251.397 15.6864 251.597 15.7464C251.817 15.7864 252.037 15.8464 252.257 15.9264C252.477 16.0064 252.667 16.0964 252.827 16.1964C253.007 16.2964 253.097 16.4064 253.097 16.5264ZM254.087 27.7464C254.087 27.8864 253.977 28.0064 253.757 28.1064C253.557 28.2064 253.407 28.2564 253.307 28.2564C253.107 28.2564 252.927 28.1264 252.767 27.8664C252.607 27.6064 252.467 27.3064 252.347 26.9664C252.227 26.6264 252.127 26.3064 252.047 26.0064C251.967 25.6864 251.907 25.4664 251.867 25.3464C251.807 25.1464 251.727 24.9064 251.627 24.6264C251.527 24.3464 251.427 24.0764 251.327 23.8164C251.247 23.5564 251.177 23.3264 251.117 23.1264C251.057 22.9264 251.027 22.8164 251.027 22.7964C251.027 22.5164 251.077 22.2564 251.177 22.0164C251.297 21.7764 251.437 21.6564 251.597 21.6564C251.777 21.6564 251.967 21.7964 252.167 22.0764C252.367 22.3564 252.557 22.7164 252.737 23.1564C252.937 23.5764 253.117 24.0464 253.277 24.5664C253.437 25.0664 253.577 25.5464 253.697 26.0064C253.817 26.4464 253.907 26.8364 253.967 27.1764C254.047 27.4964 254.087 27.6864 254.087 27.7464ZM264.985 26.6364C264.985 26.7564 264.945 26.8764 264.865 26.9964C264.785 27.1164 264.685 27.2264 264.565 27.3264C264.465 27.4264 264.345 27.5164 264.205 27.5964C264.085 27.6564 263.975 27.6864 263.875 27.6864C263.535 27.6864 263.095 27.6164 262.555 27.4764C262.035 27.3164 261.615 27.0764 261.295 26.7564C260.955 26.4164 260.655 26.0164 260.395 25.5564C260.135 25.0764 259.845 24.3764 259.525 23.4564C259.305 24.3364 259.045 25.2064 258.745 26.0664C258.465 26.9264 258.005 27.7164 257.365 28.4364C257.325 28.4764 257.265 28.4964 257.185 28.4964C257.045 28.4964 256.895 28.4264 256.735 28.2864C256.575 28.1464 256.495 28.0064 256.495 27.8664C256.495 27.7264 256.475 27.4064 256.435 26.9064C256.415 26.3864 256.385 25.8164 256.345 25.1964C256.305 24.5564 256.265 23.9164 256.225 23.2764C256.205 22.6164 256.195 22.0764 256.195 21.6564C256.195 21.4564 256.205 21.1964 256.225 20.8764C256.245 20.5364 256.305 20.2464 256.405 20.0064C256.425 19.9664 256.495 19.8864 256.615 19.7664C256.755 19.6464 256.905 19.5864 257.065 19.5864C257.205 19.5864 257.285 19.6764 257.305 19.8564C257.325 20.0364 257.335 20.2364 257.335 20.4564V25.1964C257.335 25.2964 257.345 25.4364 257.365 25.6164C257.405 25.7964 257.455 25.9264 257.515 26.0064C257.735 25.5264 257.935 24.9664 258.115 24.3264C258.315 23.6664 258.505 23.0464 258.685 22.4664C258.865 21.8664 259.045 21.3664 259.225 20.9664C259.405 20.5464 259.585 20.3364 259.765 20.3364C259.965 20.3364 260.125 20.3764 260.245 20.4564C260.365 20.5364 260.465 20.6964 260.545 20.9364C260.645 21.5164 260.725 22.0364 260.785 22.4964C260.845 22.9364 260.915 23.3364 260.995 23.6964C261.095 24.0564 261.225 24.3964 261.385 24.7164C261.565 25.0164 261.805 25.2964 262.105 25.5564C262.385 25.8164 262.695 26.0064 263.035 26.1264C263.395 26.2464 263.705 26.3064 263.965 26.3064C264.085 26.3064 264.215 26.2864 264.355 26.2464C264.495 26.1864 264.595 26.1564 264.655 26.1564C264.735 26.1564 264.805 26.2264 264.865 26.3664C264.945 26.5064 264.985 26.5964 264.985 26.6364ZM271.902 23.8464C271.902 24.2864 271.842 24.7064 271.722 25.1064C271.602 25.5064 271.442 25.8564 271.242 26.1564C271.042 26.4564 270.802 26.6964 270.522 26.8764C270.262 27.0364 269.972 27.1164 269.652 27.1164C269.092 27.1164 268.652 26.9564 268.332 26.6364C268.012 26.3164 267.762 25.9464 267.582 25.5264C267.422 25.1064 267.312 24.6864 267.252 24.2664C267.212 23.8264 267.192 23.4964 267.192 23.2764C267.192 22.9164 267.242 22.5164 267.342 22.0764C267.462 21.6164 267.612 21.1964 267.792 20.8164C267.992 20.4364 268.212 20.1164 268.452 19.8564C268.692 19.5964 268.942 19.4664 269.202 19.4664C269.262 19.4664 269.352 19.4864 269.472 19.5264C269.612 19.5664 269.752 19.6264 269.892 19.7064C270.032 19.7864 270.152 19.8864 270.252 20.0064C270.372 20.1264 270.452 20.2664 270.492 20.4264C270.712 20.4464 270.932 20.5264 271.152 20.6664C271.372 20.8064 271.492 20.9164 271.512 20.9964C271.672 21.5164 271.772 22.0364 271.812 22.5564C271.872 23.0764 271.902 23.5064 271.902 23.8464ZM270.552 23.3064C270.552 23.0064 270.522 22.6964 270.462 22.3764C270.402 22.0364 270.282 21.6964 270.102 21.3564C270.062 21.3764 270.012 21.3864 269.952 21.3864C269.872 21.3864 269.802 21.3764 269.742 21.3564C269.702 21.3364 269.662 21.3264 269.622 21.3264C269.382 21.3264 269.192 21.3964 269.052 21.5364C268.912 21.6564 268.802 21.8264 268.722 22.0464C268.662 22.2464 268.622 22.4664 268.602 22.7064C268.582 22.9464 268.572 23.1764 268.572 23.3964C268.572 23.6164 268.582 23.8664 268.602 24.1464C268.622 24.4064 268.662 24.6564 268.722 24.8964C268.802 25.1364 268.902 25.3464 269.022 25.5264C269.142 25.6864 269.302 25.7664 269.502 25.7664C269.702 25.7664 269.872 25.6664 270.012 25.4664C270.152 25.2464 270.262 24.9964 270.342 24.7164C270.422 24.4364 270.472 24.1664 270.492 23.9064C270.532 23.6264 270.552 23.4264 270.552 23.3064ZM283.7 27.5364C283.7 27.9164 283.58 28.1764 283.34 28.3164C283.12 28.4564 282.88 28.5264 282.62 28.5264C282.16 28.5264 281.64 28.3264 281.06 27.9264C280.48 27.5064 279.87 27.0364 279.23 26.5164C279.21 26.5564 279.15 26.7764 279.05 27.1764C278.97 27.5564 278.85 27.9764 278.69 28.4364C278.55 28.8964 278.37 29.3164 278.15 29.6964C277.93 30.0764 277.68 30.2664 277.4 30.2664C277.2 30.2664 277.04 30.1964 276.92 30.0564C276.8 29.8964 276.74 29.7864 276.74 29.7264C276.74 29.5864 276.81 29.3264 276.95 28.9464C277.09 28.5464 277.24 28.1264 277.4 27.6864C277.56 27.2264 277.71 26.7964 277.85 26.3964C277.99 25.9964 278.06 25.7064 278.06 25.5264C278.06 25.4464 277.9 25.1964 277.58 24.7764C277.26 24.3564 276.91 23.8664 276.53 23.3064C276.15 22.7264 275.8 22.1164 275.48 21.4764C275.16 20.8364 275 20.2464 275 19.7064C275 19.5664 275.06 19.4264 275.18 19.2864C275.3 19.1464 275.41 19.0764 275.51 19.0764C275.63 19.0764 275.79 19.1264 275.99 19.2264C276.21 19.3064 276.34 19.4264 276.38 19.5864C276.58 20.2464 276.84 20.9564 277.16 21.7164C277.48 22.4564 277.96 23.1764 278.6 23.8764C278.66 23.6564 278.73 23.3564 278.81 22.9764C278.89 22.5964 278.98 22.1864 279.08 21.7464C279.18 21.3064 279.28 20.8664 279.38 20.4264C279.5 19.9864 279.61 19.5864 279.71 19.2264C279.83 18.8664 279.94 18.5764 280.04 18.3564C280.14 18.1364 280.24 18.0264 280.34 18.0264C280.44 18.0264 280.59 18.0664 280.79 18.1464C281.01 18.2064 281.12 18.3464 281.12 18.5664C281.12 18.5664 281.09 18.7364 281.03 19.0764C280.97 19.3964 280.89 19.7864 280.79 20.2464C280.69 20.7064 280.58 21.2064 280.46 21.7464C280.34 22.2664 280.22 22.7364 280.1 23.1564C280.08 23.2164 280.04 23.3264 279.98 23.4864C279.94 23.6464 279.89 23.8164 279.83 23.9964C279.79 24.1764 279.75 24.3464 279.71 24.5064C279.67 24.6464 279.65 24.7364 279.65 24.7764C279.65 24.9564 279.79 25.1764 280.07 25.4364C280.37 25.6764 280.7 25.9164 281.06 26.1564C281.42 26.3764 281.76 26.5664 282.08 26.7264C282.42 26.8864 282.63 26.9664 282.71 26.9664C282.77 26.9664 282.85 26.9564 282.95 26.9364C283.05 26.9164 283.13 26.9064 283.19 26.9064C283.35 26.9064 283.47 26.9964 283.55 27.1764C283.65 27.3564 283.7 27.4764 283.7 27.5364Z" fill="#FEFFE2"/>
<path d="M22.7654 27.0668H19.9627V15.8656H18.5662V13.0629H22.7654V27.0668Z" fill="#FEFFE2"/>
</svg>
