<svg width="420" height="303" viewBox="0 0 420 303" fill="none" xmlns="http://www.w3.org/2000/svg">
<rect x="1.5" y="4.5" width="417" height="297" rx="18.5" fill="#FEFFE2" fill-opacity="0.2" stroke="#C4C4C4" stroke-width="3"/>
<path d="M154.897 25.65C154.897 26.55 154.737 27.26 154.417 27.78C154.097 28.28 153.627 28.75 153.007 29.19C152.847 29.29 152.627 29.41 152.347 29.55C152.067 29.69 151.757 29.82 151.417 29.94C151.077 30.06 150.717 30.16 150.337 30.24C149.957 30.32 149.607 30.36 149.287 30.36C148.387 30.36 147.707 30.26 147.247 30.06C146.787 29.88 146.557 29.66 146.557 29.4C146.557 29.12 146.637 28.89 146.797 28.71C146.957 28.53 147.097 28.43 147.217 28.41L147.547 28.65C147.647 28.75 147.787 28.86 147.967 28.98C148.147 29.08 148.437 29.13 148.837 29.13C149.217 29.13 149.677 29.07 150.217 28.95C150.757 28.81 151.267 28.61 151.747 28.35C152.247 28.07 152.667 27.73 153.007 27.33C153.367 26.93 153.547 26.47 153.547 25.95C153.547 25.49 153.197 25.07 152.497 24.69C151.817 24.29 150.737 24.02 149.257 23.88C148.497 23.82 147.747 23.73 147.007 23.61C146.267 23.47 145.597 23.29 144.997 23.07C144.417 22.83 143.947 22.54 143.587 22.2C143.227 21.84 143.047 21.4 143.047 20.88C143.047 20.38 143.187 19.9 143.467 19.44C143.747 18.98 144.087 18.56 144.487 18.18C144.907 17.78 145.337 17.43 145.777 17.13C146.217 16.83 146.587 16.58 146.887 16.38C147.127 16.24 147.457 16.06 147.877 15.84C148.317 15.6 148.777 15.38 149.257 15.18C149.757 14.96 150.247 14.78 150.727 14.64C151.227 14.48 151.647 14.4 151.987 14.4C152.387 14.4 152.657 14.51 152.797 14.73C152.937 14.95 153.007 15.26 153.007 15.66C153.007 16 152.967 16.36 152.887 16.74C152.807 17.12 152.717 17.49 152.617 17.85C152.517 18.21 152.417 18.53 152.317 18.81C152.237 19.07 152.177 19.24 152.137 19.32C152.057 19.5 151.967 19.62 151.867 19.68C151.767 19.74 151.697 19.77 151.657 19.77C151.577 19.77 151.537 19.72 151.537 19.62C151.537 19.56 151.547 19.45 151.567 19.29C151.607 19.11 151.647 18.9 151.687 18.66C151.747 18.42 151.787 18.16 151.807 17.88C151.847 17.6 151.867 17.32 151.867 17.04C151.867 16.6 151.847 16.28 151.807 16.08C151.767 15.88 151.607 15.78 151.327 15.78C151.047 15.78 150.667 15.86 150.187 16.02C149.707 16.16 149.217 16.34 148.717 16.56C148.177 16.8 147.647 17.11 147.127 17.49C146.627 17.87 146.177 18.26 145.777 18.66C145.377 19.06 145.047 19.45 144.787 19.83C144.547 20.19 144.427 20.48 144.427 20.7C144.427 20.94 144.587 21.17 144.907 21.39C145.247 21.59 145.667 21.77 146.167 21.93C146.687 22.09 147.257 22.23 147.877 22.35C148.497 22.47 149.107 22.56 149.707 22.62C150.207 22.68 150.757 22.76 151.357 22.86C151.957 22.96 152.517 23.12 153.037 23.34C153.557 23.56 153.997 23.86 154.357 24.24C154.717 24.6 154.897 25.07 154.897 25.65ZM166.179 21.33C166.179 21.85 166.029 22.35 165.729 22.83C165.449 23.31 165.099 23.76 164.679 24.18C164.259 24.58 163.799 24.96 163.299 25.32C162.799 25.66 162.339 25.96 161.919 26.22C161.519 26.5 161.189 26.73 160.929 26.91C160.669 27.09 160.539 27.23 160.539 27.33C160.539 27.59 160.569 27.96 160.629 28.44C160.689 28.9 160.759 29.41 160.839 29.97C160.939 30.51 161.029 31.07 161.109 31.65C161.209 32.23 161.279 32.76 161.319 33.24C161.319 33.26 161.329 33.35 161.349 33.51C161.389 33.67 161.429 33.85 161.469 34.05C161.529 34.25 161.569 34.43 161.589 34.59C161.629 34.77 161.649 34.88 161.649 34.92C161.649 35.06 161.639 35.21 161.619 35.37C161.619 35.55 161.589 35.71 161.529 35.85C161.489 36.01 161.419 36.14 161.319 36.24C161.219 36.34 161.089 36.39 160.929 36.39C160.709 36.39 160.549 36.29 160.449 36.09C160.349 35.91 160.299 35.73 160.299 35.55C160.299 35.51 160.299 35.47 160.299 35.43C160.319 35.39 160.329 35.34 160.329 35.28C160.329 35.06 160.249 34.47 160.089 33.51C159.929 32.55 159.749 31.4 159.549 30.06C159.349 28.74 159.169 27.32 159.009 25.8C158.849 24.26 158.769 22.81 158.769 21.45C158.769 21.35 158.779 21.24 158.799 21.12C158.819 20.98 158.829 20.86 158.829 20.76C158.629 20.78 158.329 20.87 157.929 21.03C157.549 21.19 157.169 21.39 156.789 21.63C156.409 21.85 156.069 22.09 155.769 22.35C155.489 22.59 155.349 22.81 155.349 23.01H155.139C155.079 23.01 155.009 22.97 154.929 22.89C154.829 22.81 154.749 22.72 154.689 22.62C154.609 22.52 154.539 22.42 154.479 22.32C154.419 22.22 154.389 22.15 154.389 22.11C154.389 21.69 154.639 21.3 155.139 20.94C155.639 20.56 156.259 20.23 156.999 19.95C157.759 19.65 158.589 19.42 159.489 19.26C160.389 19.08 161.239 18.99 162.039 18.99C162.819 18.99 163.469 19.08 163.989 19.26C164.529 19.44 164.959 19.66 165.279 19.92C165.599 20.16 165.829 20.41 165.969 20.67C166.109 20.93 166.179 21.15 166.179 21.33ZM164.709 21.24C164.709 21.04 164.459 20.84 163.959 20.64C163.459 20.42 162.869 20.31 162.189 20.31C161.589 20.31 161.149 20.33 160.869 20.37C160.589 20.41 160.399 20.45 160.299 20.49C160.259 20.81 160.229 21.19 160.209 21.63C160.189 22.07 160.179 22.52 160.179 22.98C160.179 23.46 160.189 23.93 160.209 24.39C160.249 24.83 160.289 25.2 160.329 25.5C160.609 25.32 160.989 25.08 161.469 24.78C161.969 24.46 162.459 24.11 162.939 23.73C163.419 23.33 163.829 22.92 164.169 22.5C164.529 22.06 164.709 21.64 164.709 21.24ZM174.937 20.85C174.937 20.99 174.877 21.11 174.757 21.21C174.637 21.29 174.497 21.36 174.337 21.42C174.177 21.48 174.017 21.53 173.857 21.57C173.697 21.59 173.567 21.6 173.467 21.6C173.167 21.6 172.967 21.58 172.867 21.54C172.767 21.5 172.687 21.48 172.627 21.48C172.127 21.48 171.727 21.52 171.427 21.6C171.127 21.68 170.887 21.81 170.707 21.99C170.547 22.17 170.437 22.4 170.377 22.68C170.337 22.94 170.317 23.26 170.317 23.64C170.317 24.28 170.337 24.79 170.377 25.17C170.437 25.55 170.487 25.86 170.527 26.1C170.587 26.34 170.637 26.53 170.677 26.67C170.737 26.79 170.767 26.91 170.767 27.03C170.767 27.19 170.677 27.36 170.497 27.54C170.337 27.72 170.187 27.81 170.047 27.81C169.807 27.81 169.587 27.6 169.387 27.18C169.207 26.74 169.047 26.23 168.907 25.65C168.787 25.05 168.687 24.46 168.607 23.88C168.527 23.3 168.487 22.86 168.487 22.56C168.487 22.22 168.517 21.9 168.577 21.6C168.637 21.28 168.717 21.01 168.817 20.79C168.917 20.55 169.027 20.36 169.147 20.22C169.267 20.08 169.387 20.01 169.507 20.01C169.607 20.01 169.687 20.05 169.747 20.13C169.807 20.19 169.857 20.27 169.897 20.37C169.937 20.45 169.977 20.53 170.017 20.61C170.077 20.67 170.147 20.7 170.227 20.7C170.407 20.7 170.697 20.61 171.097 20.43C171.497 20.25 171.987 20.16 172.567 20.16C173.107 20.16 173.507 20.18 173.767 20.22C174.047 20.24 174.317 20.3 174.577 20.4C174.637 20.42 174.707 20.47 174.787 20.55C174.887 20.61 174.937 20.71 174.937 20.85ZM179.119 16.2C179.119 16.24 179.049 16.32 178.909 16.44C178.769 16.56 178.599 16.69 178.399 16.83C178.219 16.95 178.029 17.06 177.829 17.16C177.629 17.26 177.469 17.31 177.349 17.31C177.269 17.31 177.159 17.31 177.019 17.31C176.899 17.29 176.769 17.25 176.629 17.19C176.509 17.13 176.399 17.05 176.299 16.95C176.199 16.83 176.149 16.68 176.149 16.5C176.149 16.22 176.249 15.96 176.449 15.72C176.649 15.46 176.909 15.33 177.229 15.33C177.289 15.33 177.419 15.36 177.619 15.42C177.839 15.46 178.059 15.52 178.279 15.6C178.499 15.68 178.689 15.77 178.849 15.87C179.029 15.97 179.119 16.08 179.119 16.2ZM180.109 27.42C180.109 27.56 179.999 27.68 179.779 27.78C179.579 27.88 179.429 27.93 179.329 27.93C179.129 27.93 178.949 27.8 178.789 27.54C178.629 27.28 178.489 26.98 178.369 26.64C178.249 26.3 178.149 25.98 178.069 25.68C177.989 25.36 177.929 25.14 177.889 25.02C177.829 24.82 177.749 24.58 177.649 24.3C177.549 24.02 177.449 23.75 177.349 23.49C177.269 23.23 177.199 23 177.139 22.8C177.079 22.6 177.049 22.49 177.049 22.47C177.049 22.19 177.099 21.93 177.199 21.69C177.319 21.45 177.459 21.33 177.619 21.33C177.799 21.33 177.989 21.47 178.189 21.75C178.389 22.03 178.579 22.39 178.759 22.83C178.959 23.25 179.139 23.72 179.299 24.24C179.459 24.74 179.599 25.22 179.719 25.68C179.839 26.12 179.929 26.51 179.989 26.85C180.069 27.17 180.109 27.36 180.109 27.42ZM191.008 26.31C191.008 26.43 190.968 26.55 190.888 26.67C190.808 26.79 190.708 26.9 190.588 27C190.488 27.1 190.368 27.19 190.228 27.27C190.108 27.33 189.998 27.36 189.898 27.36C189.558 27.36 189.118 27.29 188.578 27.15C188.058 26.99 187.638 26.75 187.318 26.43C186.978 26.09 186.678 25.69 186.418 25.23C186.158 24.75 185.868 24.05 185.548 23.13C185.328 24.01 185.068 24.88 184.768 25.74C184.488 26.6 184.028 27.39 183.388 28.11C183.348 28.15 183.288 28.17 183.208 28.17C183.068 28.17 182.918 28.1 182.758 27.96C182.598 27.82 182.518 27.68 182.518 27.54C182.518 27.4 182.498 27.08 182.458 26.58C182.438 26.06 182.408 25.49 182.368 24.87C182.328 24.23 182.288 23.59 182.248 22.95C182.228 22.29 182.218 21.75 182.218 21.33C182.218 21.13 182.228 20.87 182.248 20.55C182.268 20.21 182.328 19.92 182.428 19.68C182.448 19.64 182.518 19.56 182.638 19.44C182.778 19.32 182.928 19.26 183.088 19.26C183.228 19.26 183.308 19.35 183.328 19.53C183.348 19.71 183.358 19.91 183.358 20.13V24.87C183.358 24.97 183.368 25.11 183.388 25.29C183.428 25.47 183.478 25.6 183.538 25.68C183.758 25.2 183.958 24.64 184.138 24C184.338 23.34 184.528 22.72 184.708 22.14C184.888 21.54 185.068 21.04 185.248 20.64C185.428 20.22 185.608 20.01 185.788 20.01C185.988 20.01 186.148 20.05 186.268 20.13C186.388 20.21 186.488 20.37 186.568 20.61C186.668 21.19 186.748 21.71 186.808 22.17C186.868 22.61 186.938 23.01 187.018 23.37C187.118 23.73 187.248 24.07 187.408 24.39C187.588 24.69 187.828 24.97 188.128 25.23C188.408 25.49 188.718 25.68 189.058 25.8C189.418 25.92 189.728 25.98 189.988 25.98C190.108 25.98 190.238 25.96 190.378 25.92C190.518 25.86 190.618 25.83 190.678 25.83C190.758 25.83 190.828 25.9 190.888 26.04C190.968 26.18 191.008 26.27 191.008 26.31ZM199.994 27.36C199.994 27.58 199.914 27.73 199.754 27.81C199.594 27.89 199.514 28 199.514 28.14C199.494 28.12 199.534 28.23 199.634 28.47C199.734 28.71 199.824 28.96 199.904 29.22C200.044 29.76 200.164 30.23 200.264 30.63C200.384 31.03 200.474 31.4 200.534 31.74C200.614 32.08 200.674 32.42 200.714 32.76C200.754 33.1 200.774 33.48 200.774 33.9C200.774 34.32 200.704 34.75 200.564 35.19C200.424 35.63 200.224 36.02 199.964 36.36C199.704 36.7 199.384 36.98 199.004 37.2C198.624 37.42 198.194 37.53 197.714 37.53C196.974 37.53 196.384 37.38 195.944 37.08C195.524 36.78 195.204 36.44 194.984 36.06C194.764 35.68 194.624 35.3 194.564 34.92C194.504 34.56 194.474 34.32 194.474 34.2C194.474 33.46 194.664 32.72 195.044 31.98C195.424 31.24 195.844 30.57 196.304 29.97C196.764 29.37 197.184 28.87 197.564 28.47C197.944 28.07 198.134 27.84 198.134 27.78L197.804 26.79C197.604 27.03 197.424 27.3 197.264 27.6C197.124 27.88 196.964 28.15 196.784 28.41C196.624 28.65 196.424 28.86 196.184 29.04C195.964 29.2 195.684 29.28 195.344 29.28C194.984 29.28 194.624 29.17 194.264 28.95C193.904 28.73 193.584 28.4 193.304 27.96C193.024 27.52 192.794 26.99 192.614 26.37C192.454 25.75 192.374 25.03 192.374 24.21C192.374 23.75 192.444 23.18 192.584 22.5C192.724 21.8 192.944 21.13 193.244 20.49C193.544 19.85 193.914 19.31 194.354 18.87C194.814 18.41 195.344 18.18 195.944 18.18C196.284 18.18 196.594 18.24 196.874 18.36C197.174 18.48 197.324 18.63 197.324 18.81C197.324 18.97 197.294 19.1 197.234 19.2C197.174 19.3 197.094 19.4 196.994 19.5C196.934 19.46 196.864 19.42 196.784 19.38C196.724 19.34 196.634 19.32 196.514 19.32C196.074 19.32 195.674 19.52 195.314 19.92C194.974 20.3 194.684 20.78 194.444 21.36C194.204 21.92 194.014 22.51 193.874 23.13C193.754 23.75 193.694 24.29 193.694 24.75C193.694 25.77 193.864 26.55 194.204 27.09C194.544 27.61 194.904 27.87 195.284 27.87C195.464 27.87 195.654 27.74 195.854 27.48C196.074 27.2 196.274 26.9 196.454 26.58C196.654 26.24 196.824 25.92 196.964 25.62C197.104 25.32 197.184 25.14 197.204 25.08C197.244 24.88 197.264 24.65 197.264 24.39C197.264 24.17 197.254 23.93 197.234 23.67C197.234 23.39 197.234 23.11 197.234 22.83C197.234 22.31 197.274 21.88 197.354 21.54C197.434 21.18 197.634 21 197.954 21C198.274 21 198.504 21.1 198.644 21.3C198.784 21.48 198.854 21.7 198.854 21.96C198.854 22.14 198.844 22.36 198.824 22.62C198.824 22.86 198.824 23.1 198.824 23.34C198.824 23.56 198.814 23.76 198.794 23.94C198.794 24.1 198.794 24.2 198.794 24.24C198.794 24.36 198.804 24.54 198.824 24.78C198.864 25 198.894 25.23 198.914 25.47C198.954 25.69 198.984 25.9 199.004 26.1C199.044 26.28 199.074 26.4 199.094 26.46C199.114 26.52 199.144 26.61 199.184 26.73C199.224 26.85 199.264 26.94 199.304 27C199.324 26.96 199.364 26.92 199.424 26.88C199.484 26.82 199.534 26.77 199.574 26.73C199.674 26.79 199.764 26.91 199.844 27.09C199.944 27.25 199.994 27.34 199.994 27.36ZM198.974 31.17C198.894 30.85 198.804 30.53 198.704 30.21C198.604 29.89 198.504 29.56 198.404 29.22C198.064 29.64 197.734 30.04 197.414 30.42C197.114 30.82 196.834 31.21 196.574 31.59C196.334 31.97 196.134 32.36 195.974 32.76C195.834 33.18 195.764 33.62 195.764 34.08C195.764 34.7 195.934 35.21 196.274 35.61C196.634 36.01 197.024 36.21 197.444 36.21C197.904 36.21 198.334 36.04 198.734 35.7C199.154 35.36 199.364 34.87 199.364 34.23C199.364 33.81 199.354 33.46 199.334 33.18C199.314 32.9 199.284 32.65 199.244 32.43C199.224 32.23 199.184 32.03 199.124 31.83C199.084 31.65 199.034 31.43 198.974 31.17ZM223.638 19.41C223.658 19.45 223.678 19.48 223.698 19.5C223.718 19.5 223.728 19.52 223.728 19.56C223.728 19.68 223.478 19.91 222.978 20.25C222.478 20.57 221.858 20.94 221.118 21.36C220.378 21.76 219.598 22.17 218.778 22.59C217.958 22.99 217.228 23.32 216.588 23.58C216.588 23.62 216.568 23.75 216.528 23.97C216.488 24.19 216.468 24.33 216.468 24.39V24.96C216.468 25.42 216.538 25.88 216.678 26.34C216.818 26.78 217.028 27.18 217.308 27.54C217.608 27.9 217.968 28.19 218.388 28.41C218.808 28.63 219.298 28.74 219.858 28.74C220.098 28.74 220.388 28.7 220.728 28.62C221.088 28.52 221.428 28.39 221.748 28.23C222.088 28.05 222.388 27.84 222.648 27.6C222.908 27.36 223.068 27.09 223.128 26.79C223.368 26.81 223.508 26.88 223.548 27C223.608 27.12 223.638 27.2 223.638 27.24C223.638 27.76 223.508 28.21 223.248 28.59C223.008 28.95 222.698 29.25 222.318 29.49C221.958 29.71 221.568 29.88 221.148 30C220.748 30.1 220.388 30.15 220.068 30.15C218.348 30.15 217.098 29.67 216.318 28.71C215.538 27.75 215.148 26.49 215.148 24.93C215.148 24.85 215.168 24.67 215.208 24.39C215.248 24.11 215.268 23.92 215.268 23.82C215.268 23.8 215.228 23.78 215.148 23.76C215.068 23.72 214.978 23.68 214.878 23.64C214.798 23.6 214.718 23.54 214.638 23.46C214.578 23.36 214.548 23.23 214.548 23.07C214.548 22.91 214.608 22.78 214.728 22.68C214.848 22.58 214.988 22.49 215.148 22.41L215.448 22.23C215.628 21.47 215.838 20.74 216.078 20.04C216.338 19.32 216.658 18.6 217.038 17.88C216.878 17.88 216.708 17.86 216.528 17.82C216.348 17.78 216.258 17.64 216.258 17.4C216.258 17.12 216.418 16.81 216.738 16.47C217.078 16.13 217.458 15.81 217.878 15.51C218.318 15.21 218.748 14.96 219.168 14.76C219.588 14.54 219.888 14.43 220.068 14.43C220.148 14.43 220.198 14.45 220.218 14.49C220.258 14.51 220.318 14.52 220.398 14.52C220.558 14.52 220.758 14.49 220.998 14.43C221.258 14.37 221.528 14.3 221.808 14.22C222.088 14.14 222.348 14.07 222.588 14.01C222.848 13.95 223.058 13.92 223.218 13.92C223.398 13.92 223.528 13.98 223.608 14.1C223.708 14.22 223.758 14.35 223.758 14.49C223.758 14.65 223.658 14.77 223.458 14.85C223.258 14.91 223.078 14.96 222.918 15C222.358 15.1 221.768 15.28 221.148 15.54C220.548 15.78 219.988 16.05 219.468 16.35C219.268 16.57 219.028 16.89 218.748 17.31C218.468 17.71 218.198 18.17 217.938 18.69C217.678 19.21 217.438 19.75 217.218 20.31C217.018 20.87 216.888 21.4 216.828 21.9L217.338 21.66C218.878 20.92 220.128 20.34 221.088 19.92C222.068 19.5 222.828 19.29 223.368 19.29C223.468 19.29 223.558 19.33 223.638 19.41ZM233.062 32.79C233.062 32.85 233.052 32.95 233.032 33.09C233.012 33.23 232.972 33.36 232.912 33.48C232.872 33.62 232.802 33.74 232.702 33.84C232.602 33.96 232.472 34.02 232.312 34.02C231.852 34.02 231.552 33.88 231.412 33.6C231.272 33.32 231.202 33.01 231.202 32.67C231.202 32.59 231.182 32.46 231.142 32.28C231.102 32.1 231.062 31.9 231.022 31.68C230.982 31.46 230.942 31.24 230.902 31.02C230.862 30.8 230.842 30.61 230.842 30.45C230.842 30.15 230.822 29.81 230.782 29.43C230.762 29.05 230.722 28.67 230.662 28.29C230.622 27.89 230.572 27.51 230.512 27.15C230.472 26.79 230.432 26.47 230.392 26.19L230.302 26.1C230.082 26.24 229.882 26.41 229.702 26.61C229.542 26.81 229.372 27 229.192 27.18C229.032 27.36 228.852 27.51 228.652 27.63C228.472 27.75 228.252 27.81 227.992 27.81C227.632 27.81 227.312 27.69 227.032 27.45C226.752 27.19 226.522 26.89 226.342 26.55C226.162 26.21 226.022 25.87 225.922 25.53C225.842 25.17 225.802 24.89 225.802 24.69C225.802 24.25 225.892 23.75 226.072 23.19C226.272 22.63 226.542 22.11 226.882 21.63C227.222 21.13 227.622 20.71 228.082 20.37C228.562 20.03 229.092 19.86 229.672 19.86C229.892 19.86 230.092 19.92 230.272 20.04C230.452 20.16 230.612 20.31 230.752 20.49C230.912 20.65 231.042 20.82 231.142 21C231.262 21.18 231.362 21.32 231.442 21.42C231.662 21.68 231.832 21.91 231.952 22.11C232.072 22.29 232.132 22.52 232.132 22.8C232.132 22.86 232.102 23.04 232.042 23.34C231.982 23.64 231.952 23.89 231.952 24.09C231.952 24.91 231.972 25.75 232.012 26.61C232.072 27.45 232.142 28.24 232.222 28.98C232.302 29.7 232.382 30.33 232.462 30.87C232.542 31.41 232.602 31.78 232.642 31.98C232.682 32.14 232.762 32.24 232.882 32.28C233.002 32.34 233.062 32.51 233.062 32.79ZM230.452 22.71C230.432 22.51 230.352 22.26 230.212 21.96C230.092 21.66 229.832 21.51 229.432 21.51C229.092 21.51 228.782 21.66 228.502 21.96C228.222 22.24 227.982 22.58 227.782 22.98C227.582 23.36 227.432 23.74 227.332 24.12C227.232 24.48 227.182 24.75 227.182 24.93C227.182 24.97 227.192 25.06 227.212 25.2C227.252 25.34 227.292 25.49 227.332 25.65C227.392 25.81 227.462 25.95 227.542 26.07C227.622 26.19 227.712 26.25 227.812 26.25C228.052 26.25 228.322 26.09 228.622 25.77C228.922 25.43 229.202 25.05 229.462 24.63C229.742 24.21 229.972 23.81 230.152 23.43C230.352 23.05 230.452 22.81 230.452 22.71ZM244.7 25.02C244.7 25.2 244.58 25.39 244.34 25.59C244.1 25.79 243.82 25.98 243.5 26.16C243.18 26.32 242.85 26.46 242.51 26.58C242.19 26.7 241.95 26.76 241.79 26.76C241.61 26.76 241.41 26.71 241.19 26.61C240.99 26.51 240.79 26.39 240.59 26.25C240.41 26.11 240.25 25.98 240.11 25.86C239.97 25.74 239.88 25.66 239.84 25.62C239.78 25.68 239.69 25.8 239.57 25.98C239.45 26.16 239.3 26.36 239.12 26.58C238.96 26.78 238.78 26.96 238.58 27.12C238.4 27.28 238.21 27.36 238.01 27.36C237.49 27.36 237.04 27.08 236.66 26.52C236.28 25.96 235.96 25.32 235.7 24.6C235.46 23.88 235.27 23.19 235.13 22.53C235.01 21.85 234.95 21.39 234.95 21.15C234.95 21.01 235.02 20.9 235.16 20.82C235.32 20.72 235.44 20.67 235.52 20.67C235.8 20.67 235.99 20.77 236.09 20.97C236.19 21.15 236.24 21.35 236.24 21.57C236.24 21.75 236.29 22.07 236.39 22.53C236.51 22.99 236.65 23.46 236.81 23.94C236.97 24.42 237.14 24.85 237.32 25.23C237.5 25.59 237.66 25.77 237.8 25.77C238.06 25.77 238.28 25.61 238.46 25.29C238.66 24.95 238.82 24.57 238.94 24.15C239.06 23.71 239.15 23.3 239.21 22.92C239.27 22.52 239.3 22.26 239.3 22.14C239.3 22.12 239.3 22.06 239.3 21.96C239.32 21.84 239.34 21.72 239.36 21.6C239.38 21.48 239.39 21.37 239.39 21.27C239.41 21.17 239.42 21.1 239.42 21.06C239.42 20.92 239.39 20.83 239.33 20.79C239.27 20.73 239.24 20.62 239.24 20.46C239.24 20.34 239.3 20.23 239.42 20.13C239.54 20.01 239.8 19.95 240.2 19.95C240.36 19.95 240.48 20 240.56 20.1C240.66 20.18 240.73 20.28 240.77 20.4C240.81 20.52 240.83 20.64 240.83 20.76C240.85 20.86 240.86 20.93 240.86 20.97C240.86 20.99 240.85 21.13 240.83 21.39C240.81 21.65 240.79 21.94 240.77 22.26C240.77 22.56 240.76 22.85 240.74 23.13C240.72 23.41 240.71 23.58 240.71 23.64C240.71 23.7 240.74 23.82 240.8 24C240.86 24.18 240.93 24.37 241.01 24.57C241.11 24.75 241.22 24.92 241.34 25.08C241.46 25.22 241.59 25.29 241.73 25.29C241.97 25.29 242.19 25.26 242.39 25.2C242.61 25.12 242.81 25.04 242.99 24.96C243.19 24.86 243.37 24.78 243.53 24.72C243.69 24.64 243.84 24.6 243.98 24.6C244.16 24.6 244.32 24.64 244.46 24.72C244.62 24.8 244.7 24.9 244.7 25.02ZM247.674 16.2C247.674 16.24 247.604 16.32 247.464 16.44C247.324 16.56 247.154 16.69 246.954 16.83C246.774 16.95 246.584 17.06 246.384 17.16C246.184 17.26 246.024 17.31 245.904 17.31C245.824 17.31 245.714 17.31 245.574 17.31C245.454 17.29 245.324 17.25 245.184 17.19C245.064 17.13 244.954 17.05 244.854 16.95C244.754 16.83 244.704 16.68 244.704 16.5C244.704 16.22 244.804 15.96 245.004 15.72C245.204 15.46 245.464 15.33 245.784 15.33C245.844 15.33 245.974 15.36 246.174 15.42C246.394 15.46 246.614 15.52 246.834 15.6C247.054 15.68 247.244 15.77 247.404 15.87C247.584 15.97 247.674 16.08 247.674 16.2ZM248.664 27.42C248.664 27.56 248.554 27.68 248.334 27.78C248.134 27.88 247.984 27.93 247.884 27.93C247.684 27.93 247.504 27.8 247.344 27.54C247.184 27.28 247.044 26.98 246.924 26.64C246.804 26.3 246.704 25.98 246.624 25.68C246.544 25.36 246.484 25.14 246.444 25.02C246.384 24.82 246.304 24.58 246.204 24.3C246.104 24.02 246.004 23.75 245.904 23.49C245.824 23.23 245.754 23 245.694 22.8C245.634 22.6 245.604 22.49 245.604 22.47C245.604 22.19 245.654 21.93 245.754 21.69C245.874 21.45 246.014 21.33 246.174 21.33C246.354 21.33 246.544 21.47 246.744 21.75C246.944 22.03 247.134 22.39 247.314 22.83C247.514 23.25 247.694 23.72 247.854 24.24C248.014 24.74 248.154 25.22 248.274 25.68C248.394 26.12 248.484 26.51 248.544 26.85C248.624 27.17 248.664 27.36 248.664 27.42ZM259.562 26.31C259.562 26.43 259.522 26.55 259.442 26.67C259.362 26.79 259.262 26.9 259.142 27C259.042 27.1 258.922 27.19 258.782 27.27C258.662 27.33 258.552 27.36 258.452 27.36C258.112 27.36 257.672 27.29 257.132 27.15C256.612 26.99 256.192 26.75 255.872 26.43C255.532 26.09 255.232 25.69 254.972 25.23C254.712 24.75 254.422 24.05 254.102 23.13C253.882 24.01 253.622 24.88 253.322 25.74C253.042 26.6 252.582 27.39 251.942 28.11C251.902 28.15 251.842 28.17 251.762 28.17C251.622 28.17 251.472 28.1 251.312 27.96C251.152 27.82 251.072 27.68 251.072 27.54C251.072 27.4 251.052 27.08 251.012 26.58C250.992 26.06 250.962 25.49 250.922 24.87C250.882 24.23 250.842 23.59 250.802 22.95C250.782 22.29 250.772 21.75 250.772 21.33C250.772 21.13 250.782 20.87 250.802 20.55C250.822 20.21 250.882 19.92 250.982 19.68C251.002 19.64 251.072 19.56 251.192 19.44C251.332 19.32 251.482 19.26 251.642 19.26C251.782 19.26 251.862 19.35 251.882 19.53C251.902 19.71 251.912 19.91 251.912 20.13V24.87C251.912 24.97 251.922 25.11 251.942 25.29C251.982 25.47 252.032 25.6 252.092 25.68C252.312 25.2 252.512 24.64 252.692 24C252.892 23.34 253.082 22.72 253.262 22.14C253.442 21.54 253.622 21.04 253.802 20.64C253.982 20.22 254.162 20.01 254.342 20.01C254.542 20.01 254.702 20.05 254.822 20.13C254.942 20.21 255.042 20.37 255.122 20.61C255.222 21.19 255.302 21.71 255.362 22.17C255.422 22.61 255.492 23.01 255.572 23.37C255.672 23.73 255.802 24.07 255.962 24.39C256.142 24.69 256.382 24.97 256.682 25.23C256.962 25.49 257.272 25.68 257.612 25.8C257.972 25.92 258.282 25.98 258.542 25.98C258.662 25.98 258.792 25.96 258.932 25.92C259.072 25.86 259.172 25.83 259.232 25.83C259.312 25.83 259.382 25.9 259.442 26.04C259.522 26.18 259.562 26.27 259.562 26.31ZM266.479 23.52C266.479 23.96 266.419 24.38 266.299 24.78C266.179 25.18 266.019 25.53 265.819 25.83C265.619 26.13 265.379 26.37 265.099 26.55C264.839 26.71 264.549 26.79 264.229 26.79C263.669 26.79 263.229 26.63 262.909 26.31C262.589 25.99 262.339 25.62 262.159 25.2C261.999 24.78 261.889 24.36 261.829 23.94C261.789 23.5 261.769 23.17 261.769 22.95C261.769 22.59 261.819 22.19 261.919 21.75C262.039 21.29 262.189 20.87 262.369 20.49C262.569 20.11 262.789 19.79 263.029 19.53C263.269 19.27 263.519 19.14 263.779 19.14C263.839 19.14 263.929 19.16 264.049 19.2C264.189 19.24 264.329 19.3 264.469 19.38C264.609 19.46 264.729 19.56 264.829 19.68C264.949 19.8 265.029 19.94 265.069 20.1C265.289 20.12 265.509 20.2 265.729 20.34C265.949 20.48 266.069 20.59 266.089 20.67C266.249 21.19 266.349 21.71 266.389 22.23C266.449 22.75 266.479 23.18 266.479 23.52ZM265.129 22.98C265.129 22.68 265.099 22.37 265.039 22.05C264.979 21.71 264.859 21.37 264.679 21.03C264.639 21.05 264.589 21.06 264.529 21.06C264.449 21.06 264.379 21.05 264.319 21.03C264.279 21.01 264.239 21 264.199 21C263.959 21 263.769 21.07 263.629 21.21C263.489 21.33 263.379 21.5 263.299 21.72C263.239 21.92 263.199 22.14 263.179 22.38C263.159 22.62 263.149 22.85 263.149 23.07C263.149 23.29 263.159 23.54 263.179 23.82C263.199 24.08 263.239 24.33 263.299 24.57C263.379 24.81 263.479 25.02 263.599 25.2C263.719 25.36 263.879 25.44 264.079 25.44C264.279 25.44 264.449 25.34 264.589 25.14C264.729 24.92 264.839 24.67 264.919 24.39C264.999 24.11 265.049 23.84 265.069 23.58C265.109 23.3 265.129 23.1 265.129 22.98ZM278.277 27.21C278.277 27.59 278.157 27.85 277.917 27.99C277.697 28.13 277.457 28.2 277.197 28.2C276.737 28.2 276.217 28 275.637 27.6C275.057 27.18 274.447 26.71 273.807 26.19C273.787 26.23 273.727 26.45 273.627 26.85C273.547 27.23 273.427 27.65 273.267 28.11C273.127 28.57 272.947 28.99 272.727 29.37C272.507 29.75 272.257 29.94 271.977 29.94C271.777 29.94 271.617 29.87 271.497 29.73C271.377 29.57 271.317 29.46 271.317 29.4C271.317 29.26 271.387 29 271.527 28.62C271.667 28.22 271.817 27.8 271.977 27.36C272.137 26.9 272.287 26.47 272.427 26.07C272.567 25.67 272.637 25.38 272.637 25.2C272.637 25.12 272.477 24.87 272.157 24.45C271.837 24.03 271.487 23.54 271.107 22.98C270.727 22.4 270.377 21.79 270.057 21.15C269.737 20.51 269.577 19.92 269.577 19.38C269.577 19.24 269.637 19.1 269.757 18.96C269.877 18.82 269.987 18.75 270.087 18.75C270.207 18.75 270.367 18.8 270.567 18.9C270.787 18.98 270.917 19.1 270.957 19.26C271.157 19.92 271.417 20.63 271.737 21.39C272.057 22.13 272.537 22.85 273.177 23.55C273.237 23.33 273.307 23.03 273.387 22.65C273.467 22.27 273.557 21.86 273.657 21.42C273.757 20.98 273.857 20.54 273.957 20.1C274.077 19.66 274.187 19.26 274.287 18.9C274.407 18.54 274.517 18.25 274.617 18.03C274.717 17.81 274.817 17.7 274.917 17.7C275.017 17.7 275.167 17.74 275.367 17.82C275.587 17.88 275.697 18.02 275.697 18.24C275.697 18.24 275.667 18.41 275.607 18.75C275.547 19.07 275.467 19.46 275.367 19.92C275.267 20.38 275.157 20.88 275.037 21.42C274.917 21.94 274.797 22.41 274.677 22.83C274.657 22.89 274.617 23 274.557 23.16C274.517 23.32 274.467 23.49 274.407 23.67C274.367 23.85 274.327 24.02 274.287 24.18C274.247 24.32 274.227 24.41 274.227 24.45C274.227 24.63 274.367 24.85 274.647 25.11C274.947 25.35 275.277 25.59 275.637 25.83C275.997 26.05 276.337 26.24 276.657 26.4C276.997 26.56 277.207 26.64 277.287 26.64C277.347 26.64 277.427 26.63 277.527 26.61C277.627 26.59 277.707 26.58 277.767 26.58C277.927 26.58 278.047 26.67 278.127 26.85C278.227 27.03 278.277 27.15 278.277 27.21Z" fill="#FEFFE2"/>
<path d="M22.2773 30H19.4746V18.7988H18.0781V15.9961H22.2773V30Z" fill="#FEFFE2"/>
</svg>
