<svg width="389" height="127" viewBox="0 0 389 127" fill="none" xmlns="http://www.w3.org/2000/svg">
<g filter="url(#filter0_d)">
<path d="M20.1602 11.3906C20.1602 12.5495 19.9388 13.6432 19.4961 14.6719C19.0534 15.6875 18.4479 16.5794 17.6797 17.3477C16.9245 18.1029 16.0391 18.7018 15.0234 19.1445C14.0078 19.5872 12.9206 19.8086 11.7617 19.8086H8.94922C8.55859 19.8086 8.19401 19.8802 7.85547 20.0234C7.51693 20.1667 7.21745 20.3685 6.95703 20.6289C6.70964 20.8763 6.51432 21.1693 6.37109 21.5078C6.22786 21.8464 6.15625 22.2109 6.15625 22.6016V25.3945H19.3984V31H0.550781V22.6016C0.550781 21.4427 0.772135 20.3555 1.21484 19.3398C1.65755 18.3112 2.25651 17.4193 3.01172 16.6641C3.77995 15.8958 4.67188 15.2969 5.6875 14.8672C6.70312 14.4245 7.79036 14.2031 8.94922 14.2031H11.7617C12.1523 14.2031 12.5169 14.1315 12.8555 13.9883C13.194 13.8451 13.487 13.6497 13.7344 13.4023C13.9948 13.1419 14.1966 12.8424 14.3398 12.5039C14.4831 12.1523 14.5547 11.7812 14.5547 11.3906C14.5547 11 14.4831 10.6354 14.3398 10.2969C14.1966 9.95833 13.9948 9.66536 13.7344 9.41797C13.487 9.15755 13.194 8.95573 12.8555 8.8125C12.5169 8.66927 12.1523 8.59766 11.7617 8.59766H1.76172V2.99219H11.7617C12.9206 2.99219 14.0078 3.21354 15.0234 3.65625C16.0391 4.09896 16.9245 4.70443 17.6797 5.47266C18.4479 6.22786 19.0534 7.11328 19.4961 8.12891C19.9388 9.14453 20.1602 10.2318 20.1602 11.3906ZM40.3945 16.9961C40.3945 13.8841 39.8737 11.5729 38.832 10.0625C37.8034 8.55208 36.3646 7.79688 34.5156 7.79688C32.6797 7.79688 31.2539 8.54557 30.2383 10.043C29.2227 11.5404 28.7148 13.8581 28.7148 16.9961C28.7148 20.1081 29.2227 22.4193 30.2383 23.9297C31.2539 25.4401 32.6797 26.1953 34.5156 26.1953C35.4401 26.1953 36.2669 26.013 36.9961 25.6484C37.7253 25.2708 38.3372 24.7044 38.832 23.9492C39.3398 23.194 39.724 22.2435 39.9844 21.0977C40.2578 19.9388 40.3945 18.5716 40.3945 16.9961ZM45.7266 16.9961C45.7266 19.6523 45.4336 21.8984 44.8477 23.7344C44.2617 25.5703 43.4609 27.0547 42.4453 28.1875C41.4297 29.3203 40.2383 30.1406 38.8711 30.6484C37.5169 31.1432 36.0651 31.3906 34.5156 31.3906C32.9661 31.3906 31.5078 31.1367 30.1406 30.6289C28.7865 30.1081 27.6016 29.2812 26.5859 28.1484C25.5833 27.0026 24.7891 25.5182 24.2031 23.6953C23.6172 21.8594 23.3242 19.6263 23.3242 16.9961C23.3242 14.3398 23.6172 12.1003 24.2031 10.2773C24.7891 8.44141 25.5833 6.95703 26.5859 5.82422C27.6016 4.69141 28.7865 3.87109 30.1406 3.36328C31.5078 2.85547 32.9661 2.60156 34.5156 2.60156C36.0651 2.60156 37.5169 2.86198 38.8711 3.38281C40.2383 3.89062 41.4297 4.71745 42.4453 5.86328C43.4609 7.00911 44.2617 8.49349 44.8477 10.3164C45.4336 12.1393 45.7266 14.3659 45.7266 16.9961ZM57.3086 31H51.7031V8.59766H48.9102V2.99219H57.3086V31ZM83.2461 13.2852C83.2461 15.082 83.0638 16.8398 82.6992 18.5586C82.3477 20.2643 81.8333 21.8789 81.1562 23.4023C80.4792 24.9258 79.6523 26.332 78.6758 27.6211C77.6992 28.9102 76.5924 30.0365 75.3555 31H67.7969C68.5911 30.4922 69.3594 29.9258 70.1016 29.3008C70.8438 28.6758 71.5469 28.0052 72.2109 27.2891C72.888 26.5729 73.513 25.8177 74.0859 25.0234C74.6589 24.2292 75.1667 23.4089 75.6094 22.5625C75.0365 22.9401 74.4245 23.2656 73.7734 23.5391C73.1224 23.7995 72.4518 23.9297 71.7617 23.9297C70.1732 23.9297 68.7474 23.6693 67.4844 23.1484C66.2214 22.6146 65.1406 21.8789 64.2422 20.9414C63.3568 19.9909 62.6732 18.8646 62.1914 17.5625C61.7227 16.2604 61.4883 14.8346 61.4883 13.2852C61.4883 11.7747 61.7552 10.349 62.2891 9.00781C62.8359 7.65365 63.5846 6.47526 64.5352 5.47266C65.4857 4.45703 66.612 3.65625 67.9141 3.07031C69.2161 2.48438 70.6289 2.19141 72.1523 2.19141C73.6888 2.19141 75.1276 2.48438 76.4688 3.07031C77.8229 3.65625 79.0013 4.45703 80.0039 5.47266C81.0065 6.47526 81.7943 7.65365 82.3672 9.00781C82.9531 10.349 83.2461 11.7747 83.2461 13.2852ZM77.25 13.2852C77.25 12.569 77.1263 11.8789 76.8789 11.2148C76.6315 10.5508 76.2799 9.96484 75.8242 9.45703C75.3815 8.94922 74.8477 8.54557 74.2227 8.24609C73.5977 7.94661 72.9076 7.79688 72.1523 7.79688C71.3841 7.79688 70.6875 7.94661 70.0625 8.24609C69.4505 8.53255 68.9232 8.92318 68.4805 9.41797C68.0378 9.91276 67.6992 10.4922 67.4648 11.1562C67.2305 11.8203 67.1133 12.5299 67.1133 13.2852C67.1133 14.0273 67.2305 14.7305 67.4648 15.3945C67.6992 16.0456 68.0378 16.6185 68.4805 17.1133C68.9232 17.6081 69.4505 17.9987 70.0625 18.2852C70.6875 18.5716 71.3841 18.7148 72.1523 18.7148C72.9206 18.7148 73.6172 18.5716 74.2422 18.2852C74.8802 17.9987 75.4206 17.6081 75.8633 17.1133C76.306 16.6185 76.6445 16.0456 76.8789 15.3945C77.1263 14.7305 77.25 14.0273 77.25 13.2852ZM119.984 2.99219L110.785 31H105.18L96.0195 2.99219H102.387L107.973 21.6836L113.578 2.99219H119.984ZM128.637 25.8828C128.845 25.9479 129.053 25.9935 129.262 26.0195C129.47 26.0326 129.678 26.0391 129.887 26.0391C130.408 26.0391 130.909 25.9674 131.391 25.8242C131.872 25.681 132.322 25.4792 132.738 25.2188C133.168 24.9453 133.546 24.6198 133.871 24.2422C134.21 23.8516 134.483 23.4219 134.691 22.9531L138.598 26.8789C138.103 27.582 137.53 28.2135 136.879 28.7734C136.241 29.3333 135.544 29.8086 134.789 30.1992C134.047 30.5898 133.259 30.8828 132.426 31.0781C131.605 31.2865 130.759 31.3906 129.887 31.3906C128.415 31.3906 127.029 31.1172 125.727 30.5703C124.438 30.0234 123.305 29.2617 122.328 28.2852C121.365 27.3086 120.603 26.1497 120.043 24.8086C119.483 23.4544 119.203 21.9701 119.203 20.3555C119.203 18.7018 119.483 17.1914 120.043 15.8242C120.603 14.457 121.365 13.2917 122.328 12.3281C123.305 11.3646 124.438 10.6159 125.727 10.082C127.029 9.54818 128.415 9.28125 129.887 9.28125C130.759 9.28125 131.612 9.38542 132.445 9.59375C133.279 9.80208 134.066 10.1016 134.809 10.4922C135.564 10.8828 136.267 11.3646 136.918 11.9375C137.569 12.4974 138.142 13.1289 138.637 13.832L128.637 25.8828ZM131.371 14.8867C131.124 14.7956 130.876 14.737 130.629 14.7109C130.395 14.6849 130.147 14.6719 129.887 14.6719C129.158 14.6719 128.467 14.8086 127.816 15.082C127.178 15.3424 126.618 15.7201 126.137 16.2148C125.668 16.7096 125.297 17.3086 125.023 18.0117C124.75 18.7018 124.613 19.4831 124.613 20.3555C124.613 20.5508 124.62 20.7721 124.633 21.0195C124.659 21.2669 124.691 21.5208 124.73 21.7812C124.783 22.0286 124.841 22.2695 124.906 22.5039C124.971 22.7383 125.056 22.9466 125.16 23.1289L131.371 14.8867ZM146.664 31H141.332V10.082H142.621L144.379 12.5625C145.238 11.7812 146.215 11.1823 147.309 10.7656C148.402 10.3359 149.535 10.1211 150.707 10.1211H155.414V15.4336H150.707C150.147 15.4336 149.62 15.5378 149.125 15.7461C148.63 15.9544 148.201 16.2409 147.836 16.6055C147.471 16.9701 147.185 17.3997 146.977 17.8945C146.768 18.3893 146.664 18.9167 146.664 19.4766V31ZM163.227 31H157.895V10.082H159.184L160.941 12.1133C161.801 11.332 162.771 10.7331 163.852 10.3164C164.945 9.88672 166.085 9.67188 167.27 9.67188C168.546 9.67188 169.75 9.91927 170.883 10.4141C172.016 10.8958 173.005 11.5664 173.852 12.4258C174.698 13.2721 175.362 14.2682 175.844 15.4141C176.339 16.5469 176.586 17.7578 176.586 19.0469V31H171.254V19.0469C171.254 18.5 171.15 17.9857 170.941 17.5039C170.733 17.0091 170.447 16.5794 170.082 16.2148C169.717 15.8503 169.294 15.5638 168.812 15.3555C168.331 15.1471 167.816 15.043 167.27 15.043C166.71 15.043 166.182 15.1471 165.688 15.3555C165.193 15.5638 164.763 15.8503 164.398 16.2148C164.034 16.5794 163.747 17.0091 163.539 17.5039C163.331 17.9857 163.227 18.5 163.227 19.0469V31ZM200.648 31H199.359L197.289 28.1289C196.781 28.5846 196.241 29.0143 195.668 29.418C195.108 29.8086 194.516 30.1536 193.891 30.4531C193.266 30.7396 192.621 30.9674 191.957 31.1367C191.306 31.306 190.642 31.3906 189.965 31.3906C188.493 31.3906 187.107 31.1432 185.805 30.6484C184.516 30.1536 183.383 29.4375 182.406 28.5C181.443 27.5495 180.681 26.3906 180.121 25.0234C179.561 23.6562 179.281 22.1003 179.281 20.3555C179.281 18.7279 179.561 17.237 180.121 15.8828C180.681 14.5156 181.443 13.3438 182.406 12.3672C183.383 11.3906 184.516 10.6354 185.805 10.1016C187.107 9.55469 188.493 9.28125 189.965 9.28125C190.642 9.28125 191.312 9.36589 191.977 9.53516C192.641 9.70443 193.285 9.9388 193.91 10.2383C194.535 10.5378 195.128 10.8893 195.688 11.293C196.26 11.6966 196.794 12.1328 197.289 12.6016L199.359 10.1211H200.648V31ZM195.277 20.3555C195.277 19.6263 195.134 18.9232 194.848 18.2461C194.574 17.556 194.197 16.9505 193.715 16.4297C193.233 15.8958 192.667 15.4727 192.016 15.1602C191.378 14.8346 190.694 14.6719 189.965 14.6719C189.236 14.6719 188.546 14.7956 187.895 15.043C187.257 15.2904 186.697 15.6549 186.215 16.1367C185.746 16.6185 185.375 17.2174 185.102 17.9336C184.828 18.6367 184.691 19.444 184.691 20.3555C184.691 21.2669 184.828 22.0807 185.102 22.7969C185.375 23.5 185.746 24.0924 186.215 24.5742C186.697 25.056 187.257 25.4206 187.895 25.668C188.546 25.9154 189.236 26.0391 189.965 26.0391C190.694 26.0391 191.378 25.8828 192.016 25.5703C192.667 25.2448 193.233 24.8216 193.715 24.3008C194.197 23.7669 194.574 23.1615 194.848 22.4844C195.134 21.7943 195.277 21.0846 195.277 20.3555ZM210.102 31H204.73V1.76172H210.102V31ZM245.16 31H225.961V2.99219H245.16V8.59766H231.566V14.2031H240.766V19.8086H231.566V25.3945H245.16V31ZM268.188 38.9688H262.816V29.5938C262.413 29.8281 261.996 30.056 261.566 30.2773C261.15 30.4987 260.714 30.7005 260.258 30.8828C259.815 31.0521 259.359 31.1888 258.891 31.293C258.435 31.3971 257.973 31.4492 257.504 31.4492C256.033 31.4492 254.646 31.1823 253.344 30.6484C252.055 30.1016 250.922 29.3398 249.945 28.3633C248.982 27.3867 248.22 26.2214 247.66 24.8672C247.1 23.5 246.82 21.9961 246.82 20.3555C246.82 18.7018 247.1 17.1979 247.66 15.8438C248.22 14.4766 248.982 13.3112 249.945 12.3477C250.922 11.3841 252.055 10.6419 253.344 10.1211C254.646 9.58724 256.033 9.32031 257.504 9.32031C258.181 9.32031 258.845 9.40495 259.496 9.57422C260.16 9.74349 260.805 9.97786 261.43 10.2773C262.055 10.5638 262.647 10.9089 263.207 11.3125C263.78 11.7161 264.32 12.1458 264.828 12.6016L266.898 10.1211H268.188V38.9688ZM262.816 20.3555C262.816 19.6263 262.673 18.9232 262.387 18.2461C262.113 17.556 261.736 16.9505 261.254 16.4297C260.772 15.8958 260.206 15.4727 259.555 15.1602C258.917 14.8346 258.233 14.6719 257.504 14.6719C256.775 14.6719 256.085 14.8086 255.434 15.082C254.796 15.3424 254.236 15.7201 253.754 16.2148C253.285 16.7096 252.914 17.3086 252.641 18.0117C252.367 18.7018 252.23 19.4831 252.23 20.3555C252.23 21.2539 252.367 22.0612 252.641 22.7773C252.914 23.4805 253.285 24.0729 253.754 24.5547C254.236 25.0365 254.796 25.4076 255.434 25.668C256.085 25.9154 256.775 26.0391 257.504 26.0391C258.233 26.0391 258.917 25.8828 259.555 25.5703C260.206 25.2448 260.772 24.8216 261.254 24.3008C261.736 23.7669 262.113 23.1615 262.387 22.4844C262.673 21.7943 262.816 21.0846 262.816 20.3555ZM287.641 28.5586C287.211 28.9492 286.749 29.3203 286.254 29.6719C285.772 30.0104 285.264 30.3099 284.73 30.5703C284.197 30.8177 283.643 31.013 283.07 31.1562C282.51 31.3125 281.938 31.3906 281.352 31.3906C280.062 31.3906 278.852 31.1628 277.719 30.707C276.586 30.2513 275.59 29.6068 274.73 28.7734C273.884 27.9271 273.214 26.9049 272.719 25.707C272.237 24.4961 271.996 23.1419 271.996 21.6445V10.082H277.309V21.6445C277.309 22.3477 277.413 22.9792 277.621 23.5391C277.842 24.0859 278.135 24.5482 278.5 24.9258C278.865 25.3034 279.288 25.5898 279.77 25.7852C280.264 25.9805 280.792 26.0781 281.352 26.0781C281.898 26.0781 282.413 25.9544 282.895 25.707C283.389 25.4466 283.819 25.1081 284.184 24.6914C284.548 24.2747 284.835 23.806 285.043 23.2852C285.251 22.7513 285.355 22.2044 285.355 21.6445V10.082H290.688V31H289.398L287.641 28.5586ZM301.059 4.39844C301.059 4.89323 300.961 5.35547 300.766 5.78516C300.583 6.21484 300.329 6.59245 300.004 6.91797C299.678 7.23047 299.294 7.48438 298.852 7.67969C298.422 7.86198 297.96 7.95312 297.465 7.95312C296.97 7.95312 296.501 7.86198 296.059 7.67969C295.629 7.48438 295.251 7.23047 294.926 6.91797C294.613 6.59245 294.359 6.21484 294.164 5.78516C293.982 5.35547 293.891 4.89323 293.891 4.39844C293.891 3.91667 293.982 3.46094 294.164 3.03125C294.359 2.58854 294.613 2.21094 294.926 1.89844C295.251 1.57292 295.629 1.31901 296.059 1.13672C296.501 0.941406 296.97 0.84375 297.465 0.84375C297.96 0.84375 298.422 0.941406 298.852 1.13672C299.294 1.31901 299.678 1.57292 300.004 1.89844C300.329 2.21094 300.583 2.58854 300.766 3.03125C300.961 3.46094 301.059 3.91667 301.059 4.39844ZM300.141 31H294.77V10.082H300.141V31ZM309.555 31H304.223V10.082H305.512L307.27 12.1133C308.129 11.332 309.099 10.7331 310.18 10.3164C311.273 9.88672 312.413 9.67188 313.598 9.67188C314.874 9.67188 316.078 9.91927 317.211 10.4141C318.344 10.8958 319.333 11.5664 320.18 12.4258C321.026 13.2721 321.69 14.2682 322.172 15.4141C322.667 16.5469 322.914 17.7578 322.914 19.0469V31H317.582V19.0469C317.582 18.5 317.478 17.9857 317.27 17.5039C317.061 17.0091 316.775 16.5794 316.41 16.2148C316.046 15.8503 315.622 15.5638 315.141 15.3555C314.659 15.1471 314.145 15.043 313.598 15.043C313.038 15.043 312.51 15.1471 312.016 15.3555C311.521 15.5638 311.091 15.8503 310.727 16.2148C310.362 16.5794 310.076 17.0091 309.867 17.5039C309.659 17.9857 309.555 18.5 309.555 19.0469V31ZM346.938 20.3555C346.938 21.918 346.658 23.3763 346.098 24.7305C345.538 26.0716 344.776 27.237 343.812 28.2266C342.849 29.2031 341.716 29.9779 340.414 30.5508C339.125 31.1107 337.738 31.3906 336.254 31.3906C334.783 31.3906 333.396 31.1107 332.094 30.5508C330.805 29.9779 329.672 29.2031 328.695 28.2266C327.732 27.237 326.97 26.0716 326.41 24.7305C325.85 23.3763 325.57 21.918 325.57 20.3555C325.57 18.7669 325.85 17.2956 326.41 15.9414C326.97 14.5872 327.732 13.4219 328.695 12.4453C329.672 11.4557 330.805 10.681 332.094 10.1211C333.396 9.5612 334.783 9.28125 336.254 9.28125C337.738 9.28125 339.125 9.54818 340.414 10.082C341.716 10.6029 342.849 11.3516 343.812 12.3281C344.776 13.2917 345.538 14.457 346.098 15.8242C346.658 17.1784 346.938 18.6888 346.938 20.3555ZM341.566 20.3555C341.566 19.4961 341.423 18.7214 341.137 18.0312C340.863 17.3281 340.486 16.7292 340.004 16.2344C339.522 15.7266 338.956 15.3424 338.305 15.082C337.667 14.8086 336.983 14.6719 336.254 14.6719C335.525 14.6719 334.835 14.8086 334.184 15.082C333.546 15.3424 332.986 15.7266 332.504 16.2344C332.035 16.7292 331.664 17.3281 331.391 18.0312C331.117 18.7214 330.98 19.4961 330.98 20.3555C330.98 21.1628 331.117 21.9115 331.391 22.6016C331.664 23.2917 332.035 23.8906 332.504 24.3984C332.986 24.9062 333.546 25.3099 334.184 25.6094C334.835 25.8958 335.525 26.0391 336.254 26.0391C336.983 26.0391 337.667 25.9023 338.305 25.6289C338.956 25.3555 339.522 24.9714 340.004 24.4766C340.486 23.9818 340.863 23.3828 341.137 22.6797C341.423 21.9766 341.566 21.2018 341.566 20.3555ZM368.285 31H361.762L357.602 24.5938L353.402 31H346.879L354.516 20.2773L346.879 9.96484H353.402L357.602 15.9609L361.762 9.96484H368.285L360.629 20.2773L368.285 31Z" fill="#FEFFE2"/>
<path d="M66.1725 58.08C66.1725 58.4533 66.0125 58.7733 65.6925 59.04C65.4258 59.2533 65.1592 59.36 64.8925 59.36C64.4125 59.36 63.6392 59.4133 62.5725 59.52C61.5592 59.6267 60.4392 59.76 59.2125 59.92C58.0392 60.0267 56.8658 60.16 55.6925 60.32C54.5725 60.4267 53.6658 60.5333 52.9725 60.64C52.7592 60.64 52.3058 60.6667 51.6125 60.72C50.9725 60.7733 50.2258 60.8533 49.3725 60.96C48.5725 61.0133 47.7458 61.0933 46.8925 61.2C46.0925 61.3067 45.4525 61.3867 44.9725 61.44C44.3858 61.5467 43.5325 61.7333 42.4125 62C41.2925 62.2667 40.2792 62.5333 39.3725 62.8C39.0525 62.9067 38.7592 62.9867 38.4925 63.04C38.2258 63.0933 38.0125 63.1467 37.8525 63.2C37.6392 63.2533 37.4525 63.3067 37.2925 63.36L41.6125 78.64C41.7725 79.12 42.0392 79.8933 42.4125 80.96C42.7858 82.0267 43.2125 83.2 43.6925 84.48C44.2258 85.76 44.7592 87.0933 45.2925 88.48C45.8792 89.8667 46.3858 91.1467 46.8125 92.32C47.0792 93.0133 47.3725 93.8667 47.6925 94.88C48.0125 95.8933 48.3058 96.9333 48.5725 98C48.8392 99.0133 49.0525 99.9467 49.2125 100.8C49.4258 101.653 49.5325 102.24 49.5325 102.56C49.5325 103.307 49.3192 104.08 48.8925 104.88C48.4658 105.733 47.9058 106.16 47.2125 106.16C46.5725 106.16 46.2525 105.707 46.2525 104.8V104.24C46.2525 104.08 46.2525 103.893 46.2525 103.68C46.3058 103.467 46.3325 103.227 46.3325 102.96C46.3325 102.533 46.1725 101.813 45.8525 100.8C45.5325 99.7333 45.1325 98.56 44.6525 97.28C44.1725 95.9467 43.6392 94.56 43.0525 93.12C42.5192 91.6267 41.9858 90.24 41.4525 88.96C40.9725 87.6267 40.5458 86.5067 40.1725 85.6C39.7992 84.64 39.5592 84 39.4525 83.68C39.2925 83.2533 39.0792 82.64 38.8125 81.84C38.5992 81.04 38.3325 80.1333 38.0125 79.12C37.6925 78.1067 37.3458 77.04 36.9725 75.92C36.6525 74.7467 36.3325 73.6 36.0125 72.48C35.2125 69.8667 34.3325 67.0133 33.3725 63.92C33.1058 63.9733 32.2258 64.1067 30.7325 64.32C29.2925 64.48 27.6658 64.6667 25.8525 64.88C24.0392 65.0933 22.3058 65.3067 20.6525 65.52C18.9992 65.68 17.8792 65.76 17.2925 65.76C15.9592 65.76 15.1058 65.5467 14.7325 65.12C14.3592 64.6933 14.1458 64.16 14.0925 63.52C14.0925 63.0933 14.1992 62.6667 14.4125 62.24C14.6258 61.76 14.9192 61.52 15.2925 61.52C15.7192 61.52 16.0658 61.6 16.3325 61.76C16.5458 61.8667 16.8392 61.92 17.2125 61.92C17.3192 61.92 17.8525 61.8667 18.8125 61.76C19.8258 61.6533 20.9992 61.52 22.3325 61.36C23.7192 61.2 25.1325 61.04 26.5725 60.88C28.0658 60.72 29.3725 60.5867 30.4925 60.48C30.7592 60.48 31.0258 60.48 31.2925 60.48C31.6125 60.4267 31.9058 60.3733 32.1725 60.32C32.4392 60.2667 32.7058 60.24 32.9725 60.24C32.9725 60.08 33.0525 59.7333 33.2125 59.2C33.4258 58.6133 33.6392 58.32 33.8525 58.32C34.3858 58.32 34.8125 58.5333 35.1325 58.96C35.5058 59.3333 35.8258 59.6 36.0925 59.76C36.4658 59.7067 37.0258 59.6 37.7725 59.44C38.5725 59.2267 39.3992 59.04 40.2525 58.88C41.1592 58.72 42.0125 58.5867 42.8125 58.48C43.6658 58.32 44.3858 58.2133 44.9725 58.16L54.3325 57.6C55.1325 57.5467 56.0392 57.4933 57.0525 57.44C58.1192 57.3333 59.1592 57.2267 60.1725 57.12C61.1858 57.0133 62.0658 56.9333 62.8125 56.88C63.5592 56.7733 64.0658 56.72 64.3325 56.72C64.8125 56.7733 65.2392 56.9333 65.6125 57.2C65.9858 57.4667 66.1725 57.76 66.1725 58.08ZM81.7531 87.2C82.0198 87.4667 82.1531 87.6267 82.1531 87.68C82.1531 87.7867 81.9931 88.1067 81.6731 88.64C81.4065 89.1733 81.0331 89.7333 80.5531 90.32C80.0731 90.9067 79.5398 91.44 78.9531 91.92C78.4198 92.3467 77.8865 92.56 77.3531 92.56C76.2331 92.56 75.3265 92.3467 74.6331 91.92C73.9398 91.44 73.3531 90.8533 72.8731 90.16C72.4465 89.4667 72.0998 88.72 71.8331 87.92C71.6198 87.0667 71.4331 86.2667 71.2731 85.52C71.1665 85.1467 71.0598 84.96 70.9531 84.96C70.7931 84.96 70.4731 85.5467 69.9931 86.72C69.5131 87.84 68.9798 89.0933 68.3931 90.48C67.8598 91.8133 67.3265 93.0667 66.7931 94.24C66.3131 95.36 65.9931 95.92 65.8331 95.92C64.8731 95.92 64.0465 95.52 63.3531 94.72C62.7131 93.8667 62.1798 92.9067 61.7531 91.84C61.3798 90.72 61.0865 89.6 60.8731 88.48C60.6598 87.3067 60.5265 86.4 60.4731 85.76C60.3131 84.32 59.9665 81.92 59.4331 78.56C58.8998 75.2 58.4465 71.12 58.0731 66.32C57.9665 65.3067 57.8331 64.4 57.6731 63.6C57.5665 62.7467 57.4331 61.8133 57.2731 60.8C57.1131 59.7867 56.9798 58.64 56.8731 57.36C56.7665 56.08 56.7131 54.5067 56.7131 52.64C56.7131 52.5333 56.7398 52.1867 56.7931 51.6C56.8465 51.0133 56.9265 50.3733 57.0331 49.68C57.1398 48.9867 57.2998 48.3733 57.5131 47.84C57.7798 47.3067 58.0731 47.04 58.3931 47.04C58.7665 47.04 59.1131 47.28 59.4331 47.76C59.7531 48.1867 60.0198 48.6933 60.2331 49.28C60.4998 49.8667 60.6865 50.4267 60.7931 50.96C60.8998 51.4933 60.9531 51.8667 60.9531 52.08C60.9531 52.88 60.8998 53.6267 60.7931 54.32C60.6865 55.0133 60.6331 55.6533 60.6331 56.24C60.6331 57.04 60.6865 58.0533 60.7931 59.28C60.9531 60.5067 61.1398 61.76 61.3531 63.04C61.5665 64.32 61.7531 65.5733 61.9131 66.8C62.0731 67.9733 62.2065 68.9333 62.3131 69.68C62.3131 69.7333 62.3665 70.1067 62.4731 70.8C62.5798 71.4933 62.6865 72.3733 62.7931 73.44C62.9531 74.4533 63.0865 75.5733 63.1931 76.8C63.3531 77.9733 63.5131 79.1467 63.6731 80.32C63.8331 81.44 63.9665 82.4533 64.0731 83.36C64.2331 84.2133 64.3398 84.8267 64.3931 85.2C64.3931 85.36 64.4198 85.6 64.4731 85.92C64.5798 86.1867 64.6598 86.5067 64.7131 86.88C64.8198 87.2533 64.9265 87.6 65.0331 87.92C65.1398 88.24 65.2731 88.48 65.4331 88.64C65.7531 88 66.1531 87.0133 66.6331 85.68C67.1665 84.3467 67.6998 82.9867 68.2331 81.6C68.8198 80.2133 69.3531 79.0133 69.8331 78C70.3665 76.9333 70.8198 76.4 71.1931 76.4C71.6198 76.4 71.9665 76.48 72.2331 76.64C72.4998 76.8 72.8465 76.9333 73.2731 77.04C73.8065 77.2533 74.0731 77.5467 74.0731 77.92C74.0731 78.24 74.1265 78.64 74.2331 79.12C74.3398 79.76 74.4998 80.6133 74.7131 81.68C74.9798 82.6933 75.2731 83.7067 75.5931 84.72C75.9131 85.68 76.2865 86.5067 76.7131 87.2C77.1398 87.8933 77.5665 88.24 77.9931 88.24C78.2065 88.24 78.4998 87.9733 78.8731 87.44C79.2465 86.8533 79.7531 86.5333 80.3931 86.48C80.4998 86.48 80.6865 86.56 80.9531 86.72C81.2198 86.8267 81.4865 86.9867 81.7531 87.2ZM91.5763 65.2C91.5763 65.3067 91.3896 65.52 91.0163 65.84C90.6429 66.16 90.1896 66.5067 89.6563 66.88C89.1763 67.2 88.6696 67.4933 88.1363 67.76C87.6029 68.0267 87.1763 68.16 86.8563 68.16C86.6429 68.16 86.3496 68.16 85.9763 68.16C85.6563 68.1067 85.3096 68 84.9363 67.84C84.6163 67.68 84.3229 67.4667 84.0563 67.2C83.7896 66.88 83.6562 66.48 83.6562 66C83.6562 65.2533 83.9229 64.56 84.4563 63.92C84.9896 63.2267 85.6829 62.88 86.5363 62.88C86.6963 62.88 87.0429 62.96 87.5763 63.12C88.1629 63.2267 88.7496 63.3867 89.3363 63.6C89.9229 63.8133 90.4296 64.0533 90.8563 64.32C91.3363 64.5867 91.5763 64.88 91.5763 65.2ZM94.2162 95.12C94.2162 95.4933 93.9229 95.8133 93.3363 96.08C92.8029 96.3467 92.4029 96.48 92.1363 96.48C91.6029 96.48 91.1229 96.1333 90.6963 95.44C90.2696 94.7467 89.8963 93.9467 89.5763 93.04C89.2563 92.1333 88.9896 91.28 88.7763 90.48C88.5629 89.6267 88.4029 89.04 88.2963 88.72C88.1363 88.1867 87.9229 87.5467 87.6563 86.8C87.3896 86.0533 87.1229 85.3333 86.8563 84.64C86.6429 83.9467 86.4563 83.3333 86.2962 82.8C86.1363 82.2667 86.0563 81.9733 86.0563 81.92C86.0563 81.1733 86.1896 80.48 86.4563 79.84C86.7763 79.2 87.1496 78.88 87.5763 78.88C88.0563 78.88 88.5629 79.2533 89.0963 80C89.6296 80.7467 90.1363 81.7067 90.6163 82.88C91.1496 84 91.6296 85.2533 92.0563 86.64C92.4829 87.9733 92.8563 89.2533 93.1763 90.48C93.4963 91.6533 93.7363 92.6933 93.8963 93.6C94.1096 94.4533 94.2162 94.96 94.2162 95.12ZM117.278 91.44C117.278 92.3467 116.958 93.1467 116.318 93.84C115.731 94.48 114.958 95.04 113.998 95.52C113.091 95.9467 112.078 96.2933 110.958 96.56C109.838 96.8267 108.771 97.04 107.758 97.2C106.745 97.3067 105.838 97.3867 105.038 97.44C104.291 97.44 103.811 97.44 103.598 97.44C102.425 97.44 101.518 97.2533 100.878 96.88C100.238 96.5067 99.9181 95.84 99.9181 94.88C99.9181 94.56 99.9448 94.2933 99.9981 94.08C100.051 93.8133 100.265 93.68 100.638 93.68C100.798 93.68 101.065 93.7333 101.438 93.84C101.811 93.8933 102.105 93.92 102.318 93.92C102.531 93.92 103.198 93.8933 104.318 93.84C105.491 93.7333 106.718 93.5733 107.998 93.36C109.331 93.1467 110.505 92.8533 111.518 92.48C112.585 92.0533 113.118 91.52 113.118 90.88C113.118 90.7733 112.558 90.4533 111.438 89.92C110.371 89.3333 108.745 88.3733 106.558 87.04C104.851 85.9733 103.651 84.9067 102.958 83.84C102.265 82.72 101.918 81.2267 101.918 79.36C101.918 78.1867 102.158 77.2267 102.638 76.48C103.171 75.7333 103.865 75.1467 104.718 74.72C105.625 74.2933 106.638 74 107.758 73.84C108.931 73.6267 110.158 73.52 111.438 73.52C111.545 73.52 111.865 73.5733 112.398 73.68C112.985 73.7867 113.598 73.9733 114.238 74.24C114.878 74.4533 115.438 74.7467 115.918 75.12C116.451 75.44 116.718 75.8133 116.718 76.24C116.718 76.3467 116.611 76.5067 116.398 76.72C116.238 76.9333 115.945 77.3333 115.518 77.92C115.358 77.8667 115.065 77.7867 114.638 77.68C114.265 77.5733 113.811 77.4667 113.278 77.36C112.798 77.2 112.291 77.0933 111.758 77.04C111.225 76.9333 110.798 76.88 110.478 76.88C109.091 76.88 107.971 77.1467 107.118 77.68C106.265 78.16 105.838 79.12 105.838 80.56C105.838 81.2533 106.105 81.8933 106.638 82.48C107.225 83.0667 107.945 83.6267 108.798 84.16C109.651 84.64 110.558 85.1467 111.518 85.68C112.531 86.16 113.465 86.6933 114.318 87.28C115.171 87.8667 115.865 88.5067 116.398 89.2C116.985 89.84 117.278 90.5867 117.278 91.44ZM181.407 66.8C181.62 66.8533 181.727 67.0133 181.727 67.28C181.727 67.6533 181.54 68.0533 181.167 68.48C180.794 68.8533 180.607 69.28 180.607 69.76C180.607 69.8667 180.58 70.2667 180.527 70.96C180.527 71.6533 180.527 72.4267 180.527 73.28C180.527 74.1333 180.5 74.9333 180.447 75.68C180.447 76.4267 180.447 76.8533 180.447 76.96V84.88C180.447 84.9333 180.42 85.3067 180.367 86C180.314 86.6933 180.207 87.52 180.047 88.48C179.94 89.44 179.807 90.4533 179.647 91.52C179.54 92.5333 179.407 93.4133 179.247 94.16C179.194 94.3733 179.034 94.5333 178.767 94.64C178.554 94.7467 178.287 94.8533 177.967 94.96C177.7 95.0133 177.434 95.0667 177.167 95.12C176.9 95.12 176.74 95.12 176.687 95.12C176.1 95.12 175.46 94.7733 174.767 94.08C174.127 93.3867 173.514 92.6133 172.927 91.76C172.34 90.9067 171.834 90.1067 171.407 89.36C170.98 88.6133 170.74 88.1867 170.687 88.08C170.474 88.8267 170.234 89.6 169.967 90.4C169.7 91.1467 169.407 91.84 169.087 92.48C168.767 93.12 168.394 93.6533 167.967 94.08C167.594 94.5067 167.167 94.72 166.687 94.72C166.047 94.72 165.38 94.4 164.687 93.76C163.994 93.12 163.274 92.2933 162.527 91.28C161.834 90.2667 161.167 89.1467 160.527 87.92C159.887 86.64 159.327 85.4133 158.847 84.24C158.367 83.0667 157.967 81.9733 157.647 80.96C157.38 79.9467 157.247 79.1467 157.247 78.56C157.247 78.3467 157.354 78.08 157.567 77.76C157.78 77.44 158.074 77.28 158.447 77.28C159.194 77.28 159.727 77.52 160.047 78C160.1 78.0533 160.26 78.5333 160.527 79.44C160.847 80.3467 161.274 81.4133 161.807 82.64C162.34 83.8667 162.954 85.1467 163.647 86.48C164.394 87.76 165.22 88.8533 166.127 89.76C166.5 89.0667 166.794 88.2933 167.007 87.44C167.274 86.5867 167.487 85.76 167.647 84.96C167.807 84.16 167.914 83.44 167.967 82.8C168.02 82.1067 168.047 81.5467 168.047 81.12C167.94 80.6933 167.86 80.2667 167.807 79.84C167.754 79.4667 167.7 79.0933 167.647 78.72C167.647 78.3467 167.647 78.0267 167.647 77.76C167.647 76.4267 168.18 75.76 169.247 75.76C170.047 75.76 170.66 76.0267 171.087 76.56C171.514 77.04 171.834 77.6267 172.047 78.32C172.26 78.96 172.394 79.6 172.447 80.24C172.554 80.88 172.66 81.3333 172.767 81.6C173.194 82.8267 173.567 83.9733 173.887 85.04C174.26 86.1067 174.874 87.2 175.727 88.32C175.94 88.16 176.1 87.8933 176.207 87.52C176.367 87.0933 176.474 86.6667 176.527 86.24C176.58 85.8133 176.607 85.44 176.607 85.12C176.607 84.7467 176.607 84.48 176.607 84.32V68.4C176.607 68.08 176.74 67.7867 177.007 67.52C177.274 67.2533 177.594 67.0133 177.967 66.8C178.34 66.5867 178.687 66.4267 179.007 66.32C179.38 66.16 179.647 66.08 179.807 66.08C180.074 66.08 180.314 66.16 180.527 66.32C180.794 66.48 181.087 66.64 181.407 66.8ZM210.424 93.6C210.478 93.7067 210.504 93.8667 210.504 94.08C210.504 94.4 210.264 94.88 209.784 95.52C209.624 95.7333 209.278 96.08 208.744 96.56C208.211 97.04 207.491 97.52 206.584 98C205.678 98.48 204.558 98.9067 203.224 99.28C201.944 99.6533 200.424 99.84 198.664 99.84C197.438 99.84 196.238 99.5733 195.064 99.04C193.891 98.4533 192.851 97.6267 191.944 96.56C191.038 95.44 190.291 94.08 189.704 92.48C189.118 90.8267 188.824 88.9067 188.824 86.72C188.824 84.64 189.091 82.6933 189.624 80.88C190.158 79.0667 190.824 77.4667 191.624 76.08C192.478 74.6933 193.411 73.6 194.424 72.8C195.438 72 196.424 71.6 197.384 71.6C198.238 71.6 199.091 71.7867 199.944 72.16C200.851 72.48 201.651 72.9067 202.344 73.44C203.091 73.9733 203.678 74.5867 204.104 75.28C204.531 75.92 204.744 76.5867 204.744 77.28C204.744 78.08 204.371 78.9067 203.624 79.76C202.931 80.6133 202.078 81.4133 201.064 82.16C200.051 82.8533 199.038 83.44 198.024 83.92C197.011 84.3467 196.211 84.56 195.624 84.56C195.304 84.56 195.011 84.4267 194.744 84.16C194.531 83.84 194.424 83.4667 194.424 83.04C194.424 82.2933 194.744 81.7067 195.384 81.28C196.078 80.8533 196.824 80.48 197.624 80.16C198.424 79.7867 199.144 79.36 199.784 78.88C200.478 78.4 200.824 77.7333 200.824 76.88C200.824 76.7733 200.691 76.5067 200.424 76.08C200.158 75.6533 199.438 75.44 198.264 75.44C197.731 75.44 197.118 75.76 196.424 76.4C195.731 76.9867 195.064 77.8133 194.424 78.88C193.784 79.8933 193.251 81.12 192.824 82.56C192.398 83.9467 192.184 85.4667 192.184 87.12C192.184 88.5067 192.424 89.76 192.904 90.88C193.438 92 194.104 92.96 194.904 93.76C195.704 94.5067 196.638 95.0933 197.704 95.52C198.771 95.9467 199.864 96.16 200.984 96.16C201.784 96.16 202.638 96 203.544 95.68C204.504 95.3067 205.384 94.9333 206.184 94.56C207.038 94.1333 207.758 93.76 208.344 93.44C208.984 93.0667 209.384 92.88 209.544 92.88C209.704 92.88 209.864 92.96 210.024 93.12C210.238 93.28 210.371 93.44 210.424 93.6ZM235.115 86.08C235.115 88.48 234.822 90.5867 234.235 92.4C233.702 94.2133 233.035 95.7333 232.235 96.96C231.435 98.1333 230.608 99.0133 229.755 99.6C228.955 100.187 228.288 100.48 227.755 100.48C227.008 100.48 226.288 100.16 225.595 99.52C224.902 98.8267 224.555 98.1867 224.555 97.6C224.555 96.7467 224.902 96.32 225.595 96.32C225.862 96.32 226.128 96.4267 226.395 96.64C226.662 96.8 226.902 96.9333 227.115 97.04C228.022 96.2933 228.875 95.0667 229.675 93.36C230.528 91.6533 230.955 89.2267 230.955 86.08C230.955 84.8 230.822 83.6533 230.555 82.64C230.288 81.6267 229.968 80.7733 229.595 80.08C229.275 79.3867 228.928 78.8533 228.555 78.48C228.182 78.1067 227.915 77.92 227.755 77.92C227.222 77.92 226.688 78.4533 226.155 79.52C225.675 80.5867 225.248 81.8133 224.875 83.2C224.502 84.5333 224.182 85.8667 223.915 87.2C223.702 88.48 223.595 89.36 223.595 89.84C223.648 90.16 223.702 90.4533 223.755 90.72C223.808 90.9867 223.862 91.2533 223.915 91.52C223.968 91.7867 223.995 92.0533 223.995 92.32C223.995 93.3333 223.648 94.24 222.955 95.04C222.262 95.84 221.595 96.24 220.955 96.24C220.635 96.24 220.368 96.0267 220.155 95.6C219.995 95.12 219.862 94.5333 219.755 93.84C219.648 93.1467 219.542 92.4267 219.435 91.68C219.382 90.9333 219.302 90.2667 219.195 89.68C218.768 88.72 218.208 87.2 217.515 85.12C216.822 83.04 216.075 80.8267 215.275 78.48C214.528 76.08 213.808 73.76 213.115 71.52C212.475 69.28 211.995 67.4933 211.675 66.16C210.928 63.28 210.368 60.7733 209.995 58.64C209.568 56.4533 209.248 54.56 209.035 52.96C208.768 51.3067 208.608 49.8933 208.555 48.72C208.502 47.5467 208.475 46.56 208.475 45.76C208.475 45.28 208.688 44.9067 209.115 44.64C209.488 44.3733 209.835 44.24 210.155 44.24C210.635 44.24 210.982 44.3467 211.195 44.56C211.408 44.72 211.568 45.0933 211.675 45.68C211.728 46.2667 211.808 47.12 211.915 48.24C211.968 49.36 212.102 50.8533 212.315 52.72C212.422 53.6267 212.608 54.88 212.875 56.48C213.195 58.08 213.595 59.8667 214.075 61.84C214.555 63.8133 215.062 65.8933 215.595 68.08C216.182 70.2133 216.768 72.2667 217.355 74.24C217.995 76.2133 218.608 78.0267 219.195 79.68C219.835 81.3333 220.422 82.64 220.955 83.6C221.435 81.68 222.022 79.9467 222.715 78.4C223.302 77.12 224.022 75.9467 224.875 74.88C225.728 73.76 226.768 73.2 227.995 73.2C228.475 73.2 229.115 73.4133 229.915 73.84C230.715 74.2667 231.488 74.9867 232.235 76C233.035 77.0133 233.702 78.3467 234.235 80C234.822 81.6533 235.115 83.68 235.115 86.08ZM260.559 91.44C260.559 92.3467 260.239 93.1467 259.599 93.84C259.013 94.48 258.239 95.04 257.279 95.52C256.373 95.9467 255.359 96.2933 254.239 96.56C253.119 96.8267 252.053 97.04 251.039 97.2C250.026 97.3067 249.119 97.3867 248.319 97.44C247.573 97.44 247.093 97.44 246.879 97.44C245.706 97.44 244.799 97.2533 244.159 96.88C243.519 96.5067 243.199 95.84 243.199 94.88C243.199 94.56 243.226 94.2933 243.279 94.08C243.333 93.8133 243.546 93.68 243.919 93.68C244.079 93.68 244.346 93.7333 244.719 93.84C245.093 93.8933 245.386 93.92 245.599 93.92C245.813 93.92 246.479 93.8933 247.599 93.84C248.773 93.7333 249.999 93.5733 251.279 93.36C252.613 93.1467 253.786 92.8533 254.799 92.48C255.866 92.0533 256.399 91.52 256.399 90.88C256.399 90.7733 255.839 90.4533 254.719 89.92C253.653 89.3333 252.026 88.3733 249.839 87.04C248.133 85.9733 246.933 84.9067 246.239 83.84C245.546 82.72 245.199 81.2267 245.199 79.36C245.199 78.1867 245.439 77.2267 245.919 76.48C246.453 75.7333 247.146 75.1467 247.999 74.72C248.906 74.2933 249.919 74 251.039 73.84C252.213 73.6267 253.439 73.52 254.719 73.52C254.826 73.52 255.146 73.5733 255.679 73.68C256.266 73.7867 256.879 73.9733 257.519 74.24C258.159 74.4533 258.719 74.7467 259.199 75.12C259.733 75.44 259.999 75.8133 259.999 76.24C259.999 76.3467 259.893 76.5067 259.679 76.72C259.519 76.9333 259.226 77.3333 258.799 77.92C258.639 77.8667 258.346 77.7867 257.919 77.68C257.546 77.5733 257.093 77.4667 256.559 77.36C256.079 77.2 255.573 77.0933 255.039 77.04C254.506 76.9333 254.079 76.88 253.759 76.88C252.373 76.88 251.253 77.1467 250.399 77.68C249.546 78.16 249.119 79.12 249.119 80.56C249.119 81.2533 249.386 81.8933 249.919 82.48C250.506 83.0667 251.226 83.6267 252.079 84.16C252.933 84.64 253.839 85.1467 254.799 85.68C255.813 86.16 256.746 86.6933 257.599 87.28C258.453 87.8667 259.146 88.5067 259.679 89.2C260.266 89.84 260.559 90.5867 260.559 91.44ZM272.123 65.2C272.123 65.3067 271.936 65.52 271.563 65.84C271.19 66.16 270.736 66.5067 270.203 66.88C269.723 67.2 269.216 67.4933 268.683 67.76C268.15 68.0267 267.723 68.16 267.403 68.16C267.19 68.16 266.896 68.16 266.523 68.16C266.203 68.1067 265.856 68 265.483 67.84C265.163 67.68 264.87 67.4667 264.603 67.2C264.336 66.88 264.203 66.48 264.203 66C264.203 65.2533 264.47 64.56 265.003 63.92C265.536 63.2267 266.23 62.88 267.083 62.88C267.243 62.88 267.59 62.96 268.123 63.12C268.71 63.2267 269.296 63.3867 269.883 63.6C270.47 63.8133 270.976 64.0533 271.403 64.32C271.883 64.5867 272.123 64.88 272.123 65.2ZM274.763 95.12C274.763 95.4933 274.47 95.8133 273.883 96.08C273.35 96.3467 272.95 96.48 272.683 96.48C272.15 96.48 271.67 96.1333 271.243 95.44C270.816 94.7467 270.443 93.9467 270.123 93.04C269.803 92.1333 269.536 91.28 269.323 90.48C269.11 89.6267 268.95 89.04 268.843 88.72C268.683 88.1867 268.47 87.5467 268.203 86.8C267.936 86.0533 267.67 85.3333 267.403 84.64C267.19 83.9467 267.003 83.3333 266.843 82.8C266.683 82.2667 266.603 81.9733 266.603 81.92C266.603 81.1733 266.736 80.48 267.003 79.84C267.323 79.2 267.696 78.88 268.123 78.88C268.603 78.88 269.11 79.2533 269.643 80C270.176 80.7467 270.683 81.7067 271.163 82.88C271.696 84 272.176 85.2533 272.603 86.64C273.03 87.9733 273.403 89.2533 273.723 90.48C274.043 91.6533 274.283 92.6933 274.443 93.6C274.656 94.4533 274.763 94.96 274.763 95.12ZM301.025 65.84C300.332 66.64 299.345 67.44 298.065 68.24C296.785 68.9867 295.505 69.68 294.225 70.32C292.945 70.96 291.825 71.52 290.865 72C289.905 72.4267 289.425 72.72 289.425 72.88C289.425 73.04 289.532 73.52 289.745 74.32C289.958 75.12 290.198 76.08 290.465 77.2C290.785 78.2667 291.105 79.3867 291.425 80.56C291.745 81.7333 292.012 82.7733 292.225 83.68C292.332 84.2133 292.465 84.9067 292.625 85.76C292.785 86.6133 292.918 87.4667 293.025 88.32C293.185 89.1733 293.318 89.9467 293.425 90.64C293.532 91.28 293.585 91.6267 293.585 91.68C293.585 92.48 293.452 93.3067 293.185 94.16C292.918 95.0133 292.492 95.44 291.905 95.44C291.585 95.44 291.292 95.3067 291.025 95.04C290.758 94.7733 290.518 94.48 290.305 94.16C290.092 93.7867 289.932 93.44 289.825 93.12C289.718 92.8 289.665 92.56 289.665 92.4C289.665 92.2933 289.665 92.1333 289.665 91.92C289.718 91.7067 289.745 91.4667 289.745 91.2C289.745 90.1867 289.585 88.72 289.265 86.8C289.158 86.2133 288.945 85.3067 288.625 84.08C288.305 82.8533 287.985 81.6 287.665 80.32C287.292 78.8267 286.865 77.2 286.385 75.44C286.172 74.6933 286.038 74.32 285.985 74.32C285.612 74.32 284.972 74.56 284.065 75.04C283.212 75.4667 282.225 76.0267 281.105 76.72C279.985 77.36 278.812 78.08 277.585 78.88C276.358 79.6267 275.212 80.3467 274.145 81.04C273.078 81.68 272.172 82.24 271.425 82.72C270.625 83.1467 270.145 83.36 269.985 83.36C269.292 83.36 268.732 83.12 268.305 82.64C267.878 82.16 267.665 81.6267 267.665 81.04C267.665 80.72 268.118 80.2667 269.025 79.68C269.878 79.04 270.972 78.3467 272.305 77.6C273.585 76.8533 274.998 76.08 276.545 75.28C278.038 74.48 279.425 73.76 280.705 73.12C282.038 72.48 283.132 71.9467 283.985 71.52C284.892 71.0933 285.345 70.88 285.345 70.88C284.865 68.4267 284.465 66.24 284.145 64.32C283.878 62.6667 283.612 61.1467 283.345 59.76C283.132 58.3733 283.025 57.6267 283.025 57.52C283.025 56.8267 283.158 56.32 283.425 56C283.745 55.6267 284.092 55.44 284.465 55.44C285.052 55.44 285.425 55.84 285.585 56.64C286.172 59.52 286.705 62.08 287.185 64.32C287.718 66.56 288.225 68.3733 288.705 69.76C289.185 69.6533 290.012 69.36 291.185 68.88C292.358 68.3467 293.585 67.7867 294.865 67.2C296.145 66.6133 297.292 66.1067 298.305 65.68C299.372 65.2 299.985 64.96 300.145 64.96C300.465 64.96 300.652 65.0667 300.705 65.28C300.812 65.4933 300.918 65.68 301.025 65.84ZM327.612 93.6C327.665 93.7067 327.692 93.8667 327.692 94.08C327.692 94.4 327.452 94.88 326.972 95.52C326.812 95.7333 326.465 96.08 325.932 96.56C325.399 97.04 324.679 97.52 323.772 98C322.865 98.48 321.745 98.9067 320.412 99.28C319.132 99.6533 317.612 99.84 315.852 99.84C314.625 99.84 313.425 99.5733 312.252 99.04C311.079 98.4533 310.039 97.6267 309.132 96.56C308.225 95.44 307.479 94.08 306.892 92.48C306.305 90.8267 306.012 88.9067 306.012 86.72C306.012 84.64 306.279 82.6933 306.812 80.88C307.345 79.0667 308.012 77.4667 308.812 76.08C309.665 74.6933 310.599 73.6 311.612 72.8C312.625 72 313.612 71.6 314.572 71.6C315.425 71.6 316.279 71.7867 317.132 72.16C318.039 72.48 318.839 72.9067 319.532 73.44C320.279 73.9733 320.865 74.5867 321.292 75.28C321.719 75.92 321.932 76.5867 321.932 77.28C321.932 78.08 321.559 78.9067 320.812 79.76C320.119 80.6133 319.265 81.4133 318.252 82.16C317.239 82.8533 316.225 83.44 315.212 83.92C314.199 84.3467 313.399 84.56 312.812 84.56C312.492 84.56 312.199 84.4267 311.932 84.16C311.719 83.84 311.612 83.4667 311.612 83.04C311.612 82.2933 311.932 81.7067 312.572 81.28C313.265 80.8533 314.012 80.48 314.812 80.16C315.612 79.7867 316.332 79.36 316.972 78.88C317.665 78.4 318.012 77.7333 318.012 76.88C318.012 76.7733 317.879 76.5067 317.612 76.08C317.345 75.6533 316.625 75.44 315.452 75.44C314.919 75.44 314.305 75.76 313.612 76.4C312.919 76.9867 312.252 77.8133 311.612 78.88C310.972 79.8933 310.439 81.12 310.012 82.56C309.585 83.9467 309.372 85.4667 309.372 87.12C309.372 88.5067 309.612 89.76 310.092 90.88C310.625 92 311.292 92.96 312.092 93.76C312.892 94.5067 313.825 95.0933 314.892 95.52C315.959 95.9467 317.052 96.16 318.172 96.16C318.972 96.16 319.825 96 320.732 95.68C321.692 95.3067 322.572 94.9333 323.372 94.56C324.225 94.1333 324.945 93.76 325.532 93.44C326.172 93.0667 326.572 92.88 326.732 92.88C326.892 92.88 327.052 92.96 327.212 93.12C327.425 93.28 327.559 93.44 327.612 93.6ZM342.063 63.36C342.063 63.84 341.823 64.88 341.343 66.48C340.863 68.08 340.329 69.8667 339.743 71.84C339.209 73.76 338.703 75.6533 338.223 77.52C337.796 79.3867 337.583 80.8533 337.583 81.92C337.583 83.04 337.636 83.9733 337.743 84.72C337.849 85.4133 337.956 86 338.063 86.48C338.223 86.96 338.356 87.3867 338.463 87.76C338.569 88.08 338.623 88.48 338.623 88.96C338.623 90.0267 338.143 90.56 337.183 90.56C337.023 90.56 336.863 90.4533 336.703 90.24C335.529 88.5333 334.809 86.8533 334.543 85.2C334.329 83.5467 334.223 82.2667 334.223 81.36C334.223 80.24 334.383 78.8 334.703 77.04C335.023 75.2267 335.423 73.3333 335.903 71.36C336.383 69.3333 336.916 67.3333 337.503 65.36C338.143 63.3333 338.756 61.5733 339.343 60.08C339.449 59.9733 339.583 59.8667 339.743 59.76C339.903 59.6533 340.116 59.6 340.383 59.6C340.756 59.6 341.049 59.76 341.263 60.08C341.476 60.3467 341.636 60.6933 341.743 61.12C341.849 61.4933 341.929 61.8933 341.983 62.32C342.036 62.7467 342.063 63.0933 342.063 63.36ZM344.703 99.28C344.703 99.8667 344.516 100.48 344.143 101.12C343.823 101.707 343.396 102 342.863 102C342.169 102 341.503 101.653 340.863 100.96C340.276 100.267 339.983 99.4667 339.983 98.56C339.983 98.24 340.036 97.84 340.143 97.36C340.303 96.8267 340.649 96.56 341.183 96.56C341.396 96.56 341.689 96.5867 342.063 96.64C342.436 96.6933 342.809 96.8267 343.183 97.04C343.609 97.2 343.956 97.4667 344.223 97.84C344.543 98.2133 344.703 98.6933 344.703 99.28Z" fill="#D5CEFF"/>
</g>
<defs>
<filter id="filter0_d" x="0.550781" y="0.84375" width="387.734" height="125.316" filterUnits="userSpaceOnUse" color-interpolation-filters="sRGB">
<feFlood flood-opacity="0" result="BackgroundImageFix"/>
<feColorMatrix in="SourceAlpha" type="matrix" values="0 0 0 0 0 0 0 0 0 0 0 0 0 0 0 0 0 0 127 0"/>
<feOffset dx="10" dy="10"/>
<feGaussianBlur stdDeviation="5"/>
<feColorMatrix type="matrix" values="0 0 0 0 0 0 0 0 0 0 0 0 0 0 0 0 0 0 0.25 0"/>
<feBlend mode="normal" in2="BackgroundImageFix" result="effect1_dropShadow"/>
<feBlend mode="normal" in="SourceGraphic" in2="effect1_dropShadow" result="shape"/>
</filter>
</defs>
</svg>
