<svg width="590" height="370" viewBox="0 0 590 370" fill="none" xmlns="http://www.w3.org/2000/svg">
<g filter="url(#filter0_d)">
<circle cx="185" cy="175" r="175" fill="#AD00CA" fill-opacity="0.5"/>
<circle cx="185" cy="175" r="174.5" stroke="#8032E7"/>
</g>
<path d="M148.485 164.208V159.303C148.485 158.631 148.354 157.998 148.092 157.406C147.842 156.802 147.494 156.278 147.05 155.833C146.605 155.389 146.081 155.042 145.478 154.791C144.885 154.529 144.253 154.398 143.581 154.398C142.908 154.398 142.27 154.529 141.667 154.791C141.074 155.042 140.556 155.389 140.111 155.833C139.667 156.278 139.314 156.802 139.052 157.406C138.801 157.998 138.676 158.631 138.676 159.303V164.208H148.485ZM153.39 174H148.485V169.095H138.676V174H133.788V159.303C133.788 157.947 134.044 156.677 134.557 155.492C135.07 154.295 135.765 153.253 136.642 152.364C137.531 151.476 138.568 150.775 139.752 150.262C140.949 149.75 142.225 149.493 143.581 149.493C144.936 149.493 146.207 149.75 147.392 150.262C148.588 150.775 149.63 151.476 150.519 152.364C151.408 153.253 152.108 154.295 152.621 155.492C153.134 156.677 153.39 157.947 153.39 159.303V174ZM161.815 174H157.15V155.697H158.278L159.816 157.867C160.568 157.184 161.422 156.66 162.379 156.295C163.336 155.919 164.328 155.731 165.353 155.731H169.472V160.379H165.353C164.863 160.379 164.402 160.471 163.969 160.653C163.536 160.835 163.16 161.086 162.841 161.405C162.522 161.724 162.271 162.1 162.089 162.533C161.907 162.966 161.815 163.427 161.815 163.917V174ZM180.819 174C179.691 174 178.632 173.789 177.641 173.368C176.649 172.935 175.778 172.348 175.026 171.607C174.285 170.855 173.699 169.984 173.266 168.993C172.844 168.001 172.633 166.942 172.633 165.814V160.379H170.36V155.731H172.633V148.417H177.282V155.731H184.357V160.379H177.282V165.814C177.282 166.304 177.373 166.765 177.555 167.198C177.737 167.62 177.988 167.99 178.307 168.309C178.626 168.628 179.002 168.884 179.435 169.078C179.868 169.26 180.329 169.352 180.819 169.352H184.357V174H180.819Z" fill="#D5CEFF"/>
<g filter="url(#filter1_d)">
<circle cx="405" cy="175" r="175" transform="rotate(-180 405 175)" fill="#5C59FF" fill-opacity="0.5"/>
<circle cx="405" cy="175" r="174.5" transform="rotate(-180 405 175)" stroke="#8032E7"/>
</g>
<path d="M420.675 175H415.787V157.5C415.787 157.158 415.719 156.839 415.582 156.543C415.457 156.247 415.28 155.99 415.052 155.774C414.836 155.546 414.579 155.369 414.283 155.244C413.987 155.119 413.668 155.056 413.326 155.056C412.984 155.056 412.665 155.119 412.369 155.244C412.073 155.369 411.811 155.546 411.583 155.774C411.367 155.99 411.196 156.247 411.07 156.543C410.945 156.839 410.882 157.158 410.882 157.5V175H405.978V157.5C405.978 157.158 405.915 156.839 405.79 156.543C405.664 156.247 405.488 155.99 405.26 155.774C405.043 155.546 404.787 155.369 404.491 155.244C404.194 155.119 403.875 155.056 403.534 155.056C403.192 155.056 402.873 155.119 402.577 155.244C402.28 155.369 402.018 155.546 401.791 155.774C401.574 155.99 401.403 156.247 401.278 156.543C401.153 156.839 401.09 157.158 401.09 157.5V175H396.185V157.5C396.185 156.486 396.373 155.535 396.749 154.646C397.136 153.746 397.66 152.965 398.321 152.305C398.993 151.632 399.774 151.108 400.663 150.732C401.563 150.345 402.52 150.151 403.534 150.151C404.445 150.151 405.322 150.317 406.166 150.647C407.009 150.966 407.766 151.433 408.438 152.048C409.111 151.433 409.863 150.966 410.694 150.647C411.537 150.317 412.415 150.151 413.326 150.151C414.34 150.151 415.292 150.345 416.18 150.732C417.08 151.108 417.861 151.632 418.521 152.305C419.194 152.965 419.718 153.746 420.094 154.646C420.481 155.535 420.675 156.486 420.675 157.5V175ZM442.088 175H440.96L439.149 172.488C438.705 172.887 438.232 173.263 437.73 173.616C437.241 173.958 436.722 174.259 436.175 174.521C435.628 174.772 435.064 174.972 434.483 175.12C433.914 175.268 433.333 175.342 432.74 175.342C431.453 175.342 430.239 175.125 429.1 174.692C427.972 174.259 426.981 173.633 426.126 172.812C425.283 171.981 424.617 170.967 424.127 169.771C423.637 168.574 423.392 167.213 423.392 165.686C423.392 164.262 423.637 162.957 424.127 161.772C424.617 160.576 425.283 159.551 426.126 158.696C426.981 157.842 427.972 157.181 429.1 156.714C430.239 156.235 431.453 155.996 432.74 155.996C433.333 155.996 433.919 156.07 434.5 156.218C435.082 156.366 435.646 156.571 436.192 156.833C436.739 157.096 437.258 157.403 437.748 157.756C438.249 158.11 438.716 158.491 439.149 158.901L440.96 156.731H442.088V175ZM437.389 165.686C437.389 165.048 437.263 164.433 437.013 163.84C436.773 163.236 436.443 162.707 436.021 162.251C435.6 161.784 435.104 161.414 434.535 161.14C433.976 160.855 433.378 160.713 432.74 160.713C432.102 160.713 431.498 160.821 430.929 161.038C430.37 161.254 429.881 161.573 429.459 161.995C429.049 162.416 428.724 162.94 428.485 163.567C428.246 164.182 428.126 164.889 428.126 165.686C428.126 166.484 428.246 167.196 428.485 167.822C428.724 168.438 429.049 168.956 429.459 169.377C429.881 169.799 430.37 170.118 430.929 170.334C431.498 170.551 432.102 170.659 432.74 170.659C433.378 170.659 433.976 170.522 434.535 170.249C435.104 169.964 435.6 169.594 436.021 169.138C436.443 168.671 436.773 168.141 437.013 167.549C437.263 166.945 437.389 166.324 437.389 165.686ZM454.837 175C453.709 175 452.65 174.789 451.659 174.368C450.667 173.935 449.796 173.348 449.044 172.607C448.303 171.855 447.717 170.984 447.284 169.993C446.862 169.001 446.651 167.942 446.651 166.814V161.379H444.378V156.731H446.651V149.417H451.3V156.731H458.375V161.379H451.3V166.814C451.3 167.304 451.391 167.765 451.573 168.198C451.756 168.62 452.006 168.99 452.325 169.309C452.644 169.628 453.02 169.884 453.453 170.078C453.886 170.26 454.347 170.352 454.837 170.352H458.375V175H454.837ZM465.672 175H461.007V149.417H465.672V157.5C466.231 157.078 466.806 156.782 467.398 156.611C467.991 156.429 468.595 156.338 469.21 156.338C470.338 156.338 471.397 156.554 472.389 156.987C473.38 157.409 474.24 157.996 474.969 158.748C475.71 159.488 476.291 160.36 476.712 161.362C477.145 162.354 477.362 163.413 477.362 164.541V175H472.662V164.541H472.696C472.696 164.062 472.605 163.612 472.423 163.191C472.241 162.758 471.99 162.382 471.671 162.063C471.352 161.744 470.982 161.493 470.56 161.311C470.139 161.129 469.688 161.038 469.21 161.038C468.72 161.038 468.259 161.129 467.826 161.311C467.393 161.493 467.017 161.744 466.698 162.063C466.379 162.382 466.128 162.758 465.946 163.191C465.764 163.612 465.672 164.062 465.672 164.541V175Z" fill="#D5CEFF"/>
<path d="M295.8 178.24C295.88 178.48 295.96 178.7 296.04 178.9C296.12 179.1 296.18 179.32 296.22 179.56C296.3 179.8 296.34 180.02 296.34 180.22C296.34 180.5 296.24 180.72 296.04 180.88C295.84 181.08 295.6 181.24 295.32 181.36C295.08 181.48 294.84 181.56 294.6 181.6C294.36 181.64 294.22 181.66 294.18 181.66C293.94 181.66 293.5 180.92 292.86 179.44C292.22 178 291.52 175.96 290.76 173.32C290.04 170.68 289.3 167.54 288.54 163.9C287.78 160.26 287.16 156.26 286.68 151.9C286.6 152.82 286.44 153.9 286.2 155.14C286 156.34 285.68 157.48 285.24 158.56C284.8 159.64 284.22 160.56 283.5 161.32C282.82 162.04 281.94 162.4 280.86 162.4C280.1 162.4 279.24 162 278.28 161.2C277.32 160.4 276.38 159.46 275.46 158.38C274.58 157.26 273.76 156.14 273 155.02C272.28 153.86 271.74 152.92 271.38 152.2C271.54 153.96 271.8 156.08 272.16 158.56C272.56 161.04 273.16 163.66 273.96 166.42C274.04 166.7 274.12 166.92 274.2 167.08C274.32 167.2 274.42 167.34 274.5 167.5C274.62 167.66 274.7 167.84 274.74 168.04C274.82 168.2 274.86 168.46 274.86 168.82C274.86 169.34 274.66 169.72 274.26 169.96C273.86 170.2 273.48 170.32 273.12 170.32C272.92 170.32 272.66 170.02 272.34 169.42C272.02 168.78 271.68 167.96 271.32 166.96C270.96 165.96 270.6 164.86 270.24 163.66C269.88 162.42 269.54 161.2 269.22 160C268.94 158.8 268.7 157.68 268.5 156.64C268.3 155.56 268.2 154.7 268.2 154.06C268.2 153.02 268.24 152.3 268.32 151.9C268.44 151.5 268.6 151.2 268.8 151V147.34C268.8 146.78 268.94 146.36 269.22 146.08C269.54 145.76 269.94 145.6 270.42 145.6C270.82 145.6 271.28 145.94 271.8 146.62C272.32 147.3 272.88 148.16 273.48 149.2C274.12 150.24 274.78 151.36 275.46 152.56C276.14 153.76 276.8 154.88 277.44 155.92C278.12 156.96 278.76 157.82 279.36 158.5C280 159.18 280.6 159.52 281.16 159.52C281.68 159.52 282.18 159.04 282.66 158.08C283.14 157.08 283.58 155.78 283.98 154.18C284.42 152.58 284.8 150.76 285.12 148.72C285.44 146.68 285.7 144.6 285.9 142.48C285.9 142.24 285.88 141.98 285.84 141.7C285.8 141.38 285.78 141.04 285.78 140.68C285.78 140.2 285.88 139.68 286.08 139.12C286.32 138.56 286.76 138.28 287.4 138.28C287.76 138.28 288.04 138.38 288.24 138.58C288.48 138.78 288.64 139.04 288.72 139.36C288.8 139.64 288.84 139.94 288.84 140.26C288.88 140.54 288.9 140.78 288.9 140.98C288.9 141.3 288.86 141.84 288.78 142.6C288.74 143.32 288.72 144.44 288.72 145.96C288.72 147.28 288.82 148.82 289.02 150.58C289.22 152.3 289.48 154.14 289.8 156.1C290.16 158.02 290.56 160.02 291 162.1C291.48 164.14 291.98 166.14 292.5 168.1C293.06 170.06 293.6 171.92 294.12 173.68C294.68 175.4 295.24 176.92 295.8 178.24ZM314.502 168.7C314.542 168.78 314.562 168.9 314.562 169.06C314.562 169.3 314.382 169.66 314.022 170.14C313.902 170.3 313.642 170.56 313.242 170.92C312.842 171.28 312.302 171.64 311.622 172C310.942 172.36 310.102 172.68 309.102 172.96C308.142 173.24 307.002 173.38 305.682 173.38C304.762 173.38 303.862 173.18 302.982 172.78C302.102 172.34 301.322 171.72 300.642 170.92C299.962 170.08 299.402 169.06 298.962 167.86C298.522 166.62 298.302 165.18 298.302 163.54C298.302 161.98 298.502 160.52 298.902 159.16C299.302 157.8 299.802 156.6 300.402 155.56C301.042 154.52 301.742 153.7 302.502 153.1C303.262 152.5 304.002 152.2 304.722 152.2C305.362 152.2 306.002 152.34 306.642 152.62C307.322 152.86 307.922 153.18 308.442 153.58C309.002 153.98 309.442 154.44 309.762 154.96C310.082 155.44 310.242 155.94 310.242 156.46C310.242 157.06 309.962 157.68 309.402 158.32C308.882 158.96 308.242 159.56 307.482 160.12C306.722 160.64 305.962 161.08 305.202 161.44C304.442 161.76 303.842 161.92 303.402 161.92C303.162 161.92 302.942 161.82 302.742 161.62C302.582 161.38 302.502 161.1 302.502 160.78C302.502 160.22 302.742 159.78 303.222 159.46C303.742 159.14 304.302 158.86 304.902 158.62C305.502 158.34 306.042 158.02 306.522 157.66C307.042 157.3 307.302 156.8 307.302 156.16C307.302 156.08 307.202 155.88 307.002 155.56C306.802 155.24 306.262 155.08 305.382 155.08C304.982 155.08 304.522 155.32 304.002 155.8C303.482 156.24 302.982 156.86 302.502 157.66C302.022 158.42 301.622 159.34 301.302 160.42C300.982 161.46 300.822 162.6 300.822 163.84C300.822 164.88 301.002 165.82 301.362 166.66C301.762 167.5 302.262 168.22 302.862 168.82C303.462 169.38 304.162 169.82 304.962 170.14C305.762 170.46 306.582 170.62 307.422 170.62C308.022 170.62 308.662 170.5 309.342 170.26C310.062 169.98 310.722 169.7 311.322 169.42C311.962 169.1 312.502 168.82 312.942 168.58C313.422 168.3 313.722 168.16 313.842 168.16C313.962 168.16 314.082 168.22 314.202 168.34C314.362 168.46 314.462 168.58 314.502 168.7Z" fill="#FEFFE2"/>
<defs>
<filter id="filter0_d" x="0" y="0" width="370" height="370" filterUnits="userSpaceOnUse" color-interpolation-filters="sRGB">
<feFlood flood-opacity="0" result="BackgroundImageFix"/>
<feColorMatrix in="SourceAlpha" type="matrix" values="0 0 0 0 0 0 0 0 0 0 0 0 0 0 0 0 0 0 127 0"/>
<feOffset dy="10"/>
<feGaussianBlur stdDeviation="5"/>
<feColorMatrix type="matrix" values="0 0 0 0 0 0 0 0 0 0 0 0 0 0 0 0 0 0 0.25 0"/>
<feBlend mode="normal" in2="BackgroundImageFix" result="effect1_dropShadow"/>
<feBlend mode="normal" in="SourceGraphic" in2="effect1_dropShadow" result="shape"/>
</filter>
<filter id="filter1_d" x="220" y="0" width="370" height="370" filterUnits="userSpaceOnUse" color-interpolation-filters="sRGB">
<feFlood flood-opacity="0" result="BackgroundImageFix"/>
<feColorMatrix in="SourceAlpha" type="matrix" values="0 0 0 0 0 0 0 0 0 0 0 0 0 0 0 0 0 0 127 0"/>
<feOffset dy="10"/>
<feGaussianBlur stdDeviation="5"/>
<feColorMatrix type="matrix" values="0 0 0 0 0 0 0 0 0 0 0 0 0 0 0 0 0 0 0.25 0"/>
<feBlend mode="normal" in2="BackgroundImageFix" result="effect1_dropShadow"/>
<feBlend mode="normal" in="SourceGraphic" in2="effect1_dropShadow" result="shape"/>
</filter>
</defs>
</svg>
