<svg width="590" height="381" viewBox="0 0 590 381" fill="none" xmlns="http://www.w3.org/2000/svg">
<g filter="url(#filter0_d)">
<circle cx="185" cy="186" r="175" fill="#AD00CA" fill-opacity="0.5"/>
<circle cx="185" cy="186" r="174.5" stroke="#8032E7"/>
</g>
<path d="M148.485 165.208V160.303C148.485 159.631 148.354 158.998 148.092 158.406C147.842 157.802 147.494 157.278 147.05 156.833C146.605 156.389 146.081 156.042 145.478 155.791C144.885 155.529 144.253 155.398 143.581 155.398C142.908 155.398 142.27 155.529 141.667 155.791C141.074 156.042 140.556 156.389 140.111 156.833C139.667 157.278 139.314 157.802 139.052 158.406C138.801 158.998 138.676 159.631 138.676 160.303V165.208H148.485ZM153.39 175H148.485V170.095H138.676V175H133.788V160.303C133.788 158.947 134.044 157.677 134.557 156.492C135.07 155.295 135.765 154.253 136.642 153.364C137.531 152.476 138.568 151.775 139.752 151.262C140.949 150.75 142.225 150.493 143.581 150.493C144.936 150.493 146.207 150.75 147.392 151.262C148.588 151.775 149.63 152.476 150.519 153.364C151.408 154.253 152.108 155.295 152.621 156.492C153.134 157.677 153.39 158.947 153.39 160.303V175ZM161.815 175H157.15V156.697H158.278L159.816 158.867C160.568 158.184 161.422 157.66 162.379 157.295C163.336 156.919 164.328 156.731 165.353 156.731H169.472V161.379H165.353C164.863 161.379 164.402 161.471 163.969 161.653C163.536 161.835 163.16 162.086 162.841 162.405C162.522 162.724 162.271 163.1 162.089 163.533C161.907 163.966 161.815 164.427 161.815 164.917V175ZM180.819 175C179.691 175 178.632 174.789 177.641 174.368C176.649 173.935 175.778 173.348 175.026 172.607C174.285 171.855 173.699 170.984 173.266 169.993C172.844 169.001 172.633 167.942 172.633 166.814V161.379H170.36V156.731H172.633V149.417H177.282V156.731H184.357V161.379H177.282V166.814C177.282 167.304 177.373 167.765 177.555 168.198C177.737 168.62 177.988 168.99 178.307 169.309C178.626 169.628 179.002 169.884 179.435 170.078C179.868 170.26 180.329 170.352 180.819 170.352H184.357V175H180.819Z" fill="#D5CEFF"/>
<g filter="url(#filter1_d)">
<circle cx="405" cy="175" r="175" transform="rotate(-180 405 175)" fill="#5C59FF" fill-opacity="0.5"/>
<circle cx="405" cy="175" r="174.5" transform="rotate(-180 405 175)" stroke="#8032E7"/>
</g>
<path d="M420.675 175H415.787V157.5C415.787 157.158 415.719 156.839 415.582 156.543C415.457 156.247 415.28 155.99 415.052 155.774C414.836 155.546 414.579 155.369 414.283 155.244C413.987 155.119 413.668 155.056 413.326 155.056C412.984 155.056 412.665 155.119 412.369 155.244C412.073 155.369 411.811 155.546 411.583 155.774C411.367 155.99 411.196 156.247 411.07 156.543C410.945 156.839 410.882 157.158 410.882 157.5V175H405.978V157.5C405.978 157.158 405.915 156.839 405.79 156.543C405.664 156.247 405.488 155.99 405.26 155.774C405.043 155.546 404.787 155.369 404.491 155.244C404.194 155.119 403.875 155.056 403.534 155.056C403.192 155.056 402.873 155.119 402.577 155.244C402.28 155.369 402.018 155.546 401.791 155.774C401.574 155.99 401.403 156.247 401.278 156.543C401.153 156.839 401.09 157.158 401.09 157.5V175H396.185V157.5C396.185 156.486 396.373 155.535 396.749 154.646C397.136 153.746 397.66 152.965 398.321 152.305C398.993 151.632 399.774 151.108 400.663 150.732C401.563 150.345 402.52 150.151 403.534 150.151C404.445 150.151 405.322 150.317 406.166 150.647C407.009 150.966 407.766 151.433 408.438 152.048C409.111 151.433 409.863 150.966 410.694 150.647C411.537 150.317 412.415 150.151 413.326 150.151C414.34 150.151 415.292 150.345 416.18 150.732C417.08 151.108 417.861 151.632 418.521 152.305C419.194 152.965 419.718 153.746 420.094 154.646C420.481 155.535 420.675 156.486 420.675 157.5V175ZM442.088 175H440.96L439.149 172.488C438.705 172.887 438.232 173.263 437.73 173.616C437.241 173.958 436.722 174.259 436.175 174.521C435.628 174.772 435.064 174.972 434.483 175.12C433.914 175.268 433.333 175.342 432.74 175.342C431.453 175.342 430.239 175.125 429.1 174.692C427.972 174.259 426.981 173.633 426.126 172.812C425.283 171.981 424.617 170.967 424.127 169.771C423.637 168.574 423.392 167.213 423.392 165.686C423.392 164.262 423.637 162.957 424.127 161.772C424.617 160.576 425.283 159.551 426.126 158.696C426.981 157.842 427.972 157.181 429.1 156.714C430.239 156.235 431.453 155.996 432.74 155.996C433.333 155.996 433.919 156.07 434.5 156.218C435.082 156.366 435.646 156.571 436.192 156.833C436.739 157.096 437.258 157.403 437.748 157.756C438.249 158.11 438.716 158.491 439.149 158.901L440.96 156.731H442.088V175ZM437.389 165.686C437.389 165.048 437.263 164.433 437.013 163.84C436.773 163.236 436.443 162.707 436.021 162.251C435.6 161.784 435.104 161.414 434.535 161.14C433.976 160.855 433.378 160.713 432.74 160.713C432.102 160.713 431.498 160.821 430.929 161.038C430.37 161.254 429.881 161.573 429.459 161.995C429.049 162.416 428.724 162.94 428.485 163.567C428.246 164.182 428.126 164.889 428.126 165.686C428.126 166.484 428.246 167.196 428.485 167.822C428.724 168.438 429.049 168.956 429.459 169.377C429.881 169.799 430.37 170.118 430.929 170.334C431.498 170.551 432.102 170.659 432.74 170.659C433.378 170.659 433.976 170.522 434.535 170.249C435.104 169.964 435.6 169.594 436.021 169.138C436.443 168.671 436.773 168.141 437.013 167.549C437.263 166.945 437.389 166.324 437.389 165.686ZM454.837 175C453.709 175 452.65 174.789 451.659 174.368C450.667 173.935 449.796 173.348 449.044 172.607C448.303 171.855 447.717 170.984 447.284 169.993C446.862 169.001 446.651 167.942 446.651 166.814V161.379H444.378V156.731H446.651V149.417H451.3V156.731H458.375V161.379H451.3V166.814C451.3 167.304 451.391 167.765 451.573 168.198C451.756 168.62 452.006 168.99 452.325 169.309C452.644 169.628 453.02 169.884 453.453 170.078C453.886 170.26 454.347 170.352 454.837 170.352H458.375V175H454.837ZM465.672 175H461.007V149.417H465.672V157.5C466.231 157.078 466.806 156.782 467.398 156.611C467.991 156.429 468.595 156.338 469.21 156.338C470.338 156.338 471.397 156.554 472.389 156.987C473.38 157.409 474.24 157.996 474.969 158.748C475.71 159.488 476.291 160.36 476.712 161.362C477.145 162.354 477.362 163.413 477.362 164.541V175H472.662V164.541H472.696C472.696 164.062 472.605 163.612 472.423 163.191C472.241 162.758 471.99 162.382 471.671 162.063C471.352 161.744 470.982 161.493 470.56 161.311C470.139 161.129 469.688 161.038 469.21 161.038C468.72 161.038 468.259 161.129 467.826 161.311C467.393 161.493 467.017 161.744 466.698 162.063C466.379 162.382 466.128 162.758 465.946 163.191C465.764 163.612 465.672 164.062 465.672 164.541V175Z" fill="#D5CEFF"/>
<path d="M295.8 189.24C295.88 189.48 295.96 189.7 296.04 189.9C296.12 190.1 296.18 190.32 296.22 190.56C296.3 190.8 296.34 191.02 296.34 191.22C296.34 191.5 296.24 191.72 296.04 191.88C295.84 192.08 295.6 192.24 295.32 192.36C295.08 192.48 294.84 192.56 294.6 192.6C294.36 192.64 294.22 192.66 294.18 192.66C293.94 192.66 293.5 191.92 292.86 190.44C292.22 189 291.52 186.96 290.76 184.32C290.04 181.68 289.3 178.54 288.54 174.9C287.78 171.26 287.16 167.26 286.68 162.9C286.6 163.82 286.44 164.9 286.2 166.14C286 167.34 285.68 168.48 285.24 169.56C284.8 170.64 284.22 171.56 283.5 172.32C282.82 173.04 281.94 173.4 280.86 173.4C280.1 173.4 279.24 173 278.28 172.2C277.32 171.4 276.38 170.46 275.46 169.38C274.58 168.26 273.76 167.14 273 166.02C272.28 164.86 271.74 163.92 271.38 163.2C271.54 164.96 271.8 167.08 272.16 169.56C272.56 172.04 273.16 174.66 273.96 177.42C274.04 177.7 274.12 177.92 274.2 178.08C274.32 178.2 274.42 178.34 274.5 178.5C274.62 178.66 274.7 178.84 274.74 179.04C274.82 179.2 274.86 179.46 274.86 179.82C274.86 180.34 274.66 180.72 274.26 180.96C273.86 181.2 273.48 181.32 273.12 181.32C272.92 181.32 272.66 181.02 272.34 180.42C272.02 179.78 271.68 178.96 271.32 177.96C270.96 176.96 270.6 175.86 270.24 174.66C269.88 173.42 269.54 172.2 269.22 171C268.94 169.8 268.7 168.68 268.5 167.64C268.3 166.56 268.2 165.7 268.2 165.06C268.2 164.02 268.24 163.3 268.32 162.9C268.44 162.5 268.6 162.2 268.8 162V158.34C268.8 157.78 268.94 157.36 269.22 157.08C269.54 156.76 269.94 156.6 270.42 156.6C270.82 156.6 271.28 156.94 271.8 157.62C272.32 158.3 272.88 159.16 273.48 160.2C274.12 161.24 274.78 162.36 275.46 163.56C276.14 164.76 276.8 165.88 277.44 166.92C278.12 167.96 278.76 168.82 279.36 169.5C280 170.18 280.6 170.52 281.16 170.52C281.68 170.52 282.18 170.04 282.66 169.08C283.14 168.08 283.58 166.78 283.98 165.18C284.42 163.58 284.8 161.76 285.12 159.72C285.44 157.68 285.7 155.6 285.9 153.48C285.9 153.24 285.88 152.98 285.84 152.7C285.8 152.38 285.78 152.04 285.78 151.68C285.78 151.2 285.88 150.68 286.08 150.12C286.32 149.56 286.76 149.28 287.4 149.28C287.76 149.28 288.04 149.38 288.24 149.58C288.48 149.78 288.64 150.04 288.72 150.36C288.8 150.64 288.84 150.94 288.84 151.26C288.88 151.54 288.9 151.78 288.9 151.98C288.9 152.3 288.86 152.84 288.78 153.6C288.74 154.32 288.72 155.44 288.72 156.96C288.72 158.28 288.82 159.82 289.02 161.58C289.22 163.3 289.48 165.14 289.8 167.1C290.16 169.02 290.56 171.02 291 173.1C291.48 175.14 291.98 177.14 292.5 179.1C293.06 181.06 293.6 182.92 294.12 184.68C294.68 186.4 295.24 187.92 295.8 189.24ZM314.502 179.7C314.542 179.78 314.562 179.9 314.562 180.06C314.562 180.3 314.382 180.66 314.022 181.14C313.902 181.3 313.642 181.56 313.242 181.92C312.842 182.28 312.302 182.64 311.622 183C310.942 183.36 310.102 183.68 309.102 183.96C308.142 184.24 307.002 184.38 305.682 184.38C304.762 184.38 303.862 184.18 302.982 183.78C302.102 183.34 301.322 182.72 300.642 181.92C299.962 181.08 299.402 180.06 298.962 178.86C298.522 177.62 298.302 176.18 298.302 174.54C298.302 172.98 298.502 171.52 298.902 170.16C299.302 168.8 299.802 167.6 300.402 166.56C301.042 165.52 301.742 164.7 302.502 164.1C303.262 163.5 304.002 163.2 304.722 163.2C305.362 163.2 306.002 163.34 306.642 163.62C307.322 163.86 307.922 164.18 308.442 164.58C309.002 164.98 309.442 165.44 309.762 165.96C310.082 166.44 310.242 166.94 310.242 167.46C310.242 168.06 309.962 168.68 309.402 169.32C308.882 169.96 308.242 170.56 307.482 171.12C306.722 171.64 305.962 172.08 305.202 172.44C304.442 172.76 303.842 172.92 303.402 172.92C303.162 172.92 302.942 172.82 302.742 172.62C302.582 172.38 302.502 172.1 302.502 171.78C302.502 171.22 302.742 170.78 303.222 170.46C303.742 170.14 304.302 169.86 304.902 169.62C305.502 169.34 306.042 169.02 306.522 168.66C307.042 168.3 307.302 167.8 307.302 167.16C307.302 167.08 307.202 166.88 307.002 166.56C306.802 166.24 306.262 166.08 305.382 166.08C304.982 166.08 304.522 166.32 304.002 166.8C303.482 167.24 302.982 167.86 302.502 168.66C302.022 169.42 301.622 170.34 301.302 171.42C300.982 172.46 300.822 173.6 300.822 174.84C300.822 175.88 301.002 176.82 301.362 177.66C301.762 178.5 302.262 179.22 302.862 179.82C303.462 180.38 304.162 180.82 304.962 181.14C305.762 181.46 306.582 181.62 307.422 181.62C308.022 181.62 308.662 181.5 309.342 181.26C310.062 180.98 310.722 180.7 311.322 180.42C311.962 180.1 312.502 179.82 312.942 179.58C313.422 179.3 313.722 179.16 313.842 179.16C313.962 179.16 314.082 179.22 314.202 179.34C314.362 179.46 314.462 179.58 314.502 179.7Z" fill="#FEFFE2"/>
<defs>
<filter id="filter0_d" x="0" y="11" width="370" height="370" filterUnits="userSpaceOnUse" color-interpolation-filters="sRGB">
<feFlood flood-opacity="0" result="BackgroundImageFix"/>
<feColorMatrix in="SourceAlpha" type="matrix" values="0 0 0 0 0 0 0 0 0 0 0 0 0 0 0 0 0 0 127 0"/>
<feOffset dy="10"/>
<feGaussianBlur stdDeviation="5"/>
<feColorMatrix type="matrix" values="0 0 0 0 0 0 0 0 0 0 0 0 0 0 0 0 0 0 0.25 0"/>
<feBlend mode="normal" in2="BackgroundImageFix" result="effect1_dropShadow"/>
<feBlend mode="normal" in="SourceGraphic" in2="effect1_dropShadow" result="shape"/>
</filter>
<filter id="filter1_d" x="220" y="0" width="370" height="370" filterUnits="userSpaceOnUse" color-interpolation-filters="sRGB">
<feFlood flood-opacity="0" result="BackgroundImageFix"/>
<feColorMatrix in="SourceAlpha" type="matrix" values="0 0 0 0 0 0 0 0 0 0 0 0 0 0 0 0 0 0 127 0"/>
<feOffset dy="10"/>
<feGaussianBlur stdDeviation="5"/>
<feColorMatrix type="matrix" values="0 0 0 0 0 0 0 0 0 0 0 0 0 0 0 0 0 0 0.25 0"/>
<feBlend mode="normal" in2="BackgroundImageFix" result="effect1_dropShadow"/>
<feBlend mode="normal" in="SourceGraphic" in2="effect1_dropShadow" result="shape"/>
</filter>
</defs>
</svg>
